<?xml version="1.0" encoding="UTF-8"?>
<svg version="1.1" xmlns="http://www.w3.org/2000/svg" width="960" height="1014">
<path d="M0 0 C2.35396994 -0.00435493 4.70793846 -0.00954066 7.06190491 -0.01548767 C13.41754488 -0.02880634 19.77312512 -0.02946421 26.12877631 -0.02692437 C32.12963771 -0.02571316 38.13049094 -0.03194812 44.13134906 -0.03735783 C56.74680354 -0.04820088 69.3622312 -0.04608654 81.97768716 -0.03997298 C93.47367321 -0.03480928 104.96957438 -0.04605061 116.46554365 -0.0650712 C128.31769314 -0.08452815 140.16980265 -0.09269175 152.02196819 -0.08894795 C158.65670971 -0.08704743 165.29138952 -0.08968122 171.92612267 -0.10366249 C178.17172403 -0.11633274 184.41715689 -0.11421056 190.66275597 -0.1012516 C192.93936218 -0.098906 195.2159806 -0.10154701 197.49257278 -0.10987473 C239.34944603 -0.25180268 279.99767019 11.52526737 311.3996582 40.2746582 C312.19972447 41.27345442 312.99979074 42.27225063 313.82410145 43.3013134 C317.72930797 48.1650914 321.45862206 52.23174561 327.80818748 53.37375259 C333.15561769 53.92660651 338.49428041 53.80415329 343.86132812 53.69702148 C345.91432122 53.70022987 347.96731179 53.70875313 350.02026367 53.72215271 C355.56912545 53.74369946 361.11515169 53.69205045 366.66358733 53.62745142 C372.49189638 53.57284144 378.32001517 53.588197 384.14851379 53.59640503 C395.19229376 53.60178615 406.23491939 53.54796165 417.27840263 53.47118556 C433.44597375 53.36141906 449.61370712 53.34054937 465.78159809 53.31976128 C468.17848019 53.31654847 470.57536225 53.31330431 472.97224426 53.31002808 C474.14374427 53.30853126 475.31524427 53.30703445 476.52224427 53.30549228 C483.44047742 53.2946704 490.35837876 53.26695318 497.27648294 53.22356153 C501.59951704 53.19742369 505.92256658 53.17897429 510.24564362 53.16156197 C512.23326875 53.15156192 514.22088007 53.13799498 516.20845222 53.12037086 C531.64346791 52.98505706 546.72417317 53.7257842 561.7746582 57.4621582 C563.08418457 57.78361816 563.08418457 57.78361816 564.42016602 58.11157227 C605.62138536 68.62375634 640.63296876 94.96499797 662.82128906 131.22802734 C676.84199216 155.00932522 684.75352393 181.64200952 684.66035461 209.30218506 C684.66418016 210.53467963 684.66800571 211.76717421 684.67194718 213.03701711 C684.68040188 216.41398637 684.6800739 219.79073475 684.67576659 223.16769695 C684.67327908 226.82700903 684.68233846 230.48629655 684.68980408 234.14559937 C684.70249773 241.29791692 684.70435143 248.45019685 684.70200381 255.60252377 C684.70021435 261.42202417 684.7019837 267.24151322 684.70622826 273.06101227 C684.70682345 273.89207749 684.70741863 274.72314271 684.70803186 275.57939173 C684.70924373 277.26820109 684.71045786 278.95701045 684.71167424 280.64581981 C684.72252941 296.45352932 684.72039699 312.26121745 684.71428939 328.06892815 C684.7091231 342.49565849 684.7203717 356.92232124 684.73938761 371.34903821 C684.75881128 386.20019769 684.76701402 401.05132528 684.76326436 415.90249753 C684.76135904 424.22510837 684.76377416 432.54766174 684.7779789 440.87026215 C684.78995166 447.95623695 684.79123212 455.0421189 684.77918873 462.12809512 C684.77334083 465.73545736 684.77208549 469.34265027 684.78419113 472.95000076 C684.8302974 487.68181496 684.60339362 501.85280152 681.3996582 516.2746582 C681.19073598 517.22823589 680.98181376 518.18181358 680.76656055 519.16428757 C680.28823826 521.24525618 679.74594612 523.28719339 679.1496582 525.3371582 C678.93841309 526.07135986 678.72716797 526.80556152 678.50952148 527.56201172 C666.31113434 568.50498308 637.39255135 602.40737322 600.13671875 622.79736328 C573.75761301 636.82844619 545.74024848 641.43685482 516.18585205 641.40837097 C514.34071454 641.41024136 512.49557742 641.41254297 510.65044093 641.41523629 C505.60038672 641.42133291 500.55034911 641.42122321 495.50029206 641.42004192 C490.04532255 641.41983736 484.59035829 641.42536205 479.13539124 641.43009949 C468.45368982 641.43839578 457.77199393 641.4411539 447.09028956 641.44171187 C438.40081674 641.44218768 429.71134573 641.44424571 421.02187347 641.44741249 C396.35682234 641.45621767 371.69177498 641.46083838 347.02672234 641.46008202 C346.36251571 641.46006207 345.69830908 641.46004213 345.01397497 641.46002158 C343.67078561 641.45998114 342.32759625 641.45993934 340.98440688 641.45989619 C320.1109355 641.45928414 299.2374804 641.46677801 278.36401367 641.48046875 C254.88004692 641.49586556 231.3960891 641.50442009 207.91211677 641.50350553 C195.49080398 641.5031744 183.06950954 641.50588437 170.64820099 641.51668358 C160.06722868 641.52582408 149.48628302 641.52793497 138.90530846 641.52117416 C133.51515475 641.51792628 128.12505207 641.51778891 122.73490334 641.5265274 C80.53417026 641.59070915 80.53417026 641.59070915 62.3996582 639.2746582 C60.58571501 639.04322506 60.58571501 639.04322506 58.7351265 638.80711651 C56.086529 638.44161041 53.46623854 638.00960908 50.8371582 637.5246582 C49.90282959 637.35619385 48.96850098 637.18772949 48.00585938 637.01416016 C3.72520632 628.67648792 -38.10372652 609.29646397 -72.6003418 580.2746582 C-73.43009521 579.57808105 -73.43009521 579.57808105 -74.27661133 578.86743164 C-76.13902662 577.30007707 -77.99587269 575.72640488 -79.8503418 574.1496582 C-80.42937256 573.65852539 -81.00840332 573.16739258 -81.60498047 572.66137695 C-82.16548096 572.18055664 -82.72598145 571.69973633 -83.3034668 571.2043457 C-83.79492188 570.7839502 -84.28637695 570.36355469 -84.79272461 569.93041992 C-86.6003418 568.2746582 -86.6003418 568.2746582 -89.0899353 565.21650696 C-92.45380012 561.87295984 -95.13573317 561.56439747 -99.769104 561.4980011 C-101.15775665 561.52340218 -101.15775665 561.52340218 -102.57446289 561.54931641 C-103.5640097 561.54350555 -104.55355652 561.5376947 -105.5730896 561.53170776 C-108.84058366 561.51891545 -112.10640072 561.54763175 -115.3737793 561.57543945 C-117.65858631 561.57180287 -119.94339032 561.56509688 -122.22817993 561.5554657 C-128.249043 561.53638371 -134.26933015 561.55042377 -140.29016113 561.57397461 C-149.88982309 561.60831704 -159.48933513 561.60236739 -169.08900833 561.57784081 C-172.42123083 561.57549407 -175.75289902 561.5931815 -179.08505249 561.6131134 C-205.57234019 561.66926483 -228.16003981 556.10632025 -248.6003418 538.2746582 C-249.52073242 537.47995117 -249.52073242 537.47995117 -250.4597168 536.66918945 C-264.0347662 524.05933852 -274.94877747 503.4819728 -275.69549239 484.90783811 C-275.73832164 481.94848221 -275.74802706 478.99058463 -275.74751282 476.03091431 C-275.75118951 474.89368215 -275.75486619 473.75644999 -275.7586543 472.58475626 C-275.76967362 468.77126196 -275.77353205 464.95779493 -275.77734375 461.14428711 C-275.78307996 458.41077442 -275.79024428 455.67726578 -275.79725647 452.9437561 C-275.81698617 444.73847323 -275.82708343 436.5331892 -275.83598426 428.32788855 C-275.84037358 424.45774129 -275.84573878 420.58759538 -275.85097313 416.71744919 C-275.86798321 403.84112393 -275.88247491 390.9647995 -275.88972187 378.08846474 C-275.89163157 374.74965031 -275.89355193 371.41083589 -275.89550781 368.07202148 C-275.89599155 367.24223932 -275.89647529 366.41245716 -275.89697369 365.55753009 C-275.90526477 352.13123583 -275.93058706 338.70503093 -275.96308849 325.27877565 C-275.99623128 311.47427518 -276.0141772 297.66982 -276.01736611 283.86527956 C-276.01952472 276.12273195 -276.02817761 268.38031459 -276.05382729 260.63780594 C-276.07563333 254.04051382 -276.08353648 247.44338359 -276.0738605 240.84605952 C-276.06934389 237.48594224 -276.07326931 234.12642659 -276.09062195 230.76631165 C-276.17963141 212.49970529 -275.29566008 196.73714282 -266.6003418 180.2746582 C-265.88104492 178.84766602 -265.88104492 178.84766602 -265.1472168 177.3918457 C-254.80900398 158.17079954 -236.32337547 143.44949306 -215.52612305 136.9230957 C-203.97028446 133.61033729 -193.02730439 133.13792981 -181.1003418 133.2121582 C-179.69148922 133.21718287 -178.28263491 133.22174407 -176.8737793 133.22583008 C-173.44925542 133.2375579 -170.02482133 133.25397129 -166.6003418 133.2746582 C-166.5586084 132.66517334 -166.516875 132.05568848 -166.47387695 131.42773438 C-165.96303809 125.21490972 -164.81375631 119.53587307 -162.9753418 113.5871582 C-162.71100342 112.7221167 -162.44666504 111.8570752 -162.17431641 110.96582031 C-159.66390484 103.02241754 -156.40713901 95.67024221 -152.6003418 88.2746582 C-152.05635742 87.17895508 -151.51237305 86.08325195 -150.9519043 84.9543457 C-131.89354819 47.82186784 -97.95487065 20.40286559 -58.6003418 7.2746582 C-39.08560715 1.29475177 -20.28906479 -0.02494899 0 0 Z " fill="#798AFC" transform="translate(275.600341796875,372.725341796875)"/>
<path d="M0 0 C1.10768372 0.00111243 2.21536744 0.00222486 3.35661733 0.003371 C7.05803314 0.00839869 10.75938698 0.02074882 14.46078491 0.03314209 C17.11901869 0.03837698 19.77725083 0.04322561 22.43548584 0.0476532 C29.65061758 0.06083659 36.86571462 0.08170608 44.08082247 0.10421848 C48.59167346 0.11826987 53.10252793 0.13076322 57.61338425 0.14296722 C70.11922443 0.17707154 82.62505591 0.21303117 95.13086891 0.25606155 C95.93025634 0.2588096 96.72964376 0.26155764 97.55325504 0.26438896 C98.35447967 0.26714563 99.15570429 0.2699023 99.98120844 0.27274251 C101.60460892 0.27832775 103.22800941 0.28391016 104.85140991 0.28948975 C105.65666077 0.29225893 106.46191163 0.29502812 107.29156403 0.29788122 C120.33103307 0.34236675 133.37049654 0.37344543 146.41001566 0.39868954 C159.81910693 0.42483842 173.22812985 0.46212647 186.63715971 0.51050925 C194.15711302 0.53738906 201.67701349 0.55959767 209.19701004 0.56952667 C215.60183044 0.57803937 222.0065205 0.59682282 228.41126926 0.62863049 C231.67379032 0.64453501 234.93611193 0.65420532 238.19867706 0.65402794 C267.76829947 0.65899157 290.57567203 6.43107932 312.80599976 27.10247803 C322.91109135 37.73296433 329.77138026 51.08823435 333.80599976 65.10247803 C334.17725023 66.24052494 334.17725023 66.24052494 334.55600071 67.40156269 C337.96019924 79.43435973 337.23414274 91.86763408 337.21005249 104.26141357 C337.21576115 106.91390603 337.22262795 109.56637325 337.23085022 112.21885681 C337.24796837 118.65276717 337.2488926 125.08657956 337.24363732 131.52050676 C337.23958023 136.75651275 337.24105736 141.99249001 337.24638557 147.22849464 C337.247134 147.97643452 337.24788242 148.7243744 337.24865352 149.49497912 C337.25018516 151.01492002 337.25172351 152.53486091 337.25326849 154.0548018 C337.26696902 168.28114176 337.26157376 182.5074266 337.25008328 196.73376528 C337.24016002 209.71208521 337.25308019 222.69026238 337.27701747 235.66856029 C337.30147814 249.03260021 337.31099888 262.39657384 337.30436474 275.76063567 C337.3008871 283.24826414 337.30300728 290.73578301 337.32061577 298.22339439 C337.33542556 304.59942895 337.33586018 310.97527678 337.31854486 317.35130801 C337.31010259 320.59621453 337.30993296 323.84072469 337.32319641 327.08562469 C337.4349134 356.69698471 331.79053996 381.30688033 311.11849976 403.35247803 C292.88447132 420.67480504 269.70204634 428.2643837 244.8152771 428.24291992 C243.18649486 428.24737661 243.18649486 428.24737661 241.52480793 428.25192332 C237.89717649 428.260574 234.26957818 428.2621155 230.64193726 428.26361084 C228.0362084 428.26824163 225.43048021 428.27326664 222.82475281 428.27865601 C215.75206545 428.29220005 208.6793838 428.29825809 201.60668564 428.30266666 C197.18359 428.30543612 192.76049652 428.30967477 188.33740234 428.31417084 C176.07177366 428.32635908 163.80614669 428.33665881 151.54051208 428.34004593 C150.75646584 428.3402655 149.9724196 428.34048506 149.16461438 428.34071128 C148.37877542 428.34092956 147.59293645 428.34114784 146.78328419 428.34137273 C145.19108391 428.34181618 143.59888363 428.34226275 142.00668335 428.3427124 C140.8220236 428.34304455 140.8220236 428.34304455 139.61343133 428.3433834 C126.83069998 428.34732719 114.04802578 428.36477041 101.26531649 428.38807192 C88.11615941 428.41184631 74.96703092 428.42425056 61.81785202 428.42541385 C54.44535964 428.42632727 47.07294171 428.43199506 39.70046997 428.45023346 C32.75979102 428.46734411 25.81925496 428.4688418 18.87856102 428.46009445 C16.34065561 428.45932711 13.80274245 428.46362648 11.26485634 428.4735527 C-17.13853947 428.57806929 -41.06209098 424.40986041 -63.19400024 405.10247803 C-63.80759399 404.57267334 -64.42118774 404.04286865 -65.05337524 403.49700928 C-78.62842465 390.88715834 -89.54243592 370.30979263 -90.28915083 351.73565793 C-90.33198009 348.77630204 -90.34168551 345.81840446 -90.34117126 342.85873413 C-90.34484795 341.72150197 -90.34852464 340.58426982 -90.35231274 339.41257608 C-90.36333207 335.59908178 -90.3671905 331.78561476 -90.3710022 327.97210693 C-90.37673841 325.23859424 -90.38390273 322.5050856 -90.39091492 319.77157593 C-90.41064462 311.56629306 -90.42074188 303.36100902 -90.42964271 295.15570837 C-90.43403203 291.28556111 -90.43939723 287.41541521 -90.44463158 283.54526901 C-90.46164166 270.66894375 -90.47613335 257.79261933 -90.48338032 244.91628456 C-90.48529002 241.57747013 -90.48721038 238.23865571 -90.48916626 234.89984131 C-90.48965 234.07005915 -90.49013374 233.24027699 -90.49063214 232.38534991 C-90.49892322 218.95905566 -90.52424551 205.53285076 -90.55674694 192.10659547 C-90.58988972 178.302095 -90.60783565 164.49763982 -90.61102456 150.69309938 C-90.61318317 142.95055178 -90.62183606 135.20813442 -90.64748573 127.46562576 C-90.66929178 120.86833364 -90.67719493 114.27120341 -90.66751895 107.67387934 C-90.66300234 104.31376207 -90.66692776 100.95424642 -90.6842804 97.59413147 C-90.77328986 79.32752512 -89.88931853 63.56496265 -81.19400024 47.10247803 C-80.71446899 46.1511499 -80.23493774 45.19982178 -79.74087524 44.21966553 C-69.40266243 24.99861937 -50.91703392 10.27731289 -30.11978149 3.75091553 C-20.02688419 0.85754433 -10.43934425 -0.04843019 0 0 Z " fill="#464AC7" transform="translate(90.19400024414063,505.89752197265625)"/>
<path d="M0 0 C27.08698891 -0.04681846 54.17397171 -0.08203698 81.260993 -0.10362434 C93.83929234 -0.11391624 106.41756646 -0.12793652 118.99584961 -0.15087891 C129.96509159 -0.17087683 140.9343153 -0.18373158 151.903575 -0.18817699 C157.70622144 -0.19077356 163.50881562 -0.19683276 169.31144524 -0.21146011 C174.7852715 -0.22514539 180.25902454 -0.22920075 185.73286629 -0.22621536 C187.73013839 -0.22676067 189.72741322 -0.23067234 191.72467041 -0.23841095 C207.17190014 -0.29527197 222.3140058 0.44851703 237.375 4.1875 C238.24801758 4.40180664 239.12103516 4.61611328 240.02050781 4.83691406 C281.22172715 15.34909814 316.23331056 41.69033977 338.42163086 77.95336914 C352.44233395 101.73466702 360.35386572 128.36735132 360.26069641 156.02752686 C360.26452196 157.26002143 360.26834751 158.49251601 360.27228898 159.7623589 C360.28074367 163.13932816 360.2804157 166.51607654 360.27610838 169.89303875 C360.27362088 173.55235082 360.28268025 177.21163835 360.29014587 180.87094116 C360.30283953 188.02325872 360.30469323 195.17553864 360.30234561 202.32786557 C360.30055615 208.14736597 360.3023255 213.96685502 360.30657005 219.78635406 C360.30716524 220.61741929 360.30776043 221.44848451 360.30837366 222.30473353 C360.30958552 223.99354289 360.31079966 225.68235225 360.31201603 227.37116161 C360.32287121 243.17887112 360.32073879 258.98655925 360.31463119 274.79426995 C360.30946489 289.22100028 360.3207135 303.64766304 360.33972941 318.07438001 C360.35915308 332.92553949 360.36735582 347.77666707 360.36360615 362.62783933 C360.36170083 370.95045017 360.36411596 379.27300353 360.37832069 387.59560394 C360.39029346 394.68157875 360.39157391 401.76746069 360.37953053 408.85343692 C360.37368263 412.46079916 360.37242729 416.06799206 360.38453293 419.67534256 C360.4306392 434.40715675 360.20373541 448.57814332 357 463 C356.79107778 463.95357769 356.58215555 464.90715538 356.36690235 465.88962936 C355.88858006 467.97059797 355.34628792 470.01253519 354.75 472.0625 C354.53875488 472.79670166 354.32750977 473.53090332 354.10986328 474.28735352 C341.91147613 515.23032488 312.99289314 549.13271502 275.73706055 569.52270508 C249.30267191 583.58319304 221.24517777 588.17203566 191.63142395 588.12025452 C189.76989483 588.12069107 187.90836577 588.12156751 186.04683703 588.12284368 C180.95237533 588.12507219 175.85793478 588.12108991 170.76347578 588.11606562 C165.26191356 588.11173765 159.7603525 588.11320921 154.25878906 588.1139679 C144.73385652 588.11449164 135.20893083 588.11136041 125.68400002 588.10573006 C111.91263425 588.09759487 98.14127179 588.09499776 84.36990388 588.09374207 C62.0254908 588.09155472 39.68108091 588.08491185 17.33666992 588.07543945 C-4.36580384 588.06624983 -26.06827663 588.05916876 -47.77075195 588.05493164 C-48.44013627 588.05480011 -49.10952059 588.05466859 -49.79918928 588.05453308 C-56.52164002 588.05321452 -63.24409077 588.05193871 -69.96654152 588.05069422 C-126.31103025 588.04025946 -182.65551493 588.02261898 -239 588 C-239 587.67 -239 587.34 -239 587 C-102.05 586.67 34.9 586.34 176 586 C168.74 584.35 161.48 582.7 154 581 C130.1845852 573.01128491 109.56491853 562.01547715 91 545 C90.46133301 544.50661133 89.92266602 544.01322266 89.36767578 543.50488281 C60.28036343 516.48105151 41.85328936 478.13484645 39.81407082 438.37481201 C39.74362703 434.65144994 39.73020005 430.93273172 39.74171448 427.20872498 C39.73885096 425.7842755 39.73510819 424.35982757 39.73057598 422.93538243 C39.72070381 419.06677327 39.72293908 415.19825594 39.72730291 411.32964027 C39.72979964 407.13924936 39.72068455 402.94888136 39.71292114 398.75849915 C39.70092323 391.50856049 39.69577067 384.25864373 39.69503975 377.0086956 C39.69370789 366.50277274 39.67854139 355.99690256 39.65954458 345.49099839 C39.62875589 328.41059075 39.60456779 311.33018177 39.58666992 294.24975586 C39.58559724 293.2292565 39.58452456 292.20875714 39.58341938 291.15733356 C39.57160815 279.78113941 39.56140056 268.40494472 39.55297852 257.02874756 C39.54990455 252.90677896 39.54681575 248.78481037 39.54370117 244.6628418 C39.54255316 243.13716068 39.54255316 243.13716068 39.54138196 241.58065771 C39.52826135 224.56884776 39.50356866 207.55707599 39.46995777 190.54529434 C39.44976723 180.07778792 39.43936456 169.6103634 39.44194698 159.14283735 C39.44298886 151.95839077 39.43323683 144.77400864 39.41530795 137.58958458 C39.40535066 133.45719103 39.40003886 129.32494023 39.40807533 125.19253922 C39.46738162 93.79396872 39.46738162 93.79396872 33.25 63.125 C32.86593994 61.83988525 32.86593994 61.83988525 32.47412109 60.52880859 C29.95758967 52.38155706 26.76096848 44.64498713 23 37 C22.54004639 36.05350586 22.54004639 36.05350586 22.07080078 35.08789062 C16.68436455 24.13072329 10.17320977 13.99245587 2.19921875 4.72265625 C0 2 0 2 0 0 Z " fill="#604FDD" transform="translate(600,426)"/>
<path d="M0 0 C0.7110791 0.16628906 1.4221582 0.33257812 2.15478516 0.50390625 C42.12862844 9.91566791 77.92309327 35.29541271 100 70 C112.28911315 90.02992613 121.26896961 112.52023222 124 136 C124.10957031 136.81210938 124.21914063 137.62421875 124.33203125 138.4609375 C129.07287907 179.5482853 117.56035974 222.46517779 92 255 C77.41508732 273.3654063 60.64809214 288.22875603 39.77246094 299.07275391 C38.19059382 299.90029265 36.62884051 300.7660211 35.0703125 301.63671875 C16.79290039 311.50030801 -5.16096408 317.00594205 -25.8828125 317.23828125 C-26.61107742 317.24812042 -27.33934235 317.25795959 -28.0896759 317.26809692 C-64.33713673 317.65676445 -98.00610615 310.32879843 -128 289 C-128.55719727 288.60506348 -129.11439453 288.21012695 -129.68847656 287.80322266 C-150.2465708 272.98599104 -166.10193629 254.23961797 -178 232 C-178.50917969 231.10925781 -179.01835937 230.21851563 -179.54296875 229.30078125 C-198.66158905 194.19017829 -201.30040597 149.69796889 -190.234375 111.7421875 C-186.58626104 99.94594583 -182.14912869 88.71308695 -176 78 C-175.43176514 77.00347412 -175.43176514 77.00347412 -174.85205078 75.98681641 C-169.16323041 66.14965509 -162.73729208 57.3174077 -155 49 C-154.43651855 48.39269043 -153.87303711 47.78538086 -153.29248047 47.15966797 C-144.6320524 37.93427585 -135.54915859 29.98819063 -125 23 C-124.4131543 22.60619141 -123.82630859 22.21238281 -123.22167969 21.80664062 C-107.69364854 11.5235185 -90.07382307 4.35498052 -72 0 C-70.74960937 -0.31839844 -69.49921875 -0.63679687 -68.2109375 -0.96484375 C-47.09946997 -5.69523578 -20.94266792 -5.25154868 0 0 Z " fill="#8C8DF7" transform="translate(409,3)"/>
<path d="M0 0 C2.71100667 2.2843231 5.3369932 4.65213504 7.93969727 7.05859375 C8.45129395 7.5263623 8.96289062 7.99413086 9.48999023 8.47607422 C31.55203749 28.85880293 44.80523425 55.61854322 49.93969727 85.05859375 C50.1240332 86.06792969 50.30836914 87.07726562 50.49829102 88.1171875 C52.31026903 104.29670803 51.89813944 121.24085115 47.93969727 137.05859375 C47.77872559 137.73325684 47.61775391 138.40791992 47.4519043 139.10302734 C39.0076323 173.86163014 16.25941095 202.70831971 -13.83374023 221.4296875 C-31.7295764 232.20909032 -53.07025019 239.32210068 -74.06030273 240.05859375 C-75.97069336 240.1359375 -75.97069336 240.1359375 -77.91967773 240.21484375 C-95.52361668 240.69126703 -112.528518 238.11964326 -129.06030273 232.05859375 C-130.07995117 231.68992187 -131.09959961 231.32125 -132.15014648 230.94140625 C-164.40136786 218.38723954 -190.78164177 193.08706514 -205.28955078 161.75634766 C-207.71987603 156.22646811 -209.6686469 150.58204696 -211.43530273 144.80859375 C-211.79350098 143.64034058 -211.79350098 143.64034058 -212.15893555 142.44848633 C-215.5934946 130.52321021 -216.44115509 118.67378995 -216.37280273 106.30859375 C-216.37064758 105.60482605 -216.36849243 104.90105835 -216.36627197 104.17596436 C-216.18051887 66.33494379 -200.53101063 34.51355713 -174.63842773 7.53515625 C-128.36932645 -36.65981291 -49.81903487 -40.47291039 0 0 Z " fill="#7778F1" transform="translate(856.060302734375,133.94140625)"/>
<path d="M0 0 C61.38 0 122.76 0 186 0 C186 14.85 186 29.7 186 45 C164.55 45 143.1 45 121 45 C121 110.67 121 176.34 121 244 C102.85 244 84.7 244 66 244 C66 178.33 66 112.66 66 45 C44.22 45 22.44 45 0 45 C0 30.15 0 15.3 0 0 Z " fill="#FEFEFE" transform="translate(120,598)"/>
</svg>
