<?xml version="1.0" encoding="UTF-8"?>
<svg version="1.1" xmlns="http://www.w3.org/2000/svg" width="960" height="894">
<path d="M0 0 C1.12535156 0.29753174 1.12535156 0.29753174 2.2734375 0.60107422 C26.41500637 7.16378012 47.15984542 20.81285255 65 38 C65.70511719 38.64195313 66.41023437 39.28390625 67.13671875 39.9453125 C85.99464974 57.61745067 97.87879097 83.29774388 104 108 C104.24991699 109.00329346 104.24991699 109.00329346 104.50488281 110.02685547 C109.30593974 130.38910211 109.07306713 153.71236442 104 174 C103.81195801 174.7739209 103.62391602 175.5478418 103.43017578 176.34521484 C96.99490149 202.00951874 84.42358501 224.14482296 66 243 C64.81857422 244.27423828 64.81857422 244.27423828 63.61328125 245.57421875 C38.41206279 272.10839422 2.03993103 285.49518915 -33.9921875 287.1875 C-41.2475958 287.30243716 -48.35319481 286.89158526 -55.5625 286.125 C-56.66936157 286.00753418 -56.66936157 286.00753418 -57.79858398 285.88769531 C-62.4933507 285.32926573 -66.31038338 284.33989046 -71 283 C-71 298.51 -71 314.02 -71 330 C-65.66907196 329.99333817 -60.33814392 329.98667633 -54.84567261 329.97981262 C-5.94409077 329.92009769 42.95748674 329.87532016 91.85909707 329.84680401 C98.27015984 329.84305196 104.68122252 329.83916898 111.09228516 329.83520508 C113.00675132 329.83402468 113.00675132 329.83402468 114.95989357 329.83282044 C135.61746752 329.81977156 156.2750164 329.79612055 176.93257548 329.76854161 C198.13393417 329.74047304 219.33527975 329.72382066 240.53665626 329.71773452 C253.6158078 329.7136211 266.69488844 329.70063569 279.77401815 329.6762506 C288.74657041 329.66037551 297.71908608 329.65560367 306.69165136 329.65949587 C311.8659652 329.66141464 317.04015527 329.6585024 322.21444702 329.64238358 C326.95849585 329.62771346 331.70233844 329.62709354 336.44639705 329.63730332 C338.15592567 329.63856395 339.86546752 329.63481894 341.57497038 329.62535045 C355.05214366 329.55508935 368.54927419 329.99137614 380 338 C380.61230469 338.41894531 381.22460938 338.83789062 381.85546875 339.26953125 C389.75125682 345.31773977 394.61210502 354.48270267 397 364 C397.39847972 367.51977467 397.41023469 370.99949159 397.38768005 374.53910828 C397.39575836 376.07706746 397.39575836 376.07706746 397.40399987 377.64609653 C397.418245 381.06326065 397.4111838 384.4800355 397.40405273 387.8972168 C397.40975849 390.35543121 397.41672354 392.81364298 397.42485046 395.27185059 C397.44092323 401.24779306 397.44288403 407.22358416 397.43763756 413.19953343 C397.43358441 418.06613156 397.43505301 422.93269875 397.44038582 427.79929543 C397.44113424 428.49389051 397.44188266 429.18848559 397.44265376 429.904129 C397.4441854 431.31567012 397.44572375 432.72721122 397.44726873 434.13875232 C397.46098554 447.36706014 397.4555646 460.59530877 397.44408352 473.82361523 C397.43417886 485.87801155 397.44704516 497.93225375 397.47101771 509.98662629 C397.49551796 522.40134961 397.50498828 534.81600151 397.49836498 547.23074847 C397.49489341 554.18536369 397.49696539 561.1398609 397.51461601 568.09445763 C397.53104501 574.64861828 397.52598783 581.20253645 397.50731087 587.75670624 C397.50365883 590.14534517 397.50663285 592.53400622 397.51719666 594.92262459 C397.69551121 638.62444302 383.4292394 677.23075739 353 709 C352.30777344 709.74378906 351.61554687 710.48757813 350.90234375 711.25390625 C323.24128743 740.11979987 282.91347392 754.95867481 243.484375 755.99609375 C219.56467335 756.23219992 196.92782552 751.39377217 175 742 C174.10861328 743.74410156 174.10861328 743.74410156 173.19921875 745.5234375 C163.91641231 763.52749086 153.7644826 780.24152408 141 796 C140.50918945 796.6079541 140.01837891 797.2159082 139.51269531 797.84228516 C128.39650175 811.49104414 116.00603136 824.30968218 102 835 C100.82389253 835.92797212 99.64813448 836.8563872 98.47265625 837.78515625 C66.87946404 862.44355216 29.31965107 878.65788198 -10 886 C-10.83112305 886.16226074 -11.66224609 886.32452148 -12.51855469 886.49169922 C-70.20647349 897.3883061 -133.54633843 881.17097762 -182 849 C-203.95486359 833.98579569 -224.80774209 816.21445555 -241 795 C-241.92797212 793.82389253 -242.8563872 792.64813448 -243.78515625 791.47265625 C-264.08523033 765.44827929 -290 723.24348484 -290 689 C-291.79375045 689.00276538 -291.79375045 689.00276538 -293.62373829 689.00558662 C-322.03879475 689.04894395 -350.45385035 689.08190185 -378.86893262 689.10213066 C-382.36973444 689.10463194 -385.87053618 689.1072206 -389.37133789 689.10986328 C-390.41671555 689.11065021 -390.41671555 689.11065021 -391.48321196 689.11145304 C-402.75341376 689.12014509 -414.02359506 689.13590843 -425.29378472 689.15430559 C-436.86629398 689.17303807 -448.43879133 689.18397419 -460.01131505 689.18817699 C-466.50793828 689.19078178 -473.00451509 689.1968939 -479.50112343 689.21146011 C-485.62005877 689.22506796 -491.7389287 689.22921614 -497.85787773 689.22621536 C-500.09955323 689.22676409 -502.34123099 689.23072237 -504.58289337 689.23841095 C-507.65322669 689.24842229 -510.72331594 689.24594636 -513.7936554 689.24050903 C-515.11131636 689.24924756 -515.11131636 689.24924756 -516.45559675 689.25816262 C-525.11976105 689.21694293 -533.63237654 688.21904473 -541.375 684.125 C-542.80972656 683.38636719 -542.80972656 683.38636719 -544.2734375 682.6328125 C-548.92377107 679.84794226 -552.42205094 676.86035982 -555.5625 672.4375 C-556.39974609 671.29087891 -556.39974609 671.29087891 -557.25390625 670.12109375 C-563.0518601 659.75741337 -563.57413868 650.11974485 -563.50793457 638.54064941 C-563.51254898 636.77770044 -563.51890552 635.01475532 -563.52684355 633.25181818 C-563.54348574 628.42933007 -563.53531378 623.60716007 -563.52289867 618.78467107 C-563.51382955 613.57531319 -563.52782715 608.3660091 -563.53881836 603.15666199 C-563.55658827 592.96021988 -563.55277038 582.76389567 -563.5411678 572.56744897 C-563.53212775 564.27927521 -563.53091195 555.99113444 -563.53526306 547.70295715 C-563.53587599 546.52254424 -563.53648893 545.34213134 -563.53712043 544.12594834 C-563.53839936 541.72782925 -563.53969621 539.32971017 -563.5410108 536.93159109 C-563.55241212 514.45378589 -563.53930989 491.97604599 -563.51780933 469.4982515 C-563.49993878 450.21869096 -563.50304301 430.93922677 -563.52148438 411.65966797 C-563.54289896 389.26131972 -563.55131353 366.86302867 -563.53903532 344.46467161 C-563.53776115 342.07546203 -563.53650366 339.68625244 -563.53526306 337.29704285 C-563.53464596 336.12156046 -563.53402886 334.94607807 -563.53339306 333.73497501 C-563.52994193 325.45845995 -563.5357634 317.18198123 -563.54518127 308.9054718 C-563.55640915 298.81672468 -563.55334454 288.72810202 -563.5320583 278.63936913 C-563.52155859 273.49368321 -563.51740776 268.34820468 -563.53065491 263.20252037 C-563.54260683 258.48859475 -563.53597007 253.77506802 -563.5147447 249.06117839 C-563.51029051 247.35944247 -563.51251821 245.65767259 -563.52224785 243.95595866 C-563.59603128 229.97461535 -561.34455069 218.8987778 -552 208 C-540.01098568 196.19224508 -524.4509017 195.84420553 -508.6683197 195.87974548 C-507.22099669 195.87930888 -505.77367375 195.87843232 -504.32635123 195.87715632 C-500.36752591 195.87492894 -496.40872784 195.87890851 -492.44990599 195.88393438 C-488.17395063 195.888264 -483.89799673 195.88679067 -479.62203979 195.8860321 C-472.21970698 195.88550846 -464.817383 195.8886386 -457.41505241 195.89426994 C-446.71260353 195.90240655 -436.0101589 195.90500238 -425.30770726 195.90625793 C-407.94252182 195.90844506 -390.57734109 195.91509594 -373.2121582 195.92456055 C-356.34627303 195.93374345 -339.48038913 195.94081999 -322.61450195 195.94506836 C-321.57440501 195.94533108 -320.53430806 195.94559381 -319.46269303 195.94586449 C-314.24468788 195.94716955 -309.02668272 195.94843326 -303.80867755 195.94967639 C-260.53911511 195.96003843 -217.2695578 195.97764751 -174 196 C-174.17226608 195.46698273 -174.34453217 194.93396545 -174.52201843 194.38479614 C-175.31399986 191.92699155 -176.1003843 189.46742929 -176.88671875 187.0078125 C-177.15770386 186.16968018 -177.42868896 185.33154785 -177.70788574 184.46801758 C-188.57655007 150.36603354 -186.46630865 111.24230875 -170.55078125 79 C-170.03902344 78.01 -169.52726562 77.02 -169 76 C-168.47792969 74.948125 -167.95585937 73.89625 -167.41796875 72.8125 C-150.10556071 39.07965811 -119.77214738 14.50387526 -84.1875 2.125 C-57.79272015 -6.14118376 -26.7962057 -7.40694088 0 0 Z " fill="#4B53BA" transform="translate(563,4)"/>
<path d="M0 0 C51.48368498 -0.06869341 102.96736532 -0.12154266 154.45108712 -0.15319599 C160.53168186 -0.15694803 166.6122765 -0.160831 172.69287109 -0.16479492 C174.50864697 -0.16597532 174.50864697 -0.16597532 176.36110519 -0.16717956 C195.95170301 -0.1802271 215.54227437 -0.20387737 235.1328565 -0.23145839 C255.24036311 -0.25953069 275.34785588 -0.27618012 295.45538127 -0.28226548 C307.85892627 -0.28637813 320.26239648 -0.29935933 332.66591845 -0.3237494 C341.1759259 -0.3396291 349.68589477 -0.34439529 358.19591595 -0.34050413 C363.10289728 -0.33858608 368.00974807 -0.34148938 372.91670609 -0.35761642 C377.41650262 -0.37229672 381.91608176 -0.3729 386.41588865 -0.36269668 C388.03658902 -0.36143703 389.65730338 -0.36517338 391.27797653 -0.37464955 C404.51919841 -0.44751721 417.78677056 0.15748081 429 8 C429.61230469 8.41894531 430.22460938 8.83789062 430.85546875 9.26953125 C438.75125682 15.31773977 443.61210502 24.48270267 446 34 C446.39847972 37.51977467 446.41023469 40.99949159 446.38768005 44.53910828 C446.39575836 46.07706746 446.39575836 46.07706746 446.40399987 47.64609653 C446.418245 51.06326065 446.4111838 54.4800355 446.40405273 57.8972168 C446.40975849 60.35543121 446.41672354 62.81364298 446.42485046 65.27185059 C446.44092323 71.24779306 446.44288403 77.22358416 446.43763756 83.19953343 C446.43358441 88.06613156 446.43505301 92.93269875 446.44038582 97.79929543 C446.44113424 98.49389051 446.44188266 99.18848559 446.44265376 99.904129 C446.4441854 101.31567012 446.44572375 102.72721122 446.44726873 104.13875232 C446.46098554 117.36706014 446.4555646 130.59530877 446.44408352 143.82361523 C446.43417886 155.87801155 446.44704516 167.93225375 446.47101771 179.98662629 C446.49551796 192.40134961 446.50498828 204.81600151 446.49836498 217.23074847 C446.49489341 224.18536369 446.49696539 231.1398609 446.51461601 238.09445763 C446.53104501 244.64861828 446.52598783 251.20253645 446.50731087 257.75670624 C446.50365883 260.14534517 446.50663285 262.53400622 446.51719666 264.92262459 C446.69551121 308.62444302 432.4292394 347.23075739 402 379 C401.30777344 379.74378906 400.61554687 380.48757813 399.90234375 381.25390625 C372.24128743 410.11979987 331.91347392 424.95867481 292.484375 425.99609375 C268.56467335 426.23219992 245.92782552 421.39377217 224 412 C223.40574219 413.16273438 222.81148437 414.32546875 222.19921875 415.5234375 C212.91641231 433.52749086 202.7644826 450.24152408 190 466 C189.50918945 466.6079541 189.01837891 467.2159082 188.51269531 467.84228516 C177.39650175 481.49104414 165.00603136 494.30968218 151 505 C149.82389253 505.92797212 148.64813448 506.8563872 147.47265625 507.78515625 C115.87946404 532.44355216 78.31965107 548.65788198 39 556 C38.16887695 556.16226074 37.33775391 556.32452148 36.48144531 556.49169922 C-21.20647349 567.3883061 -84.54633843 551.17097762 -133 519 C-154.95486359 503.98579569 -175.80774209 486.21445555 -192 465 C-192.92797212 463.82389253 -193.8563872 462.64813448 -194.78515625 461.47265625 C-214.88558601 435.70422019 -242.09986093 392.09568875 -241 358 C-239.14248022 361.36161766 -238.14044082 364.7407919 -237.125 368.4375 C-236.77308594 369.68917969 -236.42117188 370.94085937 -236.05859375 372.23046875 C-235.70925781 373.47441406 -235.35992187 374.71835937 -235 376 C-232.9039257 383.37709265 -230.4903121 390.59005434 -227.75 397.75 C-227.37331177 398.74821777 -227.37331177 398.74821777 -226.98901367 399.76660156 C-224.85470448 405.23277976 -222.37325093 410.5200754 -219.86425781 415.82128906 C-219.4924942 416.60891632 -219.12073059 417.39654358 -218.73770142 418.20803833 C-217.82605716 420.13912817 -216.91315475 422.06962397 -216 424 C-192.86856925 424.07018126 -169.73715615 424.12303281 -146.60564041 424.15543652 C-135.86449874 424.17088418 -125.12342334 424.19193346 -114.38232422 424.22631836 C-105.01686931 424.25628511 -95.65146243 424.27559026 -86.28596091 424.28226548 C-81.3301904 424.28616543 -76.37455723 424.29528688 -71.41883087 424.31719017 C-66.74688667 424.33767039 -62.07513539 424.34381064 -57.40315056 424.33932304 C-55.6956445 424.34014311 -53.98813146 424.34603966 -52.28066444 424.35761642 C-37.7060067 424.45152186 -24.35807017 423.33453124 -13 413.21875 C-5.13043676 404.94214039 -0.76021691 393.41225253 -0.73828697 382.06350803 C-0.73429091 381.39865376 -0.73029485 380.73379949 -0.72617769 380.04879811 C-0.71524113 377.82921359 -0.71839931 375.60987994 -0.7215271 373.39027405 C-0.7165221 371.77968247 -0.7106457 370.1690934 -0.70397437 368.55850786 C-0.68818512 364.13909819 -0.68474427 359.71975211 -0.68332577 355.30031765 C-0.67962986 350.53214325 -0.66447341 345.76400366 -0.65071106 340.99584961 C-0.62844045 332.73679532 -0.61342596 324.47775343 -0.60334396 316.21867561 C-0.58875662 304.27744881 -0.56321961 292.33626517 -0.53501268 280.39506369 C-0.48954573 261.02111834 -0.4529305 241.64716678 -0.421875 222.27319336 C-0.39168907 203.4535208 -0.35733859 184.63386345 -0.31738281 165.81420898 C-0.31492126 164.65410677 -0.31245972 163.49400455 -0.30992357 162.29874773 C-0.29754896 156.4788383 -0.28509243 150.65892906 -0.27259517 144.83901989 C-0.16902881 96.55936781 -0.07982507 48.27969677 0 0 Z " fill="#7A82EA" transform="translate(514,334)"/>
<path d="M0 0 C25.96533503 -0.07018997 51.93065576 -0.12303707 77.89606667 -0.15543652 C89.95320438 -0.17088233 102.01028302 -0.19192808 114.06738281 -0.22631836 C124.58063466 -0.25629076 135.0938437 -0.2755916 145.60713708 -0.28226548 C151.16994488 -0.28616447 156.73263028 -0.29527982 162.29539871 -0.31719017 C167.54024513 -0.3376793 172.78491968 -0.34380884 178.02980232 -0.33932304 C179.94609959 -0.34014271 181.86240311 -0.34603382 183.77866554 -0.35761642 C197.85656452 -0.43847454 212.0001007 -0.39271514 224 8 C224.61230469 8.41894531 225.22460938 8.83789062 225.85546875 9.26953125 C233.75125682 15.31773977 238.61210502 24.48270267 241 34 C241.39847972 37.51977467 241.41023469 40.99949159 241.38768005 44.53910828 C241.39575836 46.07706746 241.39575836 46.07706746 241.40399987 47.64609653 C241.418245 51.06326065 241.4111838 54.4800355 241.40405273 57.8972168 C241.40975849 60.35543121 241.41672354 62.81364298 241.42485046 65.27185059 C241.44092323 71.24779306 241.44288403 77.22358416 241.43763756 83.19953343 C241.43358441 88.06613156 241.43505301 92.93269875 241.44038582 97.79929543 C241.44113424 98.49389051 241.44188266 99.18848559 241.44265376 99.904129 C241.4441854 101.31567012 241.44572375 102.72721122 241.44726873 104.13875232 C241.46098554 117.36706014 241.4555646 130.59530877 241.44408352 143.82361523 C241.43417886 155.87801155 241.44704516 167.93225375 241.47101771 179.98662629 C241.49551796 192.40134961 241.50498828 204.81600151 241.49836498 217.23074847 C241.49489341 224.18536369 241.49696539 231.1398609 241.51461601 238.09445763 C241.53104501 244.64861828 241.52598783 251.20253645 241.50731087 257.75670624 C241.50365883 260.14534517 241.50663285 262.53400622 241.51719666 264.92262459 C241.69551121 308.62444302 227.4292394 347.23075739 197 379 C196.30777344 379.74378906 195.61554688 380.48757813 194.90234375 381.25390625 C167.24128743 410.11979987 126.91347392 424.95867481 87.484375 425.99609375 C66.68622937 426.20138772 46.14191064 422.75479907 26.6875 415.375 C25.92203857 415.0860083 25.15657715 414.7970166 24.36791992 414.49926758 C22.53785923 413.75998839 20.76155445 412.89027063 19 412 C17.85983866 408.57951598 18.08178512 408.15492997 19.44140625 405 C19.77495117 404.20529297 20.10849609 403.41058594 20.45214844 402.59179688 C20.81856445 401.73650391 21.18498047 400.88121094 21.5625 400 C28.30439294 383.65637522 32.95833787 367.41168918 36 350 C36.21527344 348.7934375 36.43054688 347.586875 36.65234375 346.34375 C39.36414168 330.03337411 39.16104214 313.67073319 39.17470181 297.18794978 C39.17864959 293.68624079 39.18822316 290.18454589 39.19691467 286.68284607 C39.21653843 278.25697651 39.22672019 269.83110599 39.23564246 261.40521935 C39.23915876 258.22619106 39.24330424 255.04716374 39.24748212 251.86813626 C39.26592289 237.83492202 39.2816763 223.80170774 39.28938007 209.76848316 C39.29128956 206.34606233 39.29320998 202.92364151 39.29516602 199.5012207 C39.29589163 198.22547878 39.29589163 198.22547878 39.2966319 196.92396428 C39.30494429 183.12621021 39.33031314 169.32854246 39.36274669 155.53082613 C39.3958395 141.33624231 39.41383022 127.14170243 39.41702431 112.94707984 C39.41918567 104.98851271 39.42788116 97.03007211 39.45348549 89.07154274 C39.47522161 82.30046318 39.48322804 75.52954101 39.47351871 68.75843052 C39.46898449 65.30781831 39.47080903 61.85753071 39.49028015 58.40696335 C39.50799299 54.65843172 39.50089487 50.9107182 39.48774719 47.16218567 C39.49871644 46.08318349 39.50968568 45.00418131 39.52098733 43.8924821 C39.42039185 31.97602207 35.21275871 21.90925632 27.2578125 13.0625 C19.7628 5.84738424 10.03953516 2.84058145 0 1 C0 0.67 0 0.34 0 0 Z " fill="#5059C9" transform="translate(719,334)"/>
<path d="M0 0 C0.75023437 0.19835449 1.50046875 0.39670898 2.2734375 0.60107422 C26.41500637 7.16378012 47.15984542 20.81285255 65 38 C65.70511719 38.64195313 66.41023437 39.28390625 67.13671875 39.9453125 C85.99464974 57.61745067 97.87879097 83.29774388 104 108 C104.24991699 109.00329346 104.24991699 109.00329346 104.50488281 110.02685547 C109.30593974 130.38910211 109.07306713 153.71236442 104 174 C103.81195801 174.7739209 103.62391602 175.5478418 103.43017578 176.34521484 C96.99490149 202.00951874 84.42358501 224.14482296 66 243 C65.21238281 243.84949219 64.42476562 244.69898438 63.61328125 245.57421875 C38.57062942 271.94144059 1.50409279 286.21354157 -34.51953125 287.15234375 C-45.13569024 287.28810325 -45.13569024 287.28810325 -49 286 C-49.00546844 285.04731987 -49.00546844 285.04731987 -49.01104736 284.07539368 C-49.05317465 277.40659255 -49.12272776 270.73846044 -49.20751953 264.07006836 C-49.23557594 261.58836592 -49.2568659 259.10657666 -49.27099609 256.62475586 C-49.2926386 253.03715044 -49.33939826 249.45057224 -49.390625 245.86328125 C-49.39246796 244.22496086 -49.39246796 244.22496086 -49.39434814 242.55354309 C-49.64170243 229.25521829 -53.46937745 217.88841231 -62.7265625 208.19140625 C-71.69243856 199.98292154 -82.24324166 197.71355241 -94.09985352 197.68115234 C-94.95948196 197.67110672 -95.81911041 197.6610611 -96.70478821 197.65071106 C-99.51282148 197.62011122 -102.32076046 197.60290913 -105.12890625 197.5859375 C-107.08903298 197.56720714 -109.04915181 197.54763236 -111.00926208 197.5272522 C-116.14327312 197.47612227 -121.27731024 197.43639456 -126.41143799 197.39910889 C-131.66042431 197.35894871 -136.90930392 197.3079114 -142.15820312 197.2578125 C-152.4387269 197.16128007 -162.71931121 197.07680328 -173 197 C-173.63956801 195.43024047 -174.27619703 193.85928333 -174.91162109 192.2878418 C-175.26646576 191.41314743 -175.62131042 190.53845306 -175.98690796 189.63725281 C-188.74738708 156.4195312 -186.63851177 118.03470001 -173.5234375 85.31640625 C-172.10455703 82.15617248 -170.59058765 79.07700583 -169 76 C-168.47792969 74.948125 -167.95585937 73.89625 -167.41796875 72.8125 C-150.10556071 39.07965811 -119.77214738 14.50387526 -84.1875 2.125 C-57.79272015 -6.14118376 -26.7962057 -7.40694088 0 0 Z " fill="#7A83EA" transform="translate(563,4)"/>
<path d="M0 0 C1.57201172 0.00845947 1.57201172 0.00845947 3.17578125 0.01708984 C31.01779515 0.44891469 54.35763227 11.74739935 74.03125 30.96875 C94.19820825 52.13160742 101.93031897 78.27955136 101.59375 107.0703125 C100.7616821 134.3704603 87.04090607 158.78075055 67.63671875 177.35546875 C51.5267709 192.10889068 29.17719521 201.42400532 7.3125 202.3125 C6.35601563 202.35246094 5.39953125 202.39242187 4.4140625 202.43359375 C-25.21144078 203.0433196 -50.95459306 192.24927094 -72.375 172.0625 C-91.32881911 152.20611808 -101.42960477 125.57546592 -100.9375 98.140625 C-99.37417768 74.20225201 -91.73947472 54.14833528 -76.6875 35.3125 C-76.18605469 34.65636719 -75.68460938 34.00023437 -75.16796875 33.32421875 C-57.7234258 11.45569949 -27.35638351 -0.15583877 0 0 Z " fill="#4F58C9" transform="translate(836.6875,88.6875)"/>
<path d="M0 0 C70.95 0 141.9 0 215 0 C215 14.19 215 28.38 215 43 C187.94 43 160.88 43 133 43 C133 116.59 133 190.18 133 266 C115.84 266 98.68 266 81 266 C81 192.41 81 118.82 81 43 C54.27 43 27.54 43 0 43 C0 28.81 0 14.62 0 0 Z " fill="#FDFDFE" transform="translate(138,314)"/>
<path d="M0 0 C7.26 0 14.52 0 22 0 C22.06844669 43.90812547 22.12153364 87.81624388 22.15319599 131.72441223 C22.15694808 136.90888558 22.16083105 142.09335883 22.16479492 147.27783203 C22.16558185 148.30996164 22.16636878 149.34209124 22.16717956 150.40549751 C22.18023132 167.11472919 22.20388391 183.8239299 22.23145839 200.53314321 C22.25951896 217.67999773 22.27617764 234.82683603 22.28226548 251.97371256 C22.28638057 262.55313251 22.29937499 273.13246488 22.3237494 283.71185787 C22.33961462 290.96782629 22.34439857 298.22374948 22.34050413 305.47973399 C22.33858382 309.66523364 22.34151515 313.8505803 22.35761642 318.0360527 C22.37226488 321.87196695 22.37292048 325.707626 22.36269668 329.54355223 C22.3608382 331.58014681 22.37373249 333.61673859 22.38724393 335.6532892 C22.32127469 349.18438935 18.90283882 358.7552727 9.75 368.75 C5.7183696 372.5778337 1.1528635 374.98576152 -4 377 C-4.59187292 377.24936971 -5.18374584 377.49873941 -5.79355431 377.75566578 C-14.71891462 381.00504223 -23.9542535 380.39754721 -33.31103516 380.34057617 C-35.26322415 380.33972896 -37.2154141 380.34020688 -39.16760254 380.34190369 C-44.44378626 380.34276139 -49.71976372 380.325172 -54.99589968 380.30418181 C-60.51852645 380.28537753 -66.0411584 380.28366162 -71.56381226 380.28010559 C-82.01123499 380.27079614 -92.45856309 380.24619724 -102.90594423 380.21605712 C-114.80436446 380.18247886 -126.70278931 380.16601849 -138.60124516 380.15097082 C-163.06754915 380.11964672 -187.53376927 380.06690762 -212 380 C-212.67363372 377.27238489 -213.33909444 374.543201 -214 371.8125 C-214.28617187 370.65911133 -214.28617187 370.65911133 -214.578125 369.48242188 C-216.3738382 362.01097232 -216.3738382 362.01097232 -216 358 C-214.09898953 356.09898953 -210.7223631 356.86693759 -208.20292664 356.86196899 C-207.48366668 356.85914771 -206.76440673 356.85632643 -206.02335101 356.85341966 C-203.59457684 356.84503574 -201.16584804 356.84373213 -198.73706055 356.84228516 C-197.00270966 356.83761938 -195.26836 356.83247621 -193.53401184 356.82688904 C-189.78806866 356.81558408 -186.04213355 356.80716119 -182.29617882 356.80076981 C-176.36570131 356.79010351 -170.43528116 356.7698591 -164.50483704 356.74765015 C-147.63663379 356.68569029 -130.76843265 356.63180683 -113.90014648 356.59863281 C-104.59212864 356.58024651 -95.28420567 356.55125381 -85.97625762 356.5106281 C-81.05183759 356.48961242 -76.12753691 356.47410869 -71.20306969 356.47182083 C-66.5614239 356.46966215 -61.92002591 356.45366917 -57.27845573 356.42743111 C-55.58226135 356.42028088 -53.88603679 356.41811618 -52.18983078 356.42153358 C-37.46196107 356.44644751 -24.24555216 355.18938187 -12.77734375 345.03125 C-4.9311791 336.93576797 -0.89199319 326.59693628 -0.8613348 315.37158489 C-0.85586036 314.24345967 -0.85038591 313.11533445 -0.84474558 311.95302361 C-0.84376747 310.71859342 -0.84278936 309.48416322 -0.84178162 308.21232605 C-0.83684364 306.89723362 -0.83190566 305.58214119 -0.82681805 304.22719747 C-0.81325013 300.57859214 -0.80582248 296.92999613 -0.79939139 293.28137219 C-0.79138154 289.34617023 -0.77768577 285.4109876 -0.76467896 281.47579956 C-0.74292452 274.6583587 -0.72477625 267.84091587 -0.70907402 261.02345848 C-0.686366 251.16654743 -0.65822445 241.30965779 -0.62875474 231.45276491 C-0.58109028 215.46078827 -0.53782298 199.46880288 -0.49731445 183.47680664 C-0.4579537 167.94164346 -0.41652608 152.40648806 -0.37231445 136.87133789 C-0.36822804 135.43506995 -0.36822804 135.43506995 -0.36405908 133.96978649 C-0.35037951 129.16625269 -0.33665925 124.36271901 -0.32291877 119.55918539 C-0.20897199 79.70613975 -0.1022318 39.8530773 0 0 Z " fill="#474B88" transform="translate(491,335)"/>
<path d="M0 0 C7.26 0 14.52 0 22 0 C22.09127035 49.35202068 22.16204903 98.70403063 22.20426132 148.05611919 C22.20926408 153.88392986 22.21444138 159.71174036 22.21972656 165.53955078 C22.2207758 166.6997522 22.22182505 167.85995362 22.22290608 169.05531266 C22.24030648 187.83572453 22.27184218 206.61608737 22.30861118 225.39647016 C22.34603073 244.67001655 22.36823801 263.94353728 22.37635398 283.2171185 C22.38183963 295.10784905 22.39915936 306.99844101 22.43166587 318.88912889 C22.45282623 327.04544538 22.45919658 335.20169032 22.45400551 343.35803226 C22.45144612 348.0622829 22.45534148 352.76629154 22.4768219 357.47049904 C22.49636816 361.78274051 22.49721794 366.09457852 22.48359558 370.40683904 C22.48191336 371.96155917 22.486919 373.51630505 22.49953273 375.07097492 C22.60803004 389.27694723 19.87998906 402.54984475 9.89453125 413.2578125 C-2.69124038 424.99875609 -16.12094173 425.3010529 -32.56689453 425.22705078 C-34.33189386 425.22648584 -36.09689365 425.22680484 -37.8618927 425.22793579 C-42.62771918 425.22850708 -47.39344397 425.2167892 -52.15924692 425.20278788 C-57.14936202 425.19024301 -62.13947972 425.18910706 -67.12960815 425.18673706 C-76.56765277 425.1805333 -86.00565078 425.16413748 -95.44367492 425.14403808 C-106.19339346 425.12164465 -116.94311428 425.110677 -127.69285035 425.10064721 C-149.79525953 425.07977024 -171.89762682 425.04461581 -194 425 C-195.26722798 422.48256651 -196.53256682 419.96421196 -197.796875 417.4453125 C-198.32837158 416.39017456 -198.32837158 416.39017456 -198.87060547 415.3137207 C-203.3778659 406.32510363 -207.34794349 397.45097449 -210.08886719 387.75830078 C-210.44728699 386.49382111 -210.80570679 385.22934143 -211.17498779 383.92654419 C-211.44724182 382.96078461 -211.71949585 381.99502502 -212 381 C-210.99669805 380.99853344 -209.99339609 380.99706688 -208.95969105 380.99555588 C-184.51195309 380.95891014 -160.06435158 380.89939405 -135.61672688 380.81609726 C-123.79388015 380.7763408 -111.97109966 380.74393104 -100.14819336 380.72900391 C-89.83960039 380.71596984 -79.53115336 380.68896029 -69.2226426 380.64538693 C-63.76774795 380.62281173 -58.31303305 380.60708696 -52.85808754 380.60811615 C-47.71571994 380.60886508 -42.5737491 380.59082068 -37.43148422 380.55883217 C-35.55188369 380.55036662 -33.67223848 380.5485603 -31.79262733 380.55419731 C-16.21471273 380.59466555 -2.73599154 379.05794927 9.1875 367.96484375 C16.44310164 360.40247954 20.11218687 351.55935489 20.1386652 341.10419846 C20.14413964 339.89097939 20.14961409 338.67776033 20.15525442 337.42777705 C20.15633062 336.0796794 20.15731531 334.73158167 20.15821838 333.38348389 C20.16278409 331.95284933 20.16778413 330.5222161 20.17318195 329.09158444 C20.18677144 325.15568021 20.19418377 321.21978463 20.20060861 317.28386307 C20.20860898 313.0412113 20.22230801 308.79857754 20.23532104 304.55593872 C20.25708893 297.20372837 20.27523229 289.8515162 20.29092598 282.49929047 C20.31362175 271.86915708 20.34176499 261.23904364 20.37124526 250.60892716 C20.41892475 233.36299149 20.46218797 216.11704767 20.50268555 198.87109375 C20.54203865 182.11653001 20.58346444 165.36197351 20.62768555 148.60742188 C20.63177196 147.05874751 20.63177196 147.05874751 20.63594092 145.4787868 C20.64962036 140.29938059 20.66334064 135.11997449 20.67708123 129.94056845 C20.79105162 86.96039403 20.89778635 43.98020386 21 1 C14.07 1 7.14 1 0 1 C0 0.67 0 0.34 0 0 Z " fill="#595EAA" transform="translate(492,334)"/>
<path d="M0 0 C7.26 0 14.52 0 22 0 C22.045628 46.32862009 22.08102082 92.65723721 22.10213066 138.98587536 C22.10463206 144.45575288 22.10722071 149.92563036 22.10986328 155.39550781 C22.1103879 156.4844591 22.11091252 157.57341039 22.11145304 158.6953602 C22.12015497 176.32606238 22.13592378 193.95675152 22.15430559 211.58744596 C22.17301053 229.67899196 22.18411799 247.77053114 22.18817699 265.86208642 C22.19092081 277.0249641 22.19958615 288.18780491 22.21583293 299.35067125 C22.22640714 307.00610493 22.22959963 314.66151956 22.22700275 322.31696002 C22.22572215 326.73330527 22.22768144 331.14958609 22.23841095 335.56591988 C22.24817074 339.61273543 22.24861723 343.65944345 22.24179779 347.70626403 C22.24095541 349.16673055 22.24346929 350.62720389 22.24976636 352.08765708 C22.31330583 367.74004504 20.29132099 380.08793602 9.3359375 391.8828125 C5.28489453 395.55449358 0.70470246 398.25633607 -4 401 C-3.78806336 400.32182291 -3.57612672 399.64364583 -3.35776776 398.94491792 C-0.87093076 390.19092912 -0.57013662 381.80916856 -0.60127258 372.78900146 C-0.59582412 371.17409269 -0.58906883 369.5591879 -0.58113068 367.94428945 C-0.56319844 363.53614233 -0.56365095 359.12816448 -0.56726015 354.71998954 C-0.56788628 349.95530239 -0.5512426 345.19067091 -0.53674316 340.42601013 C-0.51399337 332.18067762 -0.5020783 323.93538725 -0.49761391 315.69002533 C-0.49114342 303.76876575 -0.4681902 291.84758223 -0.44127061 279.92635337 C-0.39803584 260.58291166 -0.36805019 241.23947316 -0.34643555 221.89599609 C-0.32541594 203.11049828 -0.29813225 184.32502671 -0.26245117 165.53955078 C-0.26025235 164.38076218 -0.25805352 163.22197359 -0.25578807 162.02807018 C-0.24471817 156.21451388 -0.23352541 150.40095782 -0.22227156 144.58740187 C-0.12913333 96.39162421 -0.05773504 48.19583207 0 0 Z " fill="#6F76D4" transform="translate(514,334)"/>
<path d="M0 0 C15.56910703 -0.11714738 31.13813333 -0.20514107 46.70757675 -0.25906086 C53.93785139 -0.28476972 61.16785112 -0.31977854 68.39794922 -0.37719727 C74.70461832 -0.4272583 81.01108819 -0.45934413 87.31795049 -0.47044247 C90.65318372 -0.47692353 93.98739884 -0.49467835 97.32253265 -0.52865028 C101.05878363 -0.56517934 104.79387138 -0.56993509 108.53027344 -0.56762695 C109.61856949 -0.58560333 110.70686554 -0.60357971 111.82814026 -0.62210083 C123.4256609 -0.54505383 133.71037317 3.85384748 142 12 C152.6575209 23.98971101 153.59190242 37.65532676 153.390625 52.89453125 C153.38314531 54.57988303 153.37746057 56.26524363 153.37347412 57.9506073 C153.35835346 62.34177551 153.31919264 66.73239683 153.2746582 71.12335205 C153.23340891 75.62187303 153.21540041 80.12048419 153.1953125 84.61914062 C153.15268193 93.41300868 153.08460008 102.20643592 153 111 C149.29553447 112.23482184 145.8556992 112.14558202 142 112.125 C141.27554688 112.12886719 140.55109375 112.13273437 139.8046875 112.13671875 C136.60717121 112.13081927 134.05417393 112.01805798 131 111 C130.99453156 110.04731987 130.99453156 110.04731987 130.98895264 109.07539368 C130.94682535 102.40659255 130.87727224 95.73846044 130.79248047 89.07006836 C130.76442406 86.58836592 130.7431341 84.10657666 130.72900391 81.62475586 C130.7073614 78.03715044 130.66060174 74.45057224 130.609375 70.86328125 C130.60753204 69.22496086 130.60753204 69.22496086 130.60565186 67.55354309 C130.35829757 54.25521829 126.53062255 42.88841231 117.2734375 33.19140625 C108.30756144 24.98292154 97.75675834 22.71355241 85.90014648 22.68115234 C84.61070381 22.66608391 84.61070381 22.66608391 83.29521179 22.65071106 C80.48717852 22.62011122 77.67923954 22.60290913 74.87109375 22.5859375 C72.91096702 22.56720714 70.95084819 22.54763236 68.99073792 22.5272522 C63.85672688 22.47612227 58.72268976 22.43639456 53.58856201 22.39910889 C48.33957569 22.35894871 43.09069608 22.3079114 37.84179688 22.2578125 C27.5612731 22.16128007 17.28068879 22.07680328 7 22 C4.66087636 16.63307672 2.74038713 11.33844989 1.36328125 5.640625 C1.10458252 4.57875977 0.84588379 3.51689453 0.5793457 2.42285156 C0.38816162 1.62331055 0.19697754 0.82376953 0 0 Z " fill="#6E75D3" transform="translate(383,179)"/>
<path d="M0 0 C0.33 0 0.66 0 1 0 C1.589975 17.70605753 1.91853386 33.1455918 -10.77734375 46.9296875 C-18.32508313 54.12242074 -27.80009382 58.12750168 -38.15629578 58.12025452 C-39.2565745 58.12153615 -39.2565745 58.12153615 -40.37908107 58.12284368 C-42.84348428 58.12449428 -45.30781983 58.11898397 -47.7722168 58.11352539 C-49.53618366 58.1132434 -51.30015064 58.11340148 -53.06411743 58.1139679 C-57.85925164 58.11425542 -62.65436095 58.10836599 -67.44948936 58.10139394 C-72.45833444 58.09515287 -77.46718007 58.094556 -82.47602844 58.09336853 C-91.96387169 58.09025744 -101.45170345 58.08204704 -110.93954164 58.07201904 C-121.73988784 58.06085102 -132.54023458 58.05534571 -143.34058511 58.05032361 C-165.56039649 58.03986425 -187.78019752 58.02226909 -210 58 C-210.65697643 56.40461015 -211.30932815 54.80731532 -211.9597168 53.20922852 C-212.32348923 52.31994156 -212.68726166 51.4306546 -213.0620575 50.51441956 C-214.13737111 47.63173797 -214.62267858 45.00554389 -214.8125 41.9375 C-214.88082031 41.01839844 -214.94914062 40.09929688 -215.01953125 39.15234375 C-215 37 -215 37 -214 36 C-211.73617409 35.89721158 -209.46908048 35.86643809 -207.20292664 35.86196899 C-206.1240367 35.85773707 -206.1240367 35.85773707 -205.02335101 35.85341966 C-202.59457684 35.84503574 -200.16584804 35.84373213 -197.73706055 35.84228516 C-196.00270966 35.83761938 -194.26836 35.83247621 -192.53401184 35.82688904 C-188.78806866 35.81558408 -185.04213355 35.80716119 -181.29617882 35.80076981 C-175.36570131 35.79010351 -169.43528116 35.7698591 -163.50483704 35.74765015 C-146.63663379 35.68569029 -129.76843265 35.63180683 -112.90014648 35.59863281 C-103.59212864 35.58024651 -94.28420567 35.55125381 -84.97625762 35.5106281 C-80.05183759 35.48961242 -75.12753691 35.47410869 -70.20306969 35.47182083 C-65.5614239 35.46966215 -60.92002591 35.45366917 -56.27845573 35.42743111 C-54.58226135 35.42028088 -52.88603679 35.41811618 -51.18983078 35.42153358 C-36.46196107 35.44644751 -23.24555216 34.18938187 -11.77734375 24.03125 C-5.27527187 17.32257023 -1.5909538 9.1772914 0 0 Z " fill="#393C6D" transform="translate(490,656)"/>
<path d="M0 0 C-5.25398252 10.05468027 -12.18591364 17.94347846 -23 22 C-31.98488975 24.68731846 -41.29325004 24.26877955 -50.56689453 24.22705078 C-52.33189386 24.22648584 -54.09689365 24.22680484 -55.8618927 24.22793579 C-60.62771918 24.22850708 -65.39344397 24.2167892 -70.15924692 24.20278788 C-75.14936202 24.19024301 -80.13947972 24.18910706 -85.12960815 24.18673706 C-94.56765277 24.1805333 -104.00565078 24.16413748 -113.44367492 24.14403808 C-124.19339346 24.12164465 -134.94311428 24.110677 -145.69285035 24.10064721 C-167.79525953 24.07977024 -189.89762682 24.04461581 -212 24 C-213.29673602 21.46080994 -214.58747837 18.91885762 -215.875 16.375 C-216.23980469 15.66214844 -216.60460937 14.94929687 -216.98046875 14.21484375 C-219.00000927 10.21248163 -220.7081111 6.31082927 -222 2 C-220.36306136 1.99503478 -220.36306136 1.99503478 -218.69305325 1.98996925 C-192.1444663 1.90898971 -165.59593721 1.81667861 -139.04743099 1.71247292 C-126.2087975 1.6623425 -113.37017042 1.61589956 -100.53149414 1.578125 C-89.34184096 1.54519293 -78.15223737 1.50535488 -66.96263891 1.45720994 C-61.03737544 1.43195715 -55.11214481 1.41017217 -49.18684196 1.39665604 C-43.60959011 1.38382476 -38.03245098 1.36175857 -32.45526123 1.33261681 C-30.40865358 1.32354943 -28.36202777 1.31785275 -26.31540108 1.31578636 C-23.51950133 1.31245795 -20.72392003 1.29696458 -17.92808533 1.2784729 C-17.11970323 1.28040763 -16.31132113 1.28234237 -15.47844261 1.28433573 C-11.79888271 1.24799534 -8.59712264 1.00178035 -5.06699467 -0.07990456 C-2 -1 -2 -1 0 0 Z " fill="#6269BC" transform="translate(510,735)"/>
<path d="M0 0 C3.60400627 -0.08858959 7.20772545 -0.14091522 10.8125 -0.1875 C12.31973633 -0.22520508 12.31973633 -0.22520508 13.85742188 -0.26367188 C26.14484102 -0.38220003 37.02594058 2.6132298 46.2265625 11.0390625 C56.58767168 22.02106212 59.3309786 33.68123593 59.1953125 48.375 C59.1924826 49.5400708 59.18965271 50.7051416 59.18673706 51.90551758 C59.17559807 55.60378562 59.15050479 59.30180592 59.125 63 C59.1149621 65.51692357 59.10583766 68.03385096 59.09765625 70.55078125 C59.0756793 76.70060447 59.04226444 82.85028453 59 89 C54.09993714 89.02964193 49.53712499 88.9427059 44.6875 88.125 C43.68074219 87.96257812 42.67398438 87.80015625 41.63671875 87.6328125 C39 87 39 87 36 85 C35.62145996 82.890625 35.62145996 82.890625 35.61523438 80.25 C35.60512329 79.26136963 35.59501221 78.27273926 35.58459473 77.25415039 C35.58761597 76.18028076 35.59063721 75.10641113 35.59375 74 C35.58291382 72.89454834 35.57207764 71.78909668 35.56091309 70.65014648 C35.52653462 67.10003903 35.511048 63.55025222 35.5 60 C35.48536749 55.35386077 35.45147856 50.70843108 35.40625 46.0625 C35.40927124 45.00482422 35.41229248 43.94714844 35.41540527 42.85742188 C35.30159604 31.445666 32.3177976 21.89822939 25 13 C17.59547178 6.31275096 9.95082137 2.24385267 0 1 C0 0.67 0 0.34 0 0 Z " fill="#474B89" transform="translate(455,201)"/>
</svg>
