<?xml version="1.0" encoding="utf-8"?>
<!-- Generator: Adobe Illustrator 16.0.0, SVG Export Plug-In . SVG Version: 6.00 Build 0)  -->
<!DOCTYPE svg PUBLIC "-//W3C//DTD SVG 1.1//EN" "http://www.w3.org/Graphics/SVG/1.1/DTD/svg11.dtd">
<svg version="1.1" id="Layer_1" xmlns="http://www.w3.org/2000/svg" xmlns:xlink="http://www.w3.org/1999/xlink" x="0px" y="0px"
	 width="104.298px" height="83.757px" viewBox="0 0 104.298 83.757" enable-background="new 0 0 104.298 83.757"
	 xml:space="preserve">
<g>
	<path fill="none" stroke="#202020" stroke-width="2" stroke-linecap="round" stroke-linejoin="round" stroke-miterlimit="10" d="
		M76.062,44.579l9.253,9.26c2.692,2.634,7.01,2.586,9.644-0.107c2.594-2.649,2.594-6.885,0.001-9.535L72.063,21.289
		c-4.162-4.16-8.759-4.555-13.668,0.355l-1.428,1.412c-2.722,2.604-7.039,2.509-9.643-0.212c-2.524-2.637-2.523-6.794,0.001-9.432
		l4.823-4.816C57.718,3.02,60.886,1,65.571,1h7.4l30.326,30.307L92.677,41.929"/>
	<path fill="none" stroke="#202020" stroke-width="2" stroke-linecap="round" stroke-linejoin="round" stroke-miterlimit="10" d="
		M76.042,44.577l11.67,11.664c2.664,2.664,2.665,6.983,0.002,9.648c-2.664,2.664-6.983,2.666-9.648,0.002L67.428,55.249"/>
	<path fill="none" stroke="#202020" stroke-width="2" stroke-linecap="round" stroke-linejoin="round" stroke-miterlimit="10" d="
		M67.429,55.249l8.227,8.23c2.572,2.752,2.423,7.068-0.329,9.639c-2.619,2.445-6.686,2.447-9.308,0.002l-4.819-4.821"/>
	<path fill="none" stroke="#202020" stroke-width="2" stroke-linecap="round" stroke-linejoin="round" stroke-miterlimit="10" d="
		M61.725,68.823l2.37,2.376c2.594,2.729,2.485,7.046-0.244,9.642c-2.631,2.502-6.762,2.503-9.395,0.004l-2.37-2.377 M11.998,41.93
		L1,30.932L28.315,3.61c0,0,3.636,4.231,6.689,4.231c3.707,0,4.615-1.204,6.82-3.41c3.622-3.625,9.07-3.518,13.641,1.045"/>
	<path fill="none" stroke="#202020" stroke-width="2" stroke-linecap="round" stroke-linejoin="round" stroke-miterlimit="10" d="
		M24.188,49.016c2.747-2.576,2.886-6.893,0.308-9.64c-2.576-2.747-6.893-2.884-9.64-0.308c-0.104,0.1-0.207,0.201-0.306,0.306
		l-4.817,4.821c-2.604,2.72-2.511,7.037,0.211,9.642c2.637,2.524,6.794,2.524,9.432,0.001L24.188,49.016z"/>
	<path fill="none" stroke="#202020" stroke-width="2" stroke-linecap="round" stroke-linejoin="round" stroke-miterlimit="10" d="
		M33.835,58.659c2.662-2.664,2.662-6.982-0.002-9.646c-2.664-2.662-6.982-2.66-9.646,0.002l0,0l-7.226,7.227
		c-2.604,2.721-2.511,7.037,0.21,9.643c2.638,2.524,6.795,2.524,9.432,0.001L33.835,58.659z M43.473,68.301
		c2.586-2.738,2.462-7.055-0.275-9.641c-2.627-2.481-6.733-2.482-9.362-0.002l-4.82,4.82c-2.595,2.73-2.484,7.047,0.247,9.641
		c2.632,2.501,6.763,2.501,9.395,0L43.473,68.301z"/>
	<path fill="none" stroke="#202020" stroke-width="2" stroke-linecap="round" stroke-linejoin="round" stroke-miterlimit="10" d="
		M52.589,78.467c2.663-2.664,2.663-6.982-0.001-9.646c-2.665-2.663-6.982-2.663-9.646,0.001l0,0l-2.372,2.376
		c-2.618,2.708-2.543,7.026,0.166,9.644c2.643,2.553,6.832,2.553,9.475,0.002L52.589,78.467z"/>
</g>
</svg>
