<?xml version="1.0" encoding="utf-8"?>
<!-- Generator: Adobe Illustrator 16.0.0, SVG Export Plug-In . SVG Version: 6.00 Build 0)  -->
<!DOCTYPE svg PUBLIC "-//W3C//DTD SVG 1.1//EN" "http://www.w3.org/Graphics/SVG/1.1/DTD/svg11.dtd">
<svg version="1.1" id="Layer_1" xmlns="http://www.w3.org/2000/svg" xmlns:xlink="http://www.w3.org/1999/xlink" x="0px" y="0px"
	 width="77.648px" height="78.934px" viewBox="0 0 77.648 78.934" enable-background="new 0 0 77.648 78.934" xml:space="preserve">
<g>
	<path stroke="#FFFFFF" stroke-width="0.5" stroke-miterlimit="10" d="M5.76,53.807c0.289,0.91,0.646,1.813,1.06,2.684l2.279-1.084
		c-0.365-0.767-0.68-1.562-0.934-2.362L5.76,53.807z"/>
	<path stroke="#FFFFFF" stroke-width="0.5" stroke-miterlimit="10" d="M12.787,34.142l-0.885-0.899l-0.93-0.854
		c-4.002,4.002-6.206,9.323-6.206,14.982c0,1.258,0.111,2.521,0.332,3.753l2.483-0.444c-0.193-1.086-0.293-2.198-0.293-3.309
		c0-4.986,1.941-9.674,5.46-13.191L12.787,34.142z"/>
	<path stroke="#FFFFFF" stroke-width="0.5" stroke-miterlimit="10" d="M32.558,27.073l1.783-1.783l1.783,1.783l-1.783,1.783
		L32.558,27.073z"/>
	<path stroke="#FFFFFF" stroke-width="0.5" stroke-miterlimit="10" d="M36.125,30.64l1.783-1.783l1.785,1.784l-1.783,1.784
		L36.125,30.64z"/>
	<path stroke="#FFFFFF" stroke-width="0.5" stroke-miterlimit="10" d="M43.642,40.044l2.32-0.987
		c-0.348-0.817-0.756-1.625-1.208-2.396l-2.176,1.278C42.978,38.617,43.336,39.325,43.642,40.044z"/>
	<path stroke="#FFFFFF" stroke-width="0.5" stroke-miterlimit="10" d="M41.257,35.981l1.996-1.544
		c-0.541-0.7-1.136-1.377-1.768-2.013l-1.789,1.779C40.255,34.767,40.78,35.364,41.257,35.981z"/>
	<path stroke="#FFFFFF" stroke-width="0.5" stroke-miterlimit="10" d="M27.472,53.425h-2.523v2.523
		c-2.086,0-3.784,1.697-3.784,3.784c0,2.086,1.698,3.784,3.784,3.784h2.523c0.696,0,1.261,0.566,1.261,1.261
		c0,0.695-0.564,1.262-1.261,1.262h-3.785v-1.262h-2.522v3.784h3.784v2.523h2.523v-2.523c2.086,0,3.783-1.697,3.783-3.784
		c0-2.086-1.697-3.784-3.783-3.784h-2.523c-0.696,0-1.262-0.566-1.262-1.261c0-0.695,0.565-1.262,1.262-1.262h3.784v1.262h2.522
		v-3.784h-3.783V53.425z"/>
	<path stroke="#FFFFFF" stroke-width="0.5" stroke-miterlimit="10" d="M75.406,28.196c0,3.193-1.723,6.433-5.119,9.625
		c-4.749,4.463-10.934,7.187-17.672,7.86c-0.406-6.369-3.056-12.317-7.6-16.86l-9.453-9.454l7.047-7.047v-0.521
		c0-2.793-2.09-5.159-4.86-5.505l-2.323-0.29l1.211-3.936L29.488,0.28l-3.219,4.289l-2.002-3.004L15.73,3.274l0.924,2.771
		l-1.984,0.249c-2.769,0.346-4.857,2.712-4.857,5.505v0.521l7.047,7.047L7.406,28.82C2.449,33.774-0.28,40.364-0.28,47.371
		c0,8.786,4.349,16.903,11.639,21.793c2.614,5.594,8.279,9.489,14.852,9.489h51.718V28.196H75.406z M49.325,48.38
		c1.136,0,2.261-0.058,3.375-0.163V76.13h-5.046V48.38H49.325z M55.223,47.88c1.726-0.293,3.413-0.708,5.046-1.251V76.13h-5.046
		V47.88z M62.791,45.666c1.767-0.756,3.453-1.665,5.047-2.717V76.13h-5.047V45.666z M37.436,8.796
		c1.347,0.169,2.399,1.214,2.609,2.52l-6.789,6.79h-1.554l2.971-9.655L37.436,8.796z M23.106,4.371l3.044,4.565L30.5,3.134
		l2.942,0.735l-4.381,14.236h-5.728L19.029,5.187L23.106,4.371z M14.985,8.796l2.485-0.31l3.206,9.619h-1.513l-6.789-6.79
		C12.584,10.011,13.636,8.965,14.985,8.796z M2.244,47.371c0-6.333,2.466-12.288,6.945-16.768l9.975-9.976h14.093l9.976,9.976
		c4.102,4.103,6.495,9.47,6.867,15.218c-0.26,0.006-0.514,0.035-0.774,0.035H26.21c-9.042,0-16.398,7.356-16.398,16.398
		c0,0.92,0.095,1.816,0.241,2.695C5.113,60.489,2.244,54.153,2.244,47.371L2.244,47.371z M12.334,62.255
		c0-7.65,6.226-13.875,13.876-13.875s13.875,6.225,13.875,13.875S33.861,76.13,26.21,76.13S12.334,69.905,12.334,62.255z
		 M42.609,62.255c0-5.846-3.083-10.972-7.7-13.875h10.223v27.75H34.909C39.526,73.227,42.609,68.101,42.609,62.255z M70.36,76.13
		V41.096c0.565-0.46,1.121-0.935,1.655-1.437c1.372-1.29,2.493-2.603,3.391-3.93v40.4H70.36z"/>
	<path stroke="#FFFFFF" stroke-width="0.5" stroke-miterlimit="10" d="M67.837,7.275V21.89h2.522V7.275l2.892,2.893l1.784-1.784
		l-5.938-5.938l-5.938,5.938l1.784,1.784L67.837,7.275z"/>
	<path stroke="#FFFFFF" stroke-width="0.5" stroke-miterlimit="10" d="M56.484,16.105V30.72h2.523V16.105l2.893,2.892l1.783-1.783
		l-5.938-5.938l-5.938,5.938l1.783,1.783L56.484,16.105z"/>
</g>
</svg>
