<?xml version="1.0" encoding="utf-8"?>
<!-- Generator: Adobe Illustrator 16.0.0, SVG Export Plug-In . SVG Version: 6.00 Build 0)  -->
<!DOCTYPE svg PUBLIC "-//W3C//DTD SVG 1.1//EN" "http://www.w3.org/Graphics/SVG/1.1/DTD/svg11.dtd">
<svg version="1.1" id="Layer_1" xmlns="http://www.w3.org/2000/svg" xmlns:xlink="http://www.w3.org/1999/xlink" x="0px" y="0px"
	 width="98.344px" height="87.375px" viewBox="0 0 98.344 87.375" enable-background="new 0 0 98.344 87.375" xml:space="preserve">
<g>
	<path stroke="#FFFFFF" stroke-width="3.1" stroke-miterlimit="10" d="M83.74,52.108c-1.038-1.038-2.312-1.758-3.7-2.111
		c0.639-2.642-0.071-5.548-2.13-7.607c-1.061-1.06-2.343-1.76-3.698-2.106c0.602-2.49,0.045-5.434-2.136-7.614
		c-0.73-0.731-1.568-1.29-2.464-1.681l8.298-8.297c3.147-3.151,3.152-8.251,0-11.405c-3.151-3.15-8.251-3.155-11.406,0
		L40.619,37.172l-1.514-6.56c-0.869-3.769-3.718-6.772-7.437-7.838c-3.717-1.067-7.726-0.029-10.46,2.707c0,0-0.001,0-0.001,0
		c-0.481,0.482-0.752,1.137-0.752,1.817l0.033,31.927l-7.495,7.493c-1.002,1.003-1.002,2.628,0,3.631l16.495,16.495
		c0.481,0.48,1.134,0.751,1.814,0.751h23.88c2.888,0,5.603-1.126,7.646-3.168L83.74,63.516C86.851,60.406,86.93,55.294,83.74,52.108
		z M70.134,46.019c1.146-1.146,3.001-1.144,4.146,0c1.144,1.145,1.144,3.004,0,4.147l-5.832,5.832c-1.148,1.147-3.004,1.143-4.146,0
		c-1.144-1.145-1.144-3.004-0.001-4.146L70.134,46.019z M60.671,48.223c-1.143,1.143-3.003,1.143-4.146,0
		c-1.144-1.145-1.144-3.004,0-4.146l7.775-7.776c1.144-1.144,3.004-1.143,4.146,0c1.146,1.146,1.145,3.001,0,4.146l-0.001,0.001
		C68.447,40.446,60.671,48.223,60.671,48.223z M59.199,80.797c-1.058,1.059-2.521,1.665-4.016,1.665H32.366L18.438,68.534
		L24.87,62.1c0.482-0.48,0.752-1.135,0.752-1.817L25.59,28.48c1.345-0.935,3.057-1.233,4.664-0.772
		c1.925,0.552,3.4,2.106,3.85,4.058l2.555,11.072c0.11,0.477,0.352,0.901,0.686,1.234c0,0.001,1.944,1.946,1.944,1.946
		c4.359,4.36,4.359,11.451,0,15.81c-1.002,1.003-1.002,2.628,0,3.631c1.002,1.002,2.628,1.002,3.63,0c6.36-6.36,6.36-16.71,0-23.07
		l-0.128-0.128l27.344-27.345c1.173-1.173,3.029-1.115,4.146,0.001c1.145,1.144,1.146,3,0,4.146L52.896,40.446
		c-3.145,3.145-3.145,8.261,0,11.406c1.502,1.501,3.453,2.284,5.425,2.352c0.067,1.972,0.851,3.922,2.351,5.424
		c1.501,1.502,3.451,2.284,5.422,2.353c0.069,2.05,0.897,3.966,2.353,5.422c0.722,0.722,1.556,1.288,2.464,1.687L59.199,80.797z
		 M80.111,59.885C80.111,59.885,80.111,59.885,80.111,59.885l-3.89,3.889c-1.13,1.132-2.988,1.157-4.146-0.001
		c-1.153-1.153-1.135-3.009,0.002-4.146l3.888-3.888c1.153-1.154,3.01-1.136,4.146,0C81.272,56.899,81.239,58.758,80.111,59.885z"/>
	<path stroke="#FFFFFF" stroke-width="3.1" stroke-miterlimit="10" d="M39.55,16.116c1.418,0,2.567-1.149,2.567-2.567V2.553
		c-0.136-3.405-5-3.403-5.134,0v10.997C36.983,14.968,38.132,16.116,39.55,16.116z"/>
	<path stroke="#FFFFFF" stroke-width="3.1" stroke-miterlimit="10" d="M26.738,15.364c1.002,1.003,2.628,1.003,3.63,0
		c1.002-1.002,1.002-2.627,0-3.629l-2.749-2.75c-1.002-1.002-2.628-1.002-3.63,0c-1.002,1.002-1.002,2.628,0,3.63L26.738,15.364z"/>
	<path stroke="#FFFFFF" stroke-width="3.1" stroke-miterlimit="10" d="M52.361,15.364l2.749-2.749c1.003-1.002,1.003-2.628,0-3.63
		c-1.002-1.002-2.627-1.002-3.629,0l-2.749,2.75c-1.003,1.002-1.003,2.627,0,3.629C49.734,16.367,51.359,16.367,52.361,15.364z"/>
</g>
<rect x="-3.714" y="31.591" width="2" height="5.819"/>
</svg>
