<?xml version="1.0" encoding="utf-8"?>
<!-- Generator: Adobe Illustrator 16.0.0, SVG Export Plug-In . SVG Version: 6.00 Build 0)  -->
<!DOCTYPE svg PUBLIC "-//W3C//DTD SVG 1.0//EN" "http://www.w3.org/TR/2001/REC-SVG-20010904/DTD/svg10.dtd">
<svg version="1.0" id="Layer_1" xmlns="http://www.w3.org/2000/svg" xmlns:xlink="http://www.w3.org/1999/xlink" x="0px" y="0px"
	 width="93.062px" height="79.377px" viewBox="0 0 93.062 79.377" enable-background="new 0 0 93.062 79.377" xml:space="preserve">
<g>
	<path fill="#FFDD70" d="M14.598,47.443C6.548,47.443,0,53.992,0,62.041v6.387l8.667,6.738l8.668-6.738V47.443H14.598z"/>
	<path fill="#F15723" d="M87.491,54.743H76.64V27.275h10.852c3.071,0,5.57,2.499,5.57,5.57v16.327
		C93.062,52.244,90.563,54.743,87.491,54.743z M82.113,49.268h5.378c0.054,0,0.096-0.042,0.096-0.096V32.846
		c0-0.054-0.042-0.097-0.096-0.097h-5.378V49.268z"/>
	<path fill="#337AE2" d="M38.319,19.16v49.267l31.54,0.001c6.757,0,12.254-5.497,12.254-12.254V19.16H38.319z"/>
	<path fill="#337AE2" d="M60.217,19.16v49.268h9.643c6.757,0,12.254-5.497,12.254-12.254V19.16H60.217z"/>
	<path fill="#F8C045" d="M56.566,47.443h-2.735v20.985l9.157,3.562l8.177-3.562v-6.387C71.165,53.992,64.616,47.443,56.566,47.443z"
		/>
	<path fill="#C2D3E7" d="M43.976,5.475h5.475v8.211h-5.475V5.475z"/>
	<path fill="#C2D3E7" d="M71.348,5.475h5.474v8.211h-5.474V5.475z"/>
	<path fill="#C2D3E7" d="M57.661,0h5.475v13.686h-5.475V0z"/>
	<path fill="#C2D3E7" d="M60.217,0h2.919v13.686h-2.919V0z"/>
	<path fill="#F8C045" d="M19.003,41.97c-3.938,0-7.143,3.203-7.143,7.143v19.316l9.125,7.244l9.122-7.244V41.97H19.003z"/>
	<path fill="#FF9E22" d="M52.162,41.97H41.057v26.458l9.124,4.104l9.123-4.104V49.112C59.304,45.173,56.1,41.97,52.162,41.97z"/>
	<path fill="#FFDD70" d="M38.828,35.583h-6.895c-4.163,0-7.3,3.311-7.3,7.702v25.143l10.747,7.244l10.748-7.244V42.882
		C46.129,38.858,42.854,35.583,38.828,35.583L38.828,35.583z"/>
	<path fill="#F8C045" d="M38.828,35.583h-3.447v32.845l5.373,3.562l5.375-3.562V42.882C46.129,38.858,42.854,35.583,38.828,35.583
		L38.828,35.583z"/>
	<path fill="#293B6B" d="M0,68.428h93.062v10.949H0V68.428z"/>
	<path fill="#293B6B" d="M46.129,68.428v10.949h46.933V68.428H62.729H46.129z"/>
</g>
</svg>
