<?xml version="1.0" encoding="utf-8"?>
<!-- Generator: Adobe Illustrator 16.0.0, SVG Export Plug-In . SVG Version: 6.00 Build 0)  -->
<!DOCTYPE svg PUBLIC "-//W3C//DTD SVG 1.1//EN" "http://www.w3.org/Graphics/SVG/1.1/DTD/svg11.dtd">
<svg version="1.1" id="Layer_1" xmlns="http://www.w3.org/2000/svg" xmlns:xlink="http://www.w3.org/1999/xlink" x="0px" y="0px"
	 width="82px" height="82px" viewBox="-10.908 0 82 82" enable-background="new -10.908 0 82 82" xml:space="preserve">
<path stroke="#FFFFFF" stroke-width="0.8" stroke-miterlimit="10" d="M69.638,34.37H53.046c-2.301-7.862-8.457-14.005-16.324-16.288
	V1.479C36.722,0.708,36.106,0,35.335,0H24.34c-0.726,0.019-1.323,0.579-1.389,1.302l-0.735,7.613
	c-3.24,0.805-6.333,2.109-9.172,3.864L7.202,7.94C6.647,7.481,5.834,7.52,5.325,8.029l-8.19,8.176
	c-0.511,0.509-0.549,1.324-0.088,1.878l4.848,5.848c-1.739,2.84-3.042,5.924-3.868,9.149l-7.644,0.737
	c-0.721,0.066-1.278,0.665-1.291,1.389v11.588c0.014,0.725,0.57,1.322,1.291,1.388l7.625,0.737c0.809,3.234,2.116,6.322,3.873,9.156
	l-4.838,5.841c-0.46,0.555-0.421,1.369,0.09,1.878l8.191,8.173c0.51,0.511,1.323,0.549,1.877,0.088l5.852-4.852
	c2.843,1.74,5.932,3.042,9.163,3.862l0.736,7.633c0.065,0.724,0.663,1.283,1.389,1.302h11.604c0.727-0.019,1.323-0.578,1.39-1.303
	l0.735-7.611c3.238-0.806,6.333-2.109,9.172-3.864l5.842,4.838c0.555,0.458,1.368,0.42,1.877-0.089l8.19-8.176
	c0.511-0.509,0.55-1.324,0.089-1.879l-4.848-5.848c1.738-2.84,3.042-5.924,3.867-9.15l7.546-0.736
	c0.721-0.067,1.275-0.665,1.288-1.388V35.766C71.065,34.984,70.421,34.366,69.638,34.37z M51.197,41
	c0,11.613-9.464,21.062-21.097,21.062C18.469,62.062,9.005,52.613,9.005,41c0-11.614,9.463-21.062,21.095-21.062
	C41.733,19.938,51.197,29.386,51.197,41z M68.301,45.527l-7.275,0.71c-0.604,0.057-1.104,0.494-1.241,1.085
	c-0.808,3.596-2.255,7.016-4.275,10.097c-0.335,0.512-0.298,1.182,0.091,1.652l4.679,5.646l-6.392,6.378l-5.648-4.685
	c-0.474-0.392-1.147-0.429-1.661-0.089c-3.069,2.034-6.493,3.473-10.095,4.244c-0.6,0.146-1.04,0.658-1.096,1.271l-0.71,7.371
	h-9.068l-0.711-7.371c-0.058-0.61-0.5-1.114-1.099-1.251c-3.461-0.737-6.861-2.179-10.107-4.265
	c-0.51-0.331-1.176-0.292-1.645,0.095l-5.648,4.68l-6.391-6.379l4.681-5.646c0.394-0.475,0.429-1.151,0.087-1.664
	c-2.037-3.063-3.482-6.484-4.26-10.08c-0.142-0.596-0.648-1.035-1.258-1.091l-7.375-0.712v-9.051l7.375-0.711
	c0.604-0.057,1.105-0.495,1.242-1.086c0.807-3.595,2.255-7.015,4.276-10.095c0.334-0.512,0.297-1.182-0.092-1.653l-4.68-5.646
	l6.392-6.377l5.648,4.684c0.474,0.393,1.148,0.428,1.661,0.089c3.07-2.034,6.494-3.473,10.095-4.245
	c0.6-0.146,1.04-0.656,1.096-1.271l0.712-7.37h8.321v14.665c-1.268-0.207-2.55-0.311-3.834-0.309
	C16.925,17.147,6.211,27.848,6.211,41s10.717,23.854,23.888,23.854S53.987,54.152,53.987,41c0-1.286-0.104-2.569-0.31-3.838h14.624
	V45.527z"/>
<path stroke="#FFFFFF" stroke-width="0.8" stroke-miterlimit="10" d="M27.65,32.215v10.25c0,0.771,0.704,1.326,1.475,1.326h7.81
	c0.771,0,1.396-0.625,1.396-1.396S37.704,41,36.934,41h-6.493v-8.785c0-0.771-0.625-1.396-1.396-1.396
	C28.274,30.819,27.65,31.444,27.65,32.215z"/>
</svg>
