<?xml version="1.0" encoding="utf-8"?>
<!-- Generator: Adobe Illustrator 16.0.0, SVG Export Plug-In . SVG Version: 6.00 Build 0)  -->
<!DOCTYPE svg PUBLIC "-//W3C//DTD SVG 1.1//EN" "http://www.w3.org/Graphics/SVG/1.1/DTD/svg11.dtd">
<svg version="1.1" id="Layer_1" xmlns="http://www.w3.org/2000/svg" xmlns:xlink="http://www.w3.org/1999/xlink" x="0px" y="0px"
	 width="91.482px" height="90.759px" viewBox="0 0 91.482 90.759" enable-background="new 0 0 91.482 90.759" xml:space="preserve">
<circle fill="#F15723" cx="40.794" cy="49.53" r="40.79"/>
<path fill="none" stroke="#F15723" stroke-width="4" stroke-miterlimit="10" d="M69.812,89.147
	c15.914-11.704,23.603-32.53,17.677-52.565C79.933,11.026,53.089-3.563,27.534,3.994c-7.408,2.19-13.896,6.001-19.188,10.932"/>
<polygon fill="#F15723" points="5.103,67.767 18.253,67.813 15.456,80.661 2.307,80.617 "/>
<path fill="#FFFFFF" d="M41.946,36.042c-7.555,0-13.693,6.149-13.693,13.693c0,7.545,6.149,13.692,13.693,13.692
	S55.64,57.281,55.64,49.736C55.64,42.191,49.501,36.042,41.946,36.042z M48.813,46.454l-8.264,7.794
	c-0.152,0.15-0.359,0.232-0.573,0.229c-0.224,0.002-0.439-0.088-0.595-0.25l-4.323-4.439c-0.317-0.329-0.31-0.852,0.017-1.171
	c0.325-0.32,0.848-0.318,1.171,0.004l3.752,3.855l7.669-7.231c0.334-0.316,0.861-0.302,1.178,0.031
	C49.161,45.61,49.146,46.137,48.813,46.454z"/>
<path fill="#FFFFFF" d="M61.609,54.727l3.294-4.991l-3.294-4.991c-0.097-0.148-0.144-0.323-0.136-0.5l0.334-5.981l-5.324-2.698
	c-0.158-0.08-0.285-0.208-0.365-0.365l-2.688-5.325l-5.981,0.333c-0.178,0.009-0.351-0.039-0.5-0.135l-5.002-3.292l-4.991,3.292
	c-0.149,0.097-0.323,0.144-0.5,0.135l-5.981-0.333L27.774,35.2c-0.079,0.157-0.207,0.285-0.365,0.365l-5.324,2.688l0.334,5.981
	c0.008,0.177-0.039,0.352-0.135,0.5l-3.294,5.002l3.294,4.991c0.096,0.148,0.143,0.323,0.135,0.501l-0.334,5.98l5.324,2.689
	c0.158,0.078,0.286,0.207,0.365,0.364l2.688,5.325l5.981-0.333h0.041c0.163,0.002,0.322,0.049,0.459,0.135l4.991,3.294l4.992-3.294
	c0.147-0.096,0.322-0.144,0.5-0.135l5.981,0.333l2.688-5.325c0.079-0.157,0.207-0.286,0.364-0.364l5.325-2.689l-0.334-5.98
	C61.462,55.05,61.517,54.877,61.609,54.727z M41.946,65.096c-8.473,0-15.359-6.889-15.359-15.36s6.887-15.36,15.359-15.36
	c8.472,0,15.36,6.889,15.36,15.36S50.418,65.096,41.946,65.096z"/>
</svg>
