<?xml version="1.0" encoding="utf-8"?>
<!-- Generator: Adobe Illustrator 16.0.0, SVG Export Plug-In . SVG Version: 6.00 Build 0)  -->
<!DOCTYPE svg PUBLIC "-//W3C//DTD SVG 1.1//EN" "http://www.w3.org/Graphics/SVG/1.1/DTD/svg11.dtd">
<svg version="1.1" id="Layer_1" xmlns="http://www.w3.org/2000/svg" xmlns:xlink="http://www.w3.org/1999/xlink" x="0px" y="0px"
	 width="61.443px" height="52.991px" viewBox="0 0 61.443 52.991" enable-background="new 0 0 61.443 52.991" xml:space="preserve">
<g id="flat_1_">
	<path fill="#2F76CC" d="M2.648,0h56.146c1.463,0,2.649,1.186,2.649,2.648v3.708l0,0H0l0,0V2.648C0,1.186,1.186,0,2.648,0z"/>
	<circle fill="#007AF6" cx="4.237" cy="3.178" r="1.06"/>
	<circle fill="#007AF6" cx="8.475" cy="3.178" r="1.06"/>
	<circle fill="#007AF6" cx="12.713" cy="3.178" r="1.06"/>
	<path fill="#EAEAE8" d="M0,6.356h61.443l0,0v35.488c0,1.463-1.187,2.648-2.649,2.648H2.648C1.186,44.493,0,43.308,0,41.845V6.356
		L0,6.356z"/>
	<path fill="#FFC400" d="M9.534,10.594h42.374v33.899H9.534V10.594z"/>
	<path fill="#EAEAE8" d="M13.771,14.831h22.246V33.9H13.771V14.831z"/>
	<g>
		<path fill="#D18D28" d="M47.672,18.01h-5.298c-0.584,0-1.059-0.475-1.059-1.06c0-0.585,0.475-1.06,1.059-1.06h5.298
			c0.584,0,1.059,0.474,1.059,1.06C48.73,17.535,48.256,18.01,47.672,18.01z"/>
		<path fill="#D18D28" d="M47.672,24.366h-7.416c-0.586,0-1.06-0.475-1.06-1.06c0-0.586,0.474-1.06,1.06-1.06h7.416
			c0.584,0,1.059,0.474,1.059,1.06C48.73,23.892,48.256,24.366,47.672,24.366z"/>
		<path fill="#D18D28" d="M47.672,30.722h-7.416c-0.586,0-1.06-0.475-1.06-1.06c0-0.585,0.474-1.06,1.06-1.06h7.416
			c0.584,0,1.059,0.474,1.059,1.06C48.73,30.248,48.256,30.722,47.672,30.722z"/>
		<path fill="#D18D28" d="M45.553,39.196H15.891c-0.586,0-1.061-0.474-1.061-1.058c0-0.586,0.475-1.06,1.061-1.06h29.662
			c0.584,0,1.059,0.474,1.059,1.06C46.611,38.722,46.137,39.196,45.553,39.196z"/>
	</g>
	<path fill="#049F34" d="M41.642,35.127l3.123-2.865l14.322,15.615l-3.123,2.864L41.642,35.127z"/>
	<path fill="#FDC9A6" d="M39.384,31.398l2.251,3.713l3.123-2.865l-3.506-2.562c-0.498-0.364-1.184-0.325-1.637,0.091
		C39.161,30.192,39.064,30.872,39.384,31.398L39.384,31.398z"/>
	<path fill="#FFD6DB" d="M55.967,50.743l3.123-2.865l0,0l1.432,1.562c0.791,0.863,0.734,2.203-0.129,2.994
		c-0.862,0.792-2.202,0.734-2.994-0.129L55.967,50.743L55.967,50.743z"/>
	<path fill="#CBCBCB" d="M53.101,47.619l3.124-2.865l2.864,3.124l-3.123,2.864L53.101,47.619z"/>
</g>
</svg>
