<?xml version="1.0" encoding="utf-8"?>
<!-- Generator: Adobe Illustrator 16.0.0, SVG Export Plug-In . SVG Version: 6.00 Build 0)  -->
<!DOCTYPE svg PUBLIC "-//W3C//DTD SVG 1.1//EN" "http://www.w3.org/Graphics/SVG/1.1/DTD/svg11.dtd">
<svg version="1.1" id="Layer_1" xmlns="http://www.w3.org/2000/svg" xmlns:xlink="http://www.w3.org/1999/xlink" x="0px" y="0px"
	 width="198.521px" height="247.054px" viewBox="0 0 198.521 247.054" enable-background="new 0 0 198.521 247.054"
	 xml:space="preserve">
<path fill="#F2AD00" d="M97.817,216.995c-8.301,0-15.03,6.729-15.03,15.032c0,8.307,6.729,15.027,15.03,15.027
	c8.303,0,15.031-6.721,15.031-15.027C112.849,223.724,106.12,216.995,97.817,216.995z M97.819,244.359
	c-6.802,0-12.336-5.531-12.336-12.332s5.534-12.334,12.336-12.334c6.8,0,12.332,5.533,12.332,12.334S104.619,244.359,97.819,244.359
	z"/>
<path fill="#F2AD00" d="M97.819,223.547c-4.677,0-8.481,3.805-8.481,8.479c0,4.674,3.805,8.478,8.481,8.478
	c4.674,0,8.478-3.804,8.478-8.478C106.297,227.352,102.493,223.547,97.819,223.547z"/>
<rect x="96.276" y="180.75" fill="#F2AD00" width="3.083" height="37.895"/>
<path fill="#F2AD00" d="M160.646,15.734C155.646,7.077,143.377,0,133.389,0H65.136c-9.999,0-22.264,7.077-27.263,15.734L3.754,74.84
	c-5.005,8.658-5.005,22.819,0,31.478l34.119,59.113c4.999,8.65,17.264,15.734,27.263,15.734h68.253
	c9.988,0,22.258-7.084,27.257-15.734l34.13-59.113c4.994-8.658,4.994-22.819,0-31.478L160.646,15.734z M146.653,141.205
	c-4.992,8.657-17.256,17.733-27.246,17.733H79.124c-9.999,0-22.264-9.076-27.254-17.733l-20.146-34.887
	c-4.999-8.666-4.999-22.819,0-31.478L51.87,39.954c4.99-8.65,17.255-17.734,27.254-17.734h40.283c9.99,0,22.254,9.084,27.246,17.734
	L167.8,74.84c4.995,8.658,4.995,22.819,0,31.478L146.653,141.205z"/>
<g id="icon_2_" transform="translate(0 0)">
	<path id="Path_3916" fill="#F2AD00" d="M115.894,119.956H80.812c-5.156-0.005-9.334-4.189-9.328-9.348
		c0.001-1.8,0.523-3.563,1.505-5.073L85.68,86.1c1.661-2.581,2.549-5.583,2.56-8.654V66.991c-0.037-1.979-0.583-3.917-1.586-5.625
		c-0.996-1.726-0.404-3.931,1.321-4.926c0.551-0.318,1.177-0.484,1.813-0.482h17.127c1.991,0.013,3.596,1.638,3.583,3.629
		c-0.004,0.625-0.171,1.238-0.482,1.78c-0.975,1.717-1.508,3.65-1.551,5.625v10.456c-0.008,3.073,0.883,6.08,2.562,8.654
		l12.69,19.435c2.809,4.327,1.578,10.108-2.747,12.916c-1.512,0.981-3.274,1.505-5.076,1.506L115.894,119.956z M89.789,58.662
		c-0.255-0.004-0.491,0.136-0.612,0.36c-0.156,0.215-0.156,0.506,0,0.721c1.256,2.197,1.927,4.68,1.948,7.212V77.41
		c0.009,3.623-1.043,7.17-3.026,10.204l-12.69,19.465c-1.931,2.998-1.065,6.993,1.932,8.923c1.038,0.668,2.244,1.025,3.479,1.029
		h35.081c3.564-0.009,6.446-2.905,6.438-6.471c-0.003-1.234-0.36-2.443-1.029-3.48l-12.692-19.464
		c-1.981-3.034-3.033-6.58-3.024-10.204V66.956c0.021-2.532,0.692-5.014,1.947-7.212c0.199-0.345,0.081-0.787-0.265-0.985
		c-0.106-0.061-0.226-0.095-0.349-0.097H89.789z"/>
	<path id="Path_3917" fill="#F2AD00" d="M115.218,114.864H79.739c-1.831-0.003-3.313-1.49-3.311-3.322
		c0.001-0.638,0.188-1.262,0.534-1.799l9.412-14.638c0.656-1.028,1.694-1.754,2.885-2.02c2.979-0.581,6.053-0.457,8.976,0.361
		c1.34,0.373,2.721,0.578,4.11,0.613c0.696,0.078,1.397,0.078,2.094,0h1.333c1.206,0.006,2.33,0.615,2.992,1.624l9.231,14.423
		c0.628,1.041,0.628,2.346,0,3.387C117.35,114.376,116.312,114.889,115.218,114.864L115.218,114.864z M92.792,95.575
		c-0.982,0.008-1.961,0.117-2.92,0.324c-0.445,0.105-0.832,0.375-1.083,0.758l-9.411,14.674c-0.07,0.136-0.07,0.296,0,0.433
		c0.068,0.136,0.209,0.221,0.361,0.217h35.479c0.152,0.004,0.293-0.081,0.361-0.217c0.096-0.128,0.096-0.304,0-0.433l-9.231-14.421
		c-0.139-0.178-0.351-0.285-0.576-0.29h-0.757c-0.876,0.189-1.773,0.262-2.67,0.217c-1.618-0.045-3.228-0.275-4.795-0.684
		c-1.555-0.396-3.155-0.589-4.76-0.579L92.792,95.575z"/>
</g>
</svg>
