<?xml version="1.0" encoding="utf-8"?>
<!-- Generator: Adobe Illustrator 16.0.0, SVG Export Plug-In . SVG Version: 6.00 Build 0)  -->
<!DOCTYPE svg PUBLIC "-//W3C//DTD SVG 1.1//EN" "http://www.w3.org/Graphics/SVG/1.1/DTD/svg11.dtd">
<svg version="1.1" id="Layer_1" xmlns="http://www.w3.org/2000/svg" xmlns:xlink="http://www.w3.org/1999/xlink" x="0px" y="0px"
	 width="198.521px" height="247.055px" viewBox="0 0 198.521 247.055" enable-background="new 0 0 198.521 247.055"
	 xml:space="preserve">
<path fill="#337AE2" d="M99.817,216.995c-8.301,0-15.03,6.73-15.03,15.033c0,8.306,6.729,15.027,15.03,15.027
	c8.303,0,15.031-6.722,15.031-15.027C114.849,223.725,108.12,216.995,99.817,216.995z M99.819,244.359
	c-6.802,0-12.336-5.532-12.336-12.332c0-6.801,5.534-12.335,12.336-12.335c6.8,0,12.332,5.534,12.332,12.335
	C112.151,238.827,106.619,244.359,99.819,244.359z"/>
<path fill="#337AE2" d="M99.819,223.547c-4.677,0-8.481,3.805-8.481,8.48c0,4.673,3.805,8.477,8.481,8.477
	c4.674,0,8.478-3.804,8.478-8.477C108.297,227.352,104.493,223.547,99.819,223.547z"/>
<rect x="98.276" y="180.75" fill="#337AE2" width="3.083" height="37.895"/>
<path fill="#337AE2" d="M160.646,15.734C155.646,7.077,143.377,0,133.389,0H65.136c-9.999,0-22.264,7.077-27.263,15.734L3.754,74.84
	c-5.005,8.658-5.005,22.819,0,31.478l34.119,59.113c4.999,8.651,17.264,15.734,27.263,15.734h68.253
	c9.988,0,22.258-7.083,27.257-15.734l34.13-59.113c4.994-8.658,4.994-22.819,0-31.478L160.646,15.734z M146.653,141.205
	c-4.992,8.657-17.256,17.733-27.246,17.733H79.124c-9.999,0-22.264-9.076-27.254-17.733l-20.146-34.887
	c-4.999-8.666-4.999-22.819,0-31.478L51.87,39.954c4.99-8.65,17.255-17.734,27.254-17.734h40.283c9.99,0,22.254,9.084,27.246,17.734
	L167.8,74.84c4.995,8.658,4.995,22.819,0,31.478L146.653,141.205z"/>
<g id="icon">
	<path id="Path_4159" fill="#337AE2" d="M125.547,123.675c-8.245,0-22.394-8.594-35.158-21.377
		C75.627,87.539,64.341,68.313,70.977,61.674c3.055-3.054,8.992-2.508,16.856,1.425c8.798,4.747,16.813,10.816,23.768,17.996
		c12.816,12.816,21.377,26.964,21.377,35.205c0.342,3.739-2.415,7.047-6.156,7.387c-0.417,0.037-0.836,0.037-1.253-0.001
		L125.547,123.675z M76.424,62.273c-1.327-0.103-2.641,0.331-3.644,1.202c-5.192,5.181,6.106,23.676,19.412,37.021
		c12.153,12.154,25.864,20.633,33.354,20.633l0,0c1.332,0.1,2.649-0.339,3.654-1.221l0,0c0.869-0.994,1.305-2.296,1.213-3.613
		c0-7.492-8.455-21.224-20.633-33.401c-6.743-6.998-14.531-12.906-23.087-17.515C83.537,63.609,80.031,62.55,76.424,62.273z"/>
	<path id="Path_4160" fill="#337AE2" d="M76.442,123.672L76.442,123.672c-2.012,0.114-3.984-0.595-5.466-1.963
		c-1.361-1.468-2.065-3.428-1.948-5.427c0-8.253,8.569-22.393,21.374-35.203c17.079-17.086,34.533-25.432,40.602-19.42
		c1.373,1.475,2.085,3.446,1.974,5.457c0,8.235-8.578,22.394-21.374,35.179C98.808,115.079,84.68,123.672,76.442,123.672z
		 M125.496,62.244c-6.749,0-19.719,7.043-33.308,20.632c-12.152,12.155-20.633,25.896-20.623,33.402
		c-0.101,1.323,0.333,2.629,1.203,3.629l0,0c1,0.882,2.315,1.322,3.644,1.221l0,0c7.492,0,21.206-8.479,33.358-20.633
		c12.149-12.153,20.673-25.884,20.662-33.377c0.101-1.33-0.342-2.644-1.221-3.644C128.187,62.585,126.85,62.141,125.496,62.244z"/>
	<path id="Path_4161" fill="#337AE2" d="M100.995,96.362L100.995,96.362c-2.602,0.111-4.798-1.908-4.906-4.509
		c-0.11-2.602,1.909-4.797,4.511-4.907c0.131-0.005,0.262-0.005,0.396,0l0,0c2.601,0.11,4.621,2.305,4.51,4.907
		C105.401,94.299,103.441,96.259,100.995,96.362z M100.995,89.493c-1.194-0.08-2.229,0.823-2.308,2.018
		c-0.081,1.195,0.822,2.228,2.018,2.306c0.097,0.009,0.191,0.009,0.29,0l0,0c1.193,0,2.163-0.963,2.168-2.157l0,0
		c0-0.578-0.234-1.13-0.642-1.537C102.117,89.718,101.569,89.491,100.995,89.493L100.995,89.493z"/>
</g>
</svg>
