<?xml version="1.0" encoding="utf-8"?>
<!-- Generator: Adobe Illustrator 16.0.0, SVG Export Plug-In . SVG Version: 6.00 Build 0)  -->
<!DOCTYPE svg PUBLIC "-//W3C//DTD SVG 1.1//EN" "http://www.w3.org/Graphics/SVG/1.1/DTD/svg11.dtd">
<svg version="1.1" id="Layer_1" xmlns="http://www.w3.org/2000/svg" xmlns:xlink="http://www.w3.org/1999/xlink" x="0px" y="0px"
	 width="198.521px" height="247.055px" viewBox="0 0 198.521 247.055" enable-background="new 0 0 198.521 247.055"
	 xml:space="preserve">
<path fill="#F05722" d="M98.817,216.995c-8.301,0-15.03,6.73-15.03,15.033c0,8.306,6.729,15.027,15.03,15.027
	c8.303,0,15.031-6.722,15.031-15.027C113.849,223.725,107.12,216.995,98.817,216.995z M98.819,244.359
	c-6.802,0-12.336-5.532-12.336-12.332c0-6.801,5.534-12.335,12.336-12.335c6.8,0,12.332,5.534,12.332,12.335
	C111.151,238.827,105.619,244.359,98.819,244.359z"/>
<path fill="#F05722" d="M98.819,223.547c-4.677,0-8.481,3.805-8.481,8.48c0,4.673,3.805,8.477,8.481,8.477
	c4.674,0,8.478-3.804,8.478-8.477C107.297,227.352,103.493,223.547,98.819,223.547z"/>
<rect x="97.276" y="180.75" fill="#F05722" width="3.083" height="37.895"/>
<path fill="#F05722" d="M160.646,15.734C155.646,7.077,143.377,0,133.389,0H65.136c-9.999,0-22.264,7.077-27.263,15.734L3.754,74.84
	c-5.005,8.658-5.005,22.819,0,31.478l34.119,59.113c4.999,8.651,17.264,15.734,27.263,15.734h68.253
	c9.988,0,22.258-7.083,27.257-15.734l34.13-59.113c4.994-8.658,4.994-22.819,0-31.478L160.646,15.734z M146.653,141.205
	c-4.992,8.657-17.256,17.733-27.246,17.733H79.124c-9.999,0-22.264-9.076-27.254-17.733l-20.146-34.887
	c-4.999-8.666-4.999-22.819,0-31.478L51.87,39.954c4.99-8.65,17.255-17.734,27.254-17.734h40.283c9.99,0,22.254,9.084,27.246,17.734
	L167.8,74.84c4.995,8.658,4.995,22.819,0,31.478L146.653,141.205z"/>
<path id="Path_2289" fill="#F05722" d="M130.666,117.982c0,1.032-0.731,1.389-1.763,1.389H74.296v1.181
	c-0.021,1.038-0.5,1.643-1.369,1.628c-0.819,0.019-1.498-0.629-1.517-1.446c-0.002-0.06,0-0.122,0.007-0.182v-1.182H68.25
	c-1.053,0-1.818-0.573-1.788-1.468c0.031-0.894,0.547-1.332,1.6-1.332h3.166l0.189-56.716c-0.086-0.835,0.521-1.583,1.355-1.668
	c0.049-0.005,0.098-0.007,0.146-0.007c0.846,0.008,1.356,0.637,1.377,1.676l-0.188,56.786h8.213L82.51,99.3
	c0-1.053,0.484-1.766,1.538-1.766s1.443,0.712,1.443,1.766l-0.188,17.342h9.068l0.189-27.452c0.022-1.038,0.468-1.869,1.501-1.869
	c1.035,0,1.556,0.836,1.556,1.869l-0.188,27.452h9.141l0.188-17.342c0.022-1.039,0.47-1.853,1.501-1.853
	c1.035,0,1.484,0.82,1.484,1.853l-0.188,17.342h8.969l0.191-29.474c0.02-1.038,0.519-1.785,1.555-1.785
	c0.878-0.015,1.602,0.687,1.617,1.563c0,0.075-0.003,0.147-0.013,0.221l-0.188,29.474h7.209
	C129.861,116.747,130.671,117.02,130.666,117.982z M79.427,94.995c0.442-0.388,16.805-14.206,16.805-14.206l9.13,8.593
	c0.45,0.599,1.302,0.719,1.9,0.269c0.103-0.077,0.193-0.167,0.269-0.269l14.963-14.91c0.429-0.451,0.411-1.164-0.039-1.593
	c-0.031-0.029-0.065-0.057-0.1-0.083c-0.644-0.328-1.428-0.188-1.922,0.341l-14.073,14.19L97.5,78.632
	c-0.642-0.649-1.688-0.657-2.338-0.015c-0.005,0.005-0.009,0.009-0.014,0.015L77.487,93.584c-0.392,0.324-0.955,1.293-0.222,1.922
	S78.982,95.383,79.427,94.995L79.427,94.995z"/>
</svg>
