<?xml version="1.0" encoding="utf-8"?>
<!-- Generator: Adobe Illustrator 16.0.0, SVG Export Plug-In . SVG Version: 6.00 Build 0)  -->
<!DOCTYPE svg PUBLIC "-//W3C//DTD SVG 1.1//EN" "http://www.w3.org/Graphics/SVG/1.1/DTD/svg11.dtd">
<svg version="1.1" id="Layer_1" xmlns="http://www.w3.org/2000/svg" xmlns:xlink="http://www.w3.org/1999/xlink" x="0px" y="0px"
	 width="198.521px" height="247.055px" viewBox="0 0 198.521 247.055" enable-background="new 0 0 198.521 247.055"
	 xml:space="preserve">
<path fill="#049F34" d="M98.817,216.995c-8.301,0-15.03,6.73-15.03,15.033c0,8.306,6.729,15.027,15.03,15.027
	c8.303,0,15.031-6.722,15.031-15.027C113.849,223.725,107.12,216.995,98.817,216.995z M98.819,244.359
	c-6.802,0-12.336-5.532-12.336-12.332c0-6.801,5.534-12.335,12.336-12.335c6.8,0,12.332,5.534,12.332,12.335
	C111.151,238.827,105.619,244.359,98.819,244.359z"/>
<path fill="#049F34" d="M98.819,223.547c-4.677,0-8.481,3.805-8.481,8.48c0,4.673,3.805,8.477,8.481,8.477
	c4.674,0,8.478-3.804,8.478-8.477C107.297,227.352,103.493,223.547,98.819,223.547z"/>
<rect x="97.276" y="180.75" fill="#049F34" width="3.083" height="37.895"/>
<path fill="#049F34" d="M160.646,15.734C155.646,7.077,143.377,0,133.389,0H65.136c-9.999,0-22.264,7.077-27.263,15.734L3.754,74.84
	c-5.005,8.658-5.005,22.819,0,31.478l34.119,59.113c4.999,8.651,17.264,15.734,27.263,15.734h68.253
	c9.988,0,22.258-7.083,27.257-15.734l34.13-59.113c4.994-8.658,4.994-22.819,0-31.478L160.646,15.734z M146.653,141.205
	c-4.992,8.657-17.256,17.733-27.246,17.733H79.124c-9.999,0-22.264-9.076-27.254-17.733l-20.146-34.887
	c-4.999-8.666-4.999-22.819,0-31.478L51.87,39.954c4.99-8.65,17.255-17.734,27.254-17.734h40.283c9.99,0,22.254,9.084,27.246,17.734
	L167.8,74.84c4.995,8.658,4.995,22.819,0,31.478L146.653,141.205z"/>
<g id="icon_1_">
	<g id="Group_1574">
		<path id="Path_5200" fill="#049F34" d="M78.73,107.868L78.73,107.868c-6.928-0.055-12.501-5.714-12.448-12.642
			c0.004-0.636,0.521-1.149,1.157-1.149H90.03c0.639,0,1.157,0.519,1.157,1.158c0.046,6.924-5.524,12.579-12.448,12.633H78.73z
			 M68.652,96.393c0.562,5.568,5.53,9.626,11.098,9.066c4.793-0.482,8.583-4.274,9.067-9.066H68.652z"/>
		<path id="Path_5201" fill="#049F34" d="M98.318,120.001c-0.64,0-1.157-0.52-1.157-1.157V57.159c0.001-0.64,0.52-1.158,1.16-1.157
			c0.638,0.001,1.154,0.519,1.154,1.157v61.686C99.476,119.482,98.959,120.001,98.318,120.001z"/>
		<path id="Path_5202" fill="#049F34" d="M110.473,120.001H86.196c-0.64,0-1.159-0.517-1.159-1.157
			c-0.001-0.638,0.517-1.158,1.155-1.158c0.001,0,0.002,0,0.002,0h24.278c0.64-0.002,1.157,0.517,1.159,1.156
			c0.001,0.64-0.518,1.159-1.156,1.16H110.473z"/>
		<path id="Path_5203" fill="#049F34" d="M72.856,67.031c-0.639-0.007-1.15-0.532-1.144-1.171c0.006-0.554,0.405-1.026,0.949-1.126
			l25.463-4.297c0.632-0.107,1.231,0.318,1.339,0.95s-0.319,1.231-0.951,1.339l-25.46,4.288
			C72.989,67.029,72.923,67.035,72.856,67.031z"/>
		<path id="Path_5204" fill="#049F34" d="M67.478,95.827c-0.138,0.021-0.278,0.021-0.416,0c-0.596-0.234-0.892-0.902-0.666-1.5
			l11.26-29.49c0.171-0.445,0.599-0.739,1.075-0.742l0,0c0.479-0.001,0.91,0.294,1.083,0.742L91.077,94.29
			c0.228,0.601-0.074,1.27-0.673,1.497c-0.599,0.228-1.269-0.073-1.496-0.671l-10.188-26.62L68.533,95.114
			c-0.179,0.427-0.594,0.708-1.056,0.714V95.827z"/>
		<path id="Path_5205" fill="#049F34" d="M78.73,96.393c-0.641,0-1.157-0.518-1.157-1.158V67.449
			c-0.002-0.64,0.517-1.158,1.156-1.159c0.639,0,1.157,0.518,1.158,1.157v0.001v27.786c0.005,0.636-0.506,1.153-1.141,1.158
			C78.741,96.393,78.735,96.393,78.73,96.393z"/>
		<path id="Path_5206" fill="#049F34" d="M117.929,107.868c-6.928-0.055-12.5-5.714-12.449-12.642
			c0.006-0.636,0.521-1.149,1.158-1.149h22.626c0.641,0,1.157,0.519,1.157,1.158c0.043,6.919-5.52,12.567-12.438,12.633H117.929z
			 M107.851,96.393c0.545,5.172,4.876,9.118,10.078,9.178l0,0c5.217-0.026,9.571-3.987,10.089-9.178H107.851z"/>
		<path id="Path_5207" fill="#049F34" d="M106.609,95.827c-0.142-0.002-0.282-0.028-0.417-0.076
			c-0.596-0.232-0.894-0.902-0.666-1.501l11.224-29.417c0.175-0.446,0.604-0.74,1.084-0.741l0,0c0.479,0,0.909,0.295,1.082,0.741
			l11.272,29.454c0.269,0.581,0.017,1.269-0.563,1.538c-0.581,0.268-1.269,0.014-1.537-0.565c-0.022-0.05-0.042-0.098-0.057-0.147
			l-10.188-26.616l-10.188,26.619c-0.177,0.423-0.588,0.704-1.047,0.714L106.609,95.827z"/>
		<path id="Path_5208" fill="#049F34" d="M117.835,96.393c-0.639,0-1.158-0.518-1.158-1.158V67.449
			c-0.001-0.64,0.518-1.158,1.157-1.159c0.639,0,1.157,0.517,1.159,1.157c0,0.001,0,0.002,0,0.002v27.786
			C118.993,95.875,118.474,96.393,117.835,96.393z"/>
		<path id="Path_5209" fill="#049F34" d="M123.81,67.031c-0.065,0.008-0.131,0.008-0.195,0l-25.493-4.305
			c-0.632-0.112-1.053-0.713-0.94-1.344c0.109-0.625,0.701-1.046,1.328-0.943l25.494,4.296c0.629,0.115,1.045,0.718,0.931,1.348
			C124.834,66.626,124.362,67.024,123.81,67.031z"/>
	</g>
</g>
</svg>
