<?xml version="1.0" encoding="utf-8"?>
<!-- Generator: Adobe Illustrator 16.0.0, SVG Export Plug-In . SVG Version: 6.00 Build 0)  -->
<!DOCTYPE svg PUBLIC "-//W3C//DTD SVG 1.1//EN" "http://www.w3.org/Graphics/SVG/1.1/DTD/svg11.dtd">
<svg version="1.1" id="Layer_1" xmlns="http://www.w3.org/2000/svg" xmlns:xlink="http://www.w3.org/1999/xlink" x="0px" y="0px"
	 width="489.397px" height="405.919px" viewBox="0 0 489.397 405.919" enable-background="new 0 0 489.397 405.919"
	 xml:space="preserve">
<g id="Right_2_">
	<g>
		<ellipse opacity="0.1" fill="#6C63FF" enable-background="new    " cx="139.2" cy="361.876" rx="95.344" ry="14.453"/>
		<path opacity="0.1" fill="#FEC400" enable-background="new    " d="M137.658,47.201c15.122-13.327,38.863-16.057,60.479-14.981
			c67.878,3.34,129.143,35.725,182.155,72.365c19.188,13.269,38.081,27.561,50.534,45.83
			c25.354,37.184,17.832,88.697-17.424,119.329c-11.994,10.438-26.535,18.414-41.461,25.496
			c-26.545,12.594-55.186,22.702-85.31,25.58c-21.481,2.053-43.228,0.381-64.586-2.48c-59.672-7.998-118.243-25.693-167.334-55.951
			c-21.528-13.256-41.822-29.772-50.698-51.245s-3.211-48.684,18.792-61.391c9.093-5.258,19.965-7.627,30.608-9.863
			c15.654-3.279,31.584-6.515,45.725-13.184c14.599-6.893,31.89-20.217,29-35.464C125.035,74.873,122.538,60.506,137.658,47.201z"/>
		<path fill="#337AE2" d="M369.672,67.523c2.715,17.889-4.837,33.871-4.837,33.871s-11.951-13.02-14.673-30.909
			c-1.521-10.037,0.187-19.462,1.976-25.813c0.645-2.354,3.073-3.737,5.426-3.093c1.057,0.289,1.969,0.962,2.559,1.889
			C363.724,48.992,368.151,57.491,369.672,67.523z"/>
		<path fill="#337AE2" d="M420.136,96.035c2.688-0.013,5.367,0.325,7.97,1.008c4.379,1.123,4.447,7.325,0.091,8.546
			c-2.585,0.736-5.255,1.134-7.944,1.181c-9.847,0.107-17.89-5.175-17.89-5.175S410.287,96.143,420.136,96.035z"/>
		<path fill="#337AE2" d="M392.442,68.84c-9.164,10.073-11.104,23.236-11.104,23.236s12.918-3.172,22.081-13.248
			c4.246-4.668,6.944-10.001,8.614-14.376c0.87-2.278-0.272-4.831-2.551-5.701c-1.144-0.437-2.419-0.378-3.52,0.161
			C401.74,60.988,396.69,64.17,392.442,68.84z"/>
		<path fill="#293B6B" d="M213.279,66.941h190.448c4.391,0,7.949,3.559,7.949,7.948v232.59c0,4.391-3.559,7.949-7.949,7.949H213.279
			c-4.39,0-7.949-3.559-7.949-7.949V74.89C205.33,70.5,208.89,66.941,213.279,66.941z"/>
		<rect x="223.131" y="92.008" opacity="0.2" fill="#FFFFFF" enable-background="new    " width="170.746" height="198.355"/>
		<circle fill="#FFFFFF" cx="308.505" cy="303.441" r="7.266"/>
		<path fill="#FFFFFF" d="M308.505,84.906c-1.897,0-3.435-1.537-3.435-3.432s1.537-3.433,3.435-3.433
			c1.895,0,3.431,1.537,3.431,3.433l0,0C311.932,83.367,310.397,84.901,308.505,84.906z"/>
		<path fill="#FFFFFF" d="M308.505,78.242c1.783,0,3.23,1.446,3.23,3.231s-1.447,3.231-3.23,3.232c-1.787,0-3.234-1.447-3.234-3.232
			l0,0C305.274,79.689,306.72,78.245,308.505,78.242 M308.505,77.84c-2.008-0.011-3.644,1.607-3.654,3.613
			c-0.012,2.008,1.606,3.643,3.612,3.653c2.009,0.012,3.643-1.606,3.653-3.613c0-0.006,0-0.013,0-0.02
			c0.011-1.995-1.597-3.621-3.593-3.633C308.517,77.84,308.51,77.84,308.505,77.84z"/>
		<path fill="#FEC400" stroke="#FFFFFF" stroke-miterlimit="10" d="M232.789,153.454h31.961c0.952,0,1.726,0.773,1.726,1.727v44.689
			c0,0.953-0.773,1.727-1.726,1.727h-31.961c-0.952,0-1.727-0.773-1.727-1.727v-44.689
			C231.063,154.227,231.837,153.454,232.789,153.454z"/>
		<path fill="#337AE2" enable-background="new    " d="M237.249,165.586h23.039c1.584,0,2.867,1.283,2.867,2.866v9.543
			c0,1.583-1.283,2.866-2.867,2.866h-23.039c-1.583,0-2.865-1.283-2.865-2.866v-9.543
			C234.384,166.869,235.666,165.586,237.249,165.586z"/>
		<path fill="#FFFFFF" d="M241.067,187.092h15.402c0.375,0,0.68,0.304,0.68,0.679v1.017c0,0.374-0.305,0.678-0.68,0.678h-15.402
			c-0.375,0-0.678-0.304-0.678-0.678v-1.017C240.39,187.396,240.692,187.092,241.067,187.092z"/>
		<path fill="#F15723" stroke="#FFFFFF" stroke-miterlimit="10" d="M292.658,153.454h31.959c0.953,0,1.727,0.773,1.727,1.727v44.689
			c0,0.953-0.773,1.727-1.727,1.727h-31.959c-0.954,0-1.726-0.773-1.726-1.727v-44.689
			C290.933,154.227,291.704,153.454,292.658,153.454z"/>
		<path fill="#029F34" enable-background="new    " d="M300.831,160.974h15.799c0.323,0,0.585,0.262,0.585,0.587v7.835
			c0,0.324-0.262,0.587-0.585,0.587h-15.799c-0.324,0-0.586-0.263-0.586-0.587v-7.835
			C300.245,161.235,300.507,160.974,300.831,160.974z"/>
		<path fill="#FFFFFF" d="M298.443,178.424h20.305c0.374,0,0.679,0.303,0.679,0.679v1.016c0,0.374-0.305,0.678-0.679,0.678h-20.305
			c-0.376,0-0.678-0.304-0.678-0.678v-1.016C297.766,178.728,298.067,178.424,298.443,178.424z"/>
		<path fill="#FFFFFF" d="M298.443,182.849h20.305c0.374,0,0.679,0.305,0.679,0.679v1.016c0,0.374-0.305,0.679-0.679,0.679h-20.305
			c-0.376,0-0.678-0.305-0.678-0.679v-1.016C297.766,183.153,298.067,182.849,298.443,182.849z"/>
		<path fill="#F15723" stroke="#FFFFFF" stroke-miterlimit="10" d="M352.257,119.255h31.96c0.953,0,1.728,0.773,1.728,1.726v44.69
			c0,0.953-0.774,1.726-1.728,1.726h-31.96c-0.951,0-1.726-0.773-1.726-1.726v-44.69
			C350.531,120.028,351.306,119.255,352.257,119.255z"/>
		<path fill="#FEC400" enable-background="new    " d="M357.296,126.726h21.882c0.325,0,0.588,0.262,0.588,0.586v9.586
			c0,0.325-0.263,0.587-0.588,0.587h-21.882c-0.325,0-0.585-0.262-0.585-0.587v-9.586
			C356.711,126.988,356.971,126.726,357.296,126.726z"/>
		<path fill="#FEC400" enable-background="new    " d="M357.296,142.362h21.882c0.325,0,0.588,0.263,0.588,0.586v9.587
			c0,0.324-0.263,0.585-0.588,0.585h-21.882c-0.325,0-0.585-0.261-0.585-0.585v-9.587
			C356.711,142.625,356.971,142.362,357.296,142.362z"/>
		<path fill="#FFFFFF" d="M356.405,161.793h4.487c0.849,0,1.538,0.688,1.538,1.537v0.245c0,0.849-0.689,1.537-1.538,1.537h-4.487
			c-0.85,0-1.539-0.688-1.539-1.537v-0.245C354.866,162.481,355.556,161.793,356.405,161.793z"/>
		<path fill="#FFFFFF" d="M365.995,161.793h4.489c0.849,0,1.536,0.688,1.536,1.537v0.245c0,0.849-0.688,1.537-1.536,1.537h-4.489
			c-0.849,0-1.537-0.688-1.537-1.537v-0.245C364.458,162.481,365.146,161.793,365.995,161.793z"/>
		<path fill="#FFFFFF" d="M375.586,161.793h4.489c0.849,0,1.537,0.688,1.537,1.537v0.245c0,0.849-0.688,1.537-1.537,1.537h-4.489
			c-0.849,0-1.537-0.688-1.537-1.537v-0.245C374.049,162.481,374.737,161.793,375.586,161.793z"/>
		<path fill="#029F34" stroke="#FFFFFF" stroke-miterlimit="10" d="M352.173,187.654h31.959c0.955,0,1.728,0.774,1.728,1.726v44.69
			c0,0.953-0.772,1.726-1.728,1.726h-31.959c-0.954,0-1.725-0.772-1.725-1.726v-44.69
			C350.448,188.428,351.219,187.654,352.173,187.654z"/>
		<path fill="#F15723" enable-background="new    " d="M353.769,193.283h9.409c0.322,0,0.586,0.262,0.586,0.586v9.586
			c0,0.323-0.264,0.586-0.586,0.586h-9.409c-0.325,0-0.588-0.263-0.588-0.586v-9.586
			C353.181,193.545,353.443,193.283,353.769,193.283z"/>
		<path fill="#FFFFFF" d="M358.003,210.594h20.305c0.375,0,0.679,0.303,0.679,0.678v1.016c0,0.374-0.304,0.679-0.679,0.679h-20.305
			c-0.375,0-0.679-0.305-0.679-0.679v-1.016C357.324,210.896,357.628,210.594,358.003,210.594z"/>
		<path fill="#FFFFFF" d="M358.003,215.39h20.305c0.375,0,0.679,0.305,0.679,0.68v1.016c0,0.375-0.304,0.678-0.679,0.678h-20.305
			c-0.375,0-0.679-0.303-0.679-0.678v-1.016C357.324,215.694,357.628,215.39,358.003,215.39z"/>
		<path fill="#FFFFFF" d="M358.003,220.188h20.305c0.375,0,0.679,0.303,0.679,0.678v1.016c0,0.374-0.304,0.679-0.679,0.679h-20.305
			c-0.375,0-0.679-0.305-0.679-0.679v-1.016C357.324,220.491,357.628,220.188,358.003,220.188z"/>
		<path fill="#FFFFFF" stroke="#FFFFFF" stroke-miterlimit="10" d="M286.849,176.377l-0.541,0.261l-4.393,2.112l-0.401,0.188
			c-0.108,0.051-0.237,0.003-0.288-0.105c-0.002-0.003-0.004-0.007-0.005-0.011c-0.005-0.027-0.005-0.054,0-0.08v-1.249
			c0-0.118-0.095-0.213-0.212-0.213l0,0h-10.676c-0.117,0-0.215-0.094-0.216-0.213v-1.762c0.001-0.118,0.099-0.213,0.216-0.213
			h10.688c0.119-0.002,0.213-0.099,0.213-0.217V173.6c-0.006-0.027-0.006-0.054,0-0.081c0.045-0.11,0.172-0.163,0.282-0.117
			c0.004,0.001,0.007,0.003,0.01,0.004l0.402,0.188l4.38,2.132l0.541,0.264c0.107,0.05,0.152,0.178,0.104,0.283
			C286.93,176.32,286.895,176.356,286.849,176.377z"/>
		<path fill="#FFFFFF" stroke="#FFFFFF" stroke-miterlimit="10" d="M346.276,165.55l-0.354,0.485l-2.874,3.918l-0.252,0.351
			c-0.075,0.096-0.214,0.113-0.311,0.038c0,0-0.001-0.001-0.003-0.003c-0.021-0.018-0.038-0.039-0.049-0.063l-0.585-1.101
			c-0.058-0.104-0.187-0.146-0.293-0.093l-9.435,5.023c-0.104,0.056-0.233,0.017-0.288-0.086c0-0.001-0.002-0.001-0.002-0.001
			l-0.825-1.562c-0.057-0.104-0.017-0.232,0.084-0.288c0.003,0,0.003,0,0.003-0.001l9.435-5.015c0.104-0.055,0.144-0.183,0.09-0.287
			l-0.002-0.001l-0.598-1.129c-0.016-0.022-0.024-0.048-0.024-0.076c-0.016-0.113,0.063-0.219,0.179-0.234
			c0.01-0.002,0.017-0.002,0.026-0.003h0.43l4.865-0.176l0.602-0.02c0.118,0,0.215,0.095,0.215,0.212
			C346.31,165.478,346.298,165.517,346.276,165.55z"/>
		<path fill="#FFFFFF" stroke="#FFFFFF" stroke-miterlimit="10" d="M346.245,186.128h-0.6h-4.861h-0.43
			c-0.118,0-0.213-0.095-0.213-0.211c0-0.006,0-0.012,0-0.017c0.001-0.028,0.008-0.053,0.02-0.077l0.539-1.127
			c0.051-0.107,0.006-0.234-0.1-0.285c0,0,0,0-0.002,0l-9.635-4.626c-0.106-0.052-0.152-0.181-0.099-0.289l0.763-1.585
			c0.046-0.105,0.17-0.152,0.275-0.104c0,0,0.006,0.002,0.009,0.004l9.634,4.629c0.108,0.049,0.237,0.005,0.291-0.101l0.553-1.152
			c0.049-0.105,0.17-0.152,0.277-0.105c0.031,0.015,0.059,0.037,0.081,0.065l0.269,0.334l3.023,3.821l0.373,0.474
			c0.077,0.088,0.068,0.223-0.02,0.301C346.353,186.111,346.299,186.131,346.245,186.128z"/>
		<polygon fill="#293B6B" points="170.296,275.552 170.264,276.728 168.216,349.019 164.771,349.019 166.461,276.728 
			166.494,275.373 		"/>
		<polygon fill="#293B6B" points="190.228,336.791 187.65,336.783 149.331,336.701 147.292,336.698 148.377,333.345 
			189.954,333.345 		"/>
		<polygon opacity="0.1" enable-background="new    " points="170.296,275.552 170.264,276.728 166.461,276.728 166.494,275.373 		
			"/>
		<rect x="165.361" y="273.787" fill="#293B6B" width="6.387" height="2.4"/>
		<polygon opacity="0.1" enable-background="new    " points="149.675,333.345 149.331,336.701 147.292,336.698 148.377,333.345 		
			"/>
		<polygon fill="#293B6B" points="155.172,273.742 155.064,274.783 146.565,358.617 142.671,358.437 151.628,274.783 
			151.728,273.83 		"/>
		<polygon opacity="0.1" enable-background="new    " points="190.228,336.791 187.65,336.783 187.302,333.345 189.954,333.345 		
			"/>
		<polygon fill="#293B6B" points="194.307,358.437 190.409,358.617 181.909,274.783 181.804,273.742 185.246,273.83 
			185.347,274.783 		"/>
		<rect x="125.008" y="191.078" fill="#FFFFFF" width="85.874" height="82.341"/>
		<path fill="#FFFFFF" d="M107.83,191.078h120.331c0.914,0,1.658,0.743,1.658,1.658v79.027c0,0.916-0.744,1.656-1.658,1.656H107.83
			c-0.915,0-1.659-0.74-1.659-1.656v-79.027C106.171,191.821,106.915,191.078,107.83,191.078z"/>
		<path fill="#293B6B" d="M169.616,163.543v19.884h-3.348v-19.884c-0.001-0.924,0.749-1.675,1.672-1.676
			c0.926,0,1.676,0.749,1.676,1.673C169.616,163.541,169.616,163.542,169.616,163.543z"/>
		<rect x="166.269" y="181.617" opacity="0.1" enable-background="new    " width="3.353" height="1.81"/>
		<path fill="#293B6B" d="M170.935,182.973v6.568h-5.979v-6.568c0-0.443,0.36-0.803,0.803-0.803h4.348
			c0.443-0.014,0.814,0.335,0.828,0.778C170.935,182.956,170.935,182.965,170.935,182.973z"/>
		<circle opacity="0.1" enable-background="new    " cx="167.942" cy="186.325" r="1.269"/>
		<circle fill="#3F3D56" cx="167.942" cy="186.052" r="1.269"/>
		<rect x="164.956" y="188.727" opacity="0.1" enable-background="new    " width="5.979" height="0.814"/>
		<rect x="162.508" y="189.813" opacity="0.1" enable-background="new    " width="10.871" height="1.811"/>
		<rect x="162.508" y="189.268" fill="#293B6B" width="10.871" height="1.811"/>
		<path opacity="0.1" enable-background="new    " d="M146.385,271.277h44.794c1.33,0,2.408,1.078,2.408,2.408l0,0l0,0h-49.603l0,0
			l0,0C143.984,272.359,145.058,271.281,146.385,271.277z"/>
		<polygon opacity="0.1" enable-background="new    " points="151.728,273.83 155.172,273.742 155.064,274.783 151.628,274.783 		
			"/>
		<rect x="165.361" y="273.787" opacity="0.1" enable-background="new    " width="6.387" height="0.996"/>
		<polygon opacity="0.1" enable-background="new    " points="185.347,274.783 181.909,274.783 181.804,273.742 185.246,273.83 		
			"/>
		<path fill="#293B6B" d="M146.385,271.839h44.794c1.33,0,2.408,1.078,2.408,2.408l0,0l0,0h-49.603l0,0l0,0
			c0-1.33,1.077-2.408,2.409-2.408H146.385z"/>
		<path fill="#FFFFFF" stroke="#33313F" stroke-width="3" stroke-miterlimit="10" d="M207.884,200.75
			c0.326-0.051,0.632,0.172,0.683,0.499c0.009,0.053,0.01,0.107,0.003,0.16c-0.58,5.62-0.208,11.377,0.422,16.985
			c0.293,2.565,0.69,5.278,1.826,7.182c0.15,0.238,0.117,0.546-0.08,0.746c-0.317,0.248-0.715,0.366-1.115,0.334l-17.918,0.1
			c-0.33,0.004-0.6-0.262-0.602-0.593c0-0.049,0.004-0.097,0.016-0.146c1.441-6.142,1.132-12.846,0.556-19.217
			c-0.286-3.136-0.45-4.819,1.891-5.039c2.408-0.217,4.817-0.317,7.225-0.518C201.368,201.194,206.001,201.059,207.884,200.75z"/>
		<path fill="#FFFFFF" stroke="#33313F" stroke-width="3" stroke-miterlimit="10" d="M194.173,237.559
			c-0.325-0.051-0.632,0.173-0.682,0.499c-0.008,0.052-0.01,0.107-0.003,0.16c0.58,5.62,0.207,11.375-0.425,16.985
			c-0.291,2.564-0.688,5.279-1.823,7.186c-0.151,0.236-0.117,0.545,0.079,0.742c0.318,0.248,0.716,0.367,1.117,0.334l17.916,0.104
			c0.335-0.002,0.604-0.275,0.601-0.609c0-0.045-0.005-0.09-0.015-0.133c-1.441-6.143-1.132-12.846-0.555-19.217
			c0.285-3.137,0.451-4.818-1.891-5.038c-2.341-0.222-4.817-0.318-7.226-0.519C200.688,238.004,196.057,237.868,194.173,237.559z"/>
		<path fill="none" stroke="#33313F" stroke-width="2" stroke-linecap="round" stroke-miterlimit="10" d="M199.437,247.9
			c2.082-0.098,4.168-0.072,6.246,0.076c0.278,0.027,0.5,0.244,0.531,0.521l0.197,1.643c0.02,0.074,0,0.154-0.049,0.213
			c-0.045,0.031-0.099,0.045-0.152,0.041c-0.875,0.023-1.752-0.076-2.623,0c-0.541,0.043-1.079,0.146-1.604,0.207
			c-0.89,0.08-1.783,0.096-2.673,0.049c-1.257,0.021-2.51-0.133-3.724-0.457c0,0,0.074-1.361,0.074-1.49
			c0-0.635-0.021-0.69,0.634-0.707L199.437,247.9z"/>
		<path fill="none" stroke="#33313F" stroke-width="2" stroke-linecap="round" stroke-miterlimit="10" d="M199.437,255.302
			c2.082,0.098,4.168,0.072,6.246-0.08c0.278-0.025,0.5-0.244,0.531-0.521l0.197-1.639c0.02-0.074,0-0.154-0.049-0.217
			c-0.045-0.031-0.099-0.045-0.152-0.039c-0.875-0.025-1.752,0.08-2.623,0c-0.541-0.041-1.079-0.145-1.604-0.205
			c-0.89-0.08-1.783-0.096-2.673-0.047c-1.257-0.023-2.51,0.131-3.724,0.456c0,0,0.074,1.356,0.074,1.489
			c0,0.635-0.021,0.688,0.634,0.707L199.437,255.302z"/>
		<path fill="none" stroke="#33313F" stroke-width="2" stroke-linecap="round" stroke-miterlimit="10" d="M199.437,258.201
			c2.082-0.098,4.168-0.07,6.246,0.08c0.278,0.027,0.5,0.246,0.531,0.521l0.197,1.639c0.02,0.076,0,0.158-0.049,0.217
			c-0.045,0.033-0.099,0.047-0.152,0.041c-0.875,0.023-1.752-0.08-2.623,0c-0.541,0.041-1.079,0.148-1.604,0.209
			c-0.89,0.076-1.783,0.092-2.673,0.043c-1.257,0.023-2.51-0.129-3.724-0.453c0,0,0.074-1.361,0.074-1.494
			c0-0.635-0.021-0.686,0.634-0.701L199.437,258.201z"/>
		<path fill="#FFFFFF" stroke="#33313F" stroke-width="2" stroke-linecap="round" stroke-miterlimit="10" d="M202.075,223.842
			c0.183,0.44,0.244,0.924,0.176,1.396c0.001,0.038-0.01,0.075-0.027,0.108c-0.046,0.043-0.106,0.065-0.17,0.061l-3.813,0.148
			c0,0,0.214-1.124,0.241-1.205c0.133-0.458,0.465-0.337,0.896-0.361L202.075,223.842z"/>
		<path fill="#FFFFFF" stroke="#33313F" stroke-width="2" stroke-linecap="round" stroke-miterlimit="10" d="M207.835,223.842
			c0.184,0.44,0.242,0.924,0.173,1.396c0.003,0.038-0.006,0.075-0.024,0.108c-0.045,0.043-0.106,0.063-0.168,0.061l-3.818,0.148
			c0,0,0.217-1.124,0.244-1.205c0.131-0.458,0.462-0.337,0.896-0.361L207.835,223.842z"/>
		<path fill="none" stroke="#33313F" stroke-width="3" stroke-miterlimit="10" d="M205.534,204.676l0.515,4.416
			c0.071,0.661-0.407,1.255-1.069,1.326c-0.008,0.001-0.017,0.002-0.027,0.003c-3.257,0.258-6.532,0.235-9.787-0.064
			c-0.599-0.059-1.062-0.548-1.087-1.149c-0.062-0.787-0.177-1.569-0.347-2.339c-0.131-0.804-0.276-1.578,0.672-1.815
			s2.243-0.067,3.278-0.088c1.242-0.024,2.48-0.058,3.714-0.104C201.741,204.86,205.534,204.655,205.534,204.676z"/>
		<path fill="none" stroke="#33313F" stroke-width="3" stroke-miterlimit="10" d="M205.534,220.629l0.506-4.416
			c0.072-0.66-0.408-1.255-1.068-1.326c-0.009-0.001-0.018-0.001-0.027-0.002c-3.258-0.258-6.533-0.237-9.787,0.06
			c-0.6,0.059-1.064,0.55-1.089,1.152c-0.06,0.788-0.175,1.569-0.345,2.34c-0.132,0.803-0.277,1.578,0.672,1.815
			c0.947,0.237,2.242,0.068,3.279,0.088c1.24,0.024,2.477,0.056,3.713,0.105C201.741,220.457,205.534,220.661,205.534,220.629z"/>
		<path fill="none" stroke="#33313F" stroke-width="2" stroke-linecap="round" stroke-miterlimit="10" d="M200.377,240.531
			c-0.136,1.469-0.219,2.939-0.254,4.414c-1.473-0.012-2.941-0.18-4.38-0.502c-0.428-0.02-0.758-0.383-0.738-0.809
			c0.004-0.047,0.01-0.094,0.02-0.139c-0.028-0.916-0.51-2.959,0.779-3.086C196.189,240.369,200.373,240.601,200.377,240.531z"/>
		<path fill="#FFFFFF" stroke="#33313F" stroke-width="3" stroke-linecap="round" stroke-miterlimit="10" d="M129.492,220.473
			c0.703-0.076,1.335,0.433,1.411,1.136c0.009,0.085,0.01,0.171,0.001,0.258c-0.462,5.344-0.096,10.815,0.507,16.142
			c0.269,2.369,0.626,4.863,1.573,6.728c0.266,0.518,0.063,1.15-0.454,1.418c-0.147,0.076-0.312,0.117-0.477,0.117l0,0
			l-17.776,0.104c-0.392,0.003-0.71-0.313-0.713-0.701c0-0.053,0.007-0.105,0.019-0.158c1.409-6.109,1.1-12.782,0.525-19.1
			c-0.29-3.136-0.45-4.818,1.887-5.038c2.409-0.214,4.816-0.314,7.206-0.519C123.712,220.818,127.356,220.706,129.492,220.473z"/>
		<path fill="#FFFFFF" stroke="#33313F" stroke-width="3" stroke-miterlimit="10" d="M154.222,220.373
			c-0.349-0.053-0.676,0.185-0.727,0.535c-0.01,0.056-0.012,0.114-0.005,0.172c0.574,5.593,0.201,11.341-0.429,16.929
			c-0.29,2.566-0.687,5.267-1.818,7.175c-0.165,0.279-0.092,0.637,0.168,0.83c0.304,0.191,0.661,0.281,1.02,0.258l17.869,0.104
			c0.355,0,0.643-0.287,0.643-0.643c0-0.053-0.008-0.107-0.02-0.16c-1.427-6.131-1.121-12.827-0.543-19.169
			c0.285-3.136,0.449-4.817-1.888-5.039c-2.407-0.212-4.816-0.313-7.225-0.518C160.677,220.81,156.14,220.678,154.222,220.373z"/>
		
			<line fill="none" stroke="#33313F" stroke-width="2" stroke-linecap="round" stroke-miterlimit="10" x1="118.85" y1="224.021" x2="127.938" y2="236.146"/>
		
			<line fill="none" stroke="#33313F" stroke-width="2" stroke-linecap="round" stroke-miterlimit="10" x1="127.938" y1="223.114" x2="119.15" y2="236.752"/>
		
			<line fill="none" stroke="#33313F" stroke-width="2" stroke-linecap="round" stroke-miterlimit="10" x1="159.408" y1="224.592" x2="164.358" y2="231.196"/>
		
			<line fill="none" stroke="#33313F" stroke-width="2" stroke-linecap="round" stroke-miterlimit="10" x1="164.358" y1="224.094" x2="159.572" y2="231.525"/>
		<path fill="none" stroke="#33313F" stroke-width="2" stroke-linecap="round" stroke-miterlimit="10" d="M121.853,240.019
			c2.083-0.096,4.17-0.07,6.25,0.076c0.275,0.03,0.497,0.246,0.531,0.523l0.191,1.641c0.02,0.076,0.002,0.154-0.045,0.217
			c-0.045,0.027-0.099,0.041-0.152,0.041c-0.875,0.023-1.753-0.08-2.625,0c-0.542,0.04-1.076,0.145-1.604,0.203
			c-0.891,0.08-1.784,0.096-2.675,0.049c-1.254,0.023-2.506-0.131-3.717-0.457c-0.024,0,0.071-1.357,0.071-1.49
			c0-0.633-0.024-0.686,0.63-0.707L121.853,240.019z"/>
		<path fill="none" stroke="#33313F" stroke-width="2" stroke-linecap="round" stroke-miterlimit="10" d="M160.039,233.957
			c2.081-0.097,4.17-0.07,6.249,0.08c0.279,0.028,0.5,0.245,0.53,0.523l0.192,1.638c0.021,0.075,0.004,0.155-0.044,0.217
			c-0.044,0.031-0.098,0.045-0.152,0.04c-0.874,0.023-1.754-0.08-2.624,0c-0.544,0.04-1.077,0.147-1.606,0.204
			c-0.89,0.08-1.783,0.096-2.675,0.048c-1.256,0.021-2.508-0.132-3.721-0.458c-0.02,0,0.073-1.357,0.073-1.489
			c0-0.634-0.021-0.686,0.632-0.706L160.039,233.957z"/>
		<path fill="none" stroke="#33313F" stroke-width="2" stroke-linecap="round" stroke-miterlimit="10" d="M163.222,238.506
			c-2.082-0.097-4.168-0.071-6.246,0.077c-0.278,0.026-0.499,0.244-0.529,0.521l-0.185,1.639c-0.024,0.075-0.009,0.157,0.042,0.216
			c0.045,0.033,0.1,0.047,0.153,0.041c0.876,0.023,1.751-0.078,2.626,0c0.542,0.039,1.076,0.148,1.605,0.209
			c0.889,0.076,1.783,0.092,2.674,0.047c1.256,0.023,2.508-0.131,3.722-0.457c0.021,0-0.073-1.361-0.073-1.49
			c0-0.639,0.024-0.69-0.63-0.706L163.222,238.506z"/>
		<path fill="none" stroke="#33313F" stroke-width="3" stroke-miterlimit="10" d="M137.243,235.535c0,0,5.906-0.301,6.965,0"/>
		<path fill="none" stroke="#33313F" stroke-width="3" stroke-miterlimit="10" d="M144.217,232.355c0,0,2.573,2.573,2.573,3.18
			s-3.331,2.726-3.331,2.726"/>
		<path fill="none" stroke="#33313F" stroke-width="3" stroke-miterlimit="10" d="M175.868,230.044c0,0,5.35-2.506,6.447-2.626"/>
		<path fill="none" stroke="#33313F" stroke-width="3" stroke-miterlimit="10" d="M181.119,224.475c0,0,3.352,1.414,3.58,1.972
			c0.229,0.557-2.056,3.78-2.056,3.78"/>
		<path fill="none" stroke="#33313F" stroke-width="3" stroke-miterlimit="10" d="M175.811,236.459c0,0,5.44,2.308,6.263,3.046"/>
		<path fill="none" stroke="#33313F" stroke-width="3" stroke-miterlimit="10" d="M183.463,236.643c0,0,1.204,3.44,0.923,3.985
			c-0.279,0.547-4.187,0.996-4.187,0.996"/>
		<path fill="#FFFFFF" stroke="#33313F" stroke-width="2" stroke-linecap="round" stroke-miterlimit="10" d="M196.924,223.842
			c0.182,0.44,0.242,0.924,0.173,1.396c0.002,0.038-0.006,0.075-0.023,0.108c-0.046,0.043-0.107,0.063-0.17,0.061l-3.817,0.148
			c0,0,0.217-1.124,0.245-1.205c0.127-0.458,0.465-0.337,0.895-0.361L196.924,223.842z"/>
		<polygon fill="#33313F" points="124.804,258.439 126.151,257.181 124.947,257.132 124.317,258.101 		"/>
		<polygon fill="#65617D" points="115.1,267.238 116.529,265.404 116.846,265.074 121.221,260.49 122.711,258.933 123.409,258.847 
			124.414,257.853 125.003,258.369 124.028,259.51 124.043,260.109 122.522,261.757 118.228,266.423 117.95,266.72 116.224,268.318 
					"/>
		<polygon fill="#33313F" points="116.846,265.074 121.221,260.49 122.522,261.757 118.228,266.423 		"/>
		
			<linearGradient id="SVGID_1_" gradientUnits="userSpaceOnUse" x1="2289.3164" y1="-163.1011" x2="2289.3164" y2="54.8262" gradientTransform="matrix(1 0 0 -1 -2192.7695 211.4717)">
			<stop  offset="0" style="stop-color:#808080;stop-opacity:0.25"/>
			<stop  offset="0.54" style="stop-color:#808080;stop-opacity:0.12"/>
			<stop  offset="1" style="stop-color:#808080;stop-opacity:0.1"/>
		</linearGradient>
		<path fill="url(#SVGID_1_)" d="M123.45,266.839c-1.272-1.182-2.379-2.533-3.289-4.014c-1.926-3.002-5.146-4.625-7.354-5.432
			v-0.975l0.138-0.029l-0.061-0.906h0.061l-0.157-2.408v-0.021l0,0l-0.795-11.951c0,0-2.831-7.968,2.199-15.319
			c5.031-7.351,0.314-14.4-4.415-17.157c0,0-2.201-11.643-0.313-14.4c-2.561-1.474-5.198-2.807-7.902-3.995
			c-0.043-0.144-0.079-0.289-0.115-0.441c-0.053-1.084-0.12-2.168-0.182-3.253c0.063-0.563,0.167-1.121,0.311-1.669
			c0.06-0.229,0.127-0.457,0.2-0.695c4.603-1.758,7.653-6.158,7.688-11.083c0-1.405-0.252-2.797-0.748-4.111
			c0.256-0.417,0.447-0.869,0.574-1.341c0.301-1.24-0.04-2.565-0.746-3.822c-1.261-2.722-4.404-5.271-6.685-6.214
			c-3.268-1.324-8.187-1.013-11.591-0.602c-1.91,0.228-4.09,0.867-4.779,2.617c-0.254,0.642-0.259,1.353-0.434,2.007
			c-0.717,2.674-3.803,3.918-5.708,5.965c-1.688,1.807-2.41,4.252-2.972,6.633c-1.566,6.823-1.939,13.864-1.104,20.814
			c0.192,1.606,0.448,3.192,0.721,4.782c-1.148,1.605-2.183,4.443-1.709,9.373l-3.773,17.77l-1.57,10.417
			c0,0-0.943,4.288,2.811,7.966c2.409,2.344,5.318,6.307,7.113,8.871c-0.78,2.271-1.168,4.66-1.145,7.063
			c0.041,1.092,0.101,2.146,0.177,3.15c0.159,2.133,0.563,4.24,1.206,6.279c0.44,4.279,1.311,9.752,3.018,13.248l0.627,18.688
			c0,0-0.944,17.158-2.811,20.527c-1.866,3.367,4.082,31.861,4.082,31.861v3.984l-1.002,2.945l-0.255-0.188
			c-4.712,5.82,0,7.963,0,7.963s1.286,0.063,3.337,0.143c-0.358,1.68,0.469,3.387,2.007,4.15c0,0,26.71,1.225,31.426,0
			c4.718-1.225,3.456-5.516,0.94-5.219c-0.959,0.119-2.377-0.133-3.762-0.49c1.465-1.705,0.293-4.014-1.577-3.797
			c-2.514,0.305-8.17-1.92-8.17-1.92l-0.028,0.036c-0.182-0.069-0.365-0.124-0.554-0.168c-2.102-0.474-4.178-1.052-6.22-1.739
			c-1.205-2.582-4.013-9.518-2.007-14.898c0.908-2.432,1.205-5.668,1.205-8.807c0.048-9.472,1.441-18.887,4.138-27.965l3.77-12.846
			c0,0,5.344-15.631,5.657-19.918l-0.021-6.238c4.416,2.811,7.93,1.967,10.169,0.654c1.146-0.676,1.527-2.152,0.851-3.299
			C123.796,267.203,123.638,267.007,123.45,266.839z M81.511,234.323c0.107-0.449,0.195-0.94,0.273-1.458
			c0.737,0,1.479,0,2.218-0.023c0.92,1.866,1.307,3.95,1.116,6.021c-1.701-0.526-4.246-1.814-3.607-4.52V234.323z"/>
		<path fill="#DB8B8B" d="M84.497,357.525l-1.205,3.613l3.931,3.93l13.002,3.023l9.374-0.908l-0.605-3.328l0,0
			c-0.367-1.455-1.516-2.584-2.979-2.926c-3.854-0.908-11.201-2.971-12.746-5.842L84.497,357.525z"/>
		<path opacity="0.1" enable-background="new    " d="M84.497,357.525l-1.205,3.613l3.931,3.93l13.002,3.023l9.374-0.908
			l-0.605-3.328l0,0c-0.367-1.455-1.516-2.584-2.979-2.926c-3.854-0.908-11.201-2.971-12.746-5.842L84.497,357.525z"/>
		<path d="M106.573,366.277l-1.814-2.408l1.814-2.811c0,0,5.439,2.195,7.859,1.895c2.422-0.301,3.613,3.93-0.906,5.139
			c-4.521,1.207-30.238,0-30.238,0s-4.537-2.115,0-7.861l3.931,3.023c0,0,6.651,3.613,9.98,3.023H106.573z"/>
		<path fill="#DB8B8B" d="M114.733,371.419l-9.372,0.906l-13.004-3.027l-3.942-3.93l0.32-0.959l0.45-1.349l0.441-1.321l8.769-2.409
			c0.443,0.724,1.053,1.333,1.778,1.778c2.847,1.947,7.966,3.357,10.967,4.061c0.125,0.031,0.254,0.066,0.374,0.111
			c1.292,0.43,2.273,1.49,2.605,2.811L114.733,371.419z"/>
		<path opacity="0.1" enable-background="new    " d="M114.733,371.419l-9.372,0.906l-13.004-3.027l-3.942-3.93l0.32-0.959
			l3.615,2.773c0,0,6.654,3.613,9.979,3.023h9.37l-1.814-2.408l1.63-2.518c1.292,0.43,2.273,1.49,2.605,2.811L114.733,371.419z"/>
		<path d="M111.699,370.511l-1.814-2.408l1.814-2.811c0,0,5.444,2.197,7.86,1.896c2.416-0.303,3.613,3.93-0.902,5.143
			c-4.517,1.211-30.242,0-30.242,0s-4.535-2.121,0-7.865l3.93,3.023c0,0,6.657,3.611,9.979,3.025L111.699,370.511z"/>
		<path fill="#DB8B8B" d="M104.153,195.129c0,0-14.514,1.51-12.398-4.537c0.593-1.714,0.746-3.549,0.446-5.339
			c-0.377-2.217-1.252-4.32-2.562-6.149l13.604,2.115c-0.815,1.363-1.436,2.833-1.842,4.368
			C99.78,192.005,104.153,195.129,104.153,195.129z"/>
		<path fill="#35323E" d="M79.358,264.07c0,0,0.301,13.004,3.324,19.355l0.605,18.441c0,0-0.907,16.938-2.722,20.262
			c-1.815,3.324,3.931,31.45,3.931,31.45v4.837c0,0,9.674,3.613,12.397-0.605l-2.724-35.982l1.204-49.893L79.358,264.07z"/>
		<path opacity="0.1" enable-background="new    " d="M79.354,264.07c0,0,0.302,13.004,3.325,19.355l0.605,18.441
			c0,0-0.906,16.938-2.722,20.262s3.931,31.45,3.931,31.45v4.837c0,0,9.675,3.613,12.396-0.605l-2.722-35.982l1.203-49.893
			L79.354,264.07z"/>
		<path fill="#337AE2" d="M73.308,222.344l-1.813,4.838l-1.512,10.281c-0.412,2.906,0.601,5.833,2.724,7.861
			c3.612,3.611,8.467,11.188,8.467,11.188l5.744-17.234c0,0-5.744-0.907-4.817-4.837c0.928-3.93,0.601-11.189,0.601-11.189
			L73.308,222.344z"/>
		<path opacity="0.1" enable-background="new    " d="M100.186,361.101c-3.882,6.107-9.917,2.646-10.987,1.96l0.441-1.321
			l8.768-2.409C98.854,360.052,99.463,360.659,100.186,361.101z"/>
		<path fill="#35323E" d="M112.317,275.865c-0.305,4.232-5.444,19.672-5.444,19.672l-3.612,12.689
			c-2.605,8.967-3.954,18.252-4.007,27.588c0,3.096-0.283,6.291-1.155,8.691c-2.408,6.652,2.408,15.725,2.408,15.725
			c-4.231,7.561-11.488,2.409-11.488,2.409v-4.817c0,0-5.73-26.318-4.217-31.457s2.121-19.054,2.121-19.054v-25.095
			c-4.849-4.828-7.795-11.242-8.3-18.066c-0.071-0.99-0.132-2.029-0.168-3.109c-0.245-6.826,4.417-14.822,6.238-17.664
			c0.442-0.691,0.715-1.076,0.715-1.076l26.692,10.59l0.06,0.023v1.033v2.287L112.317,275.865z"/>
		<path opacity="0.1" enable-background="new    " d="M103.244,181.219c-0.815,1.363-1.436,2.833-1.842,4.368
			c-2.986,1.138-6.306,1.018-9.201-0.334c-0.377-2.217-1.252-4.32-2.562-6.149L103.244,181.219z"/>
		<circle fill="#DB8B8B" cx="97.199" cy="173.96" r="11.794"/>
		<path opacity="0.1" enable-background="new    " d="M112.317,256.21l-0.132,0.023c-12.678,2.605-28.589-10.605-28.589-10.605
			c0.429-0.72,0.797-1.473,1.102-2.252c0.44-0.691,0.715-1.076,0.715-1.076l26.688,10.59l0.068,1.057L112.317,256.21z"/>
		<path fill="#337AE2" d="M108.989,194.828c0,0-16.934-10.281-22.377-6.05l-7.559,9.675c0,0-4.837,1.514-3.931,11.188l-3.613,17.541
			l10.883,2.722c0,0,6.352,6.045,1.204,14.817c0,0,16.026,13.305,28.729,10.582l-0.916-14.199c0,0-2.722-7.864,2.117-15.119
			c4.838-7.254,0.301-14.21-4.231-16.933C109.29,209.039,107.176,197.545,108.989,194.828z"/>
		<path fill="#DB8B8B" d="M109.897,256.511c0,0,6.351,1.205,9.373,6.049c0.873,1.457,1.938,2.787,3.168,3.955
			c0.976,0.904,1.036,2.428,0.133,3.404c-0.15,0.162-0.321,0.303-0.511,0.418c-2.409,1.445-6.312,2.332-11.241-1.73
			C102.338,261.654,109.897,256.511,109.897,256.511z"/>
		<path opacity="0.1" enable-background="new    " d="M100.522,200.557c0,0-6.045-0.606-7.561,15.119
			c-1.511,15.725-3.928,19.35-3.928,19.35s-1.516,8.166,2.115,13.003c3.629,4.838,10.582,15.154,10.582,15.154
			s7.563,2.119,9.073-5.443l-9.375-17.535c0,0-1.509-6.05,2.117-10.282C107.171,225.691,109.897,197.545,100.522,200.557z"/>
		<path fill="#337AE2" d="M101.13,199.666c0,0-6.051-0.606-7.561,15.119s-3.93,19.35-3.93,19.35s-1.514,8.173,2.115,12.99
			c3.63,4.818,10.583,15.119,10.583,15.119s7.56,2.119,9.071-5.439l-9.372-17.54c0,0-1.515-6.05,2.116-10.28
			C107.781,224.753,110.495,196.639,101.13,199.666z"/>
		<path opacity="0.1" enable-background="new    " d="M106.118,210.995c0,0,0.604,9.375-2.119,14.516
			c-2.722,5.143-2.722,11.791,0,15.42"/>
		<path opacity="0.1" enable-background="new    " d="M107.628,199.513c0,0-2.408-2.408-9.373-2.722
			c-6.965-0.313-9.977-2.408-9.977-2.408"/>
		<path opacity="0.1" enable-background="new    " d="M90.823,158.721c-1.839,0.226-3.938,0.855-4.6,2.586
			c-0.245,0.634-0.248,1.333-0.422,2.007c-0.686,2.643-3.658,3.87-5.492,5.89c-1.605,1.782-2.332,4.195-2.858,6.544
			c-1.511,6.734-1.874,13.675-1.079,20.53c0.59,5.014,1.795,9.948,2.135,14.986c0.343,5.038-0.28,10.337-3.036,14.569
			c-1.203,1.822-2.745,3.421-3.584,5.424c1.735,1.405,4.128,1.605,6.358,1.683c2.602,0.088,5.205,0.088,7.807,0
			c1.363-0.049,2.789-0.137,3.965-0.827c0.871-0.557,1.588-1.325,2.084-2.232c1.485-2.525,1.863-5.561,1.799-8.491
			c-0.064-2.931-0.527-5.841-0.582-8.772c-0.028-1.605,0.096-3.292,1.016-4.601c0.662-0.943,1.67-1.578,2.532-2.344
			c3.241-2.867,4.349-7.468,4.457-11.792c0.107-4.323-0.603-8.655-0.237-12.963c0.14-1.689,0.771-3.713,2.434-4.042
			c0.521-0.104,1.079,0,1.577-0.201c1.333-0.509,1.204-2.388,1.581-3.761c0.43-1.546,1.746-2.738,2.115-4.296
			c0.873-3.657-3.785-8.029-6.823-9.297C98.815,158.003,94.084,158.32,90.823,158.721z"/>
		<path d="M90.507,158.119c-1.84,0.225-3.939,0.854-4.602,2.581c-0.17,0.661-0.305,1.331-0.4,2.008
			c-0.687,2.642-3.662,3.869-5.496,5.894c-1.606,1.777-2.333,4.191-2.857,6.543c-1.504,6.739-1.862,13.685-1.06,20.542
			c0.589,5.015,1.793,9.952,2.131,14.986c0.337,5.035-0.278,10.338-3.03,14.569c-1.206,1.822-2.748,3.42-3.587,5.424
			c1.735,1.408,4.128,1.605,6.36,1.682c2.601,0.088,5.203,0.088,7.805,0c1.363-0.048,2.789-0.132,3.966-0.827
			c0.872-0.555,1.587-1.323,2.08-2.232c1.488-2.525,1.862-5.562,1.803-8.491c-0.062-2.93-0.531-5.841-0.584-8.771
			c-0.027-1.605,0.098-3.292,1.013-4.597c0.666-0.947,1.673-1.582,2.537-2.344c3.234-2.871,4.347-7.472,4.456-11.795
			c0.108-4.323-0.607-8.654-0.241-12.962c0.146-1.687,0.775-3.714,2.434-4.039c0.525-0.104,1.083,0,1.581-0.204
			c1.331-0.51,1.204-2.386,1.581-3.763c0.427-1.545,1.744-2.733,2.117-4.291c0.871-3.662-3.786-8.03-6.826-9.302
			C98.512,157.404,93.782,157.713,90.507,158.119z"/>
	</g>
	<title>onboarding</title>
	<ellipse fill="#E3EDFC" cx="426.232" cy="391.452" rx="57.87" ry="14.468"/>
	<path fill="none" stroke="#535461" stroke-miterlimit="10" d="M436.466,395.302c0,0-5.237-36.082,10.494-59.832
		c6.676-9.918,9.951-21.734,9.336-33.673c-0.333-5.665-1.186-11.288-2.548-16.796"/>
	<path fill="#049F34" d="M463.612,269.962c-0.604,4.243-10.049,15.447-10.049,15.447s-5.902-13.406-5.313-17.651
		c0.531-4.253,4.409-7.271,8.661-6.741c4.254,0.53,7.271,4.409,6.742,8.664C463.642,269.775,463.628,269.869,463.612,269.962
		L463.612,269.962z"/>
	<path fill="#049F34" d="M472.948,295.287c-2.819,3.228-16.837,7.496-16.837,7.496s2.32-14.494,5.133-17.703
		c2.816-3.23,7.721-3.568,10.952-0.752c3.23,2.816,3.568,7.721,0.752,10.953l0,0V295.287z"/>
	<path fill="#049F34" d="M466.651,335.367c-4.063,1.369-18.32-2-18.32-2s9.305-11.324,13.367-12.688
		c4.129-1.151,8.41,1.263,9.563,5.392C472.323,329.891,470.335,333.9,466.651,335.367z"/>
	<path fill="#049F34" d="M455.037,364.621c-3.772,2.035-18.396,1.1-18.396,1.1s7.257-12.728,11.03-14.763
		c3.771-2.032,8.479-0.624,10.514,3.149C460.219,357.878,458.81,362.585,455.037,364.621L455.037,364.621L455.037,364.621z"/>
	<path fill="#049F34" d="M439.865,301.297c2.618,3.394,16.361,8.495,16.361,8.495s-1.459-14.582-4.078-17.99
		c-2.622-3.393-7.498-4.018-10.888-1.394C437.866,293.031,437.243,297.905,439.865,301.297z"/>
	<path fill="#049F34" d="M426.73,335.679c3.499,2.455,18.147,3.205,18.147,3.205s-5.748-13.494-9.268-15.932
		c-3.476-2.507-8.326-1.722-10.833,1.757c-2.507,3.476-1.721,8.327,1.756,10.833C426.599,335.589,426.665,335.636,426.73,335.679
		L426.73,335.679z"/>
	<path fill="#049F34" d="M418.55,370.853c3.05,3,17.348,6.221,17.348,6.221s-3.388-14.256-6.442-17.256
		c-3.006-3.055-7.919-3.094-10.975-0.088c-3.058,3.006-3.096,7.92-0.09,10.975c0.052,0.055,0.105,0.106,0.159,0.158V370.853z"/>
	<path opacity="0.25" enable-background="new    " d="M463.612,269.962c-0.604,4.243-10.049,15.447-10.049,15.447
		s-5.902-13.406-5.313-17.651c0.531-4.253,4.409-7.271,8.661-6.741c4.254,0.53,7.271,4.409,6.742,8.664
		C463.642,269.775,463.628,269.869,463.612,269.962L463.612,269.962z"/>
	<path opacity="0.25" enable-background="new    " d="M472.948,295.287c-2.819,3.228-16.837,7.496-16.837,7.496
		s2.32-14.494,5.133-17.703c2.816-3.23,7.721-3.568,10.952-0.752c3.23,2.816,3.568,7.721,0.752,10.953l0,0V295.287z"/>
	<path opacity="0.25" enable-background="new    " d="M466.651,335.367c-4.063,1.369-18.32-2-18.32-2s9.305-11.324,13.367-12.688
		c4.129-1.151,8.41,1.263,9.563,5.392C472.323,329.891,470.335,333.9,466.651,335.367z"/>
	<path opacity="0.25" enable-background="new    " d="M455.037,364.621c-3.772,2.035-18.396,1.1-18.396,1.1
		s7.257-12.728,11.03-14.763c3.771-2.032,8.479-0.624,10.514,3.149C460.219,357.878,458.81,362.585,455.037,364.621L455.037,364.621
		L455.037,364.621z"/>
	<path opacity="0.25" enable-background="new    " d="M439.865,301.297c2.618,3.394,16.361,8.495,16.361,8.495
		s-1.459-14.582-4.078-17.99c-2.622-3.393-7.498-4.018-10.888-1.394C437.866,293.031,437.243,297.905,439.865,301.297z"/>
	<path opacity="0.25" enable-background="new    " d="M426.73,335.679c3.499,2.455,18.147,3.205,18.147,3.205
		s-5.748-13.494-9.268-15.932c-3.476-2.507-8.326-1.722-10.833,1.757c-2.507,3.476-1.721,8.327,1.756,10.833
		C426.599,335.589,426.665,335.636,426.73,335.679L426.73,335.679z"/>
	<path opacity="0.25" enable-background="new    " d="M418.55,370.853c3.05,3,17.348,6.221,17.348,6.221s-3.388-14.256-6.442-17.256
		c-3.006-3.055-7.919-3.094-10.975-0.088c-3.058,3.006-3.096,7.92-0.09,10.975c0.052,0.055,0.105,0.106,0.159,0.158V370.853z"/>
	<path fill="none" stroke="#535461" stroke-miterlimit="10" d="M436.896,394.156c0,0-19.411-30.862-14.626-58.969
		c2.083-11.77,0.298-23.894-5.096-34.559c-2.601-5.045-5.66-9.84-9.139-14.322"/>
	<path fill="#049F34" d="M410.933,268.579c1.16,4.128-2.932,18.196-2.932,18.196s-10.845-9.855-11.995-13.994
		c-1.163-4.125,1.237-8.414,5.363-9.58c4.126-1.164,8.416,1.236,9.579,5.363L410.933,268.579z"/>
	<path fill="#049F34" d="M429.725,287.949c-1.265,4.094-12.349,13.678-12.349,13.678s-3.749-14.162-2.499-18.26
		c1.267-4.096,5.611-6.392,9.708-5.125c4.096,1.266,6.391,5.613,5.125,9.707H429.725z"/>
	<path fill="#049F34" d="M440.198,327.15c-3.158,2.893-17.565,5.572-17.565,5.572s3.917-14.119,7.077-16.992
		c3.16-2.896,8.07-2.686,10.969,0.476c2.898,3.159,2.687,8.07-0.475,10.969L440.198,327.15z"/>
	<path fill="#049F34" d="M441.449,358.595c-2.624,3.389-16.373,8.46-16.373,8.46s1.499-14.577,4.097-17.991
		c2.544-3.451,7.403-4.187,10.854-1.645c3.451,2.543,4.188,7.4,1.645,10.852c-0.071,0.098-0.146,0.193-0.222,0.288V358.595z"/>
	<path fill="#049F34" d="M401.919,306.845c3.768,2.043,18.391,1.13,18.391,1.13s-7.235-12.739-10.996-14.779
		c-3.769-2.042-8.479-0.642-10.521,3.128C396.75,300.091,398.149,304.802,401.919,306.845z"/>
	<path fill="#049F34" d="M403.843,343.607c4.207,0.819,17.891-4.424,17.891-4.424s-10.72-9.995-14.927-10.809
		c-4.188-0.918-8.325,1.732-9.242,5.92c-0.917,4.189,1.733,8.326,5.921,9.242C403.604,343.563,403.724,343.585,403.843,343.607z"/>
	<path fill="#049F34" d="M410.615,379.078c3.997,1.499,18.38-1.344,18.38-1.344s-8.876-11.654-12.885-13.172
		c-4.082-1.307-8.449,0.947-9.756,5.029c-1.207,3.777,0.631,7.861,4.261,9.463V379.078z"/>
	<circle fill="#FEC400" cx="153.127" cy="15.78" r="2.279"/>
	<circle fill="#FEC400" cx="159.304" cy="15.78" r="2.279"/>
	<circle fill="#FEC400" cx="165.481" cy="15.78" r="2.279"/>
	<circle fill="#FFFFFF" cx="285.127" cy="247.78" r="2.279"/>
	<circle fill="#FFFFFF" cx="291.304" cy="247.78" r="2.279"/>
	<circle fill="#FFFFFF" cx="297.481" cy="247.78" r="2.279"/>
	<circle fill="#FFFFFF" cx="290.127" cy="121.78" r="2.279"/>
	<circle fill="#FFFFFF" cx="296.304" cy="121.78" r="2.279"/>
	<circle fill="#FFFFFF" cx="302.481" cy="121.78" r="2.279"/>
</g>
<g>
	<path opacity="0.5" fill="#F05722" d="M488.876,219.604c-0.851-0.373-1.289-1.323-1.018-2.21c0.022-0.065,0.035-0.134,0.041-0.204
		l0,0c0.018-0.504-0.379-0.929-0.883-0.947c-0.289-0.008-0.563,0.117-0.744,0.339l0,0c-0.041,0.056-0.074,0.117-0.103,0.18
		c-0.37,0.852-1.321,1.29-2.21,1.017c-0.064-0.021-0.134-0.034-0.204-0.039l0,0c-0.505-0.018-0.929,0.377-0.946,0.882
		c-0.01,0.29,0.116,0.564,0.341,0.746l0,0c0.056,0.04,0.116,0.075,0.18,0.103c0.851,0.368,1.288,1.321,1.017,2.208
		c-0.021,0.067-0.035,0.136-0.039,0.205l0,0c-0.019,0.504,0.377,0.929,0.882,0.945c0.289,0.01,0.563-0.115,0.743-0.338l0,0
		c0.042-0.056,0.076-0.117,0.104-0.179c0.371-0.852,1.322-1.292,2.211-1.019c0.063,0.022,0.133,0.036,0.201,0.042l0,0
		c0.505,0.018,0.93-0.38,0.948-0.885c0.01-0.288-0.118-0.563-0.342-0.744l0,0C489,219.664,488.94,219.629,488.876,219.604z"/>
	<g opacity="0.5">
		<rect x="449.272" y="133.103" fill="#47E6B1" width="2.105" height="11.924"/>
		<rect x="444.369" y="138.014" fill="#47E6B1" width="11.925" height="2.104"/>
	</g>
	<circle opacity="0.5" fill="#4D8AF0" enable-background="new    " cx="475.858" cy="26.565" r="4.586"/>
	<path opacity="0.7" fill="#FDD835" enable-background="new    " d="M357.096,6.05c-1.185-0.516-1.795-1.841-1.417-3.079
		c0.029-0.092,0.049-0.188,0.057-0.282l0,0c0.024-0.704-0.527-1.294-1.23-1.32c-0.4-0.012-0.784,0.165-1.036,0.475l0,0
		c-0.057,0.077-0.104,0.16-0.142,0.251c-0.518,1.185-1.841,1.795-3.078,1.416c-0.092-0.029-0.187-0.05-0.283-0.058l0,0
		c-0.704-0.023-1.293,0.528-1.318,1.231c-0.014,0.401,0.162,0.784,0.474,1.037l0,0c0.078,0.057,0.161,0.104,0.249,0.14
		c1.187,0.516,1.797,1.84,1.418,3.078c-0.03,0.093-0.049,0.187-0.057,0.285l0,0c-0.024,0.703,0.526,1.293,1.23,1.318
		c0.4,0.014,0.785-0.164,1.035-0.477l0,0c0.058-0.075,0.105-0.159,0.143-0.249c0.518-1.185,1.841-1.795,3.077-1.416
		c0.092,0.03,0.187,0.049,0.283,0.058l0,0c0.704,0.023,1.295-0.526,1.319-1.231c0.014-0.401-0.162-0.786-0.475-1.036l0,0
		C357.267,6.134,357.185,6.086,357.096,6.05z"/>
	<path opacity="0.5" fill="#ED2631" d="M214.209,2.143c-0.092-0.03-0.187-0.05-0.283-0.058l0,0c-0.704-0.024-1.293,0.526-1.318,1.23
		c-0.014,0.401,0.162,0.785,0.474,1.037l0,0c0.078,0.058,0.161,0.104,0.249,0.142c1.187,0.516,1.797,1.841,1.418,3.077
		c-0.03,0.093-0.049,0.187-0.057,0.283l0,0c-0.024,0.705,0.526,1.293,1.23,1.318c0.4,0.014,0.785-0.162,1.035-0.474l0,0
		c0.058-0.076,0.105-0.161,0.143-0.25c0.518-1.184,1.841-1.795,3.077-1.416c0.092,0.03,0.187,0.05,0.283,0.058l0,0
		c0.704,0.024,1.295-0.528,1.319-1.231c0.014-0.4-0.162-0.785-0.475-1.036l0,0c-0.078-0.058-0.16-0.105-0.249-0.142
		c-1.185-0.518-1.795-1.841-1.417-3.079c0.029-0.092,0.049-0.187,0.057-0.283l0,0c0.024-0.703-0.527-1.293-1.23-1.318
		c-0.4-0.014-0.784,0.163-1.036,0.474l0,0"/>
</g>
</svg>
