<?xml version="1.0" encoding="utf-8"?>
<!-- Generator: Adobe Illustrator 16.0.0, SVG Export Plug-In . SVG Version: 6.00 Build 0)  -->
<!DOCTYPE svg PUBLIC "-//W3C//DTD SVG 1.1//EN" "http://www.w3.org/Graphics/SVG/1.1/DTD/svg11.dtd">
<svg version="1.1" xmlns="http://www.w3.org/2000/svg" xmlns:xlink="http://www.w3.org/1999/xlink" x="0px" y="0px"
	 width="80.012px" height="80.016px" viewBox="0 0 80.012 80.016" enable-background="new 0 0 80.012 80.016" xml:space="preserve">
<g id="Layer_1" display="none">
	<g display="inline">
		<path fill="#5C95E8" d="M18.28,38.657H8.734c-0.299,0-0.542,0.243-0.542,0.542v6.352c0,0.299,0.243,0.542,0.542,0.542h9.546
			c0.3,0,0.542-0.243,0.542-0.542v-6.352C18.823,38.899,18.58,38.657,18.28,38.657z"/>
		<path fill="#85AFEE" d="M18.28,38.657h-4.77v7.437h4.77c0.3,0,0.542-0.243,0.542-0.542v-6.352
			C18.823,38.899,18.58,38.657,18.28,38.657z"/>
		<path fill="#293B6B" d="M63.017,9.125c-0.657,0-1.189,0.533-1.189,1.189v11.981c0,0.657,0.532,1.189,1.189,1.189
			c0.657,0,1.189-0.532,1.189-1.189V10.315C64.206,9.658,63.674,9.125,63.017,9.125z"/>
		<path fill="#FED033" d="M65.019,26.822h-4.003c-0.69,0-1.25-0.561-1.25-1.251v-4.374c0-0.691,0.56-1.251,1.25-1.251h4.003
			c0.69,0,1.25,0.56,1.25,1.251v4.374C66.269,26.262,65.709,26.822,65.019,26.822z"/>
		<path fill="#FEDC66" d="M70.667,39.504H55.366c-0.658,0-1.191-0.533-1.191-1.191v-11.55c0-0.657,0.533-1.191,1.191-1.191h15.301
			c0.658,0,1.191,0.534,1.191,1.191v11.55C71.859,38.971,71.326,39.504,70.667,39.504z"/>
		<path fill="#FEC400" d="M75.568,80.088H48.717V31.273h26.191c0.364,0,0.66,0.295,0.66,0.66V80.088z"/>
		<path fill="#FEDC66" d="M74.909,31.273h-7.293c0.364,0,0.66,0.295,0.66,0.66v48.155h7.293V31.933
			C75.568,31.569,75.273,31.273,74.909,31.273z"/>
		<g>
			<path fill="#FFFFFF" d="M70.547,42.909H55.161c-0.544,0-0.986-0.441-0.986-0.986v-2.281c0-0.544,0.442-0.986,0.986-0.986h15.386
				c0.545,0,0.986,0.441,0.986,0.986v2.281C71.533,42.468,71.092,42.909,70.547,42.909z"/>
			<path fill="#FFFFFF" d="M70.547,52.659H55.161c-0.544,0-0.986-0.44-0.986-0.985v-2.281c0-0.544,0.442-0.984,0.986-0.984h15.386
				c0.545,0,0.986,0.44,0.986,0.984v2.281C71.533,52.219,71.092,52.659,70.547,52.659z"/>
			<path fill="#FFFFFF" d="M70.547,62.41H55.161c-0.544,0-0.986-0.441-0.986-0.986v-2.279c0-0.546,0.442-0.987,0.986-0.987h15.386
				c0.545,0,0.986,0.441,0.986,0.987v2.279C71.533,61.969,71.092,62.41,70.547,62.41z"/>
			<path fill="#FFFFFF" d="M70.547,72.16H55.161c-0.544,0-0.986-0.442-0.986-0.987v-2.279c0-0.545,0.442-0.986,0.986-0.986h15.386
				c0.545,0,0.986,0.441,0.986,0.986v2.279C71.533,71.718,71.092,72.16,70.547,72.16z"/>
		</g>
		<path fill="#F15723" d="M55.698,80.088H24.692c-0.496,0-0.897-0.401-0.897-0.897V2.333c0-0.495,0.401-0.897,0.897-0.897h31.006
			c0.496,0,0.898,0.402,0.898,0.897V79.19C56.596,79.687,56.194,80.088,55.698,80.088z"/>
		<g>
			<path fill="#F4794F" d="M55.698,1.436h-7.293c0.496,0,0.898,0.402,0.898,0.897V79.19c0,0.496-0.402,0.897-0.898,0.897h7.293
				c0.496,0,0.898-0.401,0.898-0.897V2.333C56.596,1.838,56.194,1.436,55.698,1.436z"/>
			<path fill="#F4794F" d="M58.005,0H22.007c-0.246,0-0.446,0.2-0.446,0.446v3.021c0,0.246,0.2,0.446,0.446,0.446h35.999
				c0.246,0,0.445-0.2,0.445-0.446V0.446C58.451,0.2,58.251,0,58.005,0z"/>
		</g>
		<g>
			<path fill="#FFFFFF" d="M33.414,14.688h-4.362c-0.307,0-0.556-0.25-0.556-0.557V8.806c0-0.307,0.249-0.557,0.556-0.557h4.362
				c0.308,0,0.557,0.249,0.557,0.557v5.326C33.971,14.439,33.722,14.688,33.414,14.688z"/>
			<path fill="#FFFFFF" d="M43.001,14.688h-4.362c-0.308,0-0.557-0.25-0.557-0.557V8.806c0-0.307,0.249-0.557,0.557-0.557h4.362
				c0.307,0,0.556,0.249,0.556,0.557v5.326C43.558,14.439,43.309,14.688,43.001,14.688z"/>
			<path fill="#FFFFFF" d="M52.588,14.688h-4.362c-0.307,0-0.556-0.25-0.556-0.557V8.806c0-0.307,0.249-0.557,0.556-0.557h4.362
				c0.307,0,0.557,0.249,0.557,0.557v5.326C53.145,14.439,52.895,14.688,52.588,14.688z"/>
			<path fill="#FFFFFF" d="M33.414,29.056h-4.362c-0.307,0-0.556-0.249-0.556-0.556v-5.327c0-0.307,0.249-0.556,0.556-0.556h4.362
				c0.308,0,0.557,0.25,0.557,0.556V28.5C33.971,28.807,33.722,29.056,33.414,29.056z"/>
			<path fill="#FFFFFF" d="M43.001,29.056h-4.362c-0.308,0-0.557-0.249-0.557-0.556v-5.327c0-0.307,0.249-0.556,0.557-0.556h4.362
				c0.307,0,0.556,0.25,0.556,0.556V28.5C43.558,28.807,43.309,29.056,43.001,29.056z"/>
			<path fill="#FFFFFF" d="M52.588,29.056h-4.362c-0.307,0-0.556-0.249-0.556-0.556v-5.327c0-0.307,0.249-0.556,0.556-0.556h4.362
				c0.307,0,0.557,0.25,0.557,0.556V28.5C53.145,28.807,52.895,29.056,52.588,29.056z"/>
			<path fill="#FFFFFF" d="M33.414,43.424h-4.362c-0.307,0-0.556-0.249-0.556-0.556v-5.327c0-0.307,0.249-0.556,0.556-0.556h4.362
				c0.308,0,0.557,0.249,0.557,0.556v5.327C33.971,43.175,33.722,43.424,33.414,43.424z"/>
			<path fill="#FFFFFF" d="M42.376,43.424h-4.362c-0.308,0-0.557-0.249-0.557-0.556v-5.327c0-0.307,0.249-0.556,0.557-0.556h4.362
				c0.307,0,0.556,0.249,0.556,0.556v5.327C42.933,43.175,42.684,43.424,42.376,43.424z"/>
			<path fill="#FFFFFF" d="M51.963,43.424h-4.362c-0.307,0-0.556-0.249-0.556-0.556v-5.327c0-0.307,0.249-0.556,0.556-0.556h4.362
				c0.307,0,0.557,0.249,0.557,0.556v5.327C52.52,43.175,52.27,43.424,51.963,43.424z"/>
			<path fill="#FFFFFF" d="M42.376,57.793h-4.362c-0.308,0-0.557-0.25-0.557-0.558v-5.326c0-0.308,0.249-0.557,0.557-0.557h4.362
				c0.307,0,0.556,0.249,0.556,0.557v5.326C42.933,57.543,42.684,57.793,42.376,57.793z"/>
			<path fill="#FFFFFF" d="M51.963,57.793h-4.362c-0.307,0-0.556-0.25-0.556-0.558v-5.326c0-0.308,0.249-0.557,0.556-0.557h4.362
				c0.307,0,0.557,0.249,0.557,0.557v5.326C52.52,57.543,52.27,57.793,51.963,57.793z"/>
			<path fill="#FFFFFF" d="M42.376,72.16h-4.362c-0.308,0-0.557-0.25-0.557-0.558v-5.324c0-0.309,0.249-0.558,0.557-0.558h4.362
				c0.307,0,0.556,0.249,0.556,0.558v5.324C42.933,71.91,42.684,72.16,42.376,72.16z"/>
			<path fill="#FFFFFF" d="M51.963,72.16h-4.362c-0.307,0-0.556-0.25-0.556-0.558v-5.324c0-0.309,0.249-0.558,0.556-0.558h4.362
				c0.307,0,0.557,0.249,0.557,0.558v5.324C52.52,71.91,52.27,72.16,51.963,72.16z"/>
		</g>
		<path fill="#337AE2" d="M38.117,80.088H5.129c-0.378,0-0.686-0.306-0.686-0.685v-34.95c0-0.379,0.307-0.686,0.686-0.686h32.988
			c0.379,0,0.686,0.307,0.686,0.686v34.95C38.803,79.782,38.496,80.088,38.117,80.088z"/>
		<path fill="#5C95E8" d="M38.117,43.768h-7.424c0.378,0,0.685,0.307,0.685,0.686v34.95c0,0.379-0.307,0.685-0.685,0.685h7.424
			c0.379,0,0.686-0.306,0.686-0.685v-34.95C38.803,44.074,38.496,43.768,38.117,43.768z"/>
		<g>
			<path fill="#FFFFFF" d="M13.51,53.68H9.193c-0.38,0-0.688-0.308-0.688-0.687v-2.751c0-0.38,0.308-0.688,0.688-0.688h4.317
				c0.38,0,0.688,0.308,0.688,0.688v2.751C14.199,53.372,13.891,53.68,13.51,53.68z"/>
			<path fill="#FFFFFF" d="M23.561,53.68h-4.317c-0.38,0-0.688-0.308-0.688-0.687v-2.751c0-0.38,0.308-0.688,0.688-0.688h4.317
				c0.38,0,0.688,0.308,0.688,0.688v2.751C24.249,53.372,23.941,53.68,23.561,53.68z"/>
			<path fill="#FFFFFF" d="M33.611,53.68h-4.317c-0.381,0-0.688-0.308-0.688-0.687v-2.751c0-0.38,0.308-0.688,0.688-0.688h4.317
				c0.38,0,0.688,0.308,0.688,0.688v2.751C34.3,53.372,33.992,53.68,33.611,53.68z"/>
			<path fill="#FFFFFF" d="M13.51,63.332H9.193c-0.38,0-0.688-0.308-0.688-0.688v-2.75c0-0.381,0.308-0.688,0.688-0.688h4.317
				c0.38,0,0.688,0.308,0.688,0.688v2.75C14.199,63.024,13.891,63.332,13.51,63.332z"/>
			<path fill="#FFFFFF" d="M23.561,63.332h-4.317c-0.38,0-0.688-0.308-0.688-0.688v-2.75c0-0.381,0.308-0.688,0.688-0.688h4.317
				c0.38,0,0.688,0.308,0.688,0.688v2.75C24.249,63.024,23.941,63.332,23.561,63.332z"/>
			<path fill="#FFFFFF" d="M33.611,63.332h-4.317c-0.381,0-0.688-0.308-0.688-0.688v-2.75c0-0.381,0.308-0.688,0.688-0.688h4.317
				c0.38,0,0.688,0.308,0.688,0.688v2.75C34.3,63.024,33.992,63.332,33.611,63.332z"/>
			<path fill="#FFFFFF" d="M13.51,72.982H9.193c-0.38,0-0.688-0.308-0.688-0.687v-2.752c0-0.379,0.308-0.687,0.688-0.687h4.317
				c0.38,0,0.688,0.308,0.688,0.687v2.752C14.199,72.675,13.891,72.982,13.51,72.982z"/>
			<path fill="#FFFFFF" d="M23.561,72.982h-4.317c-0.38,0-0.688-0.308-0.688-0.687v-2.752c0-0.379,0.308-0.687,0.688-0.687h4.317
				c0.38,0,0.688,0.308,0.688,0.687v2.752C24.249,72.675,23.941,72.982,23.561,72.982z"/>
			<path fill="#FFFFFF" d="M33.611,72.982h-4.317c-0.381,0-0.688-0.308-0.688-0.687v-2.752c0-0.379,0.308-0.687,0.688-0.687h4.317
				c0.38,0,0.688,0.308,0.688,0.687v2.752C34.3,72.675,33.992,72.982,33.611,72.982z"/>
		</g>
		<path fill="#546289" d="M76.664,76.414H3.348c-1.015,0-1.837,0.823-1.837,1.838l0,0c0,1.014,0.823,1.836,1.837,1.836h73.315
			c1.015,0,1.838-0.822,1.838-1.836l0,0C78.501,77.237,77.679,76.414,76.664,76.414z"/>
		<path fill="#293B6B" d="M78.489,78.05c-0.001-0.013-0.003-0.024-0.005-0.037c-0.007-0.055-0.016-0.109-0.028-0.164
			c-0.002-0.008-0.004-0.016-0.006-0.021c-0.014-0.062-0.032-0.118-0.051-0.177c-0.001-0.002-0.002-0.004-0.002-0.006
			c-0.022-0.061-0.047-0.122-0.074-0.179v-0.002l0,0c-0.296-0.62-0.926-1.05-1.659-1.05h-5.456v0.469
			c0,0.901-0.731,1.633-1.633,1.633H3.348c-0.733,0-1.364-0.43-1.659-1.052c-0.113,0.239-0.179,0.507-0.179,0.788l0,0
			c0,1.014,0.823,1.836,1.837,1.836h67.859h5.456c1.015,0,1.838-0.822,1.838-1.836l0,0C78.501,78.184,78.497,78.116,78.489,78.05z"
			/>
	</g>
</g>
<g id="Layer_2" display="none">
	<g display="inline">
		<g>
			<g>
				<path fill="#FEC400" d="M70.275,43.578l-4.653-3.993V16.897c0-1.291-1.045-2.333-2.33-2.333h-0.746l-2.233-1.397l-2.871,1.397
					h-3.465c-1.288,0-2.332,1.042-2.332,2.333v10.718l-11.64-9.987L9.731,43.578v8.249l4.656,2.326l-4.656,2.321v9.321l4.656,2.326
					l-4.656,2.327v7.141c0,1.288,1.045,2.327,2.33,2.327h16.301l4.66-4.653h13.969l4.653,4.653h16.307
					c1.282,0,2.324-1.039,2.324-2.327v-7.141l-4.653-2.327l4.653-2.326v-9.321l-4.653-2.321l4.653-2.326V43.578z"/>
			</g>
		</g>
		<path fill="#F15723" d="M16.721,51.827H9.731v4.647h6.989c1.288,0,2.33-1.033,2.33-2.321
			C19.05,52.866,18.009,51.827,16.721,51.827z"/>
		<path fill="#C2D3E7" d="M57.442,14.565h5.104c-0.404-1.487-1.15-2.855-2.265-3.975c-1.664-1.661-1.664-4.517,0-6.177
			c0.906-0.908,0.906-2.383,0-3.293c-0.911-0.906-2.385-0.906-3.293,0c-3.48,3.474-3.48,9.29,0,12.765
			C57.187,14.08,57.29,14.338,57.442,14.565L57.442,14.565z"/>
		<path fill="#F15723" d="M16.721,65.796H9.731v4.653h6.989c1.288,0,2.33-1.045,2.33-2.327
			C19.05,66.835,18.009,65.796,16.721,65.796z"/>
		<path fill="#337AE2" d="M49.32,47.162H30.692c-1.288,0-2.33,1.042-2.33,2.329v30.426h23.282V65.796h-6.983
			c-1.285,0-2.329-1.039-2.329-2.339c0-1.276,1.044-2.323,2.329-2.323h6.983V49.491C51.645,48.204,50.605,47.162,49.32,47.162z"/>
		<path fill="#293B6B" d="M74.12,43.065l-32.6-27.938c-0.871-0.753-2.162-0.753-3.029,0l-32.6,27.938
			c-0.974,0.843-1.089,2.311-0.252,3.288c0.839,0.977,2.311,1.098,3.281,0.252l31.085-26.644l31.089,26.644
			c0.967,0.83,2.444,0.725,3.278-0.252C75.208,45.376,75.1,43.909,74.12,43.065z"/>
		<path fill="#F15723" d="M60.966,54.153c0,1.288,1.039,2.321,2.326,2.321h6.983v-4.647h-6.983
			C62.005,51.827,60.966,52.866,60.966,54.153z"/>
		<path fill="#F15723" d="M60.966,68.122c0,1.282,1.039,2.327,2.326,2.327h6.983v-4.653h-6.983
			C62.005,65.796,60.966,66.835,60.966,68.122z"/>
	</g>
</g>
<g id="Layer_3">
	<g>
		<path fill="#FEC400" d="M64.375,76.694H41.127V16.24h25.428v50.517l-2.18,3.32V76.694z"/>
		<path fill="#5C95E8" d="M45.148,6.982h-4.021l-3.321,26.551l3.322,42.375l4.02-0.563V6.982z"/>
		<path fill="#337AE2" d="M9.373,0.335v6.646H5.582v68.364l21.432,2.544l14.115-1.981V0.335H9.373z"/>
		<g>
			<path fill="#FFFFFF" d="M17.206,16.292h4.67v6.642h-4.67V16.292z"/>
			<path fill="#FFFFFF" d="M28.83,16.292h4.67v6.642h-4.67V16.292z"/>
			<path fill="#FFFFFF" d="M17.206,29.576h4.67v6.643h-4.67V29.576z"/>
			<path fill="#FFFFFF" d="M28.83,29.576h4.67v6.643h-4.67V29.576z"/>
			<path fill="#FFFFFF" d="M17.206,42.861h4.67v6.641h-4.67V42.861z"/>
			<path fill="#FFFFFF" d="M28.83,42.861h4.67v6.641h-4.67V42.861z"/>
			<path fill="#FFFFFF" d="M17.206,56.146h4.67v6.641h-4.67V56.146z"/>
			<path fill="#FFFFFF" d="M28.83,56.146h4.67v6.641h-4.67V56.146z"/>
		</g>
		<path fill="#FFFFFF" d="M51.143,29.576h4.671v6.643h-4.671V29.576z"/>
		<path fill="#FFFFFF" d="M51.143,42.861h4.671v6.641h-4.671V42.861z"/>
		<path fill="#8F4D24" d="M67.48,65.952h4.671v11.624H67.48V65.952z"/>
		<path fill="#029F34" d="M69.815,71.504c-5.623,0-10.197-4.573-10.197-10.196c0-5.622,4.575-10.197,10.197-10.197
			c5.623,0,10.197,4.575,10.197,10.197C80.012,66.931,75.438,71.504,69.815,71.504z"/>
		<path fill="#546289" d="M80.012,75.346H41.127l-1.66,3.035l1.66,1.635h38.885V75.346z"/>
		<path fill="#293B6B" d="M0,75.346h41.127v4.67H0V75.346z"/>
	</g>
</g>
<g id="Layer_4" display="none">
	<g display="inline">
		<path fill="#FEC400" d="M26.41,24.333l-8.187,0.012L18.2,10.549c0-0.387,0.312-0.7,0.698-0.7l6.789-0.01
			c0.386-0.001,0.7,0.312,0.7,0.698L26.41,24.333z"/>
		<path fill="#FED033" d="M26.387,10.537c-0.001-0.387-0.314-0.699-0.7-0.698l-4.048,0.006c0.359,0.029,0.643,0.325,0.643,0.692
			l0.022,13.796l-4.082,0.006v0.005l8.187-0.012L26.387,10.537z"/>
		<path fill="#FED033" d="M39.948,9.589L18.017,30.248l0.044,31.406c0.001,0.829,0.674,1.499,1.502,1.498l40.917-0.058
			c0.829,0,1.5-0.673,1.499-1.502l-0.044-31.406L39.948,9.589z"/>
		<path fill="#FEDC66" d="M61.935,30.187L39.948,9.589l-3.617,3.406l18.352,17.191l0.044,31.406c0.001,0.829-0.67,1.501-1.498,1.502
			h7.252c0.829-0.001,1.5-0.673,1.499-1.502L61.935,30.187z"/>
		<path fill="#F15723" d="M69.671,37.107c-0.74,0.001-1.482-0.27-2.065-0.815L39.948,10.383L12.362,36.369
			c-1.212,1.142-3.121,1.085-4.263-0.127c-1.142-1.213-1.085-3.121,0.127-4.263L37.874,4.05c1.159-1.092,2.967-1.094,4.13-0.006
			l29.725,27.847c1.216,1.139,1.278,3.047,0.139,4.263C71.276,36.785,70.474,37.105,69.671,37.107z"/>
		<path fill="#F4794F" d="M71.868,32.526c-0.592,0.632-1.394,0.952-2.197,0.953c-0.74,0.001-1.482-0.269-2.065-0.815L39.948,6.756
			L12.362,32.741c-1.212,1.143-3.121,1.086-4.263-0.127c-0.077-0.081-0.146-0.165-0.212-0.252c-0.869,1.151-0.811,2.794,0.212,3.879
			c1.142,1.213,3.051,1.27,4.263,0.128l27.585-25.986l27.658,25.909c0.583,0.546,1.325,0.816,2.065,0.815
			c0.803-0.001,1.605-0.322,2.197-0.954c1.018-1.086,1.074-2.725,0.207-3.874C72.011,32.364,71.942,32.446,71.868,32.526z"/>
		<path fill="#337AE2" d="M45.62,35.48l-11.273,0.016c-0.529,0.001-0.958,0.43-0.957,0.959l0.038,26.678l13.189-0.018L46.58,36.437
			C46.579,35.907,46.149,35.479,45.62,35.48z"/>
		<path fill="#5C95E8" d="M46.579,36.437c0-0.529-0.43-0.957-0.959-0.956l-6.37,0.009c0.389,0.121,0.671,0.483,0.672,0.913
			l0.037,26.722l6.657-0.009L46.579,36.437z"/>
		<path fill="#FED9A8" d="M74.387,49.648L57.771,60.77l-4.953-0.278l-0.194-1.949c-0.289-2.902-2.522-5.23-5.41-5.639l-13.268-1.527
			c-3.061-0.434-6.008-1.459-8.676-3.02l0,0c-3.643-2.132-7.788-3.255-12.008-3.255H3.696v21.837l25.283,9.574
			c0.956,0.27,1.959,0.351,2.94,0.195c0.005-0.001,0.012-0.002,0.018-0.003l25.454-3.669c1.961-0.313,3.804-1.139,5.343-2.394
			l16.452-14.797c1.476-1.312,1.75-3.515,0.639-5.147l0,0C78.609,48.913,76.18,48.443,74.387,49.648z"/>
		<g>
			<path fill="#F4C892" d="M80.042,51.063L63.781,64.75c-1.539,1.255-4.097,2.08-6.058,2.394l-25.786,1.844
				c-0.006,0.001-0.012,0.002-0.018,0.003c-0.981,0.154-1.985,0.073-2.94-0.195L3.696,59.221v7.718l25.283,9.574
				c0.478,0.135,0.968,0.223,1.46,0.257c0.124,0.009,0.247,0.014,0.371,0.016c0.371,0.007,0.741-0.019,1.109-0.077
				c0.006-0.001,0.012-0.002,0.018-0.003l25.455-3.669c0.612-0.098,1.214-0.246,1.798-0.44c0.117-0.039,0.233-0.081,0.348-0.124
				c0.577-0.214,1.136-0.476,1.671-0.781c0.107-0.062,0.212-0.124,0.318-0.188c0.42-0.259,0.823-0.546,1.208-0.859l16.452-14.797
				C80.555,54.629,80.888,52.646,80.042,51.063z"/>
			<path fill="#F4C892" d="M54.746,60.604l-28.009-1.121c-0.133-0.006-0.264-0.044-0.378-0.115l-1.488-0.906
				c-0.724-0.44-0.335-1.556,0.505-1.453L54.746,60.604z"/>
		</g>
		<path fill="#029F34" d="M6.92,74.355H3.135C1.403,74.355,0,72.951,0,71.22V43.21c0-1.732,1.403-3.136,3.135-3.136H6.92
			c1.731,0,3.135,1.404,3.135,3.136v28.01C10.056,72.951,8.652,74.355,6.92,74.355z"/>
		<path fill="#35B25D" d="M6.92,40.074H3.135c-0.213,0-0.42,0.021-0.622,0.063c1.434,0.288,2.514,1.555,2.514,3.073v28.01
			c0,1.52-1.08,2.785-2.514,3.073c0.201,0.04,0.409,0.063,0.622,0.063H6.92c1.731,0,3.135-1.404,3.135-3.136V43.21
			C10.056,41.479,8.652,40.074,6.92,40.074z"/>
	</g>
</g>
<g id="Layer_5" display="none">
	<g display="inline">
		<g>
			<g>
				<path fill="#FEC400" d="M9.544,26.871l-3.268,1.945c-0.609,0.357-1.311,0.555-2.025,0.555c-1.389,0-2.699-0.741-3.413-1.945
					c-1.111-1.878-0.49-4.326,1.389-5.438l35.286-21.05c0.741-0.437,1.601-0.674,2.461-0.674c0.873,0,1.72,0.238,2.46,0.674
					l35.285,21.05c1.879,1.111,2.501,3.559,1.39,5.438c-0.714,1.204-2.024,1.945-3.414,1.945c-0.715,0-1.416-0.198-2.024-0.555
					l-3.268-1.945l-27.969-16.67c-0.741-0.437-1.588-0.675-2.46-0.675c-0.86,0-1.72,0.238-2.461,0.675L9.544,26.871z"/>
			</g>
			<g>
				<path fill="#F15723" d="M63.789,77.001V58.479v-3.334c-2.501-0.886-4.618-2.58-6.02-4.763h-0.013
					c-0.008-0.02-0.013-0.04-0.02-0.059c-1.26-1.947-1.964-4.278-1.886-6.782c0.065-1.771,0.526-3.463,1.313-4.972l0.024-0.122
					l0.026,0.014c1.958-3.704,5.821-6.311,10.201-6.443c1.031-0.026,2.038,0.079,2.99,0.291v-5.438l-27.969-16.67
					c-0.741-0.437-1.588-0.675-2.46-0.675c-0.86,0-1.72,0.238-2.461,0.675L9.544,26.871v52.776h56.891
					C64.979,79.647,63.789,78.456,63.789,77.001z"/>
			</g>
			<g>
				<path fill="#029F34" d="M79.665,43.925c0,5.186-3.321,9.579-7.938,11.219v3.334H69.08v5.292h2.646v5.293H69.08v5.291h2.646
					v2.646c0,1.455-1.191,2.646-2.646,2.646h-2.645c-1.456,0-2.646-1.191-2.646-2.646V58.479v-3.334
					c-2.501-0.886-4.618-2.58-6.02-4.763c-1.284-1.958-1.998-4.313-1.918-6.841c0.066-1.812,0.543-3.545,1.363-5.08
					c1.958-3.704,5.821-6.311,10.201-6.443c1.031-0.026,2.038,0.079,2.99,0.291v0.014C75.709,33.513,79.665,38.249,79.665,43.925z
					 M71.727,41.279c0-2.196-1.772-3.97-3.969-3.97c-2.197,0-3.969,1.773-3.969,3.97s1.772,3.969,3.969,3.969
					C69.954,45.248,71.727,43.476,71.727,41.279z"/>
			</g>
			<g>
				<path fill="#337AE2" d="M57.769,50.382h-0.013c-0.899,3.108-2.567,5.887-4.816,8.097H39.974c7.303,0,13.23-5.928,13.23-13.23
					c0-7.303-5.927-13.23-13.23-13.23s-13.23,5.927-13.23,13.23c0,7.303,5.927,13.23,13.23,13.23H27.009
					c-3.427-3.36-5.557-8.045-5.557-13.23c0-10.227,8.295-18.522,18.522-18.522c7.832,0,14.5,4.855,17.212,11.722l0.026,0.014
					c-0.82,1.535-1.296,3.268-1.363,5.08C55.771,46.068,56.485,48.424,57.769,50.382L57.769,50.382z"/>
			</g>
			<g>
				<circle fill="#FEDC66" cx="39.974" cy="45.248" r="13.23"/>
			</g>
		</g>
		<g>
			<path fill="#FEC400" d="M67.758,35.987c-2.918,0-5.292,2.373-5.292,5.292s2.374,5.292,5.292,5.292
				c2.918,0,5.292-2.373,5.292-5.292S70.676,35.987,67.758,35.987z M67.758,43.925c-1.459,0-2.646-1.187-2.646-2.646
				s1.187-2.646,2.646-2.646s2.646,1.187,2.646,2.646S69.217,43.925,67.758,43.925z"/>
			<path fill="#FFFFFF" d="M51.881,73.032h2.646v2.646h-2.646V73.032z"/>
			<path fill="#FFFFFF" d="M46.589,73.032h2.646v2.646h-2.646V73.032z"/>
			<path fill="#FFFFFF" d="M57.173,73.032h2.646v2.646h-2.646V73.032z"/>
			<path fill="#293B6B" d="M41.297,41.279c0.731,0,1.323,0.593,1.323,1.323h2.646c0-2.188-1.781-3.97-3.969-3.97v-2.646H38.65v2.646
				h-3.968v3.97c0,2.188,1.78,3.969,3.968,3.969h2.646c0.731,0,1.323,0.592,1.323,1.323v1.322H38.65
				c-0.73,0-1.323-0.593-1.323-1.322h-2.646c0,2.188,1.78,3.97,3.968,3.97v2.645h2.646v-2.645h3.969v-3.97
				c0-2.188-1.781-3.969-3.969-3.969H38.65c-0.73,0-1.323-0.593-1.323-1.323v-1.323H41.297z"/>
		</g>
	</g>
</g>
<g id="Layer_6" display="none">
	<g display="inline">
		<path fill="#5C95E8" d="M72.134,80.148c-4.427,0-8.015-3.588-8.015-8.014V0H0v72.135c0,4.426,3.588,8.014,8.015,8.014H72.134z"/>
		<path fill="#337AE2" d="M0,72.118c30.307-0.343,54.769-23.821,54.769-52.749c0-6.84-1.383-13.37-3.873-19.369H0V72.118z"/>
		<path fill="#85AFEE" d="M72.134,80.148c-4.427,0-8.015-3.588-8.015-8.014V13.358h16.03v58.777
			C80.149,76.561,76.561,80.148,72.134,80.148z"/>
		<path fill="#F15723" d="M32.06,5.344L58.776,16.03H5.343L32.06,5.344z"/>
		<path fill="#FEDC66" d="M52.097,16.03v16.03H12.022V16.03"/>
		<path fill="#FEC400" d="M12.022,16.03v9.844c2.74,0.544,5.656,0.843,8.683,0.843c11.69,0,21.73-4.392,26.211-10.687H12.022z"/>
		<path fill="#EFBE9A" d="M49.425,58.776h-16.03l-6.679,6.679l4.007,4.008H13.358v5.343h20.037l8.015-8.016h8.015"/>
		<g>
			<path fill="#FFFFFF" d="M41.41,36.067h18.702v2.671H41.41V36.067z"/>
			<path fill="#FFFFFF" d="M41.41,41.41h18.702v2.671H41.41V41.41z"/>
			<path fill="#FFFFFF" d="M41.41,46.754h18.702v2.671H41.41V46.754z"/>
		</g>
		<path fill="#DB9B7C" d="M29.77,68.514l4.007-4.008l1.889,1.889l-4.007,4.008L29.77,68.514z"/>
		<path fill="#293B6B" d="M48.089,54.769h2.671v16.03h-2.671V54.769z"/>
		<path fill="#029F34" d="M21.373,36.067c-3.683,0-6.679,2.996-6.679,6.679c0,3.225,2.299,5.924,5.343,6.544v13.493h2.671v-2.672
			h2.672V57.44h-2.672v-2.672h2.672v-2.673h-2.672V49.29c3.045-0.62,5.344-3.317,5.344-6.544
			C28.052,39.063,25.056,36.067,21.373,36.067z M21.373,46.754c-2.209,0-4.007-1.798-4.007-4.008s1.798-4.007,4.007-4.007
			s4.008,1.798,4.008,4.007S23.583,46.754,21.373,46.754z"/>
	</g>
</g>
</svg>
