<?xml version="1.0" encoding="utf-8"?>
<!-- Generator: Adobe Illustrator 16.0.0, SVG Export Plug-In . SVG Version: 6.00 Build 0)  -->
<!DOCTYPE svg PUBLIC "-//W3C//DTD SVG 1.1//EN" "http://www.w3.org/Graphics/SVG/1.1/DTD/svg11.dtd">
<svg version="1.1" id="Layer_1" xmlns="http://www.w3.org/2000/svg" xmlns:xlink="http://www.w3.org/1999/xlink" x="0px" y="0px"
	 width="89.224px" height="91.561px" viewBox="0 0 89.224 91.561" enable-background="new 0 0 89.224 91.561" xml:space="preserve">
<circle fill="#337AE2" cx="40.867" cy="40.801" r="40.79"/>
<path fill="none" stroke="#337AE2" stroke-width="4" stroke-miterlimit="10" d="M1.55,71.792
	c12.482,15.31,33.666,21.951,53.381,15.036c25.147-8.821,38.381-36.358,29.56-61.504c-2.557-7.291-6.687-13.578-11.875-18.619"/>
<polygon fill="#337AE2" points="27.268,4.026 25.952,17.109 13.434,13.083 14.75,0 "/>
<g>
	<path fill="#FFFFFF" d="M60.539,46.772h-7.635v12.751h-2.517V39.222h-7.55v20.302H40.32V44.256h-7.55v15.268h-2.517V34.188h-7.635
		v25.335h-2.517v2.517h42.869l0.084-2.517h-2.517V46.772z"/>
	<path fill="#FFFFFF" d="M60.539,37.442L46.613,23.6L36.546,33.667L21.882,19.088l-1.779,1.779l16.443,16.36l10.067-10.068
		L58.76,39.222h-5.855v2.517h10.151V31.672h-2.517V37.442z"/>
</g>
</svg>
