<?xml version="1.0" encoding="utf-8"?>
<!-- Generator: Adobe Illustrator 16.0.0, SVG Export Plug-In . SVG Version: 6.00 Build 0)  -->
<!DOCTYPE svg PUBLIC "-//W3C//DTD SVG 1.1//EN" "http://www.w3.org/Graphics/SVG/1.1/DTD/svg11.dtd">
<svg version="1.1" id="Layer_1" xmlns="http://www.w3.org/2000/svg" xmlns:xlink="http://www.w3.org/1999/xlink" x="0px" y="0px"
	 width="78.563px" height="78.393px" viewBox="0 0 78.563 78.393" enable-background="new 0 0 78.563 78.393" xml:space="preserve">
<g>
	<path fill="#FEC400" d="M39.451,54.841h33.109c-0.563,1.165-1.179,2.3-1.844,3.401H39.451c-0.939,0-1.699-0.763-1.699-1.701
		C37.752,55.603,38.512,54.841,39.451,54.841z"/>
	<path fill="#FEC400" d="M51.695,44.213c-0.94,0-1.701,0.761-1.701,1.701s0.761,1.7,1.701,1.7h23.562
		c0.302-1.115,0.558-2.25,0.766-3.401H51.695z"/>
	<circle fill="#029F34" cx="8.504" cy="25.507" r="1.701"/>
	<circle fill="#029F34" cx="8.504" cy="11.903" r="1.701"/>
	<circle fill="#029F34" cx="15.306" cy="25.507" r="1.701"/>
	<circle fill="#029F34" cx="8.504" cy="18.705" r="1.7"/>
	<path fill="#029F34" d="M1.701,13.604c0.938,0,1.699-0.761,1.699-1.7c0-0.583-0.293-1.098-0.74-1.404
		c-0.713,0.879-1.391,1.788-2.032,2.723C0.921,13.461,1.294,13.604,1.701,13.604z"/>
	<circle fill="#029F34" cx="1.701" cy="18.705" r="1.7"/>
	<circle fill="#029F34" cx="1.701" cy="25.507" r="1.701"/>
	<circle fill="#029F34" cx="15.306" cy="18.705" r="1.7"/>
	<circle fill="#029F34" cx="15.306" cy="11.903" r="1.701"/>
	<path fill="#FFBEAA" d="M58.396,35.255l-4.586,8.317c-0.858,1.555-1.534,3.205-2.021,4.913c-1.097,3.862-3.168,7.378-6.014,10.21
		c-0.442,0.44-0.739,0.739-0.76,0.767c-1.125,2.644-1.713,5.501-1.713,8.405v9.705c-2.674,0.538-5.44,0.821-8.272,0.821
		c-5.104,0-9.995-0.918-14.514-2.598v-6.927c0-3.894-1.06-7.713-3.062-11.051c-2.003-3.338-3.061-7.158-3.061-11.051V35.71
		l20.407-1.699V17.005c0-1.918,1.589-3.467,3.523-3.399c1.843,0.065,3.277,1.637,3.277,3.481v27.588
		c0,0.571,0.272,1.108,0.733,1.443c0.869,0.638,2.102,0.365,2.622-0.58l5.839-10.589c1.361-2.469,4.466-3.366,6.934-2.002
		C58.553,33.399,58.848,34.434,58.396,35.255z"/>
	<path fill="#FAA68E" d="M21.313,56.07c2.309,4.105,3.458,8.762,3.323,13.47l-0.212,7.491c-1.33-0.349-2.634-0.762-3.907-1.236
		v-6.927c0-3.893-1.06-7.712-3.062-11.051c-2.003-3.338-3.061-7.158-3.061-11.051V35.71l3.798-0.316l-0.204,7.204
		C17.855,47.308,19.004,51.963,21.313,56.07z M40.388,47.614c-7.268,0-13.18,5.912-13.18,13.179c0,0.704,0.57,1.275,1.275,1.275
		s1.274-0.571,1.274-1.275c0-5.861,4.77-10.628,10.63-10.628c0.702,0,1.274-0.571,1.274-1.275
		C41.662,48.185,41.09,47.614,40.388,47.614z"/>
	<path fill="#FFCDBE" d="M34.801,34.011v13.603c0,1.878-1.523,3.401-3.4,3.401c-1.879,0-3.401-1.522-3.401-3.401v-3.401
		c0,1.878-1.523,3.401-3.4,3.401c-1.879,0-3.401-1.522-3.401-3.401v-3.401c0,1.878-1.523,3.401-3.402,3.401
		c-1.877,0-3.4-1.523-3.4-3.401v-6.801c0-1.879,1.523-3.402,3.4-3.402c1.879,0,3.402,1.522,3.402,3.402
		c0-1.879,1.522-3.402,3.401-3.402c1.877,0,3.4,1.522,3.4,3.402c0-1.879,1.522-3.402,3.401-3.402
		C33.277,30.609,34.801,32.131,34.801,34.011z"/>
	<path fill="#FFBEAA" d="M31.4,51.015c-1.879,0-3.401-1.522-3.401-3.401V34.011c0-1.879,1.522-3.402,3.401-3.402
		c0.619,0,1.199,0.166,1.698,0.455c-1.016,0.587-1.698,1.687-1.698,2.947V51.015z M24.599,34.011c0-1.26,0.683-2.358,1.698-2.947
		c-0.5-0.29-1.08-0.455-1.698-0.455c-1.879,0-3.401,1.522-3.401,3.402v10.202c0,1.878,1.522,3.401,3.401,3.401V34.011z
		 M17.795,43.107v-9.096c0-1.26,0.685-2.358,1.701-2.947c-0.5-0.29-1.081-0.455-1.701-0.455c-1.877,0-3.4,1.522-3.4,3.402v6.801
		c0,1.878,1.523,3.401,3.4,3.401c0.062,0,0.122-0.002,0.183-0.005C17.859,43.863,17.795,43.493,17.795,43.107z"/>
	<path fill="#FFEEE5" d="M19.496,40.812v1.7c0,0.939-0.762,1.701-1.701,1.701c-0.938,0-1.7-0.761-1.7-1.701v-1.7
		c0-0.939,0.762-1.701,1.7-1.701C18.734,39.111,19.496,39.873,19.496,40.812z M24.599,42.512c-0.939,0-1.702,0.762-1.702,1.701
		v1.701c0,0.939,0.763,1.7,1.702,1.7c0.938,0,1.698-0.761,1.698-1.7v-1.701C26.297,43.274,25.536,42.512,24.599,42.512z
		 M31.4,45.914c-0.939,0-1.701,0.761-1.701,1.7v1.7c0,0.939,0.762,1.701,1.701,1.701c0.938,0,1.698-0.762,1.698-1.701v-1.7
		C33.099,46.675,32.338,45.914,31.4,45.914z"/>
	<path fill="#E9F3FE" d="M41.603,17.005c0,1.878-1.523,3.401-3.4,3.401c-1.88,0-3.401-1.522-3.401-3.401
		c0-1.879,1.521-3.401,3.401-3.401C40.079,13.604,41.603,15.126,41.603,17.005z"/>
	<path fill="#F15723" d="M78.563,13.604c0,0.939-0.762,1.701-1.701,1.701H51.695c-0.94,0-1.701-0.762-1.701-1.701
		s0.761-1.7,1.701-1.7h25.166C77.801,11.904,78.563,12.665,78.563,13.604z M63.599,18.706H51.695c-0.94,0-1.701,0.761-1.701,1.7
		c0,0.939,0.761,1.7,1.701,1.7h11.903c0.938,0,1.7-0.761,1.7-1.7C65.299,19.467,64.537,18.706,63.599,18.706z"/>
	<circle opacity="0.2" fill="#FEC400" cx="38.202" cy="17.005" r="17.005"/>
	<circle opacity="0.2" fill="#337AE2" cx="38.201" cy="17.005" r="8.502"/>
	<path fill="#337AE2" d="M66.319,42.087c-0.939,0-1.7,0.762-1.7,1.701v4.251c0,0.939,0.761,1.7,1.7,1.7s1.702-0.761,1.702-1.7
		v-4.251C68.021,42.849,67.259,42.087,66.319,42.087z"/>
	<path fill="#337AE2" d="M56.117,52.715c-0.94,0-1.701,0.762-1.701,1.701v4.251c0,0.938,0.761,1.7,1.701,1.7
		c0.939,0,1.699-0.762,1.699-1.7v-4.251C57.816,53.477,57.057,52.715,56.117,52.715z"/>
</g>
</svg>
