<?xml version="1.0" encoding="utf-8"?>
<!-- Generator: Adobe Illustrator 16.0.0, SVG Export Plug-In . SVG Version: 6.00 Build 0)  -->
<!DOCTYPE svg PUBLIC "-//W3C//DTD SVG 1.1//EN" "http://www.w3.org/Graphics/SVG/1.1/DTD/svg11.dtd">
<svg version="1.1" xmlns="http://www.w3.org/2000/svg" xmlns:xlink="http://www.w3.org/1999/xlink" x="0px" y="0px" width="65px"
	 height="65px" viewBox="0 0 65 65" enable-background="new 0 0 65 65" xml:space="preserve">
<g id="Healthcare" display="none">
	<g id="healthcare-covid19-coronavirus-hand-hearth" display="inline">
		<path fill="#FFAC96" d="M14.739,30.554L9.734,16.139c-0.438-1.751-2.153-2.869-3.933-2.563c-1.793,0.383-2.939,2.146-2.556,3.941
			c0.011,0.052,0.023,0.105,0.038,0.157L8.43,33.57L14.739,30.554z"/>
		<path fill="#FFAC96" d="M50.728,30.554l5.005-14.416c0.438-1.751,2.153-2.869,3.933-2.563c1.795,0.383,2.938,2.146,2.557,3.941
			c-0.012,0.052-0.023,0.105-0.037,0.157L57.035,33.57L50.728,30.554z"/>
		<path fill="#FFBCAB" d="M25.052,36.533l-9.766-5.725c-1.395-0.806-3.168-0.488-4.198,0.75L7.525,20.557
			c-0.439-1.751-2.153-2.868-3.933-2.563c-1.794,0.383-2.938,2.147-2.556,3.941c0.011,0.053,0.023,0.104,0.038,0.157l4.805,17.929
			c0.221,0.839,0.686,1.592,1.336,2.165l7.467,6.639c0.942,0.84,1.481,2.042,1.48,3.304v3.535h13.256V44.157
			C29.419,41.021,27.757,38.118,25.052,36.533z"/>
		<path fill="#FFBCAB" d="M61.874,17.994c-1.779-0.305-3.493,0.812-3.932,2.563l-3.569,11.002c-1.03-1.238-2.8-1.556-4.197-0.75
			l-9.765,5.725c-2.706,1.586-4.366,4.489-4.365,7.624v11.507h13.256v-3.535c0-1.262,0.539-2.464,1.481-3.304l7.467-6.639
			c0.651-0.573,1.116-1.326,1.339-2.165l4.805-17.929c0.468-1.774-0.59-3.592-2.362-4.061
			C61.979,18.018,61.927,18.006,61.874,17.994L61.874,17.994z"/>
		<path fill="#337AE2" d="M34.942,55.664V64.5h15.465v-8.836h-1.105H36.046H34.942z"/>
		<path fill="#337AE2" d="M30.524,55.664h-1.105H16.163h-1.105V64.5h15.466V55.664z"/>
		<path fill="#EE2631" d="M47.581,17.619l-0.785,0.784L32.733,32.466L18.671,18.403l-0.784-0.784
			c-3.963-3.8-4.096-10.094-0.296-14.057c3.8-3.963,10.094-4.096,14.058-0.295c0.102,0.098,0.204,0.198,0.301,0.301l0.784,0.784
			l0.785-0.784c3.798-3.966,10.091-4.104,14.058-0.306c3.965,3.796,4.103,10.09,0.307,14.056
			C47.782,17.42,47.684,17.521,47.581,17.619z"/>
		<path fill="#DB2638" d="M47.581,3.567c-2.13-2.152-5.133-3.203-8.141-2.849c5.454,0.604,9.387,5.515,8.78,10.969
			c-0.248,2.244-1.254,4.336-2.851,5.932l-0.784,0.785L31.628,31.361l1.104,1.105l14.063-14.063l0.785-0.784
			C51.457,13.737,51.457,7.449,47.581,3.567z"/>
		<path fill="#FFFFFF" d="M34.942,21.419V17h4.419v-4.418h-4.419V8.163h-4.418v4.418h-4.418V17h4.418v4.419H34.942z"/>
		<g>
			<path fill="#FFAC96" d="M53.495,34.344l-7.384,4.087c-0.438,0.254-0.604,0.804-0.377,1.257c0.236,0.473,0.81,0.663,1.282,0.427
				c0.016-0.008,0.033-0.018,0.051-0.027l6.428-3.535c1.384-0.802,1.997-2.479,1.457-3.986
				C54.695,33.315,54.18,33.945,53.495,34.344L53.495,34.344z"/>
			<path fill="#FFAC96" d="M11.972,34.344l7.384,4.087c0.438,0.254,0.604,0.804,0.376,1.257c-0.236,0.473-0.809,0.663-1.282,0.427
				c-0.017-0.008-0.035-0.018-0.052-0.027l-6.427-3.535c-1.385-0.802-1.998-2.479-1.457-3.986
				C10.771,33.315,11.288,33.945,11.972,34.344L11.972,34.344z"/>
		</g>
	</g>
</g>
<g id="Education" display="none">
	<g display="inline">
		<g>
			<path fill="#C2D3E7" d="M60.639,64.5H4.362c-2.132,0-3.862-1.729-3.862-3.861V11.535h64v49.104
				C64.5,62.771,62.771,64.5,60.639,64.5z"/>
			<path fill="#293B6B" d="M64.5,13.741h-64V4.362C0.5,2.229,2.229,0.5,4.362,0.5h56.277c2.133,0,3.861,1.729,3.861,3.862V13.741z"
				/>
			<rect x="4.914" y="4.914" fill="#F15723" width="4.414" height="4.414"/>
			<rect x="13.741" y="4.914" fill="#FEC400" width="4.414" height="4.414"/>
			<rect x="22.569" y="4.914" fill="#029F34" width="4.414" height="4.414"/>
		</g>
		<rect x="4.914" y="18.155" fill="#FEC400" width="55.173" height="41.932"/>
		<g>
			<path fill="#F2B200" d="M9.328,28.086c-0.609,0-1.104-0.494-1.104-1.103v-4.414c0-0.609,0.494-1.104,1.104-1.104h4.414
				c0.609,0,1.104,0.495,1.104,1.104c0,0.608-0.494,1.103-1.104,1.103h-3.311v3.311C10.431,27.592,9.937,28.086,9.328,28.086z"/>
			<path fill="#F2B200" d="M55.673,56.776h-4.414c-0.608,0-1.103-0.495-1.103-1.104c0-0.609,0.494-1.104,1.103-1.104h3.311v-3.311
				c0-0.608,0.494-1.104,1.104-1.104c0.608,0,1.104,0.495,1.104,1.104v4.413C56.776,56.281,56.281,56.776,55.673,56.776z"/>
		</g>
		<polygon fill="#2D77AA" points="32.5,43.534 19.259,37.304 19.259,46.844 32.5,53.466 45.741,46.844 45.741,37.304 		"/>
		<g>
			<path fill="#FFFFFF" d="M51.259,45.741c-0.608,0-1.103-0.494-1.103-1.103v-9.932c0-0.609,0.494-1.104,1.103-1.104
				s1.103,0.494,1.103,1.104v9.932C52.361,45.247,51.867,45.741,51.259,45.741z"/>
			<path fill="#FFFFFF" d="M49.05,49.052c-0.209,0-0.422-0.06-0.61-0.186c-0.507-0.337-0.646-1.022-0.306-1.529l2.207-3.312
				c0.337-0.505,1.022-0.645,1.53-0.307c0.506,0.339,0.645,1.023,0.306,1.531l-2.208,3.311C49.757,48.88,49.407,49.052,49.05,49.052
				z"/>
			<path fill="#FFFFFF" d="M53.468,49.052c-0.358,0-0.707-0.172-0.92-0.491l-2.207-3.311c-0.338-0.506-0.2-1.192,0.306-1.531
				c0.507-0.339,1.192-0.199,1.53,0.307l2.207,3.312c0.337,0.506,0.201,1.192-0.306,1.529C53.89,48.992,53.677,49.052,53.468,49.052
				z"/>
		</g>
		<path fill="#235999" d="M32.5,47.948c-0.609,0-1.104-0.494-1.104-1.104v-5.517c0-0.608,0.494-1.104,1.104-1.104
			s1.104,0.495,1.104,1.104v5.517C33.604,47.454,33.109,47.948,32.5,47.948z"/>
		<polygon fill="#337AE2" points="32.5,25.879 13.741,34.707 32.5,43.534 51.259,34.707 		"/>
		<g>
			<path fill="#FFFFFF" d="M51.259,35.811H32.5c-0.609,0-1.104-0.495-1.104-1.104c0-0.609,0.494-1.104,1.104-1.104h18.759
				c0.608,0,1.103,0.494,1.103,1.104C52.361,35.315,51.867,35.811,51.259,35.811z"/>
			<path fill="#FFFFFF" d="M32.5,38.018c-0.609,0-1.104-0.494-1.104-1.104V32.5c0-0.609,0.494-1.104,1.104-1.104
				s1.104,0.494,1.104,1.104v4.413C33.604,37.523,33.109,38.018,32.5,38.018z"/>
		</g>
	</g>
</g>
<g id="Automobile" display="none">
	<g display="inline">
		<path fill="#337AE2" d="M63.916,30.665h-0.4l-4.322-9.164h0.493l-1.744-3.732c-0.354-0.767-1.121-1.259-1.972-1.259H43.888
			l-4.859,13.664l5.338,17.335h18.312c0.997,0,1.807-0.808,1.808-1.806c0,0,0.015-10.125,0.015-13.639
			c0-0.059-0.013-0.114-0.036-0.167L63.916,30.665z"/>
		<path fill="#C2D3E7" d="M59.687,21.501h-7.811c-0.632,0-1.145,0.512-1.145,1.144v6.622c0,0.772,0.626,1.398,1.399,1.398h11.785
			L59.687,21.501z"/>
		<path fill="#337AE2" d="M5.894,35.931v9.78c0,0.892,0.89,1.798,1.987,1.798h36.486V35.931H5.894L5.894,35.931z"/>
		<path fill="#337AE2" d="M22.333,35.931h22.033v11.578H22.333V35.931z"/>
		<path fill="#FEC400" d="M44.366,37.922H1.971c-0.812,0-1.471-0.658-1.471-1.471V12.805c0-0.812,0.659-1.471,1.471-1.471h40.926
			c0.813,0,1.47,0.659,1.47,1.471v6.004V37.922z"/>
		<circle fill="#F15723" cx="18.313" cy="47.65" r="4.02"/>
		<path d="M18.313,53.666c-3.317,0-6.016-2.698-6.016-6.016s2.699-6.016,6.016-6.016s6.015,2.698,6.015,6.016
			S21.63,53.666,18.313,53.666z M18.313,45.625c-1.116,0-2.025,0.909-2.025,2.025s0.909,2.024,2.025,2.024s2.025-0.908,2.025-2.024
			S19.43,45.625,18.313,45.625z"/>
		<g>
			<circle fill="#F15723" cx="54.807" cy="47.65" r="4.02"/>
			<path d="M54.807,53.666c-3.317,0-6.016-2.698-6.016-6.016s2.698-6.016,6.016-6.016c3.316,0,6.016,2.698,6.016,6.016
				S58.123,53.666,54.807,53.666z M54.807,45.625c-1.116,0-2.025,0.909-2.025,2.025s0.909,2.024,2.025,2.024
				s2.025-0.908,2.025-2.024S55.923,45.625,54.807,45.625z"/>
		</g>
		<g>
			<g>
				<g>
					<path fill="#029F34" d="M6.803,32.075c-1.102,0-1.995-0.894-1.995-1.995V19.177c0-1.103,0.894-1.995,1.995-1.995
						c1.103,0,1.996,0.893,1.996,1.995V30.08C8.798,31.182,7.905,32.075,6.803,32.075L6.803,32.075z"/>
				</g>
				<g>
					<path fill="#029F34" d="M15.94,32.075c-1.102,0-1.995-0.894-1.995-1.995V19.177c0-1.103,0.893-1.995,1.995-1.995
						c1.103,0,1.996,0.893,1.996,1.995V30.08C17.936,31.182,17.042,32.075,15.94,32.075L15.94,32.075z"/>
				</g>
			</g>
		</g>
		<path fill="#FEC400" d="M42.896,11.334H22.333v26.588h22.033V12.805C44.366,11.993,43.709,11.334,42.896,11.334z"/>
		<g>
			<g>
				<g>
					<path fill="#029F34" d="M28.781,32.075c-1.102,0-1.995-0.894-1.995-1.995V19.177c0-1.103,0.893-1.995,1.995-1.995
						c1.103,0,1.996,0.893,1.996,1.995V30.08C30.777,31.182,29.884,32.075,28.781,32.075L28.781,32.075z"/>
				</g>
				<g>
					<path fill="#029F34" d="M37.918,32.075c-1.102,0-1.995-0.894-1.995-1.995V19.177c0-1.103,0.894-1.995,1.995-1.995
						c1.103,0,1.996,0.893,1.996,1.995V30.08C39.914,31.182,39.021,32.075,37.918,32.075z"/>
				</g>
			</g>
		</g>
	</g>
</g>
<g id="Sports_and_fitness" display="none">
	<g id="Flat" display="inline">
		<polygon fill="#293B6B" points="34.707,13.742 31.397,18.155 28.087,13.742 		"/>
		<path fill="#F4CEAF" d="M19.26,50.154v-1.104l-3.427-9.422c-1.996-5.486-0.924-11.62,2.813-16.104l1.716-2.059h1.242
			c1.432,0,2.687-0.96,3.061-2.342c0.074-0.271,0.111-0.55,0.111-0.83v-5.276l6.621,0.327v8.122h3.31l-0.851,2.979
			c-0.872,3.052-0.568,6.32,0.851,9.159c-3.047,3.047-3.047,7.986-0.001,11.033c0.001,0,0.001,0,0.001,0.001l7.264,3.804
			L19.26,50.154z"/>
		<path fill="#F15723" d="M64.5,56.922c0,4.185-3.392,7.577-7.576,7.578c-0.001,0-0.001,0-0.002,0H16.278
			c-3.872-0.001-7.719-0.625-11.393-1.85c-3.36-1.119-5.175-4.752-4.055-8.111c0.873-2.618,3.323-4.384,6.082-4.385H19.26v-1.104
			h2.969c4.485,0,8.756-1.922,11.729-5.279c0.229,0.307,0.479,0.596,0.749,0.866l18.723,9.807l-0.837-2.929l-2.3-8.051l4.892-2.445
			l7.981,11.609C64.035,53.893,64.5,55.389,64.5,56.922z"/>
		<path fill="#F4CEAF" d="M55.673,35.972c0.005,0.891-0.354,1.745-0.993,2.365c-0.621,0.605-1.452,0.946-2.319,0.949
			c-0.514-0.001-1.02-0.122-1.479-0.354l-6.355-3.178L38.018,32.5l-3.311,1.104l-5.517-5.517l5.517-6.621l5.518,1.103l3.677,4.138
			l5.15,5.793l-2.104-7.712l-1.207-4.426l-4.413-1.104l2.207-4.414h2.206l2.207,1.104l1.104,4.414l4.268,7.111
			C54.859,30.041,55.673,32.978,55.673,35.972z"/>
		<path fill="#F4CEAF" d="M43.535,11.535v3.311l-2.207,4.414l-3.311-3.31L32.5,12.27l-2.758-1.839l-8.276,2.207v9.931l-6.62,12.138
			l0.899-20.68c0.135-3.113,0.761-6.186,1.854-9.104c0.781-2.09,3.001-3.268,5.17-2.742c0.271,0.066,0.536,0.158,0.79,0.273
			l8.94,4.063L43.535,11.535z"/>
		<path fill="#F2C194" d="M32.5,6.518v5.752l-2.758-1.839l-8.276,2.207v4.41c-0.718-0.953-1.105-2.113-1.104-3.306V8.225
			c0-0.423,0.03-0.845,0.09-1.264c0.26-1.794,1.069-3.464,2.317-4.779c0.271,0.066,0.536,0.158,0.79,0.273L32.5,6.518z"/>
		<path fill="#FEC400" d="M34.707,33.604c-2.735,2.735-3.054,7.061-0.749,10.168c-2.974,3.357-7.244,5.279-11.729,5.279H19.26
			l-3.427-9.422c-1.996-5.486-0.924-11.62,2.813-16.104l1.716-2.059h1.242c0.327,0,0.653-0.05,0.965-0.15v2.357
			c-0.001,1.217,0.984,2.205,2.201,2.207c0.002,0,0.004,0,0.006,0c2.084,0,4.046-0.981,5.297-2.648l1.324-1.765h3.31l-0.851,2.979
			C32.984,27.497,33.288,30.765,34.707,33.604z"/>
		<circle fill="#293B6B" cx="36.914" cy="12.638" r="3.31"/>
		<path fill="#293B6B" d="M36.914,8.225c0,4.266-3.458,7.724-7.724,7.725c-4.267,0-7.725-3.458-7.725-7.724S24.924,0.5,29.189,0.5
			h0.001C33.455,0.502,36.912,3.959,36.914,8.225z"/>
		<path fill="#E54C23" d="M46.845,63.135c0.001,0.469-0.091,0.932-0.269,1.365h-3.302c0.753,0,1.363-0.611,1.363-1.364
			c0.001-0.517-0.291-0.989-0.753-1.22l-9.696-4.848c-0.602-0.301-1.264-0.457-1.937-0.459c-0.966-0.004-1.905,0.318-2.665,0.916
			l-0.436,0.342l-7.724-2.105c-2.889-0.791-5.904-1.004-8.876-0.631l-4.327,0.541l-0.273-2.19l4.327-0.54
			c3.258-0.41,6.563-0.175,9.729,0.69l6.685,1.823c1.058-0.691,2.296-1.057,3.56-1.053c1.016,0.002,2.016,0.238,2.925,0.691
			l9.694,4.849C46.084,60.543,46.851,61.781,46.845,63.135z"/>
		<path fill="#F2C194" d="M54.68,38.337c-0.621,0.605-1.452,0.946-2.319,0.949c-0.514-0.001-1.02-0.122-1.479-0.354l-6.355-3.178
			c-0.1-0.364-0.166-0.736-0.2-1.111l-0.603-6.626c-0.04-0.444,0.021-0.892,0.178-1.309l5.15,5.793l-2.104-7.712
			c1.114,0.101,2.077,0.817,2.495,1.854l3.898,9.748L54.68,38.337z"/>
		<path fill="#F4CEAF" d="M55.185,41.02l-4.892,2.445l-1.241-4.344c-2.011-0.671-3.434-2.468-3.626-4.578l-0.603-6.626
			c-0.093-1.028,0.666-1.936,1.694-2.028c0.821-0.074,1.594,0.399,1.901,1.165l3.943,9.861L55.185,41.02z"/>
		<path fill="#F4CEAF" d="M44.638,63.135c0,0.754-0.61,1.363-1.363,1.365H26.983v-7.223l2.207,0.602
			c1.317-1.318,3.331-1.646,4.998-0.811l9.695,4.848C44.346,62.146,44.638,62.619,44.638,63.135z"/>
		<path fill="#F2C194" d="M31.397,13.344v5.915H25.88c-0.409,0-0.816-0.045-1.215-0.135c0.074-0.271,0.111-0.55,0.111-0.83v-5.276
			L31.397,13.344z"/>
		<path fill="#F4CEAF" d="M31.397,10.431v7.724H25.88c-2.438,0-4.413-1.976-4.414-4.414V8.225c0-0.369,0.026-0.738,0.079-1.104
			h6.542C29.915,7.122,31.396,8.604,31.397,10.431z"/>
		<circle fill="#2F4054" cx="23.673" cy="10.431" r="1.103"/>
		<circle fill="#2F4054" cx="26.983" cy="10.431" r="1.103"/>
		<path fill="#F2C194" d="M31.397,10.431L31.397,10.431c0-1.219,0.987-2.207,2.206-2.207l0,0c1.219,0,2.207,0.988,2.207,2.207v2.207
			c0,1.219-0.988,2.207-2.207,2.207h-2.206V10.431z"/>
		<polygon fill="#E54C23" points="58.902,54.82 57.879,56.775 53.43,54.444 52.593,51.516 		"/>
	</g>
</g>
<g id="ecommerce_and_retail" display="none">
	<g display="inline">
		<path fill="#C2D3E7" d="M64.5,6.038v34.48c0,3.066-2.486,5.553-5.554,5.553H6.053c-3.068,0-5.553-2.486-5.553-5.553V6.038
			c0-3.034,2.459-5.495,5.494-5.495h53.012C62.039,0.543,64.5,3.004,64.5,6.038z"/>
		<path fill="#293B6B" d="M45.408,53.479L32.499,56.42L19.59,53.479l1.769-7.408l10.593-3.895L43.64,46.07l0.572,2.398
			L45.408,53.479z"/>
		<path fill="#293B6B" d="M64.5,39.863v0.653c0,3.067-2.486,5.554-5.554,5.554H6.053c-3.068,0-5.553-2.486-5.553-5.554v-0.653H64.5z
			"/>
		<path fill="#3C3F4D" d="M45.408,53.479H25.663l1.196-5.01h17.353L45.408,53.479z"/>
		<path fill="#293B6B" d="M53.017,57.604v1.76H11.983v-1.76c0-2.277,1.847-4.125,4.124-4.125h32.784
			C51.169,53.479,53.017,55.326,53.017,57.604z"/>
		<path fill="#83B2C6" d="M57.657,46.07H28.676l1.419-13.667h26.143L57.657,46.07z"/>
		<path fill="#2F76CC" d="M30.422,17.006l-0.342,2.612l-1.097,8.346c-0.197,1.502-1.477,2.626-2.993,2.626H12.91
			c-1.516,0-2.796-1.124-2.993-2.626L8.479,17.006l10.973-2.939L30.422,17.006z"/>
		<path fill="#337AE2" d="M30.08,19.618l-1.097,8.346c-0.197,1.502-1.477,2.626-2.993,2.626h-8.899
			c-1.517,0-2.797-1.124-2.994-2.626l-0.743-5.656c-0.187-1.425,0.923-2.689,2.36-2.689H30.08z"/>
		<path fill="#2F76CC" d="M31.924,14.052v1.599c0,0.748-0.606,1.355-1.355,1.355H8.333c-0.748,0-1.356-0.607-1.356-1.355v-1.599
			c0-0.749,0.608-1.356,1.356-1.356h22.235C31.317,12.696,31.924,13.303,31.924,14.052z"/>
		<path fill="#337AE2" d="M31.924,14.052v1.599c0,0.748-0.606,1.355-1.355,1.355H13.557c-0.748,0-1.354-0.607-1.354-1.355v-1.599
			c0-0.749,0.606-1.356,1.354-1.356h17.012C31.317,12.696,31.924,13.303,31.924,14.052z"/>
		<path fill="#293B6B" d="M19.451,6.558c-1.228,0-2.222,0.994-2.222,2.22v10.58c0,1.227,0.994,2.221,2.222,2.221
			c1.226,0,2.22-0.994,2.22-2.221V8.777C21.671,7.551,20.677,6.558,19.451,6.558z"/>
		<path fill="#2D303B" d="M57.527,46.07H28.545l0.645-6.207h27.693L57.527,46.07z"/>
		<path fill="#F15723" d="M57.935,32.402H31.793l-3.33,32.055h32.803L57.935,32.402z"/>
		<path fill="#FEC400" d="M42.6,42.768H24.428l-2.314,21.689h22.802L42.6,42.768z"/>
		<path fill="#FFFFFF" d="M51.917,36.518c-0.541,0-0.98-0.439-0.98-0.98v-6.464c0-3.349-2.724-6.073-6.072-6.073
			s-6.073,2.725-6.073,6.073v6.464c0,0.541-0.438,0.98-0.979,0.98s-0.979-0.439-0.979-0.98v-6.464c0-4.429,3.603-8.032,8.032-8.032
			c4.429,0,8.032,3.603,8.032,8.032v6.464C52.896,36.078,52.458,36.518,51.917,36.518z"/>
		<path fill="#3C3F4D" d="M33.515,56.126c-2.863,0-5.192-2.329-5.192-5.192v-4.211c0-0.541,0.439-0.98,0.979-0.98
			c0.542,0,0.979,0.439,0.979,0.98v4.211c0,1.782,1.45,3.232,3.233,3.232c1.782,0,3.231-1.449,3.231-3.232v-4.211
			c0-0.541,0.438-0.98,0.979-0.98c0.542,0,0.98,0.439,0.98,0.98v4.211C38.706,53.797,36.377,56.126,33.515,56.126z"/>
		<path fill="#FEC400" d="M41.76,11.474h-4.18c-0.541,0-0.979-0.438-0.979-0.979s0.438-0.979,0.979-0.979h4.18
			c0.541,0,0.979,0.438,0.979,0.979S42.301,11.474,41.76,11.474z"/>
		<path fill="#029F34" d="M59.654,11.474H46.07c-0.541,0-0.979-0.438-0.979-0.979s0.438-0.979,0.979-0.979h13.584
			c0.541,0,0.979,0.438,0.979,0.979S60.194,11.474,59.654,11.474z"/>
		<path fill="#FEC400" d="M41.76,16.045h-4.18c-0.541,0-0.979-0.439-0.979-0.98s0.438-0.979,0.979-0.979h4.18
			c0.541,0,0.979,0.438,0.979,0.979S42.301,16.045,41.76,16.045z"/>
		<path fill="#029F34" d="M59.654,16.045H46.07c-0.541,0-0.979-0.439-0.979-0.98s0.438-0.979,0.979-0.979h13.584
			c0.541,0,0.979,0.438,0.979,0.979S60.194,16.045,59.654,16.045z"/>
	</g>
</g>
<g id="travel_and_hospitality">
	<g>
		<g>
			<path fill="#293B6B" d="M8,59.21H4.25v3.415c0,1.035,0.839,1.875,1.875,1.875S8,63.66,8,62.625V59.21z"/>
			<path fill="#293B6B" d="M34.25,59.21H30.5v3.415c0,1.035,0.839,1.875,1.875,1.875c1.035,0,1.875-0.84,1.875-1.875V59.21z"/>
			<path fill="#293B6B" d="M61.058,59.21h-3.75v3.415c0,1.035,0.839,1.875,1.875,1.875c1.035,0,1.875-0.84,1.875-1.875V59.21z"/>
		</g>
		<path fill="#293B6B" d="M49.658,23.271H35.102c-0.518,0-0.938,0.419-0.938,0.938c0,0.518,0.42,0.938,0.938,0.938h14.557
			c0.611,0,1.107,0.497,1.107,1.107v8.254c0,0.518,0.42,0.938,0.938,0.938s0.938-0.42,0.938-0.938v-8.254
			C52.641,24.608,51.303,23.271,49.658,23.271z"/>
		<path fill="#F15723" d="M64.5,49.598L62,52.082l2.5,2.486v2.449c0,1.901-1.541,3.442-3.442,3.442h-26.5V31.671h26.5
			c1.901,0,3.442,1.542,3.442,3.441V49.598z"/>
		<path fill="#E54C23" d="M64.5,49.598L62,52.082v-16.97c0-1.899-1.541-3.441-3.442-3.441h2.5c1.901,0,3.442,1.542,3.442,3.441
			V49.598z"/>
		<path fill="#E54C23" d="M62,54.205v-2.123l2.5,2.486v2.449c0,1.901-1.541,3.442-3.442,3.442h-26.5v-2.813h24
			C60.459,57.647,62,56.106,62,54.205L62,54.205z"/>
		<path fill="#FFFFFF" d="M52.642,31.671v1.969l1.757,1.791c0.115,0.115,0.181,0.273,0.181,0.438v5.75
			c0,0.345-0.28,0.625-0.625,0.625h-4.5c-0.347,0-0.625-0.28-0.625-0.625v-5.75c0-0.164,0.063-0.322,0.179-0.438l1.759-1.791v-1.969
			H52.642z"/>
		<path fill="#337AE2" d="M34.558,49.598H64.5v4.971H34.558V49.598z"/>
		<path fill="#317AD3" d="M64.5,49.598v4.971h-2.519C61.994,54.45,62,54.328,62,54.205v-4.607H64.5z"/>
		<path fill="#293B6B" d="M28.701,0.5H9.799c-0.518,0-0.938,0.42-0.938,0.938s0.419,0.938,0.938,0.938h1.563v12.147h1.875V2.375
			h12.027v12.147h1.875V2.375h1.563c0.518,0,0.938-0.42,0.938-0.938S29.219,0.5,28.701,0.5z"/>
		<path fill="#FEC400" d="M38,15.465v41.553c0,1.901-1.541,3.442-3.442,3.442H3.942c-1.686,0-3.089-1.211-3.384-2.813
			C0.52,57.443,0.5,57.232,0.5,57.018V15.465c0-1.901,1.541-3.442,3.442-3.442h30.615C36.459,12.022,38,13.563,38,15.465z"/>
		<path fill="#F7B600" d="M38,15.465v41.553c0,1.901-1.541,3.442-3.442,3.442H3.942c-1.686,0-3.089-1.211-3.384-2.813h31.187
			l3.442-3.442v-38.74c0-1.901-1.541-3.442-3.442-3.442h2.813C36.459,12.022,38,13.563,38,15.465z"/>
		<path fill="#F15723" d="M35.188,34.897V56.71c0,0.518-0.42,0.938-0.938,0.938h-30c-0.518,0-0.938-0.42-0.938-0.938V34.897
			c0-0.518,0.42-0.938,0.938-0.938h30C34.768,33.96,35.188,34.38,35.188,34.897z"/>
		<path fill="#E54C23" d="M35.188,34.897V56.71c0,0.518-0.42,0.938-0.938,0.938h-30c-0.518,0-0.938-0.42-0.938-0.938v-1.563h26.669
			c1.511,0,2.735-1.226,2.735-2.735V34.897c0-0.518-0.419-0.938-0.938-0.938h2.471C34.768,33.96,35.188,34.38,35.188,34.897z"/>
		<g>
			<path fill="#FFFFFF" d="M30.5,37.664H8c-0.518,0-0.938,0.42-0.938,0.938S7.482,39.539,8,39.539h18.563v3.045
				c0,0.519,0.42,0.938,0.938,0.938s0.938-0.419,0.938-0.938v-3.045H30.5c0.518,0,0.938-0.42,0.938-0.938S31.018,37.664,30.5,37.664
				z"/>
			<path fill="#337AE2" d="M25.5,22.005v2.516c0,0.341-0.276,0.617-0.617,0.617H13.617c-0.34,0-0.617-0.276-0.617-0.617v-2.516
				c0-0.341,0.276-0.617,0.617-0.617h11.267C25.224,21.389,25.5,21.665,25.5,22.005z"/>
		</g>
	</g>
</g>
<g id="fodd_devlivery" display="none">
	<g display="inline">
		<path fill="#AEBDCC" d="M49.313,17.856V9.179c0-0.599,0.485-1.085,1.085-1.085s1.085,0.486,1.085,1.085v8.678
			c0,0.599-0.485,1.085-1.085,1.085S49.313,18.456,49.313,17.856z"/>
		<path fill="#FEC400" d="M0.615,9.777c-0.269,0.536-0.052,1.188,0.484,1.458l8.678,4.339c0.15,0.075,0.315,0.114,0.483,0.114
			c0.6,0,1.086-0.485,1.087-1.085V5.924c0-0.169-0.039-0.335-0.114-0.486c-0.269-0.536-0.92-0.752-1.456-0.484L1.1,9.292
			C0.891,9.397,0.721,9.567,0.615,9.777z"/>
		<path fill="#029F34" d="M9.179,18.941V5.924c0-0.599,0.485-1.085,1.084-1.085c0.6,0,1.085,0.486,1.085,1.085v13.017
			c0,0.599-0.485,1.084-1.085,1.084C9.664,20.026,9.179,19.541,9.179,18.941z"/>
		<path fill="#BF391F" d="M50.398,29.789h5.424V18.941h-8.678L50.398,29.789z"/>
		<path fill="#E54C23" d="M18.941,34.127h17.355l2.17,10.848H18.941V34.127z"/>
		<path fill="#E54C23" d="M44.975,31.958l-2.17,13.017h17.356v-8.678c0.001-3.102-1.653-5.967-4.339-7.517c0,0,0-0.001-0.002,0
			c-1.317-0.763-2.814-1.164-4.337-1.161h-4.339c-1.198,0-2.17,0.971-2.17,2.169V31.958z"/>
		<path fill="#F15723" d="M49.313,18.941c0-2.396,1.942-4.339,4.339-4.339h6.509v8.678h-6.509
			C51.256,23.28,49.313,21.337,49.313,18.941z"/>
		<path fill="#FEC400" d="M60.161,23.28h-4.339v-8.678h4.339V23.28z"/>
		<path fill="#4D4D4D" d="M40.636,18.941c0-1.198,0.972-2.169,2.169-2.169h6.509c1.198,0,2.17,0.971,2.17,2.169
			c0,1.198-0.972,2.169-2.17,2.169h-6.509C41.607,21.111,40.636,20.139,40.636,18.941z"/>
		<path fill="#BF391F" d="M47.145,49.313H18.941v-4.339h28.203V49.313z"/>
		<circle fill="#4D4D4D" cx="13.517" cy="52.568" r="7.593"/>
		<circle fill="#FEC400" cx="13.517" cy="52.568" r="3.254"/>
		<path fill="#4D4D4D" d="M38.467,29.789v2.169c0,1.198-0.972,2.169-2.17,2.169H21.11c-1.198,0-2.169-0.971-2.169-2.169v-2.169
			c0-1.198,0.971-2.169,2.169-2.169h15.187C37.495,27.619,38.467,28.59,38.467,29.789z"/>
		<path fill="#F15723" d="M64.5,47.145v2.169c0,1.198-0.971,2.17-2.17,2.17H47.145l0,0v-8.678c0-2.396,1.942-4.34,4.339-4.34h4.339
			C60.615,38.466,64.5,42.352,64.5,47.145z"/>
		<path fill="#C2D3E7" d="M44.975,12.433V5.924c0-0.599,0.486-1.085,1.085-1.085h1.085c2.396,0,4.339,1.943,4.339,4.339
			c0,2.396-1.942,4.339-4.339,4.339H46.06C45.461,13.518,44.975,13.032,44.975,12.433z"/>
		<circle fill="#4D4D4D" cx="54.737" cy="52.568" r="7.593"/>
		<circle fill="#FEC400" cx="54.738" cy="52.568" r="3.254"/>
		<path fill="#F15723" d="M25.449,47.145v2.169c0,1.198-0.971,2.17-2.169,2.17H3.755c-1.198,0-2.17-0.972-2.17-2.17v-2.169
			c0-4.793,3.886-8.679,8.678-8.679h6.509C21.564,38.466,25.449,42.352,25.449,47.145z"/>
		<path fill="#E9EEF2" d="M18.941,38.466H1.585v-4.339h17.356V38.466z"/>
		<path fill="#337AE2" d="M18.941,34.127H1.585V18.941h17.356V34.127z"/>
		<path fill="#2F76CC" d="M18.941,23.28H1.585v-4.339h17.356V23.28z"/>
		<path fill="#E9EEF2" d="M12.433,27.619H8.094V23.28h4.339V27.619z"/>
	</g>
</g>
<g id="Jop_portal" display="none">
	<g display="inline">
		<path fill="#F15723" d="M37.624,4.378v6.249h-3.75V6.252H22.62v4.375h-3.749V4.378c0-1.035,0.838-1.875,1.874-1.875h15.004
			C36.785,2.503,37.624,3.343,37.624,4.378z"/>
		<path fill="#E84D23" d="M37.624,4.378v6.249h-3.75V6.252h-5.627V2.503h7.502C36.785,2.503,37.624,3.343,37.624,4.378z"/>
		<path fill="#337AE2" d="M0.5,25.822v30.238c0,0,0.839,1.875,1.875,1.875H54.12c1.035,0,1.874-0.84,1.874-1.875V25.822H0.5z"/>
		<path fill="#307FBF" d="M55.994,25.822v30.238c0,1.035-0.84,1.875-1.874,1.875H28.247V25.822H55.994z"/>
		<path fill="#FEC400" d="M5.44,30.461h45.238c2.717,0,4.961-2.02,5.315-4.639V11.877c0-1.035-0.839-1.875-1.874-1.875H2.375
			c-1.036,0-1.875,0.84-1.875,1.875v13.945C0.854,28.441,2.724,30.461,5.44,30.461z"/>
		<path fill="#F9B800" d="M55.994,11.877v13.945c-0.354,2.619-2.598,4.639-5.315,4.639H28.247V10.002H54.12
			C55.154,10.002,55.994,10.842,55.994,11.877z"/>
		<path fill="#FFFFFF" d="M30.747,26.876h-5c-1.035,0-1.874,0.839-1.874,1.874v6.875c0,1.035,0.839,1.875,1.874,1.875h5
			c1.035,0,1.875-0.84,1.875-1.875V28.75C32.622,27.715,31.782,26.876,30.747,26.876L30.747,26.876z"/>
		<path fill="#F4F4F4" d="M32.622,28.75v6.875c0,1.034-0.84,1.875-1.875,1.875h-2.5V26.876h2.5
			C31.782,26.876,32.622,27.716,32.622,28.75L32.622,28.75z"/>
		<path fill="#FEC400" d="M47.813,46.493v11.63c0,2.412,1.963,4.374,4.375,4.374s4.374-1.962,4.374-4.374v-11.63l-4.374-0.625
			L47.813,46.493z"/>
		<path fill="#F9B800" d="M56.563,46.494v11.629c0,2.412-1.963,4.374-4.375,4.374V45.869L56.563,46.494z"/>
		<path fill="#293B6B" d="M56.563,40.737c-2.83,1.008-5.916,1.008-8.749,0v5.756h8.749V40.737z"/>
		<path fill="#161E4C" d="M56.563,40.736v5.758h-4.375v-5.001C53.669,41.493,55.147,41.242,56.563,40.736z"/>
		<circle fill="#293B6B" cx="52.188" cy="29.813" r="12.312"/>
		<path fill="#293B6B" d="M56.563,41.319c-1.406,0.532-2.892,0.799-4.375,0.799V17.507c3.152,0,6.306,1.199,8.706,3.601
			C67.223,27.436,64.853,38.185,56.563,41.319z"/>
		<circle fill="#C2D3E7" cx="52.188" cy="29.813" r="8.562"/>
		<path fill="#B8C8D8" d="M60.75,29.813c0,4.732-3.829,8.562-8.562,8.562V21.251C56.921,21.251,60.75,25.081,60.75,29.813
			L60.75,29.813z"/>
	</g>
</g>
<g id="Music_and_entertainment" display="none">
	<g display="inline">
		<g>
			<path fill="#C2D3E7" d="M25.377,44.699h13.894v10.877H25.377V44.699z"/>
		</g>
		<g>
			<path fill="#C2D3E7" d="M30.219,44.699h9.052v10.877h-9.052V44.699z"/>
		</g>
		<g>
			<path fill="#B6CAD6" d="M43.031,56.512H21.616c-0.517,0-0.936-0.418-0.936-0.936c0-0.516,0.419-0.936,0.936-0.936h21.415
				c0.518,0,0.937,0.42,0.937,0.936C43.968,56.094,43.549,56.512,43.031,56.512z"/>
		</g>
		<g>
			<path fill="#CCD7DD" d="M2.684,35.354l-1.248,2.695v5.848c0,1.379,1.117,2.496,2.495,2.496h57.138
				c1.378,0,2.495-1.117,2.495-2.496v-5.848l-1.247-2.695H2.684z"/>
		</g>
		<g>
			<path fill="#B6CAD6" d="M62.317,35.354h-4.385v2.912c0,1.377-1.117,2.494-2.495,2.494H1.436v3.137
				c0,1.379,1.117,2.496,2.495,2.496h57.138c1.378,0,2.495-1.117,2.495-2.496v-5.848L62.317,35.354z"/>
		</g>
		<g>
			<path fill="#61A2F9" d="M61.07,5.167H3.931c-1.378,0-2.495,1.117-2.495,2.495v30.386h62.128V7.663
				C63.564,6.285,62.447,5.167,61.07,5.167L61.07,5.167z"/>
		</g>
		<g>
			<path fill="#4A81F6" d="M61.07,5.167h-3.138v32.881h5.632V7.663C63.564,6.285,62.447,5.167,61.07,5.167L61.07,5.167z"/>
		</g>
		<g>
			<path fill="#C2D3E7" d="M61.07,47.328H3.931c-1.892,0-3.431-1.539-3.431-3.432V7.663c0-1.892,1.54-3.431,3.431-3.431h57.138
				c1.892,0,3.431,1.539,3.431,3.431v36.234C64.501,45.789,62.961,47.328,61.07,47.328L61.07,47.328z M3.931,6.103
				c-0.86,0-1.56,0.7-1.56,1.56v36.234c0,0.861,0.7,1.561,1.56,1.561h57.138c0.86,0,1.56-0.699,1.56-1.561V7.663
				c0-0.86-0.699-1.56-1.56-1.56H3.931z"/>
		</g>
		<g>
			<path fill="#FEC400" d="M37.602,15.847l-7.317-4.225c-0.5-0.289-1.125,0.072-1.125,0.649v8.45c0,0.577,0.625,0.938,1.125,0.649
				l7.317-4.225C38.102,16.857,38.102,16.136,37.602,15.847z"/>
		</g>
		<g>
			<path fill="#C2D3E7" d="M51.582,28.872H10.247c-0.517,0-0.936-0.418-0.936-0.936c0-0.517,0.419-0.936,0.936-0.936h41.335
				c0.517,0,0.936,0.419,0.936,0.936C52.518,28.454,52.099,28.872,51.582,28.872z"/>
		</g>
		<g>
			<circle fill="#029F34" cx="16.364" cy="27.937" r="2.652"/>
		</g>
		<g>
			<path fill="#04962D" d="M17.369,25.482c0.127,0.31,0.198,0.649,0.198,1.005c0,1.464-1.188,2.652-2.653,2.652
				c-0.355,0-0.695-0.07-1.005-0.198c0.396,0.966,1.346,1.647,2.455,1.647c1.465,0,2.652-1.188,2.652-2.652
				C19.017,26.828,18.335,25.878,17.369,25.482z"/>
		</g>
		<g>
			<path fill="#F6F9F9" d="M55.963,27.286c-0.319-0.033-0.631-0.022-0.93,0.028c-0.282,0.047-0.514-0.224-0.434-0.5
				c0.088-0.303,0.136-0.624,0.136-0.955c0-1.889-1.531-3.421-3.421-3.421c-0.001,0-0.002,0-0.004,0c-0.2,0-0.372-0.142-0.396-0.341
				c-0.223-1.802-1.845-3.17-3.745-2.981c-1.521,0.152-2.773,1.327-3.022,2.834c-0.051,0.309-0.06,0.611-0.03,0.903
				c0.026,0.27-0.214,0.484-0.479,0.427c-0.235-0.051-0.479-0.078-0.729-0.078c-1.054,0-1.995,0.476-2.623,1.225
				c-0.155,0.186-0.448,0.186-0.604,0c-0.627-0.749-1.569-1.225-2.623-1.225c-1.889,0-3.42,1.531-3.42,3.42
				c0,0.199,0.018,0.394,0.05,0.583c-0.017,0-0.033-0.001-0.05-0.001c-1.963,0-3.539,1.652-3.414,3.642
				c0.107,1.692,1.475,3.071,3.166,3.19c0.73,0.052,1.415-0.127,1.992-0.469c0.532,0.341,1.164,0.539,1.843,0.539
				c0.876,0,1.674-0.328,2.278-0.869c0.596,0.504,1.366,0.809,2.207,0.809c0.388,0,0.76-0.066,1.106-0.185
				c0.6,0.989,1.686,1.649,2.927,1.649c1.25,0,2.344-0.672,2.94-1.674c0.367,0.135,0.765,0.209,1.179,0.209
				c1.188,0,2.234-0.607,2.848-1.526c0.607,0.954,1.673,1.587,2.887,1.587c2.014,0,3.62-1.738,3.401-3.795
				C58.83,28.726,57.549,27.451,55.963,27.286L55.963,27.286z"/>
		</g>
		<g>
			<g>
				<path fill="#DAE7EF" d="M58.999,30.312c-0.169-1.586-1.449-2.86-3.036-3.026c-0.319-0.033-0.631-0.022-0.929,0.028
					c-0.283,0.047-0.515-0.224-0.435-0.5c0.089-0.303,0.136-0.624,0.136-0.955c0-1.889-1.531-3.421-3.421-3.421
					c-0.001,0-0.002,0-0.004,0c-0.2,0-0.372-0.142-0.396-0.341c-0.222-1.802-1.845-3.17-3.745-2.981
					c-0.41,0.041-0.8,0.159-1.156,0.334c1.012,0.499,1.74,1.482,1.884,2.647c0.024,0.199,0.196,0.341,0.397,0.341h0.003
					c1.89,0,3.421,1.532,3.421,3.421c0,0.331-0.047,0.651-0.136,0.955c-0.08,0.276,0.152,0.546,0.435,0.5
					c0.299-0.05,0.609-0.061,0.929-0.028c1.587,0.166,2.868,1.44,3.036,3.026c0.16,1.504-0.655,2.836-1.892,3.444
					c0.455,0.225,0.967,0.352,1.509,0.352C57.611,34.107,59.219,32.369,58.999,30.312L58.999,30.312z"/>
			</g>
		</g>
		<g>
			<path fill="#F15723" d="M57.457,32.574h-1.991L54.509,33l-0.919-0.426h-3.079l-0.901,0.449l-0.971-0.449h-3.084l-0.936,0.496
				l-0.937-0.496H40.6l-0.928,0.449l-0.945-0.449h-3.08l-0.92,0.355l-0.955-0.355h-1.99c-0.898,0-1.594,0.785-1.486,1.677
				l3.041,25.2c0.091,0.752,0.729,1.316,1.486,1.316h0.839l0.941-0.51l0.935,0.51h2.149l0.96-0.533l0.912,0.533h2.124l0.937-0.51
				l0.936,0.51h2.123l0.998-0.51l0.875,0.51h2.15l0.955-0.51l0.92,0.51h0.84c0.757,0,1.396-0.564,1.485-1.316l3.041-25.2
				C59.051,33.359,58.354,32.574,57.457,32.574L57.457,32.574z"/>
		</g>
		<g>
			<circle fill="#FEC400" cx="39.271" cy="27.804" r="1.2"/>
		</g>
		<g>
			<circle fill="#FEC400" cx="44.231" cy="29.137" r="1.2"/>
		</g>
		<path fill="#E54C23" d="M57.457,32.574h-1.991l-0.39,0.335l-2.77,22.946c-0.091,0.752-0.729,1.318-1.486,1.318H33.062l0.274,2.277
			c0.091,0.752,0.729,1.316,1.486,1.316h0.839l0.941-0.51l0.934,0.51h2.15l0.96-0.533l0.912,0.533h2.124l0.936-0.51l0.936,0.51
			h2.124l0.998-0.51l0.874,0.51h2.151l0.955-0.51l0.92,0.51h0.84c0.757,0,1.396-0.564,1.485-1.316l3.041-25.2
			C59.051,33.359,58.354,32.574,57.457,32.574L57.457,32.574z"/>
		<g>
			<path fill="#FEC400" d="M43.683,32.574h1.872v28.188h-1.872V32.574z"/>
		</g>
		<path fill="#FEC400" d="M35.661,60.768h1.876l-1.891-28.193h-1.875L35.661,60.768z"/>
		<path fill="#FEC400" d="M39.687,60.768h1.872L40.6,32.574h-1.873L39.687,60.768z"/>
		<path fill="#FEC400" d="M47.678,60.768h1.873l0.96-28.193h-1.872L47.678,60.768z"/>
		<path fill="#FEC400" d="M51.701,60.768h1.875l1.89-28.193H53.59L51.701,60.768z"/>
		<g>
			<ellipse fill="#F6F9F9" cx="44.619" cy="45.359" rx="7.445" ry="5.338"/>
		</g>
		<g>
			<path fill="#DAE7EF" d="M44.619,51.633c-2.184,0-4.247-0.617-5.811-1.738c-1.658-1.189-2.571-2.799-2.571-4.535
				s0.913-3.346,2.571-4.535c1.563-1.121,3.627-1.738,5.811-1.738c2.183,0,4.246,0.617,5.81,1.738
				C52.087,42.014,53,43.623,53,45.359s-0.913,3.346-2.571,4.535C48.865,51.016,46.802,51.633,44.619,51.633L44.619,51.633z
				 M44.619,40.957c-3.591,0-6.511,1.975-6.511,4.402s2.92,4.402,6.511,4.402c3.589,0,6.51-1.975,6.51-4.402
				S48.208,40.957,44.619,40.957z"/>
		</g>
		<g>
			<path fill="#F4B400" d="M55.116,32.574l-2.81,23.281c-0.035,0.291-0.153,0.555-0.328,0.77l-0.277,4.143h1.875l1.89-28.193H55.116
				L55.116,32.574z"/>
			<path fill="#F4B400" d="M47.801,57.174l-0.123,3.594h1.873l0.122-3.594H47.801z"/>
			<path fill="#F4B400" d="M43.683,57.174h1.872v3.588h-1.872V57.174z"/>
			<path fill="#F4B400" d="M39.564,57.174l0.122,3.594h1.872l-0.122-3.594H39.564z"/>
			<path fill="#F4B400" d="M35.42,57.174l0.241,3.594h1.876l-0.241-3.594H35.42z"/>
		</g>
	</g>
</g>
<g id="Agriculture" display="none">
	<g display="inline">
		<path fill="#029F34" d="M60.425,30.471c-4.376,4.376-12.24,4.657-18.329,3.43c-0.442-0.087-0.784-0.172-1.583-0.354
			c-4.146-17.95,4.645-27.224,22.986-22.986C65.056,17.05,65.122,25.774,60.425,30.471L60.425,30.471z"/>
		<path fill="#04B235" d="M24.487,33.547c-0.806,0.186-1.146,0.27-1.596,0.356c-6.108,1.212-13.928,0.956-18.316-3.432
			c-4.703-4.703-4.629-13.445-3.074-19.911c6.528-1.505,15.154-1.677,19.911,3.074C26.158,18.381,25.993,27.014,24.487,33.547z"/>
		<path fill="#00B232" d="M44.397,16.754c0,6.702-6.2,12.686-11.905,16.254c-7.095-4.475-13.809-11.664-11.386-19.653
			C22.711,8.041,27.79,3.447,32.492,0.5C38.169,4,44.397,10.083,44.397,16.754z"/>
		<path fill="#029F34" d="M44.397,16.754c0,6.717-6.229,12.704-11.905,16.254c-0.235-0.149-0.146-0.093-0.393-0.247V0.75
			c0.1-0.065,0.2-0.129,0.299-0.191c0.118-0.074,0.061-0.08,0.262,0.046C38.275,4.16,44.397,10.102,44.397,16.754z"/>
		<path fill="#46A35F" d="M31.187,41.916c-10.31-9.959-6.719-6.49-15.021-14.51H2.395c-0.584-1.163-1.011-2.431-1.306-3.759h11.183
			L1.043,12.799c0.131-0.77,0.286-1.519,0.458-2.238c0.707-0.163,1.438-0.31,2.184-0.436l9.884,9.548V9.945
			c1.313,0.219,2.579,0.559,3.759,1.039v12.32C29.411,34.976,30.34,35.872,32.492,37.951L31.187,41.916z"/>
		<path fill="#007F24" d="M52.713,23.646h11.198c-0.295,1.328-0.722,2.596-1.305,3.759H48.82
			c-8.257,7.975-4.762,4.599-14.923,14.416v-5.228c8.606-8.313,4.981-4.812,13.759-13.29V10.99c1.181-0.482,2.446-0.822,3.76-1.042
			v9.725l9.886-9.55c0.752,0.128,1.486,0.274,2.197,0.438c0.172,0.716,0.326,1.46,0.456,2.226L52.713,23.646z"/>
		<path fill="#029F34" d="M34.372,47.582h-3.759c0-1.352,0-24.272,0-25.711c-7.423-4.125-5.829-3.238-8.056-4.477
			c0.883-1.59,0.481-0.867,1.824-3.286l6.231,3.461V1.756C31.542,1.097,32.475,0.5,32.5,0.507c0.045,0.011,1.098,0.698,1.872,1.249
			v11.238l5.013-3.759l2.256,3.007l-7.269,5.452V47.582z"/>
		<path fill="#037F26" d="M34.372,47.582H32.5V0.507c0.045,0.011,1.098,0.698,1.872,1.249v11.238l5.013-3.759l2.256,3.007
			l-7.269,5.452V47.582z"/>
		<path fill="#F15723" d="M57.431,61.617c0,0.738-0.047,1.031-0.25,2.883H7.805l-0.185-1.674
			c-0.916-8.342,7.546-14.539,15.176-11.214c4.046-7.86,15.338-7.876,19.392,0C49.309,48.509,57.431,53.736,57.431,61.617z"/>
		<path fill="#E84D23" d="M57.431,61.617c0,0.738-0.047,1.031-0.25,2.883H32.492V45.702c4.147,0,7.859,2.341,9.696,5.91
			C49.309,48.509,57.431,53.736,57.431,61.617z"/>
	</g>
</g>
</svg>
