<?xml version="1.0" encoding="utf-8"?>
<!-- Generator: Adobe Illustrator 16.0.0, SVG Export Plug-In . SVG Version: 6.00 Build 0)  -->
<!DOCTYPE svg PUBLIC "-//W3C//DTD SVG 1.1//EN" "http://www.w3.org/Graphics/SVG/1.1/DTD/svg11.dtd">
<svg version="1.1" id="Layer_1" xmlns="http://www.w3.org/2000/svg" xmlns:xlink="http://www.w3.org/1999/xlink" x="0px" y="0px"
	 width="98.728px" height="97.527px" viewBox="0 0 98.728 97.527" enable-background="new 0 0 98.728 97.527" xml:space="preserve">
<circle fill="#FEC400" cx="48.476" cy="48.759" r="40.79"/>
<path fill="none" stroke="#FEC400" stroke-width="4" stroke-miterlimit="10" d="M64.87,95.646
	c18.579-6.711,31.857-24.502,31.857-45.396C96.728,23.603,75.124,2,48.475,2C40.752,2,33.45,3.814,26.977,7.042"/>
<polygon fill="#FEC400" points="10.255,40.49 20.451,48.795 10.194,57.027 0,48.722 "/>
<g>
	<g>
		<path fill="#FFFFFF" d="M36.426,41.13c1.58,0,2.929-0.559,4.047-1.677s1.678-2.468,1.678-4.048s-0.56-2.929-1.678-4.047
			s-2.467-1.678-4.047-1.678s-2.93,0.56-4.048,1.678c-1.117,1.118-1.677,2.467-1.677,4.047c0,1.581,0.56,2.93,1.677,4.048
			C33.496,40.571,34.846,41.13,36.426,41.13z"/>
		<path fill="#FFFFFF" d="M43.235,50.063c1.676,1.677,3.699,2.516,6.069,2.516c2.371,0,4.396-0.839,6.072-2.516
			c1.676-1.677,2.516-3.701,2.516-6.071s-0.84-4.394-2.516-6.071c-1.676-1.677-3.701-2.516-6.072-2.516
			c-2.37,0-4.394,0.839-6.069,2.516c-1.679,1.678-2.517,3.701-2.517,6.071C40.719,46.363,41.557,48.387,43.235,50.063z"/>
		<path fill="#FFFFFF" d="M62.187,41.13c1.58,0,2.929-0.559,4.046-1.677c1.119-1.118,1.678-2.468,1.678-4.048
			s-0.559-2.929-1.678-4.047c-1.117-1.118-2.466-1.678-4.046-1.678c-1.581,0-2.929,0.56-4.048,1.678
			c-1.117,1.118-1.676,2.467-1.676,4.047c0,1.581,0.559,2.93,1.676,4.048C59.258,40.571,60.605,41.13,62.187,41.13z"/>
		<path fill="#FFFFFF" d="M67.999,41.13c-0.089,0-0.412,0.156-0.972,0.47c-0.559,0.313-1.285,0.631-2.18,0.951
			s-1.783,0.481-2.661,0.481c-0.999,0-1.989-0.171-2.975-0.515c0.074,0.552,0.112,1.044,0.112,1.477
			c0,2.071-0.604,3.979-1.813,5.724c2.416,0.075,4.391,1.029,5.927,2.863h2.996c1.222,0,2.251-0.303,3.085-0.906
			c0.836-0.604,1.254-1.487,1.254-2.65C70.773,43.762,69.85,41.13,67.999,41.13z"/>
		<path fill="#FFFFFF" d="M64.658,59.209c-0.156-0.872-0.354-1.681-0.593-2.426s-0.56-1.472-0.962-2.18
			c-0.402-0.708-0.864-1.312-1.387-1.812c-0.521-0.499-1.159-0.897-1.912-1.196c-0.753-0.298-1.584-0.447-2.492-0.447
			c-0.15,0-0.471,0.16-0.963,0.481c-0.492,0.32-1.035,0.679-1.631,1.073c-0.598,0.395-1.395,0.752-2.394,1.073
			c-0.999,0.321-2.007,0.481-3.019,0.481c-1.014,0-2.021-0.16-3.02-0.481c-0.999-0.32-1.797-0.678-2.394-1.073
			c-0.595-0.395-1.14-0.753-1.631-1.073c-0.493-0.32-0.813-0.481-0.962-0.481c-0.909,0-1.74,0.149-2.493,0.447
			c-0.753,0.299-1.39,0.697-1.911,1.196c-0.523,0.5-0.985,1.104-1.388,1.812c-0.402,0.708-0.724,1.435-0.962,2.18
			s-0.436,1.554-0.593,2.426c-0.156,0.872-0.26,1.685-0.313,2.438c-0.052,0.752-0.077,1.524-0.077,2.314
			c0,1.789,0.544,3.202,1.632,4.237c1.088,1.036,2.535,1.555,4.338,1.555h19.544c1.805,0,3.251-0.519,4.339-1.555
			c1.089-1.036,1.633-2.448,1.633-4.237c0-0.79-0.025-1.562-0.078-2.314C64.918,60.894,64.814,60.081,64.658,59.209z"/>
		<path fill="#FFFFFF" d="M41.1,49.717c-1.208-1.744-1.813-3.652-1.813-5.725c0-0.432,0.039-0.924,0.113-1.476
			c-0.984,0.343-1.976,0.515-2.975,0.515c-0.88,0-1.767-0.161-2.661-0.481s-1.622-0.637-2.18-0.951s-0.884-0.47-0.972-0.47
			c-1.851,0-2.774,2.632-2.774,7.894c0,1.163,0.418,2.047,1.253,2.649c0.834,0.604,1.862,0.906,3.084,0.906h2.997
			C36.708,50.745,38.684,49.791,41.1,49.717z"/>
	</g>
</g>
</svg>
