<?xml version="1.0" encoding="utf-8"?>
<!-- Generator: Adobe Illustrator 16.0.0, SVG Export Plug-In . SVG Version: 6.00 Build 0)  -->
<!DOCTYPE svg PUBLIC "-//W3C//DTD SVG 1.1//EN" "http://www.w3.org/Graphics/SVG/1.1/DTD/svg11.dtd">
<svg version="1.1" id="Layer_1" xmlns="http://www.w3.org/2000/svg" xmlns:xlink="http://www.w3.org/1999/xlink" x="0px" y="0px"
	 width="207px" height="125px" viewBox="0 0 207 125" enable-background="new 0 0 207 125" xml:space="preserve">
<g>
	<title>status update</title>
	<path opacity="0.1" fill="#049F34" d="M118.598,27.447c-12.684,0.097-24.869-2.77-36.521-5.964
		c-11.653-3.194-23.211-6.781-35.646-8.246c-7.998-0.947-17.101-0.798-23.389,2.869c-6.052,3.524-7.84,9.299-8.725,14.631
		c-0.665,4.013-0.988,8.222,1.352,11.873c1.626,2.534,4.427,4.612,6.396,7.025c6.859,8.396,2.607,19.201-4.194,27.878
		c-3.187,4.063-6.915,7.976-9.342,12.279c-2.427,4.301-3.439,9.16-1.038,13.373c2.381,4.174,7.805,7.18,13.64,9.223
		c11.849,4.146,25.664,4.965,39.121,5.229c29.782,0.58,59.643-1.191,89.42-2.959c11.021-0.654,22.092-1.314,32.893-3.076
		c5.998-0.975,12.176-2.406,16.447-5.484c5.422-3.908,6.574-10.24,2.688-14.762c-6.518-7.581-23.842-8.905-28.502-17.125
		c-2.564-4.524-0.281-9.746,3.047-14.146c7.162-9.438,19.422-17.928,19.711-28.438c0.199-7.215-6.096-14.213-15.537-17.285
		c-9.904-3.228-23.447-2.294-30.449,3.875C142.771,24.559,129.803,27.363,118.598,27.447z"/>
	<path fill="#049F34" d="M168.535,102.902c0,0-2.203-1.455-4.387-0.422c0,0,0.674,1.295,3.438,1.172L168.535,102.902z"/>
	<path fill="#049F34" d="M168.809,102.979c0,0,0.668,2.553-1.012,4.289c0,0-1.01-1.051-0.008-3.631L168.809,102.979z"/>
	<path fill="#049F34" d="M171.555,100.527c0,0-0.162-2.17-5.064-1.451c0,0-0.023,1.402,1.697,2.064
		C169.91,101.805,170.695,101.244,171.555,100.527z"/>
	<path fill="#049F34" d="M171.855,100.514c0,0,2.072,0.664,0.225,5.264c0,0-1.365-0.305-1.613-2.137
		C170.219,101.811,170.959,101.178,171.855,100.514z"/>
	<path fill="#049F34" d="M174.631,97.432c0,0,0.281-3.572-4.729-3.205c0,0-0.359,3.227,3.844,4.066L174.631,97.432z"/>
	<path fill="#049F34" d="M177.936,93.4c0,0-0.686-4.05-5.693-2.844c0,0-0.021,3.502,4.875,3.808L177.936,93.4z"/>
	<path fill="#049F34" d="M180.363,89.23c0,0-1.152-3.945-6.113-2.765c0,0,1.18,3.548,5.783,3.493L180.363,89.23z"/>
	<path fill="#049F34" d="M182.66,85.157c0,0-1.123-4.093-5.916-2.87c0,0,1.6,3.89,5.6,3.564L182.66,85.157z"/>
	<path fill="#049F34" d="M184.145,81.287c0,0-0.865-5.004-5.334-3.896c0,0,1.297,4.554,5.002,4.625L184.145,81.287z"/>
	<path fill="#049F34" d="M185.529,76.615c0,0-1.035-5.047-5.555-3.585c0,0,1.771,4.769,5.236,4.274L185.529,76.615z"/>
	<path fill="#049F34" d="M186.391,72.265c0,0-1.646-5.045-5.141-4.908c0,0,1.686,5.329,4.84,5.916L186.391,72.265z"/>
	<path fill="#049F34" d="M186.938,68.021c0,0-1.793-6.075-4.637-5.605c0,0,1.242,4.643,4.535,6.552L186.938,68.021z"/>
	<path fill="#049F34" d="M187.258,62.951c0,0-1.68-5.061-4.482-5.263c0,0,1.141,4.98,4.424,6.576L187.258,62.951z"/>
	<path fill="#049F34" d="M187.588,58.24c0,0-2.096-5.065-3.945-5.18c0,0,0.91,4.988,3.766,6.012L187.588,58.24z"/>
	<path fill="#049F34" d="M187.82,53.835c0,0-1.287-5.502-3.141-5.956c0,0,0.252,4.5,2.953,6.368L187.82,53.835z"/>
	<path fill="#049F34" d="M188.512,48.083c0,0-1.355-4.385-2.855-5.054c0,0,0.297,5.169,2.51,6.128L188.512,48.083z"/>
	<path fill="#049F34" d="M189.098,44.306l0.273-7.732c0,0-2.801,5.836-0.48,9.098L189.098,44.306z"/>
	<path fill="#049F34" d="M191.264,36.621c0,0,2.018-5.647,2.51-5.963c0,0-3.963,3.664-3.576,8.377L191.264,36.621z"/>
	<path fill="#049F34" d="M174.77,97.408c0,0,3.553-0.468,3.445,4.555c0,0-3.211,0.523-4.258-3.629L174.77,97.408z"/>
	<path fill="#049F34" d="M178.113,93.265c0,0,4.107-0.014,3.768,5.128c0,0-3.447,0.613-4.586-4.157L178.113,93.265z"/>
	<path fill="#049F34" d="M180.402,89.561c0,0,3.727-1.747,6.113,2.766c0,0-3.445,1.455-6.441-2.035L180.402,89.561z"/>
	<path fill="#049F34" d="M182.744,85.195c0,0,3.816-1.86,6.057,2.547c0,0-3.975,1.371-6.371-1.85L182.744,85.195z"/>
	<path fill="#049F34" d="M184.094,81.397c0,0,3.674-3.51,6.605,0.04c0,0-3.754,2.886-6.775,0.742L184.094,81.397z"/>
	<path fill="#049F34" d="M185.324,76.494c0,0,3.695-3.584,6.604,0.166c0,0-4.148,2.944-6.736,0.588L185.324,76.494z"/>
	<path fill="#049F34" d="M186.014,72.121c0,0,2.848-4.482,6.197-3.479c0,0-2.951,4.744-6.166,4.532L186.014,72.121z"/>
	<path fill="#049F34" d="M186.854,67.992c0,0,2.869-5.645,5.58-4.66c0,0-2.066,4.339-5.654,5.613L186.854,67.992z"/>
	<path fill="#049F34" d="M187.051,62.662c0,0,2.949-4.442,5.711-3.901c0,0-2.41,4.506-5.996,5.188L187.051,62.662z"/>
	<path fill="#049F34" d="M187.275,58.132c0,0,2.285-4.984,4.145-5.021c0,0-1.1,4.949-3.99,5.866L187.275,58.132z"/>
	<path fill="#049F34" d="M187.729,53.729c0,0,2.539-5.049,4.449-5.06c0,0-1.301,4.316-4.365,5.502L187.729,53.729z"/>
	<path fill="#049F34" d="M188.109,48.393c0,0,1.9-4.175,3.475-4.65c0,0-0.949,5.092-3.264,5.758L188.109,48.393z"/>
	<path fill="#049F34" d="M189.322,44.16l4.248-6.469c0,0-1.09,6.383-4.867,7.709L189.322,44.16z"/>
	<path fill="#049F34" d="M192.236,37.14c0,0,4.938-3.404,5.115-3.957c0,0-2.51,4.771-7.17,5.614L192.236,37.14z"/>
	<path fill="#049F34" d="M192.533,35.607c0,0,5.666-5.447,7.113-5.439c0,0-4.674,0.211-7.25,5.151L192.533,35.607z"/>
	<path fill="#444053" d="M188.166,49.202l0.205,0.026c1.066-8.335,2.617-13.265,4.373-13.869l-0.068-0.197
		C190.814,35.807,189.256,40.661,188.166,49.202z"/>
	<path fill="#444053" d="M186.6,69.131l0.313,0.026c0.064-0.777,0.115-1.575,0.15-2.368c0.297-6.898,0.758-13.233,1.365-17.981
		l-0.18-0.225c-0.607,4.758-1.199,11.284-1.496,18.194C186.721,67.562,186.666,68.359,186.6,69.131z"/>
	<path fill="#444053" d="M162.717,106.867c0.057-0.021,5.547-2.475,11.246-8.324c3.338-3.426,6.111-7.358,8.219-11.653
		c2.635-5.364,4.24-11.958,4.781-18.362l-0.328,0.152c-1.207,14.376-7.756,24.2-12.959,29.551
		c-5.643,5.797-11.072,8.223-11.125,8.246L162.717,106.867z"/>
	<g>
		<path fill="#FFFFFF" d="M175.865,9.729v92.936c0,2.764-2.666,5.02-5.957,5.02H43.817c-3.29,0-5.957-2.246-5.957-5.02V9.729
			c0-2.769,2.667-5.591,5.957-5.591L169.9,4.443C173.191,4.443,175.865,6.972,175.865,9.729z"/>
		<path fill="#F2F2F2" d="M175.865,9.757v4.303H37.86V9.757c0-3.104,2.518-5.619,5.621-5.619h0.004h126.761
			C173.35,4.139,175.865,6.654,175.865,9.757z"/>
		<circle opacity="0.8" fill="#F05722" enable-background="new    " cx="44.548" cy="9.098" r="1.987"/>
		<circle opacity="0.8" fill="#FFC400" enable-background="new    " cx="50.326" cy="9.098" r="1.987"/>
		<circle opacity="0.8" fill="#049F34" enable-background="new    " cx="56.103" cy="9.098" r="1.987"/>
	</g>
	<g opacity="0.5" enable-background="new    ">
		<path fill="#F05722" d="M119.137,38.162v10.04c0,0.299-0.562,0.537-1.256,0.537H91.4c-0.691,0-1.256-0.243-1.256-0.537v-10.04
			c0-0.299,0.56-0.604,1.256-0.604h26.48C118.577,37.558,119.137,37.861,119.137,38.162z"/>
	</g>
	<rect x="102.872" y="41.142" fill="#FFFFFF" enable-background="new    " width="13.796" height="0.487"/>
	<path fill="#FFFFFF" enable-background="new    " d="M95.892,40.072c-1.807,0.002-3.271,1.469-3.27,3.275
		c0,1.098,0.551,2.121,1.466,2.726v-0.217c0.001-0.376,0.282-0.691,0.654-0.738c0.345,0.63,1.132,0.862,1.762,0.517
		c0.217-0.12,0.396-0.298,0.515-0.517c0.373,0.046,0.654,0.362,0.655,0.738v0.232c1.515-0.986,1.943-3.012,0.959-4.526
		C98.029,40.634,96.997,40.074,95.892,40.072L95.892,40.072z M97.175,44.222c-0.046,0.714-0.663,1.255-1.377,1.21
		c-0.649-0.042-1.168-0.56-1.21-1.21c-0.326-0.714-0.014-1.555,0.698-1.883c0.016-0.007,0.03-0.013,0.045-0.018
		c-0.045-0.072-0.068-0.152-0.07-0.236c0-0.237,0.194-0.432,0.434-0.432h0.001h0.03c-0.226,0.016-0.4,0.204-0.402,0.43
		c0.002,0.077,0.021,0.15,0.059,0.215h0.012c-0.002-0.028-0.002-0.056,0-0.086c0-0.091,0.029-0.178,0.084-0.251
		c0.056-0.18,0.223-0.305,0.411-0.305h0.03c-0.134,0.01-0.256,0.081-0.329,0.194c0.07-0.049,0.153-0.073,0.238-0.073
		c0.237,0,0.433,0.194,0.433,0.434c0.001,0.016,0.001,0.032,0,0.048c0.621,0.166,1.054,0.73,1.054,1.373
		C97.31,43.836,97.263,44.037,97.175,44.222z"/>
	<rect x="102.872" y="42.328" opacity="0.2" fill="#FFFFFF" enable-background="new    " width="13.796" height="0.489"/>
	<rect x="102.872" y="43.515" opacity="0.2" fill="#FFFFFF" enable-background="new    " width="13.796" height="0.488"/>
	<rect x="102.872" y="44.703" opacity="0.2" fill="#FFFFFF" enable-background="new    " width="13.796" height="0.489"/>
	<g opacity="0.8" enable-background="new    ">
		<path fill="#FFC400" d="M88.05,57.823v10.039c0,0.296-0.559,0.537-1.254,0.537H60.314c-0.691,0-1.256-0.243-1.256-0.537V57.823
			c0-0.301,0.559-0.604,1.256-0.604h26.483C87.491,57.22,88.05,57.522,88.05,57.823z"/>
	</g>
	<rect x="71.783" y="60.804" fill="#FFFFFF" width="13.796" height="0.487"/>
	<path fill="#FFFFFF" enable-background="new    " d="M64.805,59.733c-1.808,0-3.272,1.464-3.272,3.271
		c0,1.101,0.552,2.125,1.469,2.731v-0.219c0.001-0.375,0.281-0.69,0.654-0.735c0.345,0.629,1.134,0.86,1.762,0.516
		c0.218-0.12,0.396-0.298,0.516-0.516c0.372,0.045,0.653,0.36,0.654,0.735v0.232c1.516-0.982,1.947-3.01,0.963-4.524
		C66.946,60.295,65.913,59.733,64.805,59.733z M66.086,63.883c-0.047,0.713-0.662,1.255-1.376,1.209
		c-0.651-0.043-1.169-0.561-1.21-1.209c-0.084-0.186-0.128-0.389-0.128-0.592c0-0.572,0.344-1.09,0.871-1.311
		c-0.044-0.07-0.069-0.152-0.069-0.233c0-0.237,0.195-0.433,0.433-0.434h0.033c-0.238,0.015-0.418,0.222-0.402,0.46
		c0.005,0.065,0.024,0.128,0.057,0.186h0.015c-0.004-0.028-0.004-0.056,0-0.086c0.026-0.271,0.227-0.496,0.494-0.556h0.017
		c-0.134,0.009-0.257,0.08-0.33,0.192c0.069-0.046,0.151-0.071,0.235-0.071c0.24,0,0.435,0.194,0.435,0.434l0,0
		c0.001,0.016,0.001,0.033,0,0.049c0.759,0.199,1.211,0.978,1.011,1.734c-0.021,0.082-0.05,0.161-0.086,0.238L66.086,63.883z"/>
	<rect x="71.783" y="61.99" opacity="0.2" fill="#FFFFFF" enable-background="new    " width="13.796" height="0.488"/>
	<rect x="71.783" y="63.177" opacity="0.2" fill="#FFFFFF" enable-background="new    " width="13.796" height="0.488"/>
	<rect x="71.783" y="64.364" opacity="0.2" fill="#FFFFFF" enable-background="new    " width="13.796" height="0.487"/>
	<g>
		<path fill="#337AE2" d="M80.898,25.986v10.04c0,0.297-0.559,0.538-1.254,0.538H53.167c-0.69,0-1.256-0.243-1.256-0.538v-10.04
			c0-0.298,0.562-0.603,1.256-0.603h26.48C80.34,25.383,80.898,25.688,80.898,25.986z"/>
	</g>
	<rect x="64.633" y="28.968" fill="#FFFFFF" enable-background="new    " width="13.796" height="0.487"/>
	<rect x="64.633" y="30.154" opacity="0.2" fill="#FFFFFF" enable-background="new    " width="13.796" height="0.488"/>
	<rect x="64.633" y="31.341" opacity="0.2" fill="#FFFFFF" enable-background="new    " width="13.796" height="0.487"/>
	<rect x="64.633" y="32.529" opacity="0.2" fill="#FFFFFF" enable-background="new    " width="13.796" height="0.487"/>
	<path fill="#FFFFFF" enable-background="new    " d="M57.648,27.897c-1.809,0.008-3.266,1.482-3.258,3.289
		c0.005,1.092,0.555,2.11,1.466,2.712v-0.553c0-0.376,0.28-0.691,0.653-0.737c0.344,0.629,1.133,0.859,1.763,0.516
		c0.216-0.12,0.396-0.298,0.514-0.516c0.374,0.044,0.654,0.361,0.654,0.737v0.566c1.515-0.985,1.945-3.011,0.961-4.527
		C59.795,28.455,58.759,27.895,57.648,27.897z M59.083,31.892c-0.013,0.021-0.027,0.04-0.044,0.056
		c-0.027,0.02-0.06,0.031-0.095,0.033h-0.067c-0.206,0.687-0.932,1.075-1.618,0.867c-0.547-0.164-0.921-0.667-0.925-1.238
		c0-0.222,0.06-0.443,0.17-0.637l-0.014-0.01c-0.15-0.179-0.132-0.445,0.043-0.601c0.083-0.048,0.175-0.08,0.269-0.099
		c0.284-0.084,0.527-0.27,0.683-0.521c0.003,0.066,0.003,0.131,0,0.197c0.106-0.118,0.29-0.125,0.407-0.017c0,0,0,0.002,0.002,0.002
		c0.035,0.048,0.073,0.093,0.116,0.133c0.045,0.024,0.095,0.038,0.146,0.041l0.326,0.041c0.135,0.004,0.266,0.051,0.371,0.135
		c0.057,0.064,0.099,0.137,0.124,0.219c0.097,0.221,0.167,0.454,0.214,0.69c0.045,0.239,0.011,0.487-0.1,0.704L59.083,31.892z"/>
	<g>
		<path fill="#F05722" d="M126.373,73.479v10.038c0,0.3-0.558,0.539-1.253,0.539H98.636c-0.692,0-1.255-0.243-1.255-0.539V73.479
			c0-0.301,0.56-0.602,1.255-0.602h26.486C125.815,72.867,126.373,73.171,126.373,73.479z"/>
	</g>
	<rect x="110.107" y="76.449" fill="#FFFFFF" width="13.795" height="0.488"/>
	<rect x="110.107" y="77.638" opacity="0.2" fill="#FFFFFF" enable-background="new    " width="13.795" height="0.487"/>
	<rect x="110.107" y="78.826" opacity="0.2" fill="#FFFFFF" enable-background="new    " width="13.795" height="0.487"/>
	<rect x="110.107" y="80.013" opacity="0.2" fill="#FFFFFF" enable-background="new    " width="13.795" height="0.486"/>
	<path fill="#FFFFFF" enable-background="new    " d="M103.126,75.382c-1.807,0.001-3.271,1.467-3.27,3.273
		c0,1.097,0.551,2.122,1.467,2.727v-0.554c0.001-0.375,0.281-0.69,0.654-0.734c0.344,0.628,1.132,0.857,1.762,0.514
		c0.217-0.118,0.396-0.297,0.514-0.514c0.373,0.044,0.654,0.357,0.655,0.734v0.568c1.516-0.986,1.944-3.013,0.959-4.526
		C105.265,75.943,104.232,75.382,103.126,75.382L103.126,75.382z M104.561,79.375c-0.011,0.021-0.026,0.039-0.044,0.057
		c-0.026,0.02-0.061,0.031-0.094,0.033h-0.069c-0.197,0.688-0.917,1.085-1.605,0.886c-0.688-0.198-1.087-0.918-0.889-1.606
		c0.029-0.1,0.071-0.197,0.123-0.287h-0.015c-0.15-0.18-0.131-0.445,0.044-0.602c0.082-0.047,0.175-0.08,0.269-0.099
		c0.282-0.083,0.526-0.268,0.68-0.52c0.006,0.066,0.006,0.13,0,0.196c0.108-0.117,0.293-0.123,0.409-0.017
		c0.002,0.001,0.002,0.003,0.002,0.003c0.034,0.049,0.074,0.093,0.118,0.131c0.044,0.025,0.094,0.039,0.144,0.043l0.326,0.041
		c0.136,0.003,0.267,0.05,0.372,0.136c0.057,0.063,0.099,0.137,0.123,0.219c0.097,0.222,0.169,0.452,0.214,0.69
		c0.042,0.234,0.008,0.48-0.103,0.695H104.561z"/>
	
		<linearGradient id="SVGID_1_" gradientUnits="userSpaceOnUse" x1="115.7471" y1="-120.0776" x2="115.7471" y2="-82.0142" gradientTransform="matrix(1 0 0 -1 -36.6001 -7.2002)">
		<stop  offset="0" style="stop-color:#808080;stop-opacity:0.25"/>
		<stop  offset="0.54" style="stop-color:#808080;stop-opacity:0.12"/>
		<stop  offset="1" style="stop-color:#808080;stop-opacity:0.1"/>
	</linearGradient>
	<path fill="url(#SVGID_1_)" d="M95.144,106.369l-3.933-5.701c0,0-0.073-1.412-0.332-1.744c-0.259-0.328-0.056-1.061-0.056-1.061
		s0.276-0.404,0.038-0.441c-0.239-0.037-0.038-0.937-0.038-0.937l-0.018-1.435c0,0,0.221-1.377,0.037-1.706
		c-0.11-0.183-0.104-0.412,0.019-0.587c0,0,0.221-0.789,0-0.992c-0.221-0.201-0.167-1.433-0.111-2.4
		c0.056-0.969-0.385-1.521-0.385-1.67c0-0.147-1.452-1.575-1.452-1.703c0-0.131-0.921-0.661-1.473-0.808
		c-0.552-0.149-0.826-0.257-0.809-0.331c0.018-0.072-0.863-0.357-0.863-0.357s-0.771-0.056-1.067-0.44
		c-0.297-0.383-1.192-0.497-1.22-0.5l-0.015-0.075l-0.017-0.084c0.068-0.117,0.134-0.236,0.19-0.359
		c0.019-0.036,0.035-0.073,0.052-0.109c0.323,0.001,0.639-0.097,0.905-0.283c0.263-0.219,0.422-0.537,0.439-0.879
		c0.015-0.338-0.059-0.676-0.214-0.979c-0.161-0.328-0.397-0.671-0.316-1.029c0.034-0.153,0.129-0.292,0.178-0.441
		c0.071-0.296,0.024-0.607-0.133-0.869c-0.138-0.265-0.331-0.5-0.487-0.758c-0.198-0.33-0.329-0.695-0.388-1.076
		c-0.012-0.203-0.06-0.4-0.143-0.584c-0.084-0.131-0.194-0.242-0.322-0.328c-0.574-0.408-1.268-0.618-1.973-0.597
		c-0.5,0.018-1,0.152-1.496,0.091c-0.297-0.051-0.589-0.128-0.873-0.229c-0.617-0.18-1.328-0.258-1.864,0.096
		s-0.752,1.047-1.116,1.591c-0.321,0.479-0.791,0.882-1.037,1.391c0-0.011,0-0.019,0-0.03c-0.059,0.117-0.104,0.242-0.137,0.37
		c-0.068,0.406-0.04,0.822,0.081,1.217c0.028,0.21,0.134,0.401,0.298,0.537c0.179,0.117,0.431,0.091,0.643,0.128
		c-0.01,0.034-0.018,0.069-0.024,0.104c-0.062,0.286-0.092,0.579-0.092,0.873c0,1.858,1.22,3.497,3.002,4.028
		c0,0.038,0,0.074,0,0.111c-0.002,0.104-0.006,0.21-0.019,0.315l0,0c0,0-1.849-0.381-2.344-0.123
		c-0.493,0.259-1.471,0.458-1.613,0.605c-0.141,0.146-0.515,0.037-0.846,0.896c-0.331,0.857-0.367,1.741-0.788,2.15
		c-0.421,0.408-0.644,0.68-0.664,0.974c-0.021,0.292,0.056,0.358-0.109,0.456c-0.165,0.1-0.405,0.478-0.331,0.625
		c0.052,0.206-0.027,0.426-0.203,0.55c-0.177,0.125-0.274,0.334-0.257,0.551c0,0-0.11,0.402-0.367,0.495
		c-0.257,0.091-0.423,0.696-0.423,0.696l-0.833,0.96l-1.653-1.83c-0.258-0.283-0.697-0.306-0.982-0.049l-0.813,0.723
		c-0.313,0.074-0.596,0.243-0.812,0.484c-0.177,0.182-0.32,0.394-0.421,0.624l-0.444,0.4c-0.286,0.354-0.331,0.846-0.115,1.246
		l1.059,1.172v0.01c-0.373,0.03-0.731,0.177-1.022,0.417c-1.579,1.395-1.599,2.676-1.359,3.262c0.242,0.59,2.245,2.846,2.245,2.846
		s1.162,1.512,2.841,2.316l0,0l-0.012,0.014c-0.032,0.035-0.065,0.074-0.099,0.115l-0.026,0.035c-0.01,0.01-0.018,0.023-0.024,0.035
		l-0.031,0.043l-0.023,0.037l-0.032,0.053l-0.021,0.035l-0.037,0.07c0,0-0.009,0.018-0.013,0.023
		c-0.003,0.008-0.03,0.066-0.044,0.102l-0.017,0.037c0,0.021-0.018,0.049-0.028,0.072l-0.017,0.047c0,0.023-0.016,0.047-0.024,0.072
		l-0.015,0.053c-0.007,0.023-0.015,0.051-0.021,0.08c0,0.016-0.009,0.033-0.014,0.049c-0.003,0.016-0.02,0.088-0.027,0.133
		c-0.002,0.018-0.002,0.035,0,0.053c-0.007,0.031-0.014,0.063-0.017,0.094c0,0.021,0,0.043-0.009,0.066
		c-0.011,0.021-0.011,0.059-0.013,0.092c-0.005,0.031,0,0.045,0,0.07s0,0.066,0,0.104v0.064c0,0.057,0,0.115,0,0.178
		c-0.038,2.152,0.087,2.459,0.087,2.459c0.167,0.404,0.541,0.686,0.976,0.732c0.105,0.006,0.211,0.002,0.316-0.018
		c0.955-0.166,3.197-0.549,3.988-0.402c0.475,0.088,1.355-0.045,1.981-0.162l0.164-0.031l0.114,0.357l0.359-0.1l0.309,0.178
		l0.195,0.113c0.357,1.229,1.836,0.809,1.836,0.809l0.349,0.203l3.549,0.092c0.397,0.24,0.816,0.443,1.254,0.602
		c0.06,0.02,0.119,0.031,0.179,0.039c0.329,0.027,0.658,0.033,0.989,0.02c0.271,0,0.481-0.02,0.481-0.02s-0.036-0.963-0.088-2.041
		c1.1-0.027,2.196-0.117,3.286-0.268c1.896-0.336,2.689-2.057,2.977-2.977c0.085,0.375,0.145,0.758,0.179,1.143
		c0.076,0.334,0.175,0.666,0.293,0.988c0.104,0.262,0.239,0.508,0.406,0.734c1.396-0.479,0.551-1.191,0.256-1.504
		c-0.294-0.313,0.202-0.568,0.202-0.568s0.388-0.258,0.358-0.496c-0.028-0.238-0.055-0.496,1.197-0.477
		C95.228,107.404,95.144,106.369,95.144,106.369z M75.731,94.66c0.018,0.105,0.191,1.236,0.349,1.533
		c0.045,0.197,0.06,0.4,0.041,0.604c-0.74-0.059-1.511-0.092-1.511-0.092c0.021,0.027,0.036,0.061,0.039,0.096l-0.116-0.027
		l-0.17-0.041l1.364-2.074L75.731,94.66z M73.029,98.963l1.28,0.205l0.109,0.016c-0.037,0.201-0.059,0.402-0.066,0.605
		c0,0.018,0.029,0.039,0.07,0.068c-0.018,0.1-0.025,0.201-0.025,0.303c0.021,0.102,0.621,0.32,1.309,0.502
		c-0.011,0.037-0.02,0.074-0.03,0.105l0,0c-0.605-0.318-1.562-0.467-1.673-0.703c-0.111-0.238-3.362-1.375-3.362-1.375
		s-0.121-0.063-0.325-0.162l0.856,0.162l0.235-0.025c0.533,0.135,1.075,0.232,1.622,0.297V98.963z"/>
	<path fill="#65617D" d="M90.96,107.168c0,0-0.511,3.08-3.098,3.533c-2.587,0.457-11.223,0.359-11.223,0.359
		s-4.938-0.717-6.723-4.881s-2.936-5.832-1.403-5.902c1.531-0.074,9.784,2.787,10.257,2.822
		C79.245,103.137,91.415,96.764,90.96,107.168z"/>
	<path opacity="0.05" enable-background="new    " d="M90.96,107.168c0,0-0.511,3.08-3.098,3.533
		c-2.587,0.457-11.223,0.359-11.223,0.359s-4.938-0.717-6.723-4.881s-2.936-5.832-1.403-5.902c1.531-0.074,9.784,2.787,10.257,2.822
		C79.245,103.137,91.415,96.764,90.96,107.168z"/>
	<path fill="#3F3D56" d="M67.801,110.586c0.161,0.404,0.531,0.688,0.962,0.736c0.104,0.006,0.208,0,0.313-0.018
		c0.945-0.164,3.168-0.539,3.951-0.4c0.474,0.086,1.346-0.043,1.973-0.162c0.412-0.074,0.718-0.148,0.718-0.148
		s-0.729-2.422-0.819-2.496c-0.092-0.07-3.286-1.992-3.286-1.992l-2.525-0.18l0,0c-0.34,0.051-0.646,0.232-0.856,0.504
		c-0.267,0.322-0.496,0.852-0.51,1.719C67.675,110.283,67.801,110.586,67.801,110.586z"/>
	<path opacity="0.05" enable-background="new    " d="M67.801,110.586c0.161,0.404,0.531,0.688,0.962,0.736
		c-0.248-0.32-0.478-0.654-0.684-1l0.012-1.77c-0.105-0.984,0.266-1.959,0.995-2.627l0,0c0,0-1.33,0.092-1.366,2.223
		S67.801,110.586,67.801,110.586z"/>
	<path opacity="0.1" enable-background="new    " d="M78.753,106.73l2.351-1.84l3.698-3.645l-1.002-0.045
		c-0.151,0.096-0.571,0.396-0.586,0.762c-0.018,0.445-1,0.031-1.511,0.285c-0.511,0.256-3.006,3.449-3.439,3.432
		c-0.434-0.021-0.783-0.225-0.964,0.086c-0.005,0.008-0.01,0.014-0.015,0.02L78.753,106.73z"/>
	<path opacity="0.1" enable-background="new    " d="M68.226,106.434l0.255,0.117c1.792,0.764,3.987,2.367,4.152,2.658
		c0.1,0.18,1.378,0.953,2.364,1.533c0.414-0.074,0.719-0.148,0.719-0.148s-0.729-2.422-0.82-2.496
		c-0.091-0.07-3.284-1.992-3.284-1.992l-2.525-0.18l0,0C68.743,105.977,68.436,106.158,68.226,106.434z"/>
	<path fill="#65617D" d="M63.266,101.211c0.238,0.584,2.224,2.822,2.224,2.822s1.255,1.643,3.047,2.406
		c1.793,0.766,3.991,2.367,4.154,2.662c0.104,0.18,1.53,1.043,2.53,1.633l0.227,0.131l0.497,0.287l0.264,0.152
		c0,0,0.609-0.49,1.217-0.982c0.607-0.494,1.198-0.977,1.206-1.004c0.019-0.055,0.254-0.674,0.199-0.717
		c-0.028-0.018-0.151-0.271-0.383-0.563c-0.245-0.324-0.562-0.588-0.928-0.768c-0.53-0.27-0.956-0.711-1.203-1.254
		c0,0-0.081-0.059-0.2-0.135c-0.249-0.17-0.525-0.291-0.819-0.359c-0.401-0.049-1.147-0.869-1.147-0.869
		c-0.294-0.191-0.539-0.445-0.716-0.746c-0.193-0.4-3.018-2.332-3.28-2.51l6.855,4.387l1.641,1.055L81,105l3.698-3.645l-1.221-0.053
		c-1.793-0.078-4.99-0.201-5.394-0.109c-0.328,0.076-0.666,0.098-1.001,0.064c0,0-0.911,0.041-1.513-0.277
		c-0.6-0.318-1.549-0.465-1.659-0.701c-0.109-0.232-3.335-1.367-3.335-1.367s-4.39-2.329-5.956-0.943
		C63.053,99.352,63.026,100.629,63.266,101.211z"/>
	<path fill="#EE8E9E" d="M77.423,87.837l0.564,1.878l0.729,4.227l2.678,0.18l0.776-1.288l0.771-1.281c0,0,0.483-1.708,0.831-3.361
		c0.308-1.46,0.506-2.88,0.18-3.036c-0.297-0.136-0.489-0.628-0.617-1.157c-0.016-0.063-0.03-0.13-0.044-0.198
		c-0.088-0.447-0.149-0.901-0.178-1.357c0,0-5.613-0.293-4.829,2.022c0.14,0.396,0.212,0.812,0.21,1.229
		c0,0.105-0.005,0.209-0.018,0.313C78.397,86.737,78.015,87.402,77.423,87.837z"/>
	<path fill="#E3E8F4" d="M76.257,87.527l0.201,3.188l0.454,2.716l0.511,1.254l0.455,6.878c0,0,4.392,0.508,5.461,0
		c0.077-0.033,0.143-0.084,0.194-0.152c1.29-1.947,0.867-7.591,0.867-7.591l0.496-3.648l-0.327-1.894l-0.793-0.084l-0.611-0.064
		c0,0-0.139,0.169-0.336,0.433c-0.537,0.717-1.534,2.115-1.468,2.702c0.092,0.801-0.109,1.613-0.419,1.748
		c-0.311,0.133-0.564,0.348-0.619,0.128c-0.076-0.184-0.097-0.388-0.056-0.581c0.056-0.312-0.236-1.255-0.236-1.255
		s-0.491-1.113-0.455-1.586c0.036-0.474-0.054-1.021-0.2-1.146c-0.147-0.128-0.347-0.257-0.18-0.841
		c0.166-0.581-0.717-1.717-0.717-1.717L76.257,87.527z"/>
	<path opacity="0.1" enable-background="new    " d="M82.06,95.489l0.18,5.448l1.051,0.586c0.077-0.033,0.146-0.084,0.194-0.152
		c1.29-1.949,0.867-7.593,0.867-7.593l0.491-3.646l-0.328-1.891l-0.793-0.085c0.308-1.46,0.508-2.878,0.18-3.032
		c-0.295-0.138-0.49-0.629-0.617-1.158l0,0l-0.569,3.853c0,0,0.049,0.346,0.064,0.704c0.023,0.229,0.008,0.458-0.047,0.68
		c-0.127,0.328-0.035,0.911-0.035,0.911c-0.329,0.579-0.494,1.65-0.571,2.688C82.018,94.18,82.06,95.489,82.06,95.489z"/>
	<path fill="#3F3D56" d="M83.302,83.875c0,0,0.918,0.114,1.208,0.496c0.29,0.384,1.058,0.439,1.058,0.439s0.874,0.291,0.854,0.357
		c-0.019,0.066,0.258,0.18,0.803,0.328c0.547,0.149,1.458,0.673,1.458,0.803s1.434,1.546,1.434,1.693
		c0,0.148,0.437,0.693,0.382,1.659c-0.053,0.966-0.11,2.186,0.11,2.386c0.219,0.202,0,0.985,0,0.985
		c-0.12,0.173-0.127,0.4-0.019,0.582c0.179,0.328-0.037,1.693-0.037,1.693l0.02,1.422c0,0-0.2,0.897,0.036,0.929
		c0.235,0.031-0.036,0.438-0.036,0.438s-0.2,0.73,0.054,1.057c0.254,0.33,0.328,1.73,0.328,1.73l3.899,5.666
		c0,0,0.054,1.039-1.185,1.021s-1.223,0.236-1.184,0.473c0.037,0.236-0.346,0.494-0.346,0.494s-0.492,0.254-0.201,0.564
		s1.129,1.02-0.255,1.494c-0.164-0.227-0.299-0.471-0.401-0.729c-0.118-0.322-0.216-0.65-0.292-0.984c0,0-0.128-1.387-0.382-1.566
		c-0.254-0.182-0.221-1.059-0.221-1.059s0.359-0.717-0.144-1.002s-7.907-4.391-7.907-4.391l-0.18-5.448c0,0-0.127-4.026,0.638-5.377
		c0,0-0.091-0.584,0.036-0.911c0.129-0.329-0.018-1.386-0.018-1.386L83.302,83.875z"/>
	<path opacity="0.1" enable-background="new    " d="M78.524,86.065c0,0-1.831-0.377-2.33-0.122
		c-0.497,0.254-1.456,0.454-1.602,0.601s-0.512,0.036-0.839,0.896c-0.328,0.86-0.359,1.73-0.783,2.132
		c-0.426,0.402-0.639,0.675-0.656,0.965c-0.019,0.291,0.056,0.357-0.11,0.455c-0.163,0.097-0.398,0.475-0.328,0.621
		c0.072,0.145,3.789,3.352,3.789,3.352s0.18,1.221,0.347,1.531c0.167,0.31-0.179,4.572-0.546,4.863
		c-0.367,0.289,2.466,0.264,2.466,0.264s0.13-2.797,0.239-2.943c0.109-0.148-0.073-3.133-0.073-3.133s-0.019-2.553,0.218-3.228
		c0.237-0.675,0.209-2.916,0.209-2.916s0.211-1.345,0.465-1.657C79.245,87.432,78.524,86.065,78.524,86.065z"/>
	<path fill="#3F3D56" d="M78.472,86.012c0,0-1.832-0.377-2.33-0.123s-1.458,0.455-1.603,0.601c-0.146,0.146-0.512,0.038-0.837,0.896
		c-0.326,0.858-0.359,1.73-0.784,2.131s-0.638,0.674-0.655,0.966c-0.02,0.293,0.054,0.359-0.11,0.456
		c-0.163,0.096-0.401,0.474-0.328,0.622c0.073,0.146,3.789,3.35,3.789,3.35s0.18,1.222,0.347,1.53s-0.18,4.573-0.546,4.866
		c-0.369,0.291,2.459,0.264,2.459,0.264S78,98.773,78.11,98.627c0.108-0.145-0.074-3.135-0.074-3.135s-0.019-2.549,0.219-3.226
		c0.236-0.675,0.211-2.915,0.211-2.915s0.209-1.345,0.463-1.657C79.183,87.38,78.472,86.012,78.472,86.012z"/>
	<path opacity="0.1" enable-background="new    " d="M78.278,84.467c0.141,0.396,0.212,0.812,0.212,1.23
		c1.843,0.547,3.822-0.234,4.793-1.893c-0.09-0.45-0.149-0.903-0.18-1.359C83.104,82.445,77.495,82.152,78.278,84.467z"/>
	<path fill="#EE8E9E" d="M75.511,81.588c0.005,2.3,1.872,4.158,4.171,4.154c2.299-0.005,4.158-1.871,4.153-4.17
		c-0.004-2.3-1.871-4.16-4.17-4.155c-1.966,0.004-3.66,1.381-4.065,3.303C75.539,81.005,75.511,81.297,75.511,81.588z"/>
	<path fill="#3F3D56" d="M72.832,91.244l-1.003,0.312c0.049,0.202-0.03,0.416-0.2,0.538c-0.173,0.122-0.27,0.325-0.254,0.537
		c0,0-0.109,0.402-0.359,0.492c-0.249,0.093-0.418,0.693-0.418,0.693l-0.839,0.965c0,0-0.31,0.254-0.254,0.383
		c0.056,0.126-0.327,0.162-0.327,0.162l0.2,3.246l1.729,0.326l1.076-0.111l0.874-0.324l0.766-0.457l0.347-0.896l1.528-2.331
		L72.832,91.244z"/>
	<path fill="#EE8E9E" d="M69.425,95.599c0,0-2.223-3.207-3.881-1.475c-1.658,1.731,0.673,4.536,1.22,4.444s3.153-0.236,3.153-0.236
		L69.425,95.599z"/>
	<path opacity="0.1" enable-background="new    " d="M75.6,80.72c0.116,0.011,0.224,0.059,0.308,0.14
		c0.139,0.147,0.146,0.411,0.33,0.505c0.07,0.028,0.145,0.038,0.218,0.025c0.484-0.071,0.765-0.617,1.229-0.768
		c0.271-0.068,0.56-0.046,0.816,0.071c0.104,0.033,0.196,0.094,0.269,0.177c0.156,0.204,0.047,0.499,0.118,0.743
		c0.101,0.338,0.504,0.473,0.855,0.516c0.351,0.044,0.743,0.07,0.976,0.334c0.157,0.199,0.224,0.455,0.18,0.704
		c-0.021,0.088-0.021,0.177,0,0.263c0.097,0.271,0.569,0.232,0.694,0.016c0.089-0.158,0.063-0.287,0.274-0.33
		c0.153-0.013,0.307,0.014,0.446,0.078c0.371,0.128,0.762,0.189,1.154,0.179c0.98-2.087,0.086-4.572-2-5.553
		c-2.087-0.98-4.573-0.086-5.554,2c-0.136,0.291-0.239,0.597-0.305,0.91L75.6,80.72z"/>
	<path fill="#3F3D56" d="M80.891,83.313c-0.021-0.085-0.021-0.174,0-0.261c0.042-0.249-0.023-0.506-0.18-0.705
		c-0.233-0.263-0.628-0.287-0.978-0.333c-0.35-0.043-0.754-0.179-0.854-0.517c-0.071-0.243,0.038-0.538-0.119-0.742
		c-0.07-0.083-0.163-0.145-0.269-0.18c-0.256-0.113-0.543-0.139-0.815-0.071c-0.466,0.15-0.746,0.696-1.23,0.768
		c-0.071,0.013-0.148,0.005-0.217-0.025c-0.179-0.094-0.191-0.359-0.331-0.505c-0.223-0.234-0.642-0.085-0.912-0.259
		c-0.163-0.135-0.268-0.328-0.295-0.537c-0.121-0.391-0.148-0.806-0.08-1.209c0.157-0.677,0.764-1.142,1.15-1.72
		c0.359-0.54,0.563-1.221,1.105-1.58c0.541-0.359,1.235-0.277,1.848-0.094c0.281,0.1,0.571,0.177,0.866,0.226
		c0.491,0.062,0.986-0.073,1.482-0.088c0.7-0.022,1.389,0.185,1.957,0.595c0.128,0.084,0.237,0.192,0.319,0.322
		c0.083,0.183,0.131,0.38,0.143,0.582c0.059,0.375,0.188,0.736,0.384,1.063c0.154,0.256,0.347,0.489,0.484,0.755
		c0.155,0.26,0.202,0.568,0.132,0.861c-0.047,0.152-0.14,0.286-0.181,0.44c-0.08,0.358,0.155,0.695,0.313,1.022
		c0.156,0.301,0.229,0.635,0.214,0.973c-0.019,0.338-0.177,0.653-0.438,0.872c-0.271,0.188-0.593,0.287-0.923,0.279
		c-0.4,0.014-0.799-0.048-1.177-0.18c-0.141-0.063-0.293-0.087-0.445-0.075c-0.213,0.042-0.179,0.179-0.275,0.329
		C81.46,83.548,80.987,83.587,80.891,83.313z"/>
	<path opacity="0.1" enable-background="new    " d="M78.643,106.84l2.352-1.84l3.697-3.645l-1.22-0.053
		c-0.144,0.129-0.235,0.305-0.258,0.496c-0.018,0.445-1,0.033-1.511,0.287s-3.006,3.447-3.439,3.428
		c-0.434-0.021-0.783-0.221-0.964,0.088l-0.015,0.02c-0.073,0.086-0.169,0.143-0.278,0.164L78.643,106.84z"/>
	<path fill="#65617D" d="M73.905,106.713l1.183,3.764l0.179,0.592l0.563-0.156l1.239-0.338l5.521-1.518
		c0.693-0.031,1.373-0.217,1.989-0.537c1.043-0.586,2.237-0.848,3.43-0.75c0.73,0.07,1.543-0.246,2.217-1.49
		c0,0,1.528-4.518-2.331-5.811s-4.047,0.688-4.047,0.688l-0.053,0.033c-0.149,0.094-0.57,0.395-0.586,0.76
		c-0.018,0.445-1,0.031-1.51,0.285c-0.511,0.256-3.003,3.463-3.437,3.445c-0.434-0.021-0.783-0.225-0.964,0.086
		c-0.005,0.008-0.01,0.014-0.015,0.02c-0.135,0.18-0.539,0.23-0.808,0.236c-0.147,0-0.254,0-0.254,0l-0.033,0.012l-0.28,0.082
		L73.905,106.713z"/>
	<path opacity="0.1" enable-background="new    " d="M74.212,99.389l0.568,0.092l0.238-2.35c0,0-0.262-0.039-0.588-0.114
		C74.518,97.342,74.319,98.611,74.212,99.389z"/>
	<path opacity="0.1" enable-background="new    " d="M89.109,88.406c0,0,1.693-0.489,1.277,4.32c-0.419,4.809-3.554,7.85-3.554,7.85
		s-3.608,1.586-5.229,1.332c-1.621-0.256-2.803-0.311-2.803-0.311c-0.51-0.258-1.069-0.406-1.641-0.438
		c-0.911-0.035-2.822-0.6-2.867-0.783c-0.047-0.182,0.474-2.859,0.255-3.062c0,0,2.553,0.106,2.807,0.29
		c0.254,0.186,0.618,0.053,0.896,0c0.277-0.051,1.111-0.779,2.77-0.145c0,0,0.564,0.057,0.784-0.09
		c0.179-0.084,0.383-0.096,0.57-0.037c0.14-0.049,0.271-0.116,0.394-0.2c0.056-0.072,0.493,0,0.493,0
		c0.097,0.046,0.212,0.007,0.26-0.09c0.005-0.011,0.011-0.023,0.013-0.038c0.058-0.148,0.145-0.284,0.254-0.399
		c0,0,0.494-2.768,1.422-3.808c0.151-0.132,0.229-0.33,0.201-0.528C85.338,91.979,86.923,87.819,89.109,88.406z"/>
	<path opacity="0.1" enable-background="new    " d="M75.907,106.113l2.404,2.914l0.018-0.02c0.018-0.055,0.254-0.672,0.198-0.715
		c-0.056-0.045-0.473-0.949-1.312-1.33c-0.426-0.209-0.782-0.535-1.029-0.939L75.907,106.113z"/>
	<path opacity="0.1" enable-background="new    " d="M75.934,111.152l0.264,0.152c0,0,0.61-0.49,1.217-0.982
		c0.607-0.494,1.197-0.977,1.206-1.004c0.019-0.055,0.254-0.674,0.199-0.717c-0.029-0.018-0.152-0.271-0.384-0.563
		c-1.631-0.457-0.591,0.676-0.452,0.729c0,0-1.987-0.457-2.098,1.705C75.872,110.701,75.888,110.93,75.934,111.152z"/>
	<path fill="#3F3D56" d="M77.951,112.068l0.347,0.201l3.516,0.092c0.394,0.24,0.811,0.439,1.244,0.598
		c0.058,0.02,0.118,0.031,0.179,0.041c0.326,0.025,0.654,0.031,0.98,0.018c0.27,0,0.478-0.018,0.478-0.018s-0.166-4.436-0.293-4.902
		c-0.06-0.225-0.358-0.18-0.645-0.063c-0.22,0.088-0.429,0.195-0.629,0.32c0,0-1.494,0.143-1.732,0.271s-0.911-0.074-1.331,0
		c-0.418,0.072-1.164-0.492-1.164-0.492c-2.04-0.676-0.896,0.582-0.747,0.639c0,0-1.985-0.457-2.095,1.705
		S77.951,112.068,77.951,112.068z"/>
	<path fill="#565387" d="M83.034,110.357c0.037,0.916,0.753,2.059,1.181,2.66c0.271,0,0.477-0.018,0.477-0.018
		s-0.166-4.436-0.291-4.902c-0.06-0.225-0.358-0.18-0.646-0.063C83.401,108.697,83.004,109.617,83.034,110.357z"/>
	<path opacity="0.1" enable-background="new    " d="M83.034,110.357c0.037,0.916,0.753,2.059,1.181,2.66
		c0.271,0,0.477-0.018,0.477-0.018s-0.166-4.436-0.291-4.902c-0.06-0.225-0.358-0.18-0.646-0.063
		C83.401,108.697,83.004,109.617,83.034,110.357z"/>
	<path opacity="0.05" enable-background="new    " d="M82.434,110.479c0.242,0.887,0.239,1.881,0.624,2.48
		c0.058,0.02,0.118,0.031,0.179,0.041c0.326,0.025,0.654,0.031,0.98,0.018c0.27,0,0.478-0.018,0.478-0.018s-0.166-4.436-0.293-4.902
		c-0.06-0.225-0.358-0.18-0.645-0.063c-0.22,0.088-0.429,0.195-0.629,0.32C83.128,108.355,82.123,109.344,82.434,110.479z"/>
	<path opacity="0.1" enable-background="new    " d="M70.303,101.49c0,0,1.746,0.566,3.227,2.58L70.303,101.49z"/>
	<g opacity="0.1">
		<path d="M84.496,79.627l-0.011,0.039c-0.019,0.053-0.038,0.104-0.063,0.152C84.441,79.752,84.466,79.688,84.496,79.627z"/>
		<path d="M74.614,78.744c0.03-0.127,0.076-0.246,0.135-0.36c-0.01,0.031-0.018,0.063-0.025,0.097
			c-0.068,0.402-0.041,0.815,0.081,1.208c0.024,0.21,0.13,0.401,0.294,0.538c0.27,0.179,0.688,0.022,0.91,0.255
			c0.142,0.149,0.148,0.415,0.332,0.506c0.068,0.031,0.145,0.039,0.218,0.024c0.484-0.068,0.765-0.614,1.23-0.764
			c0.271-0.071,0.558-0.047,0.813,0.069c0.106,0.033,0.199,0.095,0.272,0.177c0.155,0.203,0.046,0.5,0.117,0.745
			c0.101,0.337,0.504,0.472,0.854,0.516c0.351,0.044,0.744,0.068,0.979,0.334c0.157,0.196,0.223,0.454,0.179,0.704
			c-0.021,0.084-0.021,0.174,0,0.26c0.097,0.273,0.571,0.232,0.693,0.018c0.09-0.158,0.063-0.287,0.274-0.332
			c0.154-0.01,0.307,0.017,0.446,0.078c0.378,0.132,0.779,0.191,1.179,0.178c0.329,0.005,0.651-0.093,0.923-0.277
			c0.117-0.096,0.213-0.214,0.283-0.348c-0.062,0.244-0.198,0.459-0.394,0.62c-0.27,0.188-0.594,0.286-0.923,0.278
			c-0.399,0.012-0.799-0.048-1.177-0.18c-0.14-0.063-0.294-0.09-0.447-0.076c-0.211,0.044-0.18,0.18-0.273,0.33
			c-0.124,0.217-0.597,0.255-0.693-0.018c-0.021-0.085-0.021-0.174,0-0.26c0.043-0.251-0.021-0.506-0.18-0.705
			c-0.235-0.264-0.628-0.289-0.979-0.333c-0.352-0.045-0.753-0.179-0.854-0.517c-0.071-0.244,0.038-0.538-0.118-0.743
			c-0.07-0.084-0.164-0.145-0.27-0.18c-0.255-0.114-0.542-0.14-0.815-0.071c-0.466,0.151-0.745,0.697-1.229,0.768
			c-0.075,0.013-0.15,0.004-0.22-0.025c-0.179-0.093-0.189-0.358-0.331-0.506c-0.221-0.233-0.64-0.084-0.911-0.258
			c-0.162-0.135-0.268-0.328-0.294-0.537C74.573,79.564,74.545,79.148,74.614,78.744z"/>
	</g>
	<path opacity="0.1" enable-background="new    " d="M84.776,93.326c-0.332,0.449-0.717,0.868-1.009,1.346
		c-0.32,0.466-0.477,1.025-0.443,1.589c0.306-0.313,0.444-0.748,0.639-1.141c0.326-0.667,0.813-1.23,1.224-1.842
		c0.079-0.118,0.582-0.793,0.328-0.825C85.305,92.428,84.896,93.172,84.776,93.326z"/>
	<path fill="#FFFFFF" d="M75.554,85.969l3.65,6.905c0.11,0.204-0.188,0.575-0.662,0.827l-18.227,9.641
		c-0.476,0.252-0.95,0.289-1.058,0.082l-3.651-6.903c-0.109-0.205,0.165-0.62,0.641-0.871l18.225-9.638
		C74.949,85.757,75.445,85.764,75.554,85.969z"/>
	<g>
		<path fill="#F05722" d="M75.554,85.969l3.65,6.905c0.11,0.204-0.188,0.575-0.662,0.827l-18.227,9.641
			c-0.476,0.252-0.95,0.289-1.058,0.082l-3.651-6.903c-0.109-0.205,0.165-0.62,0.641-0.871l18.225-9.638
			C74.949,85.757,75.445,85.764,75.554,85.969z"/>
	</g>
	
		<rect x="64.906" y="91.419" transform="matrix(-0.884 0.4675 -0.4675 -0.884 175.228 139.7303)" fill="#FFFFFF" width="10.74" height="0.379"/>
	
		<rect x="65.338" y="92.238" transform="matrix(-0.8841 0.4674 -0.4674 -0.8841 176.4148 141.0916)" opacity="0.2" fill="#FFFFFF" enable-background="new    " width="10.74" height="0.377"/>
	
		<rect x="65.769" y="93.053" transform="matrix(-0.884 0.4674 -0.4674 -0.884 177.6129 142.4167)" opacity="0.2" fill="#FFFFFF" enable-background="new    " width="10.741" height="0.377"/>
	
		<rect x="66.202" y="93.87" transform="matrix(-0.884 0.4675 -0.4675 -0.884 178.8116 143.7519)" opacity="0.2" fill="#FFFFFF" enable-background="new    " width="10.74" height="0.379"/>
	<path opacity="0.2" fill="#FFFFFF" enable-background="new    " d="M60.253,95.746c-1.242,0.656-1.719,2.197-1.062,3.441
		c0.399,0.756,1.152,1.262,2.005,1.344l-0.201-0.379c-0.137-0.26-0.061-0.58,0.18-0.746c0.465,0.307,1.09,0.18,1.398-0.285
		c0.107-0.16,0.165-0.35,0.168-0.545c0.273-0.102,0.579,0.012,0.717,0.27l0.205,0.393c0.688-1.229,0.248-2.779-0.98-3.466
		c-0.754-0.421-1.67-0.431-2.434-0.026H60.253z M62.696,97.973c0.001,0.018-0.003,0.035-0.008,0.053
		c-0.014,0.023-0.032,0.043-0.055,0.059l-0.045,0.023c0.113,0.547-0.237,1.082-0.784,1.197c-0.547,0.111-1.082-0.238-1.195-0.785
		c-0.016-0.076-0.022-0.154-0.021-0.234h-0.014c-0.167-0.068-0.25-0.258-0.188-0.43c0.04-0.063,0.09-0.117,0.148-0.164
		c0.165-0.16,0.265-0.377,0.279-0.605c0.026,0.045,0.049,0.09,0.067,0.138c0.031-0.119,0.155-0.192,0.276-0.159
		c0.04,0.019,0.084,0.036,0.129,0.049c0.039,0,0.079-0.009,0.115-0.023l0.238-0.092c0.15-0.1,0.353-0.072,0.471,0.063
		c0.146,0.118,0.279,0.251,0.396,0.397S62.691,97.785,62.696,97.973L62.696,97.973z"/>
	<path fill="#EE8E9E" d="M67.985,96.275c-0.019,2.402,4.957,2.914,4.957,2.914l1.27,0.199l0.568,0.092l0.238-2.35
		c0,0-0.262-0.039-0.588-0.114c-0.479-0.114-1.104-0.308-1.234-0.58C72.978,95.98,68.003,93.867,67.985,96.275z"/>
	<path fill="#3F3D56" d="M89.064,88.037c0,0,1.694-0.49,1.276,4.319s-3.553,7.853-3.553,7.853s-3.608,1.586-5.229,1.328
		c-1.621-0.252-2.807-0.309-2.807-0.309c-0.51-0.256-1.068-0.406-1.64-0.438c-0.911-0.035-2.823-0.602-2.868-0.783
		c-0.046-0.184,0.476-2.869,0.255-3.061c0,0,2.552,0.104,2.807,0.29c0.254,0.185,0.618,0.05,0.896,0
		c0.278-0.054,1.112-0.784,2.77-0.146c0,0,0.565,0.057,0.783-0.09c0.18-0.083,0.384-0.097,0.57-0.037
		c0.141-0.048,0.273-0.115,0.395-0.201c0.056-0.07,0.494,0,0.494,0c0.095,0.049,0.209,0.01,0.256-0.084
		c0.008-0.014,0.012-0.027,0.016-0.042c0.059-0.148,0.145-0.287,0.255-0.402c0,0,0.493-2.768,1.422-3.808
		c0.151-0.13,0.228-0.329,0.201-0.527C85.293,91.609,86.88,87.463,89.064,88.037z"/>
	<path fill="#FFFFFF" d="M159.426,28.543v10.038c0,0.301-0.559,0.538-1.252,0.538h-26.49c-0.691,0-1.254-0.24-1.254-0.538V28.543
		c0-0.3,0.559-0.604,1.254-0.604h26.494C158.867,27.945,159.426,28.243,159.426,28.543z"/>
	<g>
		<path fill="#049F34" d="M156.324,30.37v10.04c0,0.297-0.563,0.537-1.254,0.537h-26.484c-0.691,0-1.254-0.245-1.254-0.537V30.37
			c0-0.3,0.559-0.604,1.254-0.604h26.488C155.762,29.766,156.324,30.07,156.324,30.37z"/>
	</g>
	<path fill="#FFFFFF" d="M159.426,28.543v10.038c0,0.301-0.559,0.538-1.252,0.538h-26.49c-0.691,0-1.254-0.24-1.254-0.538V28.543
		c0-0.3,0.559-0.604,1.254-0.604h26.494C158.867,27.945,159.426,28.243,159.426,28.543z"/>
	<g opacity="0.8" enable-background="new    ">
		<path fill="#049F34" d="M159.426,28.543v10.038c0,0.301-0.559,0.538-1.252,0.538h-26.49c-0.691,0-1.254-0.24-1.254-0.538V28.543
			c0-0.3,0.559-0.604,1.254-0.604h26.494C158.867,27.945,159.426,28.243,159.426,28.543z"/>
	</g>
	<rect x="143.16" y="31.525" fill="#FFFFFF" enable-background="new    " width="13.797" height="0.487"/>
	<rect x="143.16" y="32.711" opacity="0.2" fill="#FFFFFF" enable-background="new    " width="13.797" height="0.487"/>
	<rect x="143.16" y="33.897" opacity="0.2" fill="#FFFFFF" enable-background="new    " width="13.797" height="0.488"/>
	<rect x="143.16" y="35.084" opacity="0.2" fill="#FFFFFF" enable-background="new    " width="13.797" height="0.487"/>
	<path fill="#FFFFFF" enable-background="new    " d="M136.182,30.454c-1.805-0.002-3.273,1.458-3.277,3.266
		c-0.002,1.102,0.551,2.129,1.469,2.736v-0.555c0.002-0.374,0.283-0.69,0.654-0.735c0.344,0.626,1.133,0.858,1.762,0.513
		c0.219-0.119,0.396-0.298,0.516-0.513c0.373,0.044,0.652,0.361,0.654,0.735v0.57c1.516-0.985,1.947-3.011,0.965-4.526
		C138.32,31.017,137.289,30.455,136.182,30.454z M137.615,34.446c-0.021,0.055-0.076,0.091-0.137,0.088c-0.021,0-0.045,0-0.066,0
		c-0.205,0.687-0.928,1.079-1.613,0.875c-0.551-0.165-0.928-0.67-0.928-1.245c0-0.224,0.057-0.444,0.168-0.639l-0.016-0.01
		c-0.148-0.178-0.129-0.443,0.043-0.6c0.084-0.047,0.176-0.08,0.27-0.099c0.285-0.083,0.527-0.267,0.682-0.52
		c0.006,0.065,0.006,0.132,0,0.196c0.107-0.116,0.289-0.123,0.408-0.016c0,0,0,0.002,0.002,0.002c0.041,0.042,0.068,0.1,0.119,0.133
		c0.043,0.023,0.094,0.04,0.145,0.04l0.324,0.044c0.232-0.024,0.445,0.129,0.496,0.358c0.096,0.221,0.168,0.451,0.213,0.689
		c0.045,0.24,0.008,0.487-0.105,0.704L137.615,34.446z"/>
	
		<linearGradient id="SVGID_2_" gradientUnits="userSpaceOnUse" x1="-887.7793" y1="-72.5566" x2="-887.7793" y2="6.7041" gradientTransform="matrix(0.9993 -0.0384 -0.0384 -0.9993 1033.6069 6.4424)">
		<stop  offset="0" style="stop-color:#808080;stop-opacity:0.25"/>
		<stop  offset="0.54" style="stop-color:#808080;stop-opacity:0.12"/>
		<stop  offset="1" style="stop-color:#808080;stop-opacity:0.1"/>
	</linearGradient>
	<path fill="url(#SVGID_2_)" d="M167.818,110.66c-0.246-0.895-0.406-1.68-0.406-1.68s0.008-0.986-0.461-1.705l-0.008-0.246l0,0
		l-0.072-1.82c0.113-0.334,0.254-0.658,0.424-0.969c0.305-0.582-0.104-2.662-0.104-2.662s-1.326-2.902-1.104-4.783
		c0.225-1.88-2.807-8.209-2.807-8.209c-0.006-0.618,0.059-1.237,0.189-1.844c0.025-0.126,0.031-0.256,0.021-0.386
		c0-0.017,0-0.03,0-0.048c0,0,0,0,0,0.015c-0.09-1.231-1.152-3.502-1.152-3.502l-0.041-4.414c0,0,0.523-2.622-0.627-6.068
		c-0.402-1.204-0.666-2.171-0.838-2.916c-0.02-0.084-0.037-0.163-0.055-0.243c2.078-0.398,3.662-0.717,3.662-0.717
		s-1.406-5.02-2.26-5.881c-0.852-0.86-1.611-3.619-1.611-3.619s-0.563-3.565,0.084-4.637c0.646-1.071,0.672-2.898,0.672-2.898
		s1.527-1.202,1.705-1.717c0.176-0.514,0.461-1.668,0.438-2.27c-0.023-0.6-0.24-1.136-0.18-1.455
		c0.061-0.317-0.518-1.503-0.277-2.084c0.061-0.178,0.09-0.366,0.082-0.555v-0.022c-0.016-0.5-0.08-0.995-0.193-1.482
		c-0.469-0.365-1.01-0.629-1.588-0.771l-0.041-0.135l-0.102-0.359c-0.053-0.032-0.105-0.061-0.156-0.086v-0.129l-0.035-0.513
		l0.201-1.167c0.408-2.031-2.291-2.23-2.291-2.23c-0.174-0.301-0.455-0.527-0.785-0.635c-0.549-0.18,0.025,3.031,0.285,3.227
		c0.195,0.147,0.822,1.134,1.123,1.613l0,0l0.051,0.08c-0.043,0.041-0.082,0.087-0.117,0.133l0.129,0.695l0.018,0.106
		c-0.17,0.228-0.305,0.479-0.398,0.747c0,0,0.51,0.52,0.436,1.126c-0.074,0.606,0.201,1.348,0.217,1.387
		c-0.031-0.033-0.391-0.393-0.732-0.287c-0.34,0.106-1.297,0.43-1.297,0.43s-0.717,0.155-0.643,0.312
		c0.074,0.155-0.457,0.874-0.457,0.874l-2.008-1.761c-0.021-0.053-0.043-0.107-0.063-0.163c-0.09-0.26-0.156-0.526-0.199-0.798
		c0.211-0.057,0.414-0.13,0.613-0.22c0.199-0.075,0.379-0.199,0.521-0.357c0.18-0.239,0.213-0.557,0.279-0.847
		c0.133-0.57,0.441-1.084,0.658-1.628c0.355-0.916,0.447-1.915,0.262-2.879c-0.043-0.299-0.154-0.584-0.33-0.83
		c-0.332-0.423-0.912-0.58-1.342-0.908c-0.43-0.331-0.717-0.851-1.215-1.093c-0.449-0.219-0.982-0.179-1.475-0.071
		c-0.963,0.196-1.881,0.571-2.707,1.103c-0.275,0.179-0.576,0.384-0.896,0.337c-0.279-0.04-0.49-0.254-0.68-0.46
		c0-0.01,0-0.019,0-0.028l-0.023-0.021c-0.186,0.462-0.27,0.96-0.242,1.458c0,0.079,0,0.154,0.018,0.231c0,0.027,0,0.056,0,0.082
		c0.002,0.022,0.002,0.045,0,0.066l0,0c0,0.036-0.004,0.071-0.01,0.104c-0.041,0.102-0.102,0.192-0.18,0.268
		c-0.057,0.068-0.107,0.144-0.15,0.222c0-0.026,0.014-0.054,0.021-0.08c-0.117,0.184-0.18,0.398-0.178,0.617
		c-0.006,0.161,0.053,0.316,0.16,0.432c0.102,0.092,0.211,0.174,0.326,0.243c-0.031,0.214-0.041,0.43-0.033,0.646
		c0.057,1.311,0.795,2.496,1.947,3.124c0.023,0.055,0.047,0.108,0.074,0.164c0.271,0.641,0.486,1.394,0.43,2.098
		c0,0.052-0.01,0.104-0.018,0.154c-0.006,0.049-0.047,0.055-0.066,0.084l0,0c0,0-3.197,0.153-3.973-0.498
		c-0.779-0.654-1.836,1.737-1.836,1.737s-1.137,0.266-1.375,0.053c-0.24-0.212-1.574,0.029-1.574,0.029
		c-0.566-0.467-1.291-0.701-2.025-0.653c-0.459-0.322-0.965-0.577-1.498-0.759l0,0l-0.037-0.011l0,0
		c-0.232-0.073-0.477-0.097-0.717-0.063c0,0-1.623-1.238-2.109-1.919c-0.484-0.679-2.768-3.181-2.779-3.194l-0.01-0.123
		l-0.041-0.377c-0.064,0.013-0.129,0.022-0.195,0.026l-0.049-0.129c-0.139-0.363-0.309-0.713-0.506-1.047
		c0,0-0.018-0.477,0.117-0.601c0.135-0.123-0.129-1.861-0.129-1.861s-1.543-3.256-2.719-0.733c0,0-2.33,1.692-0.25,3.474
		c0,0,0.818,0.36,0.943,0.665c0.082,0.195,0.377,0.745,0.574,1.109c0.031,0.06,0.063,0.114,0.086,0.164l-0.02,0.02l0.041,0.308
		l0.016,0.12c-0.369,0.23-0.619,0.455-0.549,0.614c0.121,0.27,0.211,0.554,0.26,0.846c0,0,2.918,3.378,3.338,4.856
		c0,0,7.635,4.149,10.104,4.373l-0.324,2.23c-0.039,0.603-0.049,1.207-0.027,1.81c0.051,0.478-0.193,2.643-0.193,2.643
		s-0.305,3.185-0.646,3.645c-0.342,0.459-0.207,2.355-0.207,2.355c-0.051,0.914-0.18,1.822-0.387,2.715
		c-0.314,1.218,0,2.698,0,2.698s-1.135,2.899,1.77,0.85c0,0,1.461-0.146,3.143-0.268c0,0.056,0,0.11,0,0.168
		c0,0.217,0.012,0.452,0.018,0.699c0.039,1.635,0.115,3.887,0.258,5.588c0.246,3.006,1.393,8.922,1.393,8.922l0.115,2.994
		c-0.047,0.283-0.064,0.571-0.053,0.858c0.018,1.058,0.334,2.09,0.916,2.975l0.305,1.985c0,0,0.59,1.297,0.631,2.082
		c0,0.063-0.006,0.127-0.018,0.192c-0.016,0.101-0.021,0.202-0.014,0.307c0,0.906,0.635,3.057,0.635,3.057s0.117,2.184,0.447,2.299
		c0.287,0.098-0.322,1.275-0.506,1.613c-0.006-0.021-0.012-0.041-0.016-0.063c-0.021,0.045-0.037,0.068-0.037,0.068
		c-0.061,0.18-0.088,0.369-0.08,0.557c-0.027,0.307,0.127,0.604,0.393,0.756c0.637,0.357,0.982,0.66,0.461,0.807
		c-0.195,0.039-0.387,0.088-0.574,0.145c0-0.023-0.021-0.049-0.031-0.072c-0.146,0.068-0.23,0.229-0.201,0.391
		c0.018,0.26,0.094,0.51,0.225,0.734c0.57,1.152,0.949,1.582,0.949,1.582l0.25-0.037c-0.033,0.098-0.078,0.191-0.135,0.275
		c-0.09,0.143-0.213,0.26-0.357,0.344c-0.133,0.09-0.283,0.15-0.441,0.18c-0.359,0.021-0.691,0.201-0.91,0.488
		c-0.311,0.434-0.494,1.018,0.18,1.498l2.373,0.717c0,0,4.047,0.369,3.799-0.529c-0.25-0.895-0.41-1.68-0.41-1.68
		c-0.004-0.555-0.137-1.098-0.387-1.59c-0.047-0.08-0.096-0.158-0.152-0.232l0.141-0.021c0,0,0.219-2.008,0.596-2.404
		c0.088-0.088,0.107-0.156,0.082-0.209c0.037-0.111-0.066-0.18-0.201-0.199c0,0.023-0.016,0.051-0.025,0.078
		c-0.129-0.023-0.26-0.031-0.393-0.029c0,0-0.18-1.041,0.24-1.434c0.066-0.09,0.092-0.203,0.07-0.314
		c-0.002-0.143-0.023-0.285-0.061-0.422c-0.006,0.008-0.012,0.014-0.014,0.023c-0.252-0.941-1.035-2.422-1.035-2.422
		s-0.068-0.949,0.18-1.338c0.246-0.391-0.232-5.168-0.232-5.168s0.01-2.318-0.328-3.382c-0.338-1.065,0.271-2.358,0.271-2.358
		s0-0.025-0.012-0.07V89.04c0,0-0.02-0.142-0.051-0.358c0,0.008,0,0.016,0,0.021c-0.09-0.607-0.258-1.711-0.359-2.223
		c-0.16-0.717-0.129-4.217-0.129-4.217l0.537-1.513l1.148,2.527l1.244,3.382c0,0,0.58,0.699,0.621,1.434c0,0.035,0,0.071,0,0.107
		c-0.004,0.076-0.004,0.152,0,0.229c-0.002,0.433,0.133,0.854,0.387,1.205c0,0,0.357,1.613,0.832,2.001
		c0.473,0.388,0.506,1.187,0.506,1.187s0.646,2.331,0.924,2.728c0.232,0.339,0.281,1.292,0.289,1.584l0,0c0,0.055,0,0.086,0,0.086
		s0.113,0.837,0.135,1.54c0,0.088,0,0.18,0,0.252c0,0,0-0.014,0-0.02c0.008,0.193-0.01,0.385-0.047,0.572c0,0.012,0,0.021,0,0.035
		c0-0.041,0-0.082,0-0.119c-0.096,0.482-0.133,0.975-0.111,1.467c0.02,0.844,0.18,1.838,0.719,2.404
		c0.922,0.98,1.475,0.832,1.475,0.832s-0.377,1.283-0.896,1.559c-0.02,0.01-0.037,0.021-0.057,0.037c0-0.023-0.01-0.049-0.012-0.072
		c-0.111,0.133-0.16,0.305-0.137,0.477c-0.018,0.559,0.371,1.451,0.717,1.855c0.127,0.117,0.283,0.199,0.451,0.24
		c-0.025,0.02-0.051,0.039-0.08,0.057c-0.057,0.033-0.117,0.064-0.178,0.09c-0.084,0.041-0.172,0.066-0.266,0.08
		c-0.359,0.025-0.689,0.203-0.91,0.486c-0.309,0.436-0.494,1.018,0.18,1.498l2.373,0.719
		C164.035,111.209,168.076,111.559,167.818,110.66z"/>
	<path fill="#2D293D" d="M152.492,112.75l-2.299-0.717c-0.643-0.482-0.467-1.066-0.166-1.5c0.209-0.281,0.529-0.461,0.881-0.486
		c0.152-0.027,0.299-0.09,0.426-0.18c0.143-0.084,0.26-0.201,0.346-0.342c0.156-0.27,0.234-0.576,0.227-0.887
		c0,0,2.459-0.824,3.168-0.121c0.127,0.127,0.234,0.271,0.32,0.43c0.242,0.496,0.371,1.041,0.377,1.592c0,0,0.16,0.785,0.398,1.682
		C156.41,113.117,152.492,112.75,152.492,112.75z"/>
	<path fill="#2D293D" d="M163.541,111.207l-2.295-0.717c-0.645-0.48-0.469-1.066-0.168-1.498c0.207-0.281,0.529-0.461,0.879-0.486
		c0.09-0.014,0.176-0.039,0.256-0.08c0.063-0.025,0.123-0.057,0.18-0.09c0.623-0.375,0.572-1.229,0.572-1.229
		s2.461-0.824,3.168-0.123c0.098,0.094,0.18,0.201,0.252,0.314c0.455,0.717,0.447,1.707,0.447,1.707s0.156,0.787,0.396,1.684
		C167.471,111.582,163.541,111.207,163.541,111.207z"/>
	<path opacity="0.1" enable-background="new    " d="M155.074,108.525c0.127,0.127,0.234,0.271,0.32,0.428l0,0l-3.715,0.578
		c0.156-0.27,0.234-0.576,0.227-0.887C151.906,108.645,154.365,107.822,155.074,108.525z"/>
	<path opacity="0.1" enable-background="new    " d="M166.375,107.295l0.029,0.699c-0.539,0.979-3.357,0.875-4.191,0.43
		c0.063-0.029,0.123-0.059,0.18-0.094c0.623-0.371,0.572-1.227,0.572-1.227s2.461-0.824,3.168-0.123
		C166.227,107.076,166.307,107.182,166.375,107.295z"/>
	<path fill="#65617D" d="M166.703,104.27c-0.162,0.309-0.299,0.635-0.406,0.969l0.096,2.508c-0.594,1.076-3.902,0.852-4.369,0.297
		c-0.467-0.553-0.998-2.023-0.5-2.299c0.498-0.273,0.861-1.555,0.861-1.555s-0.539,0.146-1.434-0.836
		c-0.898-0.979-0.729-3.24-0.592-3.785c0.139-0.545-0.092-2.347-0.092-2.347s-0.016-1.271-0.283-1.671
		c-0.271-0.401-0.896-2.727-0.896-2.727s-0.031-0.793-0.488-1.188c-0.461-0.396-0.809-2.001-0.809-2.001
		c-0.275-0.393-0.406-0.87-0.369-1.35c0.064-0.796-0.602-1.628-0.602-1.628l-1.209-3.38l-1.115-2.53l-0.51,1.515
		c0,0-0.025,3.493,0.129,4.216c0.158,0.724,0.42,2.649,0.42,2.649s-0.586,1.293-0.258,2.36c0.328,1.065,0.32,3.384,0.32,3.384
		s0.469,4.773,0.23,5.164c-0.238,0.393-0.18,1.34-0.18,1.34s1.408,2.74,1.01,3.137s-0.232,1.434-0.232,1.434
		s0.896-0.035,0.525,0.359c-0.373,0.393-0.578,2.404-0.578,2.404l-3.814,0.59c0,0-0.369-0.432-0.92-1.584
		c-0.553-1.154,0.055-1.049,0.561-1.197c0.506-0.146,0.18-0.449-0.447-0.807c-0.625-0.359-0.301-1.227-0.301-1.227
		s0.859-1.588,0.539-1.703c-0.322-0.115-0.439-2.301-0.439-2.301s-0.73-2.574-0.602-3.279c0.131-0.704-0.598-2.356-0.598-2.356
		l-0.297-1.988c-0.723-1.105-1.023-2.437-0.844-3.743l-0.111-3.087c0,0-1.117-5.916-1.359-8.931
		c-0.154-1.925-0.234-4.559-0.27-6.199c-0.02-0.923-0.027-1.535-0.027-1.535l13.637-1.951c0.049,0.684,0.156,1.36,0.326,2.023
		c0.168,0.746,0.426,1.712,0.816,2.915c1.117,3.449,0.615,6.072,0.615,6.072l0.043,4.41c0,0,1.316,2.899,1.102,3.925
		c-0.125,0.607-0.188,1.228-0.18,1.849c0,0,2.943,6.329,2.729,8.211c-0.213,1.88,1.076,4.784,1.076,4.784
		S167,103.686,166.703,104.27z"/>
	<path opacity="0.05" enable-background="new    " d="M158.24,88.056l4.145-0.717C162.385,87.339,160.117,89.842,158.24,88.056z"/>
	<path opacity="0.1" enable-background="new    " d="M161.623,83.291c0,0,0.197,1.469-0.684,2.058
		C160.943,85.349,162.553,85.033,161.623,83.291z"/>
	<path opacity="0.1" enable-background="new    " d="M161.191,78.609c0,0-3.375,3.004-4.66,2.816
		C155.244,81.237,161.191,78.609,161.191,78.609z"/>
	<path opacity="0.1" enable-background="new    " d="M153.125,89.613c0,0-2.623,0.701-2.66,1.767
		C150.426,92.445,153.125,89.613,153.125,89.613z"/>
	<path opacity="0.05" enable-background="new    " d="M154.215,102.799c0,0-3.707,0.838-2.631,1.273
		c1.074,0.434,2.836,0.75,2.836,0.75S155.627,104.838,154.215,102.799z"/>
	<g opacity="0.05">
		<path d="M150.867,104.85c-0.195-0.111-0.326-0.307-0.359-0.527c-0.021,0.041-0.035,0.066-0.035,0.066s-0.316,0.869,0.301,1.229
			c0.072,0.039,0.137,0.078,0.201,0.117c0.109-0.023,0.229-0.043,0.344-0.078C151.809,105.518,151.473,105.209,150.867,104.85z"/>
		<path d="M155.666,104.418c0.096-0.098,0.086-0.342,0.01-0.652c-0.143,0.285-0.205,0.605-0.18,0.926
			C155.531,104.588,155.59,104.494,155.666,104.418z"/>
		<path d="M154.482,88.671c-0.125,0.38-0.193,0.775-0.209,1.177c0.063-0.279,0.148-0.552,0.26-0.813
			C154.533,89.035,154.514,88.895,154.482,88.671z"/>
		<path d="M162.98,86.677c0.021-0.115,0.029-0.231,0.021-0.349c-0.037,0.24-0.063,0.461-0.078,0.653
			C162.941,86.884,162.961,86.782,162.98,86.677z"/>
		<path d="M154.826,99.941c0.064-0.23,0.086-0.467,0.066-0.705c-0.105,0.285-0.156,0.59-0.148,0.895
			C154.766,100.064,154.791,100.002,154.826,99.941z"/>
		<path d="M155.842,105.891c-0.174,0.645-0.293,1.305-0.359,1.973l-3.814,0.59c0,0-0.367-0.43-0.92-1.584
			c-0.049-0.102-0.088-0.191-0.121-0.275c-0.225,0.115-0.307,0.357,0.023,1.041c0.551,1.152,0.92,1.584,0.92,1.584l3.816-0.592
			c0,0,0.205-2.008,0.572-2.402C156.137,106.021,156.014,105.926,155.842,105.891z"/>
		<path d="M150.559,100.391c0,0,0.117,2.186,0.438,2.303l0,0c0.146-0.369,0.238-0.717,0.096-0.766
			c-0.322-0.113-0.438-2.301-0.438-2.301s-0.734-2.576-0.602-3.278c0.131-0.702-0.6-2.358-0.6-2.358l-0.299-1.986
			c-0.723-1.106-1.021-2.437-0.842-3.744l-0.119-3.075c0,0-1.117-5.917-1.359-8.932c-0.156-1.927-0.234-4.559-0.27-6.2
			c0-0.298-0.012-0.561-0.018-0.783l-0.107,0.016c0,0,0,0.609,0.027,1.532c0.035,1.643,0.115,4.276,0.27,6.201
			c0.244,3.007,1.359,8.93,1.359,8.93l0.119,3.075c-0.18,1.31,0.121,2.639,0.842,3.745l0.297,1.988c0,0,0.732,1.653,0.6,2.357
			S150.559,100.391,150.559,100.391z"/>
		<path d="M162.119,107.18c-0.328-0.439-0.555-0.941-0.664-1.48c-0.377,0.359,0.123,1.721,0.566,2.248
			c0.467,0.551,3.775,0.775,4.369-0.295l-0.023-0.605C165.545,107.934,162.561,107.707,162.119,107.18z"/>
		<path d="M166.799,103.416c-0.162,0.311-0.299,0.635-0.406,0.967l0.016,0.443c0.066-0.164,0.162-0.385,0.293-0.645
			c0.092-0.254,0.129-0.523,0.107-0.791L166.799,103.416z"/>
		<path d="M162.195,104.096c0.111-0.248,0.207-0.506,0.283-0.768c0,0-0.537,0.148-1.434-0.832c-0.652-0.717-0.74-2.105-0.688-3.021
			c-0.137,0.539-0.305,2.807,0.59,3.787C161.539,103.904,161.969,104.061,162.195,104.096z"/>
		<path d="M160.271,97.131c0.08,0.621,0.125,1.248,0.137,1.875c0.012-0.1,0.029-0.199,0.055-0.297
			c0.139-0.537-0.092-2.345-0.092-2.345s-0.018-1.269-0.287-1.673c-0.27-0.402-0.896-2.727-0.896-2.727s-0.029-0.792-0.49-1.188
			c-0.461-0.393-0.807-2-0.807-2c-0.275-0.394-0.406-0.871-0.371-1.352c0.064-0.795-0.602-1.625-0.602-1.625l-1.211-3.382
			l-1.113-2.528l-0.514,1.512c0,0,0,0.179,0,0.481l0.418-1.229l1.113,2.528l1.209,3.381c0,0,0.666,0.83,0.602,1.626
			c-0.037,0.479,0.094,0.957,0.369,1.353c0,0,0.346,1.612,0.809,2c0.459,0.388,0.488,1.186,0.488,1.186s0.629,2.33,0.896,2.728
			C160.25,95.852,160.271,97.131,160.271,97.131z"/>
	</g>
	<path fill="#FFCDD3" d="M160.689,38.713l-0.193,1.168l0.033,0.514l0.025,0.38l-1.316,0.178l-0.16-0.267l0,0
		c-0.291-0.486-0.896-1.474-1.09-1.613c-0.25-0.197-0.813-3.398-0.281-3.227c0.324,0.11,0.596,0.338,0.764,0.637
		C158.471,36.483,161.084,36.684,160.689,38.713z"/>
	<path opacity="0.1" enable-background="new    " d="M160.555,40.775l-1.316,0.178l-0.16-0.267l0,0
		c0.352-0.434,0.959-0.559,1.451-0.298L160.555,40.775z"/>
	<path fill="#DCE6F2" d="M160.904,41.389l-1.729,0.473l-0.045-0.257l-0.127-0.697c0,0,0.654-0.946,1.68-0.294l0.102,0.359
		L160.904,41.389z"/>
	<path fill="#FFCDD3" d="M132.564,39.923l-1.822,1.075c0,0-0.078-0.142-0.18-0.344c-0.191-0.358-0.477-0.914-0.559-1.112
		c-0.121-0.303-0.914-0.664-0.914-0.664c-2.02-1.792,0.24-3.476,0.24-3.476c1.133-2.52,2.631,0.739,2.631,0.739
		s0.258,1.736,0.127,1.86s-0.111,0.599-0.111,0.599c0.191,0.336,0.355,0.686,0.49,1.048
		C132.531,39.815,132.564,39.923,132.564,39.923z"/>
	<path opacity="0.1" enable-background="new    " d="M132.564,39.923l-1.822,1.075c0,0-0.078-0.142-0.18-0.344
		c0.254-0.229,1.156-1.022,1.463-0.998c0.146,0.013,0.293,0.013,0.441,0C132.531,39.815,132.564,39.923,132.564,39.923z"/>
	<path fill="#DCE6F2" d="M132.777,40.478l-2.055,1.112l-0.059-0.448l-0.041-0.31c0,0,1.174-1.084,1.533-1.06
		c0.18,0.018,0.361,0.011,0.537-0.021l0.041,0.375L132.777,40.478z"/>
	<path fill="#FFCDD3" d="M155.914,46.588c0,0-9.082,1.381-7.398,0.761c1.172-0.434,1.613-1.205,1.682-2.044
		c0.053-0.705-0.156-1.455-0.422-2.099c-0.236-0.566-0.531-1.107-0.877-1.615c0,0,6.824-4.102,5.557-0.562
		c-0.195,0.536-0.307,1.098-0.332,1.668c-0.02,0.563,0.063,1.128,0.244,1.664C154.666,45.233,155.203,46.004,155.914,46.588z"/>
	<path opacity="0.1" enable-background="new    " d="M154.461,41.031c-0.193,0.534-0.307,1.097-0.33,1.666
		c-0.637,0.578-1.357,0.569-2.283,0.606c-0.717,0.025-1.49,0.228-2.072-0.093c-0.236-0.566-0.531-1.106-0.877-1.614
		C148.898,41.597,155.723,37.492,154.461,41.031z"/>
	<circle fill="#FFCDD3" cx="151.59" cy="39.778" r="3.775"/>
	<path opacity="0.1" enable-background="new    " d="M155.914,46.588c0,0-9.082,1.381-7.398,0.761
		c1.172-0.434,1.613-1.205,1.682-2.044c0.436-0.51,1.334-0.896,1.912-1.112c0.527-0.201,1.105-0.232,1.652-0.088
		c0.215,0.054,0.422,0.138,0.613,0.253C154.672,45.229,155.205,46.001,155.914,46.588z"/>
	<path opacity="0.1" enable-background="new    " d="M160.904,41.389l-1.729,0.473l-0.045-0.257c0.361-0.541,1.023-0.796,1.654-0.64
		L160.904,41.389z"/>
	<path opacity="0.1" enable-background="new    " d="M132.777,40.478l-2.055,1.112l-0.059-0.448
		c0.666-0.387,1.359-0.723,2.076-1.006L132.777,40.478z"/>
	<path opacity="0.1" enable-background="new    " d="M160.406,69.44c-3.51,0.693-8.51,1.615-9.322,1.401
		c-0.67-0.18-2.781-0.074-4.619,0.061c-0.02-0.922-0.025-1.532-0.025-1.532l13.637-1.953
		C160.125,68.101,160.236,68.777,160.406,69.44z"/>
	<path fill="#3F3D56" d="M163.898,68.477c0,0-11.555,2.443-12.818,2.112c-1.264-0.333-7.658,0.325-7.658,0.325
		c-2.809,2.045-1.715-0.854-1.715-0.854s-0.311-1.48,0-2.699c0.199-0.893,0.322-1.8,0.371-2.713c0,0-0.137-1.898,0.195-2.354
		c0.332-0.459,0.623-3.645,0.623-3.645s0.232-2.167,0.178-2.643c-0.053-0.474,0.027-1.808,0.027-1.808l0.322-2.234
		c-2.389-0.226-9.785-4.385-9.785-4.385c-0.406-1.475-3.227-4.858-3.227-4.858c-0.051-0.291-0.137-0.575-0.254-0.848
		c-0.211-0.5,2.604-1.623,2.604-1.623s2.223,2.509,2.689,3.198c0.465,0.688,2.041,1.921,2.041,1.921
		c0.236-0.034,0.475-0.013,0.703,0.063l0.033,0.012l0,0c0.52,0.181,1.008,0.437,1.451,0.759c0.713-0.045,1.418,0.19,1.963,0.655
		c0,0,1.291-0.242,1.521-0.028c0.229,0.214,1.33-0.049,1.33-0.049s1.02-2.391,1.773-1.735c0.756,0.653,3.85,0.501,3.85,0.501
		c0.391-0.563,1.379-0.995,2-1.22c0.527-0.201,1.102-0.232,1.65-0.092c0.236,0.059,0.461,0.157,0.664,0.291l1.947,1.765
		c0,0,0.512-0.717,0.441-0.874c-0.068-0.158,0.625-0.308,0.625-0.308s0.906-0.321,1.254-0.429c0.348-0.109,0.678,0.258,0.709,0.288
		c-0.014-0.04-0.281-0.796-0.213-1.389c0.07-0.588-0.424-1.125-0.424-1.125c1.006-2.767,3.596-0.582,3.596-0.582
		s0.344,1.479,0.111,2.059c-0.234,0.581,0.322,1.765,0.271,2.084c-0.053,0.318,0.16,0.852,0.18,1.453
		c0.018,0.602-0.25,1.756-0.42,2.27c-0.17,0.515-1.65,1.714-1.65,1.714s-0.025,1.81-0.65,2.883
		c-0.625,1.071-0.074,4.637-0.074,4.637s0.742,2.766,1.568,3.622C162.529,63.449,163.898,68.477,163.898,68.477z"/>
	<path opacity="0.1" enable-background="new    " d="M146.141,48.272c0,0-0.391-1.032-0.719-1.114
		c-0.32-0.105-0.633-0.23-0.934-0.376l0.18-0.398c0,0,1.201,0.278,1.406,0.622C146.277,47.349,146.141,48.272,146.141,48.272z"/>
	<path opacity="0.1" enable-background="new    " d="M139.68,46.205c-0.051,0.318-2.869,0.718-2.869,0.718l1.373-1.488l0,0
		l0.035,0.011l0,0C138.74,45.626,139.232,45.882,139.68,46.205z"/>
	<circle fill="#575988" cx="131.352" cy="42.167" r="0.255"/>
	<circle fill="#575988" cx="131.695" cy="42.662" r="0.255"/>
	<circle fill="#575988" cx="132.029" cy="43.117" r="0.255"/>
	<circle fill="#575988" cx="132.383" cy="43.612" r="0.254"/>
	<circle fill="#575988" cx="162.258" cy="42.435" r="0.206"/>
	<circle fill="#575988" cx="162.309" cy="42.901" r="0.206"/>
	<circle fill="#575988" cx="162.354" cy="43.366" r="0.206"/>
	<path opacity="0.1" enable-background="new    " d="M146.484,56.861c-0.031-0.035,7.461,8.713,12.809,3.285
		C159.293,60.146,150.572,61.671,146.484,56.861z"/>
	<path opacity="0.1" enable-background="new    " d="M142.561,61.711c0,0,4.281-0.049,4.775,1.164l0.049,1.279
		c-0.242,0.149-0.543,0.159-0.797,0.03c-0.439-0.215-3.074-1.435-3.961-0.762L142.561,61.711z"/>
	<path fill="#656691" d="M142.641,61.707c0,0,4.094-0.047,4.566,1.109l0.047,1.221c-0.232,0.143-0.52,0.152-0.762,0.029
		c-0.42-0.205-2.941-1.363-3.787-0.727L142.641,61.707z"/>
	<path opacity="0.1" enable-background="new    " d="M144.537,52.337c0.477,0.995,1.07,1.928,1.768,2.781
		c0.76,0.942,1.668,1.753,2.689,2.405C148.994,57.522,144.631,52.921,144.537,52.337z"/>
	<path opacity="0.1" enable-background="new    " d="M142.947,47.423c0,0,0.834,3.049,2.711,4.027L142.947,47.423z"/>
	<path opacity="0.1" enable-background="new    " d="M141.867,47.777c-0.023-0.057-0.537,2.46,2.51,3.721
		C144.383,51.498,143.09,51.115,141.867,47.777z"/>
	<path opacity="0.1" enable-background="new    " d="M160.455,44.993c-0.047,0,1.521,0.916,1.951,1.353
		C162.406,46.346,161.355,44.894,160.455,44.993z"/>
	<path fill="#B96B6B" d="M150.701,43.237c0.012,0.325,0.289,0.581,0.615,0.568c0.02-0.001,0.039-0.002,0.057-0.004
		c1.152,0.025,2.354,0.031,3.406-0.454c0.195-0.075,0.367-0.198,0.504-0.357c0.18-0.238,0.203-0.554,0.27-0.846
		c0.129-0.568,0.426-1.076,0.635-1.628c0.348-0.923,0.438-1.923,0.254-2.892c-0.039-0.298-0.148-0.582-0.318-0.83
		c-0.32-0.426-0.885-0.579-1.301-0.911s-0.697-0.852-1.178-1.093c-0.434-0.22-0.951-0.18-1.434-0.072
		c-0.936,0.195-1.822,0.568-2.617,1.1c-0.268,0.18-0.561,0.382-0.877,0.335c-0.279-0.041-0.486-0.265-0.672-0.475
		c-0.205,0.526-0.281,1.093-0.219,1.655c0.014,0.082,0.014,0.165,0,0.248c-0.037,0.099-0.094,0.19-0.168,0.267
		c-0.27,0.341-0.428,0.871-0.133,1.19c0.125,0.142,0.316,0.214,0.441,0.357c0.223,0.257,0.166,0.641,0.18,0.98
		c-0.008,0.118,0.025,0.236,0.096,0.332c0.131,0.111,0.309,0.146,0.471,0.093c0.158-0.054,0.326-0.078,0.492-0.066
		c0.18,0.051,0.338,0.163,0.445,0.315C150.211,41.697,150.445,42.433,150.701,43.237z"/>
	<g opacity="0.1">
		<path d="M155.393,42.688c-0.137,0.159-0.311,0.283-0.506,0.358c-1.047,0.484-2.244,0.48-3.396,0.452
			c-0.326,0.046-0.625-0.182-0.67-0.506c-0.002-0.019-0.004-0.038-0.006-0.057c-0.252-0.805-0.488-1.54-1.047-2.194
			c-0.107-0.152-0.264-0.261-0.441-0.316c-0.168-0.009-0.336,0.014-0.494,0.066c-0.162,0.055-0.34,0.019-0.471-0.091
			c-0.07-0.096-0.104-0.214-0.098-0.332c0-0.339,0.051-0.717-0.178-0.981c-0.125-0.142-0.316-0.213-0.443-0.357
			c-0.17-0.215-0.209-0.502-0.102-0.754c-0.189,0.327-0.26,0.743-0.016,1.013c0.129,0.14,0.32,0.212,0.443,0.358
			c0.223,0.257,0.166,0.64,0.18,0.979c-0.01,0.119,0.027,0.237,0.098,0.331c0.129,0.112,0.307,0.148,0.469,0.094
			c0.158-0.054,0.328-0.076,0.494-0.065c0.178,0.052,0.336,0.163,0.443,0.315c0.559,0.656,0.793,1.388,1.047,2.194
			c0.037,0.202,0.148,0.379,0.314,0.499c0.111,0.049,0.234,0.071,0.357,0.066c1.152,0.027,2.352,0.03,3.406-0.454
			c0.195-0.077,0.369-0.2,0.506-0.359c0.068-0.094,0.119-0.199,0.15-0.311C155.422,42.654,155.408,42.672,155.393,42.688z"/>
		<path d="M147.842,37.476c0.051-0.057,0.086-0.124,0.107-0.195c0.016-0.081,0.016-0.166,0-0.249
			c-0.049-0.461-0.006-0.926,0.125-1.37l-0.023-0.025c-0.203,0.526-0.279,1.094-0.217,1.654
			C147.84,37.353,147.844,37.413,147.842,37.476z"/>
	</g>
	<path opacity="0.1" enable-background="new    " d="M150.117,45.548c0,0,4.736,0.445,5.131-0.282"/>
	<path opacity="0.1" enable-background="new    " d="M159.201,43.247c0,0,2.619-0.098,3.229,0.86"/>
	<path fill="#FFFFFF" d="M30.994,34.98v10.038c0,0.299-0.562,0.538-1.257,0.538H3.255C2.563,45.557,2,45.315,2,45.019V34.98
		c0-0.3,0.56-0.604,1.255-0.604h26.487C30.433,34.376,30.994,34.681,30.994,34.98z"/>
	<g>
		<path fill="#049F34" d="M30.994,34.98v10.038c0,0.299-0.562,0.538-1.257,0.538H3.255C2.563,45.557,2,45.315,2,45.019V34.98
			c0-0.3,0.56-0.604,1.255-0.604h26.487C30.433,34.376,30.994,34.681,30.994,34.98z"/>
	</g>
	<rect x="14.727" y="37.963" fill="#FFFFFF" width="13.797" height="0.487"/>
	<path fill="#FFFFFF" enable-background="new    " d="M7.746,36.894c-1.808,0.001-3.271,1.466-3.271,3.273
		c0.001,1.097,0.552,2.12,1.467,2.727v-0.218c0.001-0.375,0.281-0.69,0.654-0.736c0.344,0.629,1.133,0.859,1.762,0.514
		c0.217-0.118,0.396-0.295,0.516-0.514c0.372,0.045,0.652,0.36,0.654,0.736v0.232c1.515-0.984,1.943-3.011,0.959-4.526
		C9.884,37.454,8.853,36.894,7.746,36.894z M9.028,41.039c-0.053,0.716-0.675,1.25-1.39,1.196c-0.64-0.047-1.148-0.556-1.196-1.196
		c-0.326-0.712-0.013-1.556,0.699-1.882c0.016-0.006,0.03-0.013,0.045-0.018c-0.045-0.07-0.07-0.152-0.069-0.234
		c0-0.24,0.193-0.433,0.432-0.433h0.002h0.03c-0.227,0.017-0.402,0.205-0.401,0.433c-0.001,0.075,0.02,0.148,0.057,0.212h0.013
		c-0.002-0.028-0.002-0.055,0-0.084c0-0.088,0.028-0.178,0.082-0.251c0.055-0.182,0.224-0.305,0.413-0.305h0.031
		c-0.136,0.01-0.257,0.083-0.33,0.194c0.198-0.133,0.467-0.076,0.599,0.121c0.045,0.07,0.071,0.153,0.071,0.236
		c0.001,0.018,0.001,0.033,0,0.049c0.757,0.202,1.208,0.98,1.006,1.738c-0.021,0.077-0.047,0.152-0.081,0.226L9.028,41.039z"/>
	<rect x="14.727" y="39.147" opacity="0.2" fill="#FFFFFF" enable-background="new    " width="13.797" height="0.488"/>
	<rect x="14.727" y="40.336" opacity="0.2" fill="#FFFFFF" enable-background="new    " width="13.797" height="0.487"/>
	<rect x="14.727" y="41.521" opacity="0.2" fill="#FFFFFF" enable-background="new    " width="13.797" height="0.488"/>
	
		<linearGradient id="SVGID_3_" gradientUnits="userSpaceOnUse" x1="67.4214" y1="-120.9453" x2="67.4214" y2="-48.3628" gradientTransform="matrix(1 0 0 -1 -36.6001 -7.2002)">
		<stop  offset="0" style="stop-color:#808080;stop-opacity:0.25"/>
		<stop  offset="0.54" style="stop-color:#808080;stop-opacity:0.12"/>
		<stop  offset="1" style="stop-color:#808080;stop-opacity:0.1"/>
	</linearGradient>
	<path fill="url(#SVGID_3_)" d="M49.223,65.673c-0.103-0.545-0.163-1.097-0.179-1.651c0-0.664-0.897-1.255-0.897-1.255
		s-0.557-1.29-0.923-1.479c-0.366-0.188-1.518-1.877-1.518-1.877c-0.014-0.334-0.135-0.653-0.346-0.911
		c-0.346-0.452-0.658-0.926-0.94-1.418l0,0c-0.154-0.19-0.077-0.324-0.309-1.424c-0.013-0.057-0.027-0.113-0.043-0.167
		c0-0.026-0.016-0.045-0.022-0.069c0.502-0.506,0.672-1.252,0.437-1.926c-0.042-0.129-0.118-0.248-0.221-0.34
		c-0.261-0.213-0.68-0.125-0.947-0.329l0.285-1.265c0.069-0.309,0.106-0.702-0.167-0.87c-0.102-0.048-0.209-0.084-0.319-0.107
		c-0.47-0.147-0.732-0.643-0.854-1.116c-0.117-0.456-0.148-0.932-0.093-1.398c0.052-0.449,0.18-0.887,0.232-1.336
		c0.087-0.834-0.113-1.671-0.567-2.376c-0.179-0.301-0.438-0.548-0.751-0.708c-0.289-0.13-0.624-0.146-0.897-0.315
		c-0.577-0.358-0.548-1.236-1.008-1.739c-0.458-0.504-1.272-0.498-1.944-0.326c-0.67,0.171-1.336,0.467-2.024,0.389
		c-0.441-0.048-0.857-0.248-1.301-0.295c-0.128-0.014-0.256-0.008-0.382,0.018l0.01-0.016c-0.331,0.06-0.632,0.241-0.709,0.554
		c-0.018,0.074-0.024,0.15-0.021,0.226c0,0.18,0.043,0.368,0.047,0.537c0.011,0.14-0.035,0.275-0.126,0.382
		c-0.087,0.096-0.219,0.145-0.305,0.242c-0.074,0.076-0.115,0.178-0.112,0.284c0,0.276,0.344,0.518,0.575,0.631l0,0
		c-0.063,0.063-0.124,0.127-0.18,0.192c-0.657,0.751-1.016,1.716-1.009,2.714c0.005,1.649,0.992,3.137,2.51,3.784
		c-0.012,0.033-0.02,0.066-0.031,0.1c-0.065,0.201-0.14,0.396-0.228,0.587c-0.323-0.109-0.681-0.069-0.973,0.107
		c-0.442,0.303-1.307,0.286-1.538,0.228c-0.231-0.057-2.634-0.358-2.825-0.284s-0.578-0.267-0.826,0.189
		c-0.251,0.456-0.359,0.702-0.615,0.816c-0.257,0.113-0.693,0.474-0.635,0.55c0.057,0.076-0.635,0.538-0.635,0.538
		s-0.596,0.625-0.941,0.703c-0.347,0.077-1.075,0.55-1.075,0.55l-0.847,0.664c0,0-0.635,0.095-0.441-0.34
		c0.191-0.436-0.348-0.988-0.348-0.988s-1.075-2.181-1.075-2.636c0-0.453-0.884-2.372-0.884-2.372l-0.108-0.011
		c-0.018-0.046-0.033-0.093-0.051-0.142c-0.161-0.456-0.371-1.016-0.538-1.346c-0.305-0.625-0.502-0.697-0.502-0.697
		s-3.729-2.801-6.151-1.947s4.421,3.395,5.037,3.662c0.215,0.091,0.368,0.393,0.479,0.743c-0.545,0.266-1.002,0.681-1.318,1.198
		c0,0,1.479,3.282,1.517,4.098c0.038,0.815,1.021,3.092,1.021,3.092s0.357,1.688,2.344,1.593c0,0,2.729,0.501,3.323,0
		c0.596-0.5,1.135-0.896,1.423-0.951c0.213-0.069,0.401-0.203,0.538-0.38c0,0-0.896,5.689-1.345,6.185
		c-0.447,0.494-4.362,6.886-2.961,8.021c1.112,0.864,2.288,1.644,3.518,2.333c0.12,0.058,0.478-0.54,0.988-0.96
		c0,0.104,0,0.214,0,0.327c0.008,2.272,0.305,5.737,0.725,6.512c0.616,1.136,0.359,3.338,0.359,3.338
		c0.325,0.153,0.68,0.239,1.039,0.25c0.019,0.073,0.04,0.15,0.062,0.232c0.339,1.278,0.888,3.258,1.167,3.785
		c0.426,0.797,0.731,3.319,0.731,3.319s0.25,2.485,0.154,2.827c-0.038,0.132,0.125,1.162,0.38,2.471l0,0
		c-0.156,1.778-0.448,5.208-0.498,6.454l0,0c0,0.023,0,0.047,0,0.07v0.063c0,0.025,0,0.051,0,0.074l0,0
		c-0.008,0.078-0.008,0.156,0,0.234c0.021,0.119,0.013,0.242-0.025,0.357c-0.109,0.346-0.248,0.676-0.418,0.994
		c-0.009,0.031-0.112,0.246-0.179,0.482c-0.152,0.066-0.343,0.232-0.449,0.635c-0.191,0.742-0.479,2.791-0.479,2.791
		s-0.114,1.254-0.346,1.535s-0.462,2.068,1.172,2.295c1.633,0.229,2.346-0.867,2.346-0.867l-0.059-4.967l0,0
		c0.034-0.041,0.062-0.088,0.084-0.137v-0.01c0.011-0.023,0.024-0.049,0.034-0.076c0.011-0.029,0-0.023,0.015-0.035
		c0.014-0.014,0.017-0.041,0.023-0.063c-0.001-0.008-0.001-0.014,0-0.021c0.159-0.477,0.207-0.982,0.138-1.48c0,0,0-0.014,0-0.023
		v-0.039c0-0.012,0-0.025,0-0.037c0.001-0.012,0.001-0.025,0-0.035c0-0.012,0-0.029,0-0.043v-0.031c0-0.031,0-0.064,0.011-0.1v-0.02
		c0-0.02,0-0.041,0-0.059c0.001-0.01,0.001-0.018,0-0.027c0-0.02,0.009-0.041,0.014-0.063v-0.014
		c0.015-0.074,0.034-0.146,0.053-0.225v-0.016l0.021-0.076l0,0c0.026-0.08,0.052-0.158,0.079-0.238v-0.016l0.027-0.074v-0.008
		c0.027-0.076,0.056-0.15,0.084-0.219v-0.02l0.027-0.064v-0.018l0.059-0.141l0,0l0.454,1.4c0,0,0.249,1.043,0.114,1.289
		s0.154,1.273,0.347,1.289l-0.18,1.291c-0.099,0.715-0.159,1.432-0.18,2.152c-0.012,0.084-0.024,0.152-0.033,0.205
		c-0.125,0.66,0.179,1.684,0.179,1.684c1.518,1.793,3.326,0.143,3.326,0.143s0.21-0.953,0-1.141
		c-0.213-0.188-0.116-0.871-0.116-0.871s0.095-1.689,0.116-2.924c0.019-1.232-1.011-2.316-1.011-2.316l-0.056,0.051
		c-0.18-0.48-0.4-1.047-0.359-1.299c0.077-0.436-0.213-5.045-0.213-5.045c0.107-1.232,0.128-2.473,0.066-3.708l0,0
		c0.025-0.208,0.051-0.415,0.072-0.614c0.117-0.991,0.211-1.84,0.248-2.28l0,0v-0.055c0.009-0.119,0.015-0.203,0.013-0.244
		c0-0.147,0-0.333,0.014-0.526c0.038-0.537,0.12-1.127,0.12-1.127l0.403-2.443c0,0,0.307-1.196,0.75-1.861l0.052-0.084l0,0
		c0.019-0.029,0.036-0.062,0.053-0.096v-0.014l0.054-0.103v-0.014c0.063-0.122,0.13-0.263,0.198-0.418l0.016-0.035l0.052-0.118
		l0.021-0.046l0.053-0.117c0-0.018,0.011-0.031,0.019-0.048c0.021-0.047,0.04-0.097,0.062-0.146l0.028-0.068
		c0.017-0.036,0.03-0.071,0.045-0.109l0.04-0.093l0.026-0.07l0.044-0.106c0-0.016,0.014-0.032,0.019-0.048
		c0.109-0.274,0.217-0.536,0.31-0.793l0,0c0.031-0.077,0.06-0.15,0.087-0.222c0.984,0.061,1.653,0.117,1.653,0.117
		s0.307-2.22,0.211-3.682c-0.066-0.996,0.118-2.25,0.242-2.944c0.014-0.077,0.026-0.146,0.037-0.206l0.026,0.021
		c0.483,0.378,0.826-0.872,0.826-0.872s-0.128-1.172-0.302-2.585c0-0.048-0.014-0.095-0.018-0.142
		c0.277,0.059,0.559,0.104,0.84,0.128c0,0,0.155-0.014,0.357-0.041c0.582,0.332,1.192,0.605,1.826,0.817l1.019-1.896
		c0.191-0.391,0.417-0.766,0.673-1.118c0.308-0.38,1.403-1.594,1.384-1.821c-0.021-0.229,0.357-1.536,0.748-2.125
		C49.017,66.963,49.245,65.769,49.223,65.673z M44.956,67.106c-0.403,0.171-0.789,1.12-0.807,1.405
		c-0.018,0.284-0.442,1.535-0.886,1.688c-0.405,0.14-1.183,0.854-1.307,0.968c-0.127,0.014-0.271,0.028-0.421,0.055
		c-0.17-1.198-0.336-2.188-0.443-2.389c-0.308-0.569,0.339-2.388,0.339-2.388s0.063-1.841,0.468-2.278
		c0.403-0.438,0.309-1.536,0.309-1.536s0.095-0.455,0.135-0.664c0.04-0.207,0.57,0,0.574,0l0,0c0,0,1.039,0.568,1.193,1.423
		c0.154,0.853,1.287,2.33,1.287,2.33s-0.18,0.511,0,0.777c0.179,0.268-0.037,0.448-0.439,0.617L44.956,67.106z"/>
	<path fill="#4C4981" d="M17.161,50.902c0.647-1.065,1.87-1.641,3.105-1.456v2.214h-1.34l-1.062-0.272L17.161,50.902z"/>
	<path opacity="0.1" enable-background="new    " d="M17.161,50.902c0.647-1.065,1.87-1.641,3.105-1.456v2.214h-1.34l-1.062-0.272
		L17.161,50.902z"/>
	<path fill="#AE6E79" d="M20.36,50.031l-1.647,1.157c0,0-0.015-0.235-0.056-0.549c-0.082-0.597-0.267-1.493-0.665-1.667
		c-0.606-0.267-7.35-2.802-4.958-3.655c2.393-0.85,6.057,1.943,6.057,1.943s0.191,0.065,0.492,0.691
		c0.159,0.327,0.357,0.887,0.526,1.341C20.255,49.705,20.36,50.031,20.36,50.031z"/>
	<polygon fill="#4C4981" points="33.534,51.813 33.72,51.723 34.247,52.322 33.816,53.24 33.083,52.946 33.254,52.214 	"/>
	<path fill="#444053" d="M31.038,105.578c0,0-0.474-0.055-0.664,0.684c-0.19,0.736-0.472,2.783-0.472,2.783
		s-0.114,1.254-0.342,1.531c-0.228,0.279-0.454,2.064,1.155,2.291c1.607,0.229,2.311-0.865,2.311-0.865l-0.058-4.967L31.038,105.578
		z"/>
	<path fill="#444053" d="M36.651,105.805c0,0,1.013,1.074,0.995,2.313c-0.019,1.236-0.114,2.916-0.114,2.916
		s-0.095,0.682,0.114,0.873c0.206,0.188,0,1.133,0,1.133s-1.781,1.652-3.276-0.139c0,0-0.292-1.023-0.179-1.682
		c0.113-0.662,0.453-3.631,0.453-3.631L36.651,105.805z"/>
	<path fill="#AE6E79" d="M39.161,83.158c0,0-1.025,2.868-1.459,3.521c-0.437,0.652-0.736,1.855-0.736,1.855l-0.399,2.443
		c-0.078,0.547-0.122,1.098-0.133,1.648c0.019,0.549-0.984,8.557-0.984,8.557l-1.591,2.025c0,0-0.7,1.42-0.587,2.008
		c0.112,0.588-0.075,1.533-0.303,1.816c0,0-0.037,1.855-0.096,2.273c-0.056,0.418,0.21,1.59,0,1.793s-2.989,0.111-3.065-0.229
		c-0.078-0.34,0.342-1.988,0.342-1.988l0.245-1.59c0,0,0.491-0.871,0.378-1.154c-0.112-0.283,0.208-0.947,0.229-1.004
		c0.019-0.059,0.537-0.984,0.435-1.342c-0.102-0.359,0.588-7.991,0.588-7.991l1.949-13.688L39.161,83.158z"/>
	<path opacity="0.1" enable-background="new    " d="M39.161,83.158c0,0-0.155,0.43-0.37,0.997c-0.337,0.896-0.824,2.12-1.089,2.524
		c-0.437,0.662-0.739,1.854-0.739,1.854l-0.396,2.444c-0.078,0.544-0.122,1.094-0.133,1.645c0,0.217-0.146,1.602-0.331,3.193
		c-0.287,2.438-0.653,5.365-0.653,5.365l-1.592,2.025c0,0-0.08,0.164-0.18,0.4c-0.198,0.465-0.479,1.219-0.404,1.613
		c0.113,0.588-0.074,1.535-0.303,1.816c0,0-0.038,1.859-0.095,2.273c-0.059,0.414,0.209,1.592,0,1.795
		c-0.21,0.199-2.991,0.113-3.067-0.23c-0.078-0.342,0.341-1.986,0.341-1.986l0.246-1.592c0,0,0.492-0.871,0.379-1.154
		s0.207-0.947,0.228-1.004c0.02-0.059,0.537-0.984,0.436-1.344c-0.072-0.273,0.305-4.76,0.487-6.885
		c0.059-0.671,0.1-1.104,0.1-1.104l1.678-11.775l0.134-0.952l0.139-0.961L39.161,83.158z"/>
	<path fill="#AE6E79" d="M37.456,111.639c0.018,0.207-2.669,0.512-3.048,0.283c-0.378-0.227,0-3.047,0-3.047l0.179-1.287
		c-0.189-0.02-0.473-1.041-0.34-1.291c0.133-0.246-0.115-1.285-0.115-1.285l-0.446-1.398l-0.272-0.855
		c-0.44-0.975-1.076-3.764-1.481-5.843c-0.25-1.306-0.41-2.331-0.374-2.468c0.096-0.341-0.151-2.82-0.151-2.82
		s-0.302-2.511-0.719-3.313c-0.274-0.529-0.813-2.51-1.15-3.781c-0.17-0.654-0.288-1.123-0.288-1.123s2.868-0.241,4.597-0.325
		c0.799-0.038,1.357-0.042,1.292,0.024c-0.066,0.064-0.081,0.412-0.077,0.911c0,1.301,0.188,3.585,0.381,4.198
		c0.265,0.853,0.537,3.406,0.416,3.653c-0.122,0.247-0.076,1.893-0.076,1.893c0.194,0.67,0.306,1.362,0.332,2.057
		c0.061,1.234,0.037,2.47-0.066,3.702c0,0,0.284,4.6,0.207,5.035c-0.077,0.434,0.606,1.793,0.606,2.063
		c0,0.271,0.173,2.064,0.173,2.064S37.438,111.432,37.456,111.639z"/>
	<path fill="#AE6E79" d="M38.951,56.337l-0.327,0.357l-0.211,0.229l-1.24,1.317l-3.2,0.358l-1.699-0.456l-0.422-0.11
		c0,0,0-0.855,0.077-1.881c0.108-1.313,0.368-2.911,0.984-3.345c0.309-0.242,0.554-0.556,0.717-0.912
		c0.124-0.247,0.228-0.502,0.311-0.767c0.012-0.032,0.021-0.066,0.032-0.098c0.141-0.459,0.241-0.929,0.301-1.405
		c0,0,0.409-0.226,0.976-0.489c1.482-0.692,4.041-1.646,3.151,0.489c-0.131,0.313-0.242,0.634-0.334,0.961
		c-0.015,0.045-0.026,0.095-0.037,0.142c-0.298,1.189-0.1,1.91,0.122,2.309l0,0c0.037,0.068,0.081,0.132,0.13,0.195
		c0.059,0.083,0.131,0.157,0.214,0.219l0.369,2.34l0.031,0.193L38.951,56.337z"/>
	<path opacity="0.1" enable-background="new    " d="M38.402,49.749C38.233,50.153,38.485,49.417,38.402,49.749
		c-0.675,0.48-2.264,1.847-3.159,1.847c-0.603,0-0.783-0.109-1.301-0.344c0.157-0.488,0.269-0.992,0.334-1.503
		C34.276,49.749,39.632,46.794,38.402,49.749z"/>
	<path fill="#AE6E79" d="M39.763,47.261c0.002,2.111-1.594,3.883-3.693,4.103c-0.146,0.017-0.288,0.024-0.434,0.024
		c-2.277,0-4.122-1.845-4.122-4.123c0-2.277,1.845-4.124,4.122-4.124s4.123,1.847,4.123,4.124l0,0L39.763,47.261z"/>
	<path opacity="0.1" enable-background="new    " d="M40.353,65.556l-0.586,1.536c0,0-0.48,0.021-1.227,0.044
		c-2.51,0.08-8.067,0.18-8.316-0.463c-0.057-0.163-0.086-0.334-0.086-0.509c-0.033-0.987,0.427-2.502,0.427-2.502
		s0.266-3.028,0.266-3.159s-0.228-2.263-0.228-2.263l0.454-1.704l1.269-0.896c0,0,0.566,0.871,0.908,0.946
		c0.341,0.075,0.797,0.494,0.797,0.494s1.114,0.68,1.475,0.3c0.36-0.379,3.163-2.042,3.163-2.042l1.478,1.628L40.353,65.556z"/>
	<path fill="#FFFFFF" d="M40.353,65.783l-0.586,1.535c0,0-0.48,0.021-1.227,0.043h-0.074l-1.087,0.028
		c-2,0.046-4.76,0.058-6.2-0.151c-0.537-0.08-0.896-0.18-0.955-0.342c-0.033-0.09-0.057-0.185-0.067-0.28
		c-0.009-0.076-0.016-0.151-0.019-0.228c-0.033-0.987,0.427-2.51,0.427-2.51s0.266-3.031,0.266-3.163
		c0-0.133-0.228-2.253-0.228-2.253l0.454-1.703l0.872-0.611l0.396-0.278c0.133,0.199,0.278,0.39,0.435,0.571
		c0.122,0.165,0.286,0.294,0.474,0.374c0.341,0.077,0.797,0.493,0.797,0.493s1.114,0.684,1.475,0.302
		c0.276-0.289,1.973-1.332,2.765-1.807l0.398-0.237l0.198,0.219l1.279,1.41L40.353,65.783z"/>
	<path opacity="0.1" enable-background="new    " d="M20.36,50.031l-1.647,1.157c0,0-0.015-0.235-0.056-0.549
		c0.814-0.342,1.31-1.104,1.452-1.346C20.255,49.705,20.36,50.031,20.36,50.031z"/>
	<path fill="#3F3D56" d="M26.152,53.95l-0.357-0.093c0,0-0.589,0.624-0.93,0.698c-0.34,0.076-1.06,0.551-1.06,0.551l-0.833,0.662
		c0,0-0.626,0.095-0.435-0.341c0.188-0.436-0.342-0.984-0.342-0.984s-1.059-2.178-1.059-2.631c0-0.454-0.871-2.366-0.871-2.366
		s-1.1,2.139-3.105,1.456c0,0,1.457,3.275,1.495,4.09c0.037,0.813,1.005,3.086,1.005,3.086s0.357,1.686,2.308,1.59
		c0,0,2.689,0.5,3.275,0c0.586-0.499,1.116-0.896,1.402-0.949c0.209-0.07,0.394-0.202,0.527-0.377v-2.254L26.152,53.95z"/>
	<path opacity="0.1" enable-background="new    " d="M22.783,56.088c0,0,0.472,1.761,0.179,1.951L22.783,56.088z"/>
	<path opacity="0.1" enable-background="new    " d="M38.54,67.361c-2.51,0.08-8.067,0.179-8.316-0.461
		c-0.057-0.163-0.086-0.336-0.086-0.508l8.227,0.434L38.54,67.361z"/>
	<path opacity="0.1" enable-background="new    " d="M39.161,83.158c0,0-0.155,0.43-0.368,0.997
		c-1.045-0.063-2.429-0.132-3.743-0.141c-0.466,0-0.921,0-1.35,0.016c-0.743,0-1.482,0.083-2.206,0.245
		c-0.639,0.196-1.306,0.283-1.973,0.254c-0.17-0.654-0.29-1.124-0.29-1.124s2.869-0.243,4.598-0.327l0.138-0.961L39.161,83.158z"/>
	<path fill="#65617D" d="M41.374,76.234l-0.32,0.683c0,0-0.045,0.202-0.103,0.524c-0.122,0.692-0.306,1.946-0.24,2.939
		c0.097,1.458-0.208,3.671-0.208,3.671s-6.965-0.585-9.009,0c-2.044,0.588-3.05,0-3.05,0s0.247-2.194-0.357-3.33
		c-0.415-0.778-0.705-4.229-0.717-6.498c0-1.05,0.052-1.844,0.18-2.003c0.415-0.512,2.196-5.623,2.196-5.623l0.404,0.02l1.076,0.06
		L37.391,67l0.967,0.051l0.102,0.313L41.374,76.234z"/>
	<path fill="#4C4981" d="M44.441,73.963l0.057,0.604c0,0-3.048-0.991-2.896-2.213c0.15-1.222,0-1.077,0-1.077l2.453,0.209
		L44.441,73.963z"/>
	<path opacity="0.1" enable-background="new    " d="M44.441,73.963l0.057,0.604c0,0-3.048-0.991-2.896-2.213
		c0.15-1.222,0-1.077,0-1.077l2.453,0.209L44.441,73.963z"/>
	<path opacity="0.1" enable-background="new    " d="M24.82,56.578c0.311,0.266,0.679,0.457,1.074,0.56
		c-0.117-0.022-0.226-0.073-0.317-0.148c-0.219-0.156-0.427-0.324-0.636-0.489c-0.169-0.133-0.382-0.36-0.592-0.407
		C24.488,56.271,24.646,56.434,24.82,56.578z"/>
	<path opacity="0.1" enable-background="new    " d="M24.865,57.377c0.1,0.109,0.179,0.237,0.235,0.374
		c0.049,0.156,0.071,0.319,0.068,0.484c0.024,0.232-0.005,0.466-0.084,0.687l-0.496-1.18c-0.085-0.199-0.18-0.4-0.273-0.595
		c-0.045-0.082-0.326-0.423-0.295-0.494C24.115,56.448,24.773,57.264,24.865,57.377z"/>
	<path opacity="0.1" enable-background="new    " d="M38.515,63.908c0.335-0.038,0.649-0.184,0.896-0.414
		c-0.503,0.063-0.979,0.261-1.475,0.358c-0.46,0.107-0.942,0.063-1.375-0.124C37.126,64.012,37.903,64.021,38.515,63.908z"/>
	<path opacity="0.1" enable-background="new    " d="M37.093,60.443c-0.09,0.016-0.183-0.01-0.256-0.064
		c-0.377-0.215-0.75-0.44-1.118-0.678c-0.389-0.216-0.755-0.469-1.094-0.756C35.376,59.625,36.075,60.197,37.093,60.443z"/>
	<path opacity="0.1" enable-background="new    " d="M38.144,64.459c0.197,0.009,0.396-0.008,0.591-0.047
		c0.196-0.041,0.369-0.155,0.485-0.318c-0.07-0.018-0.145-0.006-0.206,0.033c-0.601,0.252-1.258,0.329-1.9,0.227
		C37.42,64.484,37.816,64.456,38.144,64.459z"/>
	<path opacity="0.1" enable-background="new    " d="M34.557,73.247c-0.394,0.12-0.799,0.201-1.21,0.239
		c-0.318,0.016-0.639,0.01-0.958-0.018l-1.55-0.098l-0.775-0.05c-0.092,0-0.467,0-0.282-0.18c0.093-0.089,0.611-0.032,0.743-0.037
		c0.26,0,0.516-0.011,0.771-0.013c0.513,0,1.027,0,1.54,0.03C33.411,73.146,33.985,73.188,34.557,73.247z"/>
	<path opacity="0.1" enable-background="new    " d="M32.763,74.016c-0.264-0.011-0.603,0.146-0.874,0.18
		c-0.302,0.036-0.606,0.049-0.912,0.037c-0.604-0.015-1.199-0.137-1.761-0.357C30.399,73.934,31.581,73.968,32.763,74.016z"/>
	<path opacity="0.1" enable-background="new    " d="M29.446,74.826c0.114,0.024,0.228,0.056,0.339,0.094
		c0.651,0.188,1.349,0.023,2.007-0.141c-0.166,0.247-0.474,0.357-0.764,0.422c-0.485,0.122-0.991,0.143-1.485,0.056
		c-0.157-0.03-0.538-0.086-0.624-0.249C28.801,74.772,29.302,74.805,29.446,74.826z"/>
	<path opacity="0.1" enable-background="new    " d="M33.112,76.048c0.194,0.04,0.389,0.091,0.579,0.151
		c0.735,0.18,1.498-0.068,2.237-0.236c0.887-0.203,1.798-0.287,2.709-0.251c-0.164,0-0.422,0.142-0.581,0.193
		c-0.211,0.062-0.421,0.118-0.633,0.178c-0.418,0.104-0.841,0.186-1.267,0.247c-0.858,0.123-1.729,0.162-2.595,0.113
		c-0.396-0.021-1.076,0.02-1.424-0.18C32.431,76.088,32.772,76.013,33.112,76.048z"/>
	<path opacity="0.1" enable-background="new    " d="M33.387,52.7c0,0,0.037,1.744-0.248,2.538
		c-0.087,0.248-0.227,0.704-0.379,1.217c-0.166,0.568-0.347,1.206-0.486,1.699c-0.14,0.492-0.231,0.832-0.231,0.832
		s-0.64,5.21-0.808,7.691c0,0.043,0,0.088,0,0.129c-0.008,0.14-0.024,0.286-0.046,0.437c-0.37,2.465-2.495,6.265-3.21,6.57
		c-0.222,0.102-0.424,0.24-0.6,0.411c0-1.05,0.052-1.844,0.18-2.003c0.416-0.512,2.195-5.623,2.195-5.623l0.405,0.02
		c-0.009-0.074-0.017-0.149-0.018-0.225c-0.034-0.987,0.427-2.51,0.427-2.51s0.266-3.03,0.266-3.164
		c0-0.132-0.229-2.253-0.229-2.253l0.454-1.702l0.872-0.612c0.107-1.313,0.368-2.911,0.985-3.345
		c0.308-0.242,0.555-0.556,0.717-0.912c0.124,0.016-0.1-0.091-0.1-0.091L33.387,52.7z"/>
	<path fill="#3F3D56" d="M33.72,51.723c-0.319-0.108-0.672-0.069-0.96,0.108c-0.435,0.302-1.286,0.284-1.515,0.226
		C31.019,52,28.651,51.7,28.464,51.775c-0.189,0.076-0.568-0.266-0.814,0.188c-0.245,0.454-0.358,0.7-0.604,0.814
		c-0.249,0.114-0.685,0.474-0.626,0.549c0.056,0.075-0.624,0.538-0.624,0.538l1.379,4.48c0,0-0.895,5.681-1.324,6.172
		c-0.427,0.49-4.302,6.873-2.914,8.01c1.094,0.861,2.252,1.642,3.463,2.33c0.152,0.075,0.7-0.946,1.459-1.27
		c0.759-0.322,3.105-4.591,3.259-7.007c0.155-2.418,0.814-7.82,0.814-7.82s0.814-2.954,1.1-3.748c0.284-0.794,0.238-2.54,0.238-2.54
		L33.72,51.723z"/>
	<path opacity="0.1" enable-background="new    " d="M41.374,76.234l-0.32,0.683c0,0-0.045,0.202-0.103,0.524
		c-0.061-0.007-0.117-0.031-0.163-0.07c-0.473-0.379-3.256-3.237-3.388-5.775c-0.1-1.872-0.052-3.482-0.021-4.202
		c0.011-0.226,0.018-0.358,0.02-0.394l0,0c0,0,2.151-2.612,1.912-3.54c-0.242-0.926-0.815-5.889-0.815-5.889l-0.084-0.649
		l-0.144-1.099l-0.338-2.665l0.357,0.082c0.06,0.084,0.133,0.157,0.216,0.22l0.368,2.339l1.278,1.41l0.209,8.574l-0.587,1.535
		c0,0-0.481,0.021-1.225,0.043h-0.074L41.374,76.234z"/>
	<path fill="#3F3D56" d="M42.568,62.073c0,0-0.537-0.208-0.567,0c-0.031,0.208-0.135,0.66-0.135,0.66s0.094,1.101-0.302,1.535
		c-0.396,0.437-0.461,2.271-0.461,2.271s-0.637,1.819-0.336,2.386c0.11,0.207,0.28,1.241,0.45,2.479
		c0.107,0.771,0.215,1.622,0.313,2.399c0.179,1.414,0.299,2.581,0.299,2.581s-0.342,1.254-0.813,0.871
		c-0.475-0.384-3.259-3.241-3.391-5.774c-0.094-1.784-0.056-3.33-0.025-4.094c0.015-0.324,0.025-0.508,0.025-0.508
		s2.152-2.612,1.913-3.537c-0.239-0.928-0.814-5.891-0.814-5.891l-0.101-0.765l-0.106-0.825l-0.022-0.179l-0.342-2.644l0,0
		c0.061,0.013,2.185,0.493,2.464,0.772c0.281,0.28,2.007,0.682,2.007,0.682c0.532,0.145,0.944,0.568,1.075,1.104
		c0.016,0.051,0.03,0.106,0.041,0.165c0.229,1.099,0.153,1.23,0.306,1.419C44.198,57.375,42.568,62.073,42.568,62.073z"/>
	<path opacity="0.1" enable-background="new    " d="M41.531,73.805c-0.778-0.15-1.925-0.51-1.899-1.3
		c0.025-0.74,0.914-1.006,1.586-1.1C41.335,72.177,41.433,73.027,41.531,73.805z"/>
	<path fill="#AE6E79" d="M43.931,73.412c-0.03,0.068-0.16,0.125-0.33,0.182c-0.412,0.098-0.833,0.166-1.254,0.204
		c0,0-2.633-0.209-2.595-1.4c0.026-0.856,1.216-1.076,1.884-1.134c0.262-0.024,0.445-0.021,0.445-0.021S44.046,73.168,43.931,73.412
		z"/>
	<path opacity="0.1" enable-background="new    " d="M43.931,73.412c-0.03,0.068-0.16,0.125-0.33,0.182
		c-0.688-0.918-1.644-2.097-2.112-2.2c0,0,0.055-0.052,0.143-0.13c0.262-0.024,0.444-0.021,0.444-0.021S44.046,73.168,43.931,73.412
		z"/>
	<path fill="#3F3D56" d="M43.267,57.074l0.777,0.114c0.278,0.492,0.59,0.967,0.928,1.421c0.209,0.257,0.328,0.576,0.342,0.907
		c0,0,1.136,1.687,1.495,1.875c0.357,0.19,0.908,1.476,0.908,1.476s0.896,0.589,0.896,1.256c0.017,0.554,0.072,1.104,0.17,1.646
		c0.02,0.096-0.132,1.271-0.511,1.856c-0.381,0.587-0.757,1.893-0.738,2.119c0.021,0.229-1.062,1.437-1.363,1.82
		c-0.252,0.352-0.473,0.726-0.661,1.116l-1.005,1.893c0,0-2.12-3.123-2.896-3.292c0,0,0.871-0.835,1.305-0.985
		c0.437-0.151,0.853-1.401,0.872-1.685c0.021-0.283,0.396-1.232,0.795-1.402c0.397-0.17,0.604-0.342,0.435-0.604
		c-0.17-0.266,0-0.778,0-0.778s-1.116-1.477-1.268-2.33c-0.154-0.852-1.174-1.42-1.174-1.42l-0.587-1.435L43.267,57.074z"/>
	<path opacity="0.1" enable-background="new    " d="M46.084,64.143c0.428-0.363,0.968-0.566,1.529-0.578
		c-0.359,0.063-0.739,0.139-1,0.389c-0.104,0.111-0.196,0.23-0.276,0.359c-0.092,0.129-0.821,1.058-0.938,0.912
		C45.225,65.003,45.938,64.268,46.084,64.143z"/>
	<path opacity="0.1" enable-background="new    " d="M44.371,63.246c0.233-0.02,0.439-0.168,0.537-0.382
		c0.091-0.215,0.147-0.441,0.168-0.673c0.056-0.388,0.135-0.771,0.234-1.148c0.026-0.078,0.039-0.159,0.038-0.241
		c-0.01-0.08-0.033-0.159-0.069-0.23c-0.043-0.12-0.097-0.236-0.165-0.345c-0.143,0.159-0.18,0.516-0.239,0.717
		c-0.069,0.26-0.136,0.517-0.198,0.774C44.646,61.854,44.383,63.246,44.371,63.246z"/>
	<path opacity="0.1" enable-background="new    " d="M43.699,55.603c-0.077,0.099-0.165,0.19-0.262,0.27
		c-0.303,0.246-0.716,0.454-0.76,0.841c0.011,0.127-0.005,0.254-0.045,0.375c-0.099,0.168-0.342,0.154-0.538,0.123
		c-0.163-0.018-0.319-0.074-0.453-0.168c-0.202-0.18-0.223-0.484-0.377-0.701c-0.188-0.227-0.471-0.354-0.768-0.345
		c-0.289-0.008-0.579,0.056-0.867,0.07c-0.186,0.01-0.373-0.003-0.556-0.038c-0.061-0.011-0.12-0.022-0.179-0.037
		c-0.13-0.032-0.257-0.075-0.379-0.129c-0.062-0.024-0.121-0.053-0.18-0.086c-0.194-0.099-0.375-0.223-0.537-0.37
		c-0.283-0.263-0.518-0.621-0.494-1.006c0.04-0.233,0.093-0.464,0.161-0.689c0.117-0.669-0.327-1.302-0.812-1.78
		c-0.191-0.188-0.395-0.375-0.586-0.568c-0.301-0.275-0.537-0.611-0.695-0.984c-0.126-0.398-0.168-0.819-0.123-1.234
		c0.045-0.423,0.057-0.848,0.037-1.27c-0.144-1.507-1.434-2.66-2.713-3.29l-0.056-0.028c1.515-1.7,4.121-1.85,5.82-0.335
		c1.7,1.516,1.851,4.122,0.336,5.821c-0.181,0.203-0.383,0.388-0.6,0.553c-0.015,0.046-0.027,0.094-0.038,0.142
		c-0.297,1.19-0.101,1.91,0.122,2.308l0,0c0.062,0.013,2.185,0.493,2.466,0.772c0.279,0.279,2.005,0.682,2.005,0.682
		C43.161,54.646,43.569,55.069,43.699,55.603z"/>
	<path fill="#F05722" d="M32.234,43.46c0.084-0.098,0.213-0.146,0.299-0.242c0.267-0.29,0-0.765,0.1-1.149
		c0.104-0.427,0.626-0.614,1.064-0.566c0.436,0.046,0.846,0.246,1.281,0.293c0.677,0.077,1.334-0.217,1.995-0.389
		c0.662-0.172,1.459-0.181,1.916,0.324c0.456,0.504,0.422,1.37,0.989,1.737c0.263,0.169,0.593,0.18,0.876,0.315
		c0.31,0.158,0.566,0.405,0.739,0.707c0.447,0.705,0.646,1.541,0.559,2.372c-0.048,0.448-0.18,0.886-0.23,1.335
		c-0.054,0.465-0.022,0.938,0.092,1.394c0.12,0.47,0.378,0.967,0.842,1.113c0.109,0.023,0.215,0.06,0.315,0.109
		c0.266,0.164,0.232,0.56,0.164,0.866l-0.286,1.263c0.265,0.202,0.674,0.115,0.934,0.33c0.101,0.091,0.176,0.208,0.216,0.339
		c0.253,0.729,0.033,1.535-0.555,2.033c-0.303,0.249-0.718,0.455-0.76,0.845c0.011,0.124-0.004,0.252-0.045,0.372
		c-0.1,0.168-0.344,0.155-0.538,0.121c-0.163-0.014-0.318-0.072-0.453-0.166c-0.204-0.18-0.222-0.484-0.375-0.701
		c-0.189-0.227-0.474-0.354-0.769-0.345c-0.291-0.009-0.577,0.057-0.869,0.072c-0.672,0.027-1.33-0.21-1.831-0.664
		c-0.304-0.245-0.486-0.612-0.496-1.004c0.042-0.232,0.097-0.462,0.162-0.69c0.116-0.666-0.328-1.301-0.809-1.777
		s-1.048-0.92-1.281-1.557c-0.294-0.788,0-1.666-0.089-2.51c-0.143-1.504-1.434-2.658-2.711-3.286
		C32.388,44.214,31.899,43.839,32.234,43.46z"/>
	<path opacity="0.1" enable-background="new    " d="M42.357,56.46c-0.204-0.179-0.221-0.482-0.375-0.701
		c-0.19-0.226-0.475-0.352-0.77-0.342c-0.291-0.009-0.577,0.056-0.868,0.069c-0.671,0.032-1.329-0.204-1.83-0.651
		c-0.284-0.262-0.518-0.621-0.496-1.007c0.042-0.232,0.096-0.461,0.161-0.687c0.116-0.669-0.328-1.301-0.81-1.779
		c-0.483-0.48-1.046-0.921-1.282-1.558c-0.292-0.786,0-1.668-0.087-2.509c-0.143-1.507-1.434-2.661-2.714-3.289
		c-0.3-0.145-0.786-0.52-0.454-0.895c0.086-0.099,0.213-0.146,0.301-0.243c0.268-0.29,0-0.766,0.098-1.149
		c0.02-0.075,0.052-0.147,0.097-0.209c-0.319,0.031-0.593,0.246-0.695,0.551c-0.097,0.383,0.167,0.86-0.1,1.15
		c-0.086,0.095-0.215,0.144-0.299,0.241c-0.335,0.38,0.153,0.751,0.455,0.896c1.285,0.629,2.568,1.781,2.712,3.288
		c0.079,0.836-0.206,1.715,0.087,2.51c0.236,0.635,0.8,1.074,1.282,1.556c0.483,0.479,0.925,1.111,0.81,1.78
		c-0.067,0.225-0.121,0.456-0.162,0.689c-0.021,0.385,0.211,0.741,0.496,1.004c0.499,0.452,1.157,0.69,1.831,0.661
		c0.29-0.013,0.577-0.078,0.869-0.07c0.295-0.009,0.578,0.118,0.767,0.343c0.155,0.218,0.18,0.53,0.378,0.7
		c0.132,0.097,0.289,0.152,0.452,0.169c0.192,0.034,0.437,0.048,0.536-0.122c0.036-0.071,0.05-0.147,0.044-0.224
		C42.633,56.615,42.482,56.556,42.357,56.46z"/>
</g>
</svg>
