<svg width="60" height="60" viewBox="0 0 60 60" fill="none" xmlns="http://www.w3.org/2000/svg"><path d="M52.851 8.567C46.816 1.353 37.693 1.76 33.587 4.949c-.567.44-.32 1.269.366 1.477 3.912 1.188 8.468 2.962 12.604 6.797C50.91 17.259 52.013 21.4 54 26.695c.24.642 1.027.82 1.416.256 2.14-3.1 3.94-10.608-2.565-18.384z" fill="#5AB237"/><circle cx="30" cy="30" r="27" stroke="#000" stroke-width="2" stroke-linecap="round" stroke-linejoin="round"/><path clip-rule="evenodd" d="M37.08 44.96l-6.32 6.002-6.28-5.922h4v-3c-5.64-.92-8.2-5.08-8.48-8.36l5.52-1.24c.2 2.32 1.8 4.4 5.24 4.4 2 0 3.44-.96 3.44-2.52 0-1.16-.88-1.92-2.48-2.28l-3.56-.84c-4.48-1.08-7.24-3.8-7.24-7.6 0-4.48 3.36-7.56 7.56-8.28V12h4.6v3.44c4.4.96 6.4 4.12 6.96 6.84l-5.56 1.48c-.24-1.24-.92-3.32-4.08-3.32-2.24 0-3.36 1.32-3.36 2.6 0 1.08.8 1.92 2.36 2.28l3.48.76c5.36 1.2 7.48 4.32 7.48 7.92 0 3.68-2.64 7.12-7.28 7.96v3h4z" stroke="#000" stroke-width="2" stroke-linecap="round" stroke-linejoin="round"/></svg>