<svg width="60" height="60" viewBox="0 0 60 60" fill="none" xmlns="http://www.w3.org/2000/svg"><path d="M51 14h-3.071l-6.702-.01-7.226.009a1 1 0 01-1.001-1V7a1 1 0 011-1h17a1 1 0 011 1v6a1 1 0 01-1 1z" fill="#5AB237"/><path d="M9 34V12a2 2 0 012-2h38a2 2 0 012 2v22M9 16h42" stroke="#000" stroke-width="2" stroke-linecap="round" stroke-linejoin="round"/><path d="M15 31l6-6 6 4 6-5 6 4 6-6m-33-9h.5m3.5 0h.5m3.5 0h.5" stroke="#000" stroke-width="2" stroke-linecap="round" stroke-linejoin="round"/><ellipse cx="18" cy="41" rx="3.5" ry="4" stroke="#000" stroke-width="2"/><path d="M15.428 44a6.912 6.912 0 00-3.432 5.972V50h12v-.034A6.909 6.909 0 0020.57 44" stroke="#000" stroke-width="2" stroke-linecap="round" stroke-linejoin="round"/><ellipse cx="30" cy="41" rx="3.5" ry="4" stroke="#000" stroke-width="2"/><path d="M27.428 44a6.912 6.912 0 00-3.432 5.972V50h12v-.034A6.909 6.909 0 0032.57 44" stroke="#000" stroke-width="2" stroke-linecap="round" stroke-linejoin="round"/><ellipse cx="42" cy="41" rx="3.5" ry="4" stroke="#000" stroke-width="2"/><path d="M39.428 44a6.912 6.912 0 00-3.432 5.972V50h12v-.034A6.909 6.909 0 0044.57 44" stroke="#000" stroke-width="2" stroke-linecap="round" stroke-linejoin="round"/></svg>