<svg width="60" height="60" viewBox="0 0 60 60" fill="none" xmlns="http://www.w3.org/2000/svg"><path d="M24.714 22.85h-3.096l-6.743-.02-7.276.017a1 1 0 01-1.003-1V8.972a1 1 0 011-1h17.118a1 1 0 011 1V21.85a1 1 0 01-1 1z" fill="#5AB237"/><path d="M12.748 18.497h-1.813a4 4 0 00-4 4v21.934a4 4 0 004 4H49.89a4 4 0 004-4V26.48" stroke="#000" stroke-width="2" stroke-linecap="round" stroke-linejoin="round"/><path clip-rule="evenodd" d="M4 50.427c0-1.102.893-1.996 1.996-1.996h48.832c1.102 0 1.995.894 1.995 1.996v0a1.996 1.996 0 01-1.995 1.995H5.996A1.996 1.996 0 014 50.427v0z" stroke="#000" stroke-width="2" stroke-linecap="square"/><path clip-rule="evenodd" d="M24.333 28.475V24.2h3.145V13.51H12.804V24.2l6.354-.014 5.175 4.29z" stroke="#000" stroke-width="2" stroke-linecap="round" stroke-linejoin="round"/><path d="M27.477 18.498h4.89M12.804 38.454H26.5m-13.696-3.992H26.5m-13.696 7.982H26.5m16.63.001h4.891v-4.99" stroke="#000" stroke-width="2" stroke-linecap="round" stroke-linejoin="round"/><path clip-rule="evenodd" d="M32.368 19.26c0-6.482 5.256-11.738 11.739-11.738v0c6.483 0 11.739 5.256 11.739 11.739v.47c0 6.482-5.256 11.738-11.74 11.738v0c-6.482 0-11.738-5.256-11.738-11.739v-.47z" stroke="#000" stroke-width="2" stroke-linecap="round" stroke-linejoin="round"/><path d="M44.293 12.805V26.01M47.4 15.005s-5.422-.92-6.216 1.1c-.795 2.022.794 3.302 3.107 3.302s3.827 1.225 3.108 3.302c-.72 2.076-6.215 1.1-6.215 1.1" stroke="#000" stroke-width="2" stroke-linecap="round" stroke-linejoin="round"/></svg>