<svg width="60" height="60" viewBox="0 0 60 60" fill="none" xmlns="http://www.w3.org/2000/svg">
<path d="M3.52068 35.2166C3.50717 35.3743 3.50048 35.5324 3.50064 35.6907C3.55818 39.5682 6.74278 42.6677 10.6204 42.6205C10.8074 42.6205 10.9874 42.6105 11.1594 42.5945C12.4531 45.1667 15.3506 46.5062 18.1481 45.8254C18.5301 46.2852 19.0412 46.62 19.6154 46.7863C20.1896 46.9527 20.8004 46.9429 21.3691 46.7584L22.485 46.3973C23.4505 47.9641 25.3641 48.6645 27.1129 48.0912L38.7126 44.3393C39.2439 45.4472 40.0578 46.3955 41.0723 47.0886C42.0869 47.7817 43.2662 48.1952 44.4914 48.2873L46.7994 54.1001C47.023 54.6602 47.4092 55.1404 47.9082 55.479C48.4073 55.8176 48.9962 55.9991 49.5993 56H52.9991C52.9991 58.2091 54.79 59.9999 56.999 59.9999H57.9989C59.1035 59.9999 59.9989 59.1045 59.9989 57.9999V48.0002C59.9989 46.8956 59.1035 46.0002 57.9989 46.0002H56.999C54.79 46.0002 52.9991 47.791 52.9991 50.0001H51.6761L50.1281 46.1412C50.8908 45.3401 51.456 44.3722 51.7787 43.3142C52.1015 42.2563 52.1728 41.1377 51.987 40.0473L53.032 39.7083C55.1485 39.0187 56.3103 36.7486 55.6319 34.6285L54.085 29.8096L51.6085 22.101C51.4875 21.7231 51.2931 21.3728 51.0366 21.0701C50.7801 20.7674 50.4664 20.5182 50.1134 20.3368C49.7605 20.1555 49.3753 20.0454 48.9799 20.013C48.5844 19.9807 48.1864 20.0266 47.8087 20.1481L43.9478 21.4011C43.8221 20.3149 43.439 19.2745 42.8302 18.3663C42.2215 17.458 41.4047 16.7082 40.4479 16.1792C40.4822 15.9159 40.4999 15.6508 40.5008 15.3853C40.5014 13.643 39.8193 11.9698 38.6009 10.7244C38.6996 10.3106 38.7496 9.88673 38.7499 9.46136C38.7036 6.18593 36.1033 3.51881 32.8301 3.38956C32.3211 2.42708 31.5737 1.61128 30.6594 1.02017C29.7451 0.429059 28.6944 0.0824142 27.6078 0.0133867C26.5212 -0.0556408 25.4351 0.155257 24.4534 0.625912C23.4716 1.09657 22.627 1.81123 22.0003 2.70157C21.3737 1.81122 20.5292 1.09651 19.5475 0.625789C18.5658 0.155069 17.4797 -0.0559187 16.3931 0.0130019C15.3066 0.0819226 14.2559 0.428447 13.3415 1.01944C12.4271 1.61043 11.6797 2.42612 11.1706 3.3885C7.89693 3.51788 5.29661 6.18546 5.25079 9.46136C5.25169 9.8854 5.30203 10.3079 5.40079 10.7203C4.18233 11.9657 3.50029 13.6389 3.50087 15.3812C3.50181 15.6467 3.51951 15.9119 3.55384 16.1751C2.48281 16.7641 1.58868 17.6288 0.96401 18.6794C0.339341 19.7301 0.00683949 20.9286 0.000924349 22.1509C-0.00200255 23.5666 0.447139 24.9462 1.28292 26.0888C0.446895 27.1333 -0.00561321 28.4329 0.000924349 29.7707C0.0108569 30.9188 0.347035 32.0404 0.970241 33.0046C1.59345 33.9689 2.47799 34.736 3.52068 35.2166ZM54.9994 50.0003C54.9994 48.8957 55.8948 48.0003 56.9994 48.0003H57.9993V58H56.9994C55.8948 58 54.9994 57.1046 54.9994 56V50.0003ZM20.7543 44.8544C20.6291 44.8944 20.4973 44.9093 20.3664 44.8983C20.2355 44.8873 20.108 44.8506 19.9913 44.7904C19.8745 44.7301 19.7708 44.6474 19.686 44.547C19.6013 44.4466 19.5371 44.3305 19.4973 44.2053L18.8683 42.2454C18.7863 41.9913 18.8082 41.715 18.9292 41.4771C19.0503 41.2391 19.2607 41.0587 19.5144 40.9754L20.4973 40.6574L21.7412 44.5353L20.7543 44.8544ZM42.7537 45.7614C41.861 45.3066 41.1248 44.595 40.6398 43.7184L50.0686 40.6695C50.3384 43.0647 48.8887 45.3201 46.5977 46.0693C45.9678 46.2757 45.3031 46.3547 44.6423 46.3018C43.9816 46.249 43.3379 46.0653 42.7488 45.7614H42.7537ZM50.9995 52.0002H52.9995V54.0001H49.6096C49.4056 53.9992 49.2065 53.9373 49.0379 53.8224C48.8693 53.7075 48.7389 53.5448 48.6636 53.3552L46.5846 48.1253C46.7946 48.0783 47.0066 48.0424 47.2135 47.9753C47.6567 47.832 48.0845 47.6447 48.4905 47.4164L50.0764 51.3723C50.1505 51.5568 50.2778 51.7152 50.4422 51.827C50.6066 51.9388 50.8007 51.9991 50.9995 52.0002ZM53.7255 35.2396C54.0685 36.309 53.4844 37.4549 52.4174 37.8056L26.5001 46.1883C26.2479 46.2711 25.9818 46.3028 25.7172 46.2817C25.4527 46.2606 25.195 46.187 24.9591 46.0652C24.7208 45.9433 24.509 45.7753 24.3361 45.5708C24.1633 45.3664 24.0327 45.1296 23.9522 44.8743L21.9692 38.7004L26.038 41.0243C26.402 41.2316 26.805 41.361 27.2216 41.4042C27.6382 41.4474 28.0593 41.4035 28.458 41.2753L52.1374 33.6165C52.4664 33.5067 52.7737 33.3402 53.0453 33.1245L53.7255 35.2396ZM48.4256 22.051C48.5529 22.0101 48.687 21.9947 48.8202 22.0058C48.9535 22.0169 49.0832 22.0541 49.202 22.1155C49.3209 22.1768 49.4264 22.2609 49.5126 22.3631C49.5988 22.4653 49.6641 22.5835 49.7045 22.7109L52.1784 30.4207C52.262 30.6792 52.2398 30.9602 52.1167 31.2024C51.9936 31.4445 51.7796 31.628 51.5215 31.7127L27.8421 39.3715C27.7083 39.4142 27.5671 39.4288 27.4273 39.4143C27.2876 39.3998 27.1524 39.3567 27.0301 39.2875L17.5164 33.8537C17.3441 33.7548 17.2042 33.6081 17.1135 33.4313C17.0229 33.2546 16.9854 33.0553 17.0056 32.8577C17.0258 32.6601 17.1028 32.4726 17.2274 32.3178C17.3519 32.1631 17.5187 32.0477 17.7074 31.9857L48.4256 22.051ZM3.34068 25.4479C2.48536 24.563 2.00523 23.3817 2.00068 22.151C2.01001 21.1848 2.30533 20.243 2.84937 19.4445C3.39341 18.646 4.16179 18.0264 5.05755 17.6642C5.27446 17.5731 5.45233 17.4085 5.55988 17.1993C5.66743 16.99 5.69778 16.7496 5.64559 16.5202C5.55477 16.1472 5.50615 15.7652 5.50063 15.3813C5.50369 14.6939 5.65615 14.0154 5.94744 13.3928C6.23873 12.7701 6.6619 12.2183 7.18762 11.7754C7.34062 11.6423 7.44953 11.4658 7.49989 11.2693C7.55025 11.0728 7.53967 10.8657 7.46956 10.6754C7.32588 10.2867 7.25174 9.87583 7.25055 9.46147C7.29976 7.16583 9.19557 5.34197 11.4915 5.38158C11.5328 5.38568 11.574 5.39236 11.6145 5.40162C11.8488 5.44854 12.0922 5.41 12.3006 5.29298C12.509 5.17596 12.6686 4.98818 12.7505 4.76366C13.0547 3.94947 13.6013 3.24814 14.3165 2.75428C15.0317 2.26041 15.8812 1.99776 16.7503 2.00174C17.2933 1.97997 17.8352 2.06671 18.3443 2.25688C18.8534 2.44705 19.3194 2.73684 19.7152 3.10929C20.1109 3.48174 20.4284 3.92938 20.6491 4.426C20.8697 4.92263 20.9891 5.45828 21.0003 6.0016V9.00153C21.0003 9.26673 21.1056 9.52106 21.2931 9.70859C21.4807 9.89611 21.735 10.0015 22.0002 10.0015C22.2654 10.0015 22.5197 9.89611 22.7073 9.70859C22.8948 9.52106 23.0001 9.26673 23.0001 9.00153V6.0016C23.0113 5.45827 23.1306 4.92261 23.3513 4.42596C23.5719 3.92932 23.8894 3.48168 24.2852 3.10922C24.6809 2.73676 25.147 2.44697 25.6561 2.25681C26.1652 2.06665 26.7071 1.97994 27.2501 2.00174C28.1192 1.99772 28.9687 2.26036 29.684 2.75423C30.3992 3.2481 30.9458 3.94945 31.2499 4.76366C31.3318 4.98821 31.4914 5.17601 31.6998 5.29305C31.9082 5.41007 32.1516 5.44859 32.3859 5.40162C32.4259 5.39459 32.4679 5.38357 32.4999 5.38158C34.7989 5.33799 36.6995 7.16278 36.7499 9.46147C36.749 9.87654 36.6748 10.2882 36.5309 10.6775C36.4608 10.8678 36.4502 11.0749 36.5006 11.2714C36.5509 11.4679 36.6598 11.6444 36.8128 11.7775C37.3382 12.2202 37.7612 12.7717 38.0525 13.394C38.3438 14.0162 38.4964 14.6944 38.4998 15.3814C38.4942 15.7653 38.4455 16.1473 38.3548 16.5203C38.3026 16.7497 38.333 16.9902 38.4405 17.1994C38.5481 17.4086 38.7259 17.5732 38.9429 17.6643C39.8184 18.0198 40.5721 18.6213 41.113 19.3961C41.654 20.1709 41.9588 21.0858 41.9908 22.0302L37.665 23.4302C37.3627 22.7084 36.8531 22.0924 36.2008 21.66C35.5485 21.2277 34.7826 20.9985 34 21.0013C33.4477 21.0013 33.0001 21.449 33.0001 22.0013C33.0001 22.5536 33.4477 23.0012 34 23.0012C34.3603 22.9994 34.7143 23.0957 35.024 23.2797C35.3337 23.4638 35.5875 23.7288 35.758 24.0461L17.0914 30.0828C16.534 30.2643 16.0413 30.6036 15.6731 31.0596C15.3049 31.5157 15.0769 32.0688 15.0169 32.6518C14.9569 33.2349 15.0673 33.8228 15.3349 34.3443C15.6025 34.8658 16.0157 35.2984 16.5244 35.5896L19.4004 37.2306L19.8883 38.7526L18.9014 39.0726C17.3256 39.5872 16.461 41.2777 16.9664 42.8565L17.3174 43.9495C17.1297 43.9789 16.9404 43.9959 16.7505 44.0004C15.869 44.0063 15.0077 43.7373 14.2863 43.2308C13.5649 42.7243 13.0194 42.0056 12.7255 41.1745C12.6487 40.9519 12.4957 40.7635 12.2936 40.6425C12.0915 40.5216 11.8531 40.4759 11.6206 40.5135C11.2906 40.5756 10.9563 40.6113 10.6207 40.6205C7.84701 40.669 5.55711 38.4641 5.50075 35.6907C5.50316 35.3837 5.53665 35.0778 5.6007 34.7777C5.64893 34.5371 5.60701 34.2872 5.48291 34.0755C5.35881 33.8638 5.16121 33.7051 4.92771 33.6297C4.09408 33.3793 3.36147 32.8707 2.83546 32.1772C2.30944 31.4837 2.01718 30.6411 2.0008 29.7708C1.99826 29.2244 2.11124 28.6835 2.33233 28.1837C2.55343 27.684 2.87764 27.2366 3.28373 26.8709C3.38173 26.7817 3.46103 26.6739 3.51702 26.5538C3.57301 26.4337 3.60457 26.3037 3.60987 26.1713C3.61517 26.0389 3.5941 25.9068 3.54789 25.7826C3.50168 25.6584 3.43125 25.5446 3.34068 25.4479Z" fill="url(#paint0_linear_42_96)"/>
<path d="M14.0004 23.001C14.0004 23.2662 14.1057 23.5205 14.2932 23.708C14.4808 23.8956 14.7351 24.0009 15.0003 24.0009C15.2655 24.0009 15.5198 23.8956 15.7074 23.708C15.8949 23.5205 16.0002 23.2662 16.0002 23.001V20.0011H20.0001V23.001C20.0001 23.2662 20.1054 23.5205 20.293 23.708C20.4805 23.8956 20.7348 24.0009 21 24.0009C21.2652 24.0009 21.5196 23.8956 21.7071 23.708C21.8946 23.5205 22 23.2662 22 23.001V16.0012C22 13.7921 20.2091 12.0013 18.0001 12.0013C15.7911 12.0013 14.0002 13.7921 14.0002 16.0012L14.0004 23.001ZM16.0003 16.0011C16.0003 14.8965 16.8958 14.0011 18.0003 14.0011C19.1049 14.0011 20.0003 14.8965 20.0003 16.0011V18.0011H16.0003V16.0011Z" fill="url(#paint1_linear_42_96)"/>
<path fill-rule="evenodd" clip-rule="evenodd" d="M25.0001 22.0009C24.7349 22.0009 24.4806 22.1063 24.293 22.2938C24.1055 22.4813 24.0002 22.7357 24.0002 23.0009C24.0002 23.2661 24.1055 23.5204 24.293 23.7079C24.4806 23.8954 24.7349 24.0008 25.0001 24.0008H28.9999C29.2651 24.0008 29.5195 23.8954 29.707 23.7079C29.8945 23.5204 29.9999 23.2661 29.9999 23.0009C29.9999 22.7357 29.8945 22.4813 29.707 22.2938C29.5195 22.1063 29.2651 22.0009 28.9999 22.0009H28V14.0012H28.9999C29.2651 14.0012 29.5195 13.8959 29.707 13.7083C29.8945 13.5208 29.9999 13.2665 29.9999 13.0013C29.9999 12.7361 29.8945 12.4817 29.707 12.2942C29.5195 12.1067 29.2651 12.0013 28.9999 12.0013H25.0001C24.7349 12.0013 24.4806 12.1067 24.293 12.2942C24.1055 12.4817 24.0002 12.7361 24.0002 13.0013C24.0002 13.2665 24.1055 13.5208 24.293 13.7083C24.4806 13.8959 24.7349 14.0012 25.0001 14.0012H26V22.001L25.0001 22.0009ZM8.00048 29.0008C7.73528 29.0008 7.48094 29.1062 7.29342 29.2937C7.1059 29.4812 7.00055 29.7356 7.00055 30.0008C7.00055 30.266 7.1059 30.5203 7.29342 30.7078C7.48094 30.8953 7.73528 31.0007 8.00048 31.0007C9.10506 31.0007 10.0005 31.8961 10.0005 33.0007C10.0005 33.2659 10.1058 33.5202 10.2933 33.7077C10.4809 33.8953 10.7352 34.0006 11.0004 34.0006C11.2656 34.0006 11.5199 33.8953 11.7075 33.7077C11.895 33.5202 12.0003 33.2659 12.0003 33.0007C12.0005 30.7916 10.2096 29.0008 8.00048 29.0008ZM7.00055 24.0009C7.26575 24.0009 7.52008 23.8956 7.70761 23.708C7.89513 23.5205 8.00048 23.2662 8.00048 23.001C8.00048 21.8964 8.89589 21.001 10.0005 21.001C10.2657 21.001 10.52 20.8956 10.7075 20.7081C10.8951 20.5206 11.0004 20.2663 11.0004 20.0011C11.0004 19.7359 10.8951 19.4815 10.7075 19.294C10.52 19.1065 10.2657 19.0011 10.0005 19.0011C7.79142 19.0011 6.00061 20.7919 6.00061 23.001C6.00061 23.2662 6.10596 23.5205 6.29348 23.708C6.48101 23.8956 6.73535 24.0009 7.00055 24.0009ZM11.0004 13.0012C11.2656 13.0012 11.5199 12.8958 11.7075 12.7083C11.895 12.5208 12.0003 12.2664 12.0003 12.0012C12.0003 10.8966 12.8957 10.0012 14.0003 10.0012C14.2655 10.0012 14.5199 9.89588 14.7074 9.70835C14.8949 9.52083 15.0003 9.26649 15.0003 9.00129C15.0003 8.73609 14.8949 8.48176 14.7074 8.29423C14.5199 8.10671 14.2655 8.00136 14.0003 8.00136C11.7913 8.00136 10.0005 9.79217 10.0005 12.0012C10.0005 12.2664 10.1058 12.5208 10.2933 12.7083C10.4809 12.8958 10.7352 13.0012 11.0004 13.0012ZM30 10.0012C31.1046 10.0012 32 10.8966 32 12.0012C32 12.2664 32.1053 12.5208 32.2929 12.7083C32.4804 12.8958 32.7347 13.0012 32.9999 13.0012C33.2651 13.0012 33.5195 12.8958 33.707 12.7083C33.8945 12.5208 33.9999 12.2664 33.9999 12.0012C33.9999 9.79217 32.209 8.00136 30 8.00136C29.7348 8.00136 29.4805 8.10671 29.2929 8.29423C29.1054 8.48176 29.0001 8.73609 29.0001 9.00129C29 9.13261 29.0259 9.26265 29.0761 9.38397C29.1264 9.5053 29.2 9.61553 29.2929 9.70839C29.3858 9.80125 29.496 9.8749 29.6173 9.92515C29.7386 9.97539 29.8687 10.0012 30 10.0012Z" fill="url(#paint2_linear_42_96)"/>
<defs>
<linearGradient id="paint0_linear_42_96" x1="29.9999" y1="0.000236511" x2="29.9999" y2="59.9999" gradientUnits="userSpaceOnUse">
<stop stop-color="#234268"/>
<stop offset="1" stop-color="#36748D"/>
</linearGradient>
<linearGradient id="paint1_linear_42_96" x1="18.0001" y1="12.0013" x2="18.0001" y2="24.0009" gradientUnits="userSpaceOnUse">
<stop stop-color="#234268"/>
<stop offset="1" stop-color="#36748D"/>
</linearGradient>
<linearGradient id="paint2_linear_42_96" x1="20.0002" y1="8.00136" x2="20.0002" y2="34.0006" gradientUnits="userSpaceOnUse">
<stop stop-color="#234268"/>
<stop offset="1" stop-color="#36748D"/>
</linearGradient>
</defs>
</svg>
