<svg width="55" height="55" viewBox="0 0 55 55" fill="none" xmlns="http://www.w3.org/2000/svg">
<path d="M48.0039 47.0934C50.93 47.0934 52.4054 50.6477 50.3324 52.7207C48.2628 54.7938 44.7085 53.3148 44.7085 50.3887C44.7085 48.5711 46.1839 47.0934 48.0039 47.0934ZM49.1734 49.2191C48.1339 48.1797 46.3468 48.9203 46.3468 50.3887C46.3468 51.8605 48.1339 52.6012 49.1734 51.5617C49.3275 51.408 49.4497 51.2255 49.5331 51.0245C49.6165 50.8235 49.6594 50.608 49.6594 50.3904C49.6594 50.1728 49.6165 49.9574 49.5331 49.7564C49.4497 49.5554 49.3275 49.3728 49.1734 49.2191ZM51.2992 37.968C54.2253 37.968 55.7007 41.5223 53.6312 43.5953C51.5582 45.6648 48.0039 44.1895 48.0039 41.2633C48.0039 39.4434 49.4792 37.968 51.2992 37.968ZM52.4687 40.0938C51.4292 39.0543 49.6457 39.7914 49.6457 41.2633C49.6457 42.7352 51.4292 43.4723 52.4687 42.4328C53.1167 41.7883 53.1167 40.7383 52.4687 40.0938ZM25.1757 7.82266C24.7867 8.04883 24.2851 7.91875 24.0566 7.53086C23.8304 7.1418 23.9605 6.64024 24.3484 6.41172L29.8328 3.18672C30.0918 3.03672 30.3976 3.04375 30.6437 3.17735L36.1679 6.00391L40.0046 3.98711L39.6261 3.8043C39.2171 3.60508 39.0484 3.11289 39.2476 2.7086C39.4433 2.29961 39.9355 2.13086 40.3433 2.33008L42.1773 3.22422C42.5265 3.39414 42.6988 3.78203 42.6156 4.14414L42.2335 6.09766C42.1468 6.53946 41.7156 6.83125 41.2738 6.74571C41.0604 6.70334 40.8725 6.57825 40.751 6.39775C40.6296 6.21725 40.5846 5.99603 40.6257 5.78243L40.6855 5.48008L36.557 7.64922C36.3273 7.76875 36.0484 7.7793 35.8035 7.65274L30.2757 4.82618L25.1757 7.82266ZM40.1183 7.14766H42.7656C43.2203 7.14766 43.5859 7.5168 43.5859 7.96797V13.4125H44.6019C45.0566 13.4125 45.4222 13.7816 45.4222 14.2328C45.4222 14.6875 45.0566 15.0531 44.6019 15.0531H22.1195C21.6683 15.0531 21.2992 14.6875 21.2992 14.2328C21.2992 13.7816 21.6683 13.4125 22.1195 13.4125H23.1355V10.4125C23.1355 9.96133 23.5046 9.59219 23.9558 9.59219H26.6066C27.0589 9.59219 27.4269 9.96133 27.4269 10.4125V13.4125H28.5226V8.86211C28.5226 8.40743 28.8882 8.0418 29.3429 8.0418H31.9902C32.4449 8.0418 32.8105 8.40743 32.8105 8.86211V13.4125H33.9062V9.62266C33.9062 9.16797 34.2753 8.80235 34.7265 8.80235H37.3773C37.8285 8.80235 38.1976 9.16797 38.1976 9.62266V13.4125H39.2933V7.96914C39.2968 7.5168 39.666 7.14766 40.1183 7.14766ZM41.9453 8.78946H40.9386V13.4137H41.9453V8.78946ZM36.5605 10.443H35.5503V13.4125H36.5605V10.443ZM31.1722 9.68243H30.1656V13.4125H31.1722V9.68243ZM25.7875 11.234H24.7773V13.4137H25.7875V11.234ZM41.5457 30.5371C44.4718 30.5371 45.9507 34.0914 43.8777 36.1609C41.8046 38.234 38.2503 36.7586 38.2503 33.8324C38.2503 32.0125 39.7257 30.5371 41.5457 30.5371ZM42.7187 32.6594C41.6792 31.6199 39.8921 32.3605 39.8921 33.8324C39.8921 35.3043 41.6792 36.0414 42.7187 35.002C43.3632 34.3574 43.3632 33.3074 42.7187 32.6594ZM42.4925 40.443H46.5414C46.9925 40.443 47.3617 40.8121 47.3617 41.2633C47.3617 41.7145 46.9925 42.0836 46.5414 42.0836H42.4925V45.7902C42.4925 46.0023 42.4128 46.2121 42.2535 46.3715L39.0542 49.5672H43.4089C43.8601 49.5672 44.2292 49.9363 44.2292 50.3875C44.2292 50.8422 43.8601 51.2078 43.4089 51.2078H32.3078C31.8531 51.2078 31.4875 50.8422 31.4875 50.3875C31.4875 49.9352 31.8531 49.5672 32.3078 49.5672H36.7363L40.8519 45.4516V38.2797C40.8519 37.825 41.221 37.4594 41.6722 37.4594C42.1234 37.4594 42.4925 37.825 42.4925 38.2797V40.443ZM11.9921 54.3918L10.9785 54.2125C8.82925 53.7906 6.7269 53.159 4.71714 52.3152C4.56241 52.2505 4.43114 52.1401 4.34088 51.9987C4.25062 51.8574 4.20568 51.6918 4.21206 51.5242C4.19917 50.8668 4.2355 50.2117 4.32808 49.5848C4.82612 46.1395 6.91909 43.3 10.7125 43.3926V41.3992C8.40034 40.682 6.48433 39.5758 5.37456 38.0746H3.84995C2.06987 38.0746 0.61792 36.6227 0.61792 34.8426V32.5773C0.61792 30.7973 2.06987 29.3418 3.84995 29.3418H4.13589C4.02782 29.2664 3.93962 29.1659 3.87881 29.0489C3.818 28.932 3.78639 28.8021 3.78667 28.6703V25.8203C3.78656 25.6246 3.85643 25.4353 3.98365 25.2866C4.11087 25.1379 4.28706 25.0396 4.48042 25.0094C2.25854 24.9027 1.20151 22.1922 2.78237 20.6113C4.40308 18.9906 7.18394 20.1461 7.18394 22.4348C7.18394 23.8129 6.10112 24.9426 4.72886 25.0094C5.12378 25.0691 5.42612 25.4078 5.42612 25.8203V28.6703C5.42634 28.8024 5.39446 28.9325 5.33321 29.0494C5.27197 29.1664 5.1832 29.2668 5.07456 29.3418H7.5062C8.94409 28.0164 10.7312 27.0496 12.6789 26.4414V24.9531C12.6789 23.6746 13.7218 22.6281 15.0039 22.6281H20.7039C21.9859 22.6281 23.0324 23.6746 23.0324 24.9531V26.4414C24.9753 27.0496 26.7625 28.0164 28.2015 29.3418H30.6332C30.5247 29.2667 30.4363 29.1663 30.3754 29.0493C30.3145 28.9323 30.2832 28.8022 30.2839 28.6703V25.8203C30.2839 25.409 30.5828 25.0691 30.9777 25.0094C28.7558 24.9027 27.6988 22.1922 29.2796 20.6113C30.9003 18.9906 33.6812 20.1461 33.6812 22.4348C33.6812 23.8129 32.5949 24.9426 31.2261 25.0094C31.621 25.0691 31.9199 25.4078 31.9199 25.8203V28.6703C31.9199 28.9492 31.7839 29.1953 31.5707 29.3418H31.7769C33.557 29.3418 35.0089 30.7973 35.0089 32.5773V34.8426C35.0089 36.6227 33.557 38.0746 31.7769 38.0746H30.325C29.2152 39.5828 27.3027 40.6926 24.9929 41.4063V43.3996C29.3417 43.5824 31.1054 47.7051 31.0093 51.5781C31.0023 51.9098 30.7972 52.1922 30.5078 52.3152C28.498 53.159 26.3921 53.7906 24.2429 54.2125C20.2691 54.9895 15.9847 55.0492 11.9921 54.3918ZM11.2679 52.5977V50.7203C11.2679 49.6809 12.1152 48.8371 13.1511 48.8371H22.0773C23.1132 48.8371 23.9605 49.6809 23.9605 50.7203V52.5977C24.5289 52.4852 25.0902 52.3586 25.6515 52.2156V48.6707C25.6515 48.216 26.0207 47.8504 26.4718 47.8504C26.923 47.8504 27.2921 48.216 27.2921 48.6707V51.7504C27.9964 51.5277 28.6937 51.2816 29.3781 51.0098C29.3054 48.1727 28.0726 45.1105 24.8371 45.0273L23.807 45.0941C22.0363 45.3168 19.389 45.4293 17.6113 45.4293C15.5816 45.4293 13.5425 45.3227 11.4988 45.1035C11.4554 45.1035 11.4121 45.0965 11.3687 45.0871C11.0171 45.0402 10.6914 45.0203 10.389 45.0273C7.15347 45.1105 5.91831 48.1727 5.84448 51.0098C6.53188 51.2816 7.22881 51.5286 7.93394 51.7504V48.6707C7.93394 48.216 8.29956 47.8504 8.75425 47.8504C9.20542 47.8504 9.57456 48.216 9.57456 48.6707V52.2156C10.1347 52.3586 10.6996 52.4852 11.2679 52.5977ZM22.3187 52.8766V50.7203C22.3187 50.5879 22.2062 50.4777 22.0761 50.4777H13.15C13.0175 50.4777 12.9074 50.5879 12.9074 50.7203V52.8766C15.9906 53.3184 19.2332 53.3184 22.3187 52.8766ZM13.7652 27.8301C13.7324 27.843 13.6949 27.8535 13.6585 27.8605C11.6125 28.4219 9.74917 29.4086 8.33354 30.823L8.33003 30.8195C8.29019 30.8629 8.23979 30.8992 8.19058 30.932C6.81479 31.8027 5.99448 33.3309 5.98159 34.9516C5.95112 37.8613 9.39995 39.4996 12.6718 40.2203C15.8945 40.9316 19.6679 40.9445 22.8964 40.2637C26.139 39.5758 29.7261 37.9551 29.7261 34.9457C29.7261 34.1289 29.5164 33.3449 29.1378 32.6535C28.7616 31.9697 28.2217 31.3899 27.5664 30.966L27.271 30.7199C25.873 29.3617 24.0484 28.4078 22.0527 27.8594C22.0128 27.8523 21.9765 27.843 21.9425 27.8289C20.6265 27.4797 19.2414 27.3039 17.8539 27.3039C16.4664 27.3051 15.0812 27.4809 13.7652 27.8301ZM21.3929 26.0195V24.9531C21.3929 24.5781 21.0812 24.2688 20.705 24.2688H15.005C14.63 24.2688 14.3171 24.5781 14.3171 24.9531V26.0195C16.6328 25.5473 19.0808 25.5473 21.3929 26.0195ZM12.5734 31.2016C16.6222 30.4703 19.0878 30.4703 23.1367 31.2016C24.9566 31.5309 26.3792 32.8926 26.0464 34.8227C25.7875 36.3273 24.4515 37.6492 22.8542 37.3738C18.7914 36.6801 16.9175 36.6801 12.8558 37.3738C10.3375 37.8063 8.44722 34.2648 10.471 32.241C11.0089 31.7031 11.7625 31.3481 12.5734 31.2016ZM15.5957 32.4039C14.7789 32.4906 13.8953 32.6231 12.8617 32.8094C11.9546 32.9758 11.1074 33.55 11.2773 34.5473C11.3875 35.1813 11.9289 35.8727 12.5792 35.7602C16.805 35.0395 18.9074 35.0395 23.1296 35.7602C24.073 35.923 24.9835 34.3047 24.08 33.4012C23.7812 33.1023 23.3359 32.8996 22.8472 32.8094C20.2761 32.3477 18.121 32.1414 15.5957 32.4039ZM4.348 34.9387C4.36089 33.4867 4.84605 32.1016 5.72612 30.9824H3.84995C2.97573 30.9824 2.25854 31.7031 2.25854 32.5773V34.8426C2.25854 35.7168 2.97573 36.434 3.84995 36.434H4.55073C4.4148 35.9652 4.34097 35.4637 4.348 34.9387ZM29.9863 30.9824C31.1687 32.4742 31.7007 34.593 31.1558 36.434C31.8332 36.434 32.3687 36.5043 32.9031 35.9652C33.1925 35.6758 33.3718 35.2809 33.3718 34.8426V32.5773C33.3718 31.7031 32.6546 30.9824 31.7804 30.9824H29.9863ZM23.3558 41.8387C19.9046 42.5898 15.8019 42.5863 12.3542 41.8316V43.5461C15.9988 43.8883 19.7183 43.8719 23.3558 43.4957V41.8387ZM23.1003 0.467972H43.6257C45.5886 0.467972 47.1765 2.11211 47.1765 4.08203V13.832C47.1765 15.802 45.5886 17.4461 43.6257 17.4461H30.8335L25.914 22.8145C25.3691 23.4063 24.3894 22.934 24.5019 22.143L25.2062 17.4461H23.1003C21.1339 17.4461 19.546 15.802 19.546 13.832V4.08203C19.546 2.11211 21.1339 0.467972 23.1003 0.467972ZM43.6257 2.1086H23.1003C22.0304 2.1086 21.1867 3.01211 21.1867 4.08203V13.832C21.1867 14.902 22.0304 15.8055 23.1003 15.8055H26.1566C26.6511 15.8055 27.0402 16.2508 26.9675 16.7453L26.5187 19.7383L29.8234 16.1313C29.9734 15.9356 30.2125 15.8055 30.4773 15.8055H43.6257C44.6957 15.8055 45.5359 14.902 45.5359 13.832V4.08203C45.5359 3.01211 44.6957 2.1086 43.6257 2.1086ZM31.7664 21.7703C31.1781 21.182 30.1656 21.6004 30.1656 22.4348C30.1656 23.2691 31.1793 23.6875 31.7664 23.0957C32.132 22.7313 32.132 22.1359 31.7664 21.7703ZM5.26792 21.7703C4.67964 21.182 3.66714 21.6004 3.66714 22.4348C3.66714 23.2691 4.68081 23.6875 5.26792 23.0957C5.63706 22.7313 5.63706 22.1359 5.26792 21.7703Z" fill="url(#paint0_linear_42_91)"/>
<defs>
<linearGradient id="paint0_linear_42_91" x1="27.6078" y1="0.467972" x2="27.6078" y2="54.8438" gradientUnits="userSpaceOnUse">
<stop stop-color="#234268"/>
<stop offset="1" stop-color="#36748D"/>
</linearGradient>
</defs>
</svg>
