<svg width="58" height="58" viewBox="0 0 58 58" fill="none" xmlns="http://www.w3.org/2000/svg">
<path d="M8.3758 0.877991C6.28521 0.877991 4.62691 2.56464 4.62691 4.62688V20.239C3.27688 20.6819 2.35915 21.5359 1.78158 22.489C1.17739 23.5111 0.86374 24.6787 0.874473 25.8659V33.8456C0.874473 35.5039 1.62921 37.5449 2.33789 39.5291C2.69223 40.5213 3.03593 41.478 3.29106 42.2823C3.54264 43.0832 3.68437 43.6855 3.68437 43.9973V47.5301C3.39041 47.7939 3.15546 48.1168 2.99487 48.4777C2.83428 48.8385 2.75168 49.2292 2.75246 49.6242V54.3157C2.75246 55.8818 4.01745 57.1255 5.56236 57.1255H18.6906C19.0598 57.127 19.4257 57.0552 19.767 56.9145C20.1084 56.7737 20.4184 56.5667 20.6794 56.3055C20.9403 56.0442 21.1469 55.7339 21.2872 55.3924C21.4275 55.0508 21.4988 54.6849 21.4969 54.3157V49.6242C21.4985 49.0902 21.3476 48.5668 21.062 48.1155C20.7764 47.6642 20.368 47.3038 19.8847 47.0765C20.0406 46.4352 20.3772 45.5777 20.7457 44.543C21.1745 43.3383 21.6245 41.8997 21.7591 40.2555H33.5869L36.0921 45.28C35.6474 45.5206 35.2764 45.8775 35.0187 46.3124C34.7609 46.7474 34.6262 47.2442 34.6287 47.7498V52.4412C34.6287 53.9826 35.8689 55.2511 37.435 55.2511H50.5668C50.9359 55.2516 51.3015 55.1792 51.6426 55.0382C51.9838 54.8971 52.2937 54.6902 52.5547 54.4291C52.8157 54.1681 53.0227 53.8582 53.1637 53.5171C53.3048 53.1759 53.3772 52.8103 53.3767 52.4412V47.7498C53.3769 47.211 53.2224 46.6836 52.9316 46.23C52.6407 45.7765 52.2258 45.4161 51.7361 45.1915L53.1464 40.2555H53.3767C55.4389 40.2555 57.1256 38.5866 57.1256 36.4996V4.63043C57.1256 2.56818 55.4779 0.877991 53.3767 0.877991H8.3758ZM8.3758 2.75244H53.3767C54.4078 2.75244 55.2511 3.57096 55.2511 4.62688V36.5031C55.2511 37.559 54.4007 38.3811 53.3731 38.3811V7.43324C53.3736 7.0644 53.3014 6.6991 53.1605 6.3582C53.0197 6.01731 52.8131 5.70752 52.5524 5.44655C52.2918 5.18559 51.9823 4.97855 51.6416 4.8373C51.3008 4.69605 50.9356 4.62334 50.5668 4.62334H11.1892C10.8196 4.62147 10.4531 4.69284 10.1112 4.83334C9.76924 4.97385 9.4585 5.18069 9.19692 5.44194C8.93534 5.70319 8.7281 6.01367 8.58716 6.35545C8.44623 6.69723 8.37439 7.06354 8.3758 7.43324V23.3713C7.69193 23.3713 7.05767 23.5485 6.50136 23.8745V4.62688C6.50136 3.57096 7.34114 2.74889 8.37935 2.74889L8.3758 2.75244ZM50.5668 6.50133C51.07 6.50133 51.4987 6.90173 51.4987 7.43678V29.1612C51.1996 29.0545 50.8843 29.0006 50.5668 29.0018C50.2097 28.9928 49.8547 29.0592 49.525 29.1967C49.4148 28.7825 49.211 28.3991 48.9292 28.0762C48.6474 27.7532 48.2953 27.4992 47.8999 27.3339C47.5044 27.1685 47.0763 27.0962 46.6485 27.1224C46.2207 27.1487 45.8047 27.2728 45.4324 27.4852C45.1817 27.0842 44.8318 26.7545 44.4166 26.528C44.0014 26.3014 43.5349 26.1857 43.0619 26.1919C42.7421 26.1872 42.4241 26.24 42.1229 26.3478V23.3713H48.7065C49.9538 23.3713 49.9538 21.4969 48.7065 21.4969H42.1229V18.6905C42.1253 18.3695 42.0713 18.0504 41.9635 17.748H44.1604C44.3806 18.373 44.8146 18.9 45.3858 19.2359C45.9569 19.5719 46.6284 19.6952 47.2817 19.5841C47.9349 19.473 48.5279 19.1346 48.9558 18.6287C49.3838 18.1228 49.6191 17.4819 49.6204 16.8193C49.6216 16.1567 49.3887 15.5149 48.9626 15.0074C48.5366 14.4999 47.9449 14.1593 47.2921 14.0457C46.6393 13.9321 45.9673 14.0529 45.3949 14.3867C44.8225 14.7205 44.3865 15.2459 44.1639 15.87H28.0593C26.8084 15.87 26.8084 17.748 28.0593 17.748H36.659C36.5523 18.0506 36.4996 18.3697 36.5031 18.6905V21.4969H34.4621C34.2685 20.9485 33.909 20.4741 33.4333 20.1394C32.9577 19.8048 32.3897 19.6266 31.8082 19.6295C31.2276 19.627 30.6606 19.8055 30.1862 20.1401C29.7118 20.4748 29.3535 20.9491 29.1613 21.4969H28.0734C26.8226 21.4969 26.8226 23.3749 28.0734 23.3749H29.1577C29.3482 23.9248 29.7064 24.4011 30.1819 24.7368C30.6574 25.0724 31.2262 25.2504 31.8082 25.2458C32.391 25.2503 32.9606 25.0724 33.4372 24.7368C33.9138 24.4013 34.2734 23.9251 34.4657 23.3749H36.5031V31.1349L35.3976 29.2073C35.1819 28.8339 34.8947 28.5067 34.5523 28.2444C34.2099 27.9822 33.8192 27.7901 33.4025 27.6792C32.9857 27.5683 32.5512 27.5407 32.1238 27.598C31.6964 27.6553 31.2845 27.7964 30.9117 28.0132C29.303 28.938 28.9132 30.8904 29.6857 32.4424L30.777 34.6287H14.1267C13.4428 33.757 12.7731 33.0731 12.1282 32.251V27.1238C12.128 26.4654 11.9547 25.8187 11.6257 25.2484C11.2967 24.6781 10.8236 24.2043 10.2538 23.8745V7.43324C10.2524 7.31016 10.2756 7.18804 10.3221 7.0741C10.3687 6.96015 10.4376 6.85669 10.5248 6.76982C10.612 6.68295 10.7157 6.61444 10.8298 6.56832C10.944 6.52221 11.0662 6.49943 11.1892 6.50133H50.5668ZM31.8117 8.37578C31.2297 8.3772 30.6624 8.55838 30.1873 8.89454C29.7123 9.2307 29.3527 9.70542 29.1577 10.2538H28.0628C26.812 10.2538 26.812 12.1318 28.0628 12.1318H29.1613C29.3537 12.6817 29.7123 13.1582 30.1875 13.4954C30.6626 13.8325 31.2308 14.0136 31.8135 14.0136C32.3961 14.0136 32.9643 13.8325 33.4395 13.4954C33.9146 13.1582 34.2733 12.6817 34.4657 12.1318H48.7065C49.9538 12.1318 49.9538 10.2538 48.7065 10.2538H34.4621C34.2692 9.70484 33.9105 9.22936 33.4358 8.89297C32.961 8.55658 32.3936 8.37586 31.8117 8.37578ZM18.0882 9.53092L12.4613 14.2188C11.5011 15.0196 12.7058 16.4618 13.6661 15.6574L13.9956 15.381V18.687C12.7519 18.6905 12.7519 20.565 13.9991 20.565H23.3785C24.6293 20.565 24.6293 18.687 23.3785 18.687V15.3775L23.7151 15.6574C24.6718 16.4618 25.8801 15.0196 24.9198 14.2188L19.2894 9.53092C19.1205 9.38954 18.9073 9.31181 18.687 9.31123C18.4667 9.31151 18.257 9.38928 18.0882 9.53092ZM31.8117 10.2502C32.3219 10.2502 32.7542 10.6471 32.7542 11.1857C32.7542 11.7243 32.329 12.1247 31.8117 12.1247C31.6886 12.1251 31.5666 12.1011 31.4529 12.054C31.3391 12.0069 31.2359 11.9377 31.1492 11.8503C31.0624 11.7629 30.994 11.6591 30.9477 11.545C30.9015 11.4309 30.8784 11.3088 30.8798 11.1857C30.8798 10.6471 31.305 10.2502 31.8117 10.2502ZM18.687 11.4727L21.4969 13.8149V18.687H19.6225V16.8126C19.5977 15.5901 17.7764 15.5901 17.748 16.8126V18.6905H15.87V13.8149L18.687 11.4727ZM46.8108 15.8736C47.3211 15.8736 47.7533 16.2775 47.7533 16.8126C47.7533 17.0616 47.6544 17.3004 47.4783 17.4765C47.3022 17.6526 47.0634 17.7516 46.8144 17.7516C46.5653 17.7516 46.3265 17.6526 46.1504 17.4765C45.9743 17.3004 45.8754 17.0616 45.8754 16.8126C45.8754 16.2775 46.3006 15.8736 46.8108 15.8736ZM39.313 17.7516C39.8162 17.7516 40.2556 18.1555 40.2556 18.6905V32.7542C40.2556 33.9802 42.1229 34.0298 42.1229 32.7542V28.9982C42.1229 28.4667 42.5729 28.0592 43.0619 28.0592C43.5509 28.0592 43.9974 28.4667 43.9974 29.0018V32.7542C43.9974 34.0015 45.8754 34.0015 45.8754 32.7542V29.9337C45.8754 29.4022 46.3077 29.0018 46.8144 29.0018C47.3211 29.0018 47.7498 29.3986 47.7498 29.9337V32.7542C47.7498 34.0015 49.6243 34.0015 49.6243 32.7542V31.8117C49.6243 31.2766 50.0565 30.8762 50.5668 30.8762C51.0735 30.8762 51.4987 31.2766 51.4987 31.8117V39.1819L49.8546 44.9399H38.0197L31.3581 31.6026C30.9755 30.8302 31.2058 30.001 31.8471 29.629C32.0072 29.5361 32.1841 29.4758 32.3675 29.4517C32.551 29.4277 32.7375 29.4402 32.9161 29.4886C33.0947 29.5371 33.2619 29.6205 33.4081 29.7339C33.5542 29.8474 33.6765 29.9888 33.7676 30.1498L36.6271 35.0893C37.1055 35.922 38.3776 35.5854 38.3811 34.6287V18.6905C38.3811 18.1555 38.8099 17.748 39.313 17.748V17.7516ZM31.8117 21.5004C32.3219 21.5004 32.7542 21.8973 32.7542 22.4359C32.7515 22.6847 32.6512 22.9224 32.4749 23.098C32.2986 23.2736 32.0605 23.373 31.8117 23.3749C31.5642 23.3721 31.3277 23.2721 31.1533 23.0964C30.979 22.9207 30.8807 22.6834 30.8798 22.4359C30.8798 21.8973 31.305 21.5004 31.8117 21.5004ZM4.62691 32.7542C4.65526 33.9767 6.47655 33.9767 6.5049 32.7542V27.1238C6.5049 26.8776 6.55338 26.6339 6.64758 26.4065C6.74178 26.179 6.87985 25.9724 7.05391 25.7983C7.22797 25.6243 7.43461 25.4862 7.66203 25.392C7.88944 25.2978 8.13319 25.2493 8.37935 25.2493C8.6255 25.2493 8.86925 25.2978 9.09667 25.392C9.32408 25.4862 9.53072 25.6243 9.70478 25.7983C9.87884 25.9724 10.0169 26.179 10.1111 26.4065C10.2053 26.6339 10.2538 26.8776 10.2538 27.1238V32.4743C10.2538 32.8003 10.3955 33.0271 10.438 33.0979C10.9341 33.8562 11.9475 34.9476 12.5038 35.6031C13.255 36.4889 13.9991 37.5874 13.9991 37.9311V41.191C13.9708 42.4666 15.9055 42.4666 15.8771 41.191V40.2555H19.8811C19.7325 41.5083 19.429 42.7378 18.9776 43.9158C18.6091 44.9576 18.1874 45.971 18.0244 46.8143H5.56236V44.0009C5.56236 43.3276 5.34976 42.5835 5.07692 41.719C4.80053 40.8544 4.44974 39.8835 4.10249 38.902C3.4009 36.9389 2.75246 34.8483 2.75246 33.8491V25.8659C2.75246 25.1253 2.92963 24.2005 3.37964 23.4564C3.68338 22.9576 4.1137 22.5481 4.62691 22.2694V32.7542ZM15.4519 36.5031H31.7125L32.6479 38.3811H15.8771V37.8779C15.8435 37.393 15.698 36.9224 15.4519 36.5031ZM37.435 46.8143H50.5668C51.07 46.8143 51.4987 47.2147 51.4987 47.7498V52.4412C51.4996 52.564 51.4762 52.6858 51.4297 52.7995C51.3833 52.9132 51.3147 53.0165 51.2281 53.1035C51.1414 53.1905 51.0383 53.2595 50.9248 53.3063C50.8113 53.3532 50.6896 53.3771 50.5668 53.3767H37.435C37.3121 53.3776 37.1902 53.354 37.0765 53.3073C36.9627 53.2606 36.8595 53.1917 36.7727 53.1046C36.6859 53.0175 36.6174 52.9139 36.5711 52.8C36.5248 52.6861 36.5017 52.5641 36.5031 52.4412V47.7498C36.5031 47.2147 36.9283 46.8143 37.435 46.8143ZM5.56236 48.6923H18.6906C19.2008 48.6923 19.6225 49.0892 19.6225 49.6242V54.3157C19.6229 54.4383 19.5992 54.5599 19.5526 54.6734C19.5059 54.7868 19.4374 54.89 19.3508 54.9769C19.2642 55.0638 19.1613 55.1328 19.048 55.1798C18.9347 55.2269 18.8133 55.2511 18.6906 55.2511H5.56236C5.43938 55.2516 5.31753 55.2277 5.20383 55.1809C5.09012 55.134 4.98681 55.0651 4.89985 54.9782C4.81289 54.8912 4.74401 54.7879 4.69716 54.6742C4.65032 54.5605 4.62644 54.4386 4.62691 54.3157V49.6242C4.625 49.5009 4.64789 49.3783 4.69422 49.264C4.74055 49.1496 4.80939 49.0457 4.89663 48.9585C4.98388 48.8713 5.08777 48.8024 5.20213 48.7561C5.31649 48.7098 5.43899 48.6869 5.56236 48.6888V48.6923ZM39.313 49.6242C39.1897 49.6242 39.0676 49.6485 38.9537 49.6957C38.8398 49.7429 38.7363 49.8121 38.6491 49.8993C38.5619 49.9864 38.4927 50.09 38.4455 50.2039C38.3983 50.3178 38.374 50.4399 38.374 50.5632C38.374 50.6865 38.3983 50.8086 38.4455 50.9226C38.4927 51.0365 38.5619 51.14 38.6491 51.2272C38.7363 51.3144 38.8398 51.3835 38.9537 51.4307C39.0676 51.4779 39.1897 51.5022 39.313 51.5022C39.5621 51.5022 39.8009 51.4033 39.977 51.2272C40.1531 51.0511 40.252 50.8123 40.252 50.5632C40.252 50.3142 40.1531 50.0753 39.977 49.8993C39.8009 49.7232 39.5621 49.6242 39.313 49.6242ZM7.43681 51.5022C7.30888 51.4943 7.1807 51.5127 7.06016 51.5563C6.93961 51.5998 6.82926 51.6676 6.73589 51.7554C6.64252 51.8432 6.56812 51.9492 6.51726 52.0668C6.46639 52.1845 6.44016 52.3113 6.44016 52.4394C6.44016 52.5676 6.46639 52.6944 6.51726 52.8121C6.56812 52.9297 6.64252 53.0357 6.73589 53.1235C6.82926 53.2113 6.93961 53.279 7.06016 53.3226C7.1807 53.3661 7.30888 53.3845 7.43681 53.3767C7.68584 53.3767 7.92468 53.2777 8.10078 53.1016C8.27687 52.9255 8.3758 52.6867 8.3758 52.4377C8.3758 52.1886 8.27687 51.9498 8.10078 51.7737C7.92468 51.5976 7.68584 51.4987 7.43681 51.4987V51.5022Z" fill="url(#paint0_linear_42_111)"/>
<defs>
<linearGradient id="paint0_linear_42_111" x1="28.9999" y1="0.877991" x2="28.9999" y2="57.1256" gradientUnits="userSpaceOnUse">
<stop stop-color="#234268"/>
<stop offset="1" stop-color="#36748D"/>
</linearGradient>
</defs>
</svg>
